%TF.GenerationSoftware,KiCad,Pcbnew,9.0.3*%
%TF.CreationDate,2025-08-05T15:38:48-04:00*%
%TF.ProjectId,weather-featherwing,77656174-6865-4722-9d66-656174686572,1.4.0*%
%TF.SameCoordinates,Original*%
%TF.FileFunction,Paste,Top*%
%TF.FilePolarity,Positive*%
%FSLAX46Y46*%
G04 Gerber Fmt 4.6, Leading zero omitted, Abs format (unit mm)*
G04 Created by KiCad (PCBNEW 9.0.3) date 2025-08-05 15:38:48*
%MOMM*%
%LPD*%
G01*
G04 APERTURE LIST*
G04 Aperture macros list*
%AMRoundRect*
0 Rectangle with rounded corners*
0 $1 Rounding radius*
0 $2 $3 $4 $5 $6 $7 $8 $9 X,Y pos of 4 corners*
0 Add a 4 corners polygon primitive as box body*
4,1,4,$2,$3,$4,$5,$6,$7,$8,$9,$2,$3,0*
0 Add four circle primitives for the rounded corners*
1,1,$1+$1,$2,$3*
1,1,$1+$1,$4,$5*
1,1,$1+$1,$6,$7*
1,1,$1+$1,$8,$9*
0 Add four rect primitives between the rounded corners*
20,1,$1+$1,$2,$3,$4,$5,0*
20,1,$1+$1,$4,$5,$6,$7,0*
20,1,$1+$1,$6,$7,$8,$9,0*
20,1,$1+$1,$8,$9,$2,$3,0*%
%AMFreePoly0*
4,1,18,-0.500000,0.750000,-0.496194,0.769134,-0.485355,0.785355,-0.469134,0.796194,-0.450000,0.800000,0.450000,0.800000,0.469134,0.796194,0.485355,0.785355,0.496194,0.769134,0.500000,0.750000,0.500000,-0.750000,0.496194,-0.769134,0.485355,-0.785355,0.469134,-0.796194,0.450000,-0.800000,0.000000,-0.800000,-0.500000,-0.300000,-0.500000,0.750000,-0.500000,0.750000,$1*%
%AMFreePoly1*
4,1,18,-0.500000,0.300000,0.000000,0.800000,0.450000,0.800000,0.469134,0.796194,0.485355,0.785355,0.496194,0.769134,0.500000,0.750000,0.500000,-0.750000,0.496194,-0.769134,0.485355,-0.785355,0.469134,-0.796194,0.450000,-0.800000,-0.450000,-0.800000,-0.469134,-0.796194,-0.485355,-0.785355,-0.496194,-0.769134,-0.500000,-0.750000,-0.500000,0.300000,-0.500000,0.300000,$1*%
%AMFreePoly2*
4,1,18,-0.500000,0.750000,-0.496194,0.769134,-0.485355,0.785355,-0.469134,0.796194,-0.450000,0.800000,0.450000,0.800000,0.469134,0.796194,0.485355,0.785355,0.496194,0.769134,0.500000,0.750000,0.500000,-0.300000,0.000000,-0.800000,-0.450000,-0.800000,-0.469134,-0.796194,-0.485355,-0.785355,-0.496194,-0.769134,-0.500000,-0.750000,-0.500000,0.750000,-0.500000,0.750000,$1*%
%AMFreePoly3*
4,1,18,-0.500000,0.750000,-0.496194,0.769134,-0.485355,0.785355,-0.469134,0.796194,-0.450000,0.800000,0.000000,0.800000,0.500000,0.300000,0.500000,-0.750000,0.496194,-0.769134,0.485355,-0.785355,0.469134,-0.796194,0.450000,-0.800000,-0.450000,-0.800000,-0.469134,-0.796194,-0.485355,-0.785355,-0.496194,-0.769134,-0.500000,-0.750000,-0.500000,0.750000,-0.500000,0.750000,$1*%
G04 Aperture macros list end*
%ADD10RoundRect,0.050000X0.950000X-0.350000X0.950000X0.350000X-0.950000X0.350000X-0.950000X-0.350000X0*%
%ADD11RoundRect,0.050000X0.650000X-0.850000X0.650000X0.850000X-0.650000X0.850000X-0.650000X-0.850000X0*%
%ADD12RoundRect,0.050000X0.900000X-0.650000X0.900000X0.650000X-0.900000X0.650000X-0.900000X-0.650000X0*%
%ADD13RoundRect,0.050000X0.225000X-0.225000X0.225000X0.225000X-0.225000X0.225000X-0.225000X-0.225000X0*%
%ADD14RoundRect,0.187500X-0.187500X-0.312500X0.187500X-0.312500X0.187500X0.312500X-0.187500X0.312500X0*%
%ADD15RoundRect,0.200000X-0.200000X-0.250000X0.200000X-0.250000X0.200000X0.250000X-0.200000X0.250000X0*%
%ADD16RoundRect,0.200000X0.200000X0.250000X-0.200000X0.250000X-0.200000X-0.250000X0.200000X-0.250000X0*%
%ADD17FreePoly0,180.000000*%
%ADD18FreePoly1,180.000000*%
%ADD19RoundRect,0.050000X0.450000X0.750000X-0.450000X0.750000X-0.450000X-0.750000X0.450000X-0.750000X0*%
%ADD20FreePoly2,180.000000*%
%ADD21FreePoly3,180.000000*%
%ADD22RoundRect,0.150000X-0.625000X0.150000X-0.625000X-0.150000X0.625000X-0.150000X0.625000X0.150000X0*%
%ADD23RoundRect,0.250000X-0.650000X0.350000X-0.650000X-0.350000X0.650000X-0.350000X0.650000X0.350000X0*%
%ADD24RoundRect,0.100000X0.100000X-0.675000X0.100000X0.675000X-0.100000X0.675000X-0.100000X-0.675000X0*%
%ADD25RoundRect,0.035000X0.140000X-0.215000X0.140000X0.215000X-0.140000X0.215000X-0.140000X-0.215000X0*%
%ADD26RoundRect,0.200000X-0.250000X0.200000X-0.250000X-0.200000X0.250000X-0.200000X0.250000X0.200000X0*%
%ADD27RoundRect,0.187500X0.312500X-0.187500X0.312500X0.187500X-0.312500X0.187500X-0.312500X-0.187500X0*%
G04 APERTURE END LIST*
D10*
%TO.C,J3*%
X155700000Y-104765000D03*
X155300000Y-105865000D03*
X155700000Y-106965000D03*
X155900000Y-108065000D03*
X155700000Y-109165000D03*
X155900000Y-110265000D03*
X155700000Y-111365000D03*
X155700000Y-112465000D03*
D11*
X145150000Y-111655000D03*
X145150000Y-105955000D03*
D12*
X158300000Y-113255000D03*
X159300000Y-100105000D03*
%TD*%
D13*
%TO.C,D1*%
X140475000Y-101055000D03*
X140475000Y-100105000D03*
X139525000Y-100105000D03*
X139525000Y-101055000D03*
%TD*%
D14*
%TO.C,R3*%
X142000000Y-111000000D03*
X143500000Y-111000000D03*
%TD*%
D15*
%TO.C,C5*%
X136460000Y-103632000D03*
X137860000Y-103632000D03*
%TD*%
D16*
%TO.C,C3*%
X130240000Y-112014000D03*
X128840000Y-112014000D03*
%TD*%
D14*
%TO.C,R6*%
X142000000Y-104900000D03*
X143500000Y-104900000D03*
%TD*%
D15*
%TO.C,C1*%
X142050000Y-115575000D03*
X143450000Y-115575000D03*
%TD*%
D14*
%TO.C,R5*%
X142000000Y-107950000D03*
X143500000Y-107950000D03*
%TD*%
D17*
%TO.C,SW1*%
X126950000Y-100275000D03*
D18*
X126950000Y-97875000D03*
D19*
X124450000Y-100275000D03*
X124450000Y-97875000D03*
D20*
X121950000Y-100275000D03*
D21*
X121950000Y-97875000D03*
%TD*%
D22*
%TO.C,J4*%
X119730400Y-106450000D03*
X119730400Y-107450000D03*
X119730400Y-108450000D03*
X119730400Y-109450000D03*
D23*
X115855400Y-105150000D03*
X115855400Y-110750000D03*
%TD*%
D14*
%TO.C,R1*%
X142000000Y-106425000D03*
X143500000Y-106425000D03*
%TD*%
D24*
%TO.C,U2*%
X136185000Y-111358000D03*
X136835000Y-111358000D03*
X137485000Y-111358000D03*
X138135000Y-111358000D03*
X138135000Y-105558000D03*
X137485000Y-105558000D03*
X136835000Y-105558000D03*
X136185000Y-105558000D03*
%TD*%
D14*
%TO.C,R11*%
X136156000Y-100325000D03*
X137656000Y-100325000D03*
%TD*%
D15*
%TO.C,C2*%
X142050000Y-114050000D03*
X143450000Y-114050000D03*
%TD*%
D14*
%TO.C,R7*%
X142000000Y-103375000D03*
X143500000Y-103375000D03*
%TD*%
%TO.C,R2*%
X142000000Y-112525000D03*
X143500000Y-112525000D03*
%TD*%
D25*
%TO.C,U1*%
X128565000Y-107687000D03*
X129215000Y-107687000D03*
X129865000Y-107687000D03*
X130515000Y-107687000D03*
X130515000Y-109737000D03*
X129865000Y-109737000D03*
X129215000Y-109737000D03*
X128565000Y-109737000D03*
%TD*%
D14*
%TO.C,R4*%
X142000000Y-109475000D03*
X143500000Y-109475000D03*
%TD*%
D26*
%TO.C,C4*%
X127254000Y-112330000D03*
X127254000Y-113730000D03*
%TD*%
D14*
%TO.C,R8*%
X142000000Y-101850000D03*
X143500000Y-101850000D03*
%TD*%
D27*
%TO.C,R10*%
X131826000Y-113780000D03*
X131826000Y-112280000D03*
%TD*%
D14*
%TO.C,R9*%
X142000000Y-100325000D03*
X143500000Y-100325000D03*
%TD*%
M02*
