%TF.GenerationSoftware,KiCad,Pcbnew,9.0.3*%
%TF.CreationDate,2025-08-05T15:09:14-04:00*%
%TF.ProjectId,weather-featherwing,77656174-6865-4722-9d66-656174686572,1.4.0*%
%TF.SameCoordinates,Original*%
%TF.FileFunction,AssemblyDrawing,Top*%
%FSLAX46Y46*%
G04 Gerber Fmt 4.6, Leading zero omitted, Abs format (unit mm)*
G04 Created by KiCad (PCBNEW 9.0.3) date 2025-08-05 15:09:14*
%MOMM*%
%LPD*%
G01*
G04 APERTURE LIST*
%ADD10C,0.150000*%
%ADD11C,0.060000*%
%ADD12C,0.050000*%
%ADD13C,0.120000*%
%ADD14C,0.100000*%
G04 APERTURE END LIST*
D10*
X158655047Y-104293009D02*
X158321714Y-104293009D01*
X158321714Y-104816819D02*
X158321714Y-103816819D01*
X158321714Y-103816819D02*
X158797904Y-103816819D01*
X159178857Y-104816819D02*
X159178857Y-104150152D01*
X159178857Y-103816819D02*
X159131238Y-103864438D01*
X159131238Y-103864438D02*
X159178857Y-103912057D01*
X159178857Y-103912057D02*
X159226476Y-103864438D01*
X159226476Y-103864438D02*
X159178857Y-103816819D01*
X159178857Y-103816819D02*
X159178857Y-103912057D01*
X160083618Y-104816819D02*
X160083618Y-103816819D01*
X160083618Y-104769200D02*
X159988380Y-104816819D01*
X159988380Y-104816819D02*
X159797904Y-104816819D01*
X159797904Y-104816819D02*
X159702666Y-104769200D01*
X159702666Y-104769200D02*
X159655047Y-104721580D01*
X159655047Y-104721580D02*
X159607428Y-104626342D01*
X159607428Y-104626342D02*
X159607428Y-104340628D01*
X159607428Y-104340628D02*
X159655047Y-104245390D01*
X159655047Y-104245390D02*
X159702666Y-104197771D01*
X159702666Y-104197771D02*
X159797904Y-104150152D01*
X159797904Y-104150152D02*
X159988380Y-104150152D01*
X159988380Y-104150152D02*
X160083618Y-104197771D01*
X160988380Y-104150152D02*
X160988380Y-104816819D01*
X160559809Y-104150152D02*
X160559809Y-104673961D01*
X160559809Y-104673961D02*
X160607428Y-104769200D01*
X160607428Y-104769200D02*
X160702666Y-104816819D01*
X160702666Y-104816819D02*
X160845523Y-104816819D01*
X160845523Y-104816819D02*
X160940761Y-104769200D01*
X160940761Y-104769200D02*
X160988380Y-104721580D01*
X161893142Y-104769200D02*
X161797904Y-104816819D01*
X161797904Y-104816819D02*
X161607428Y-104816819D01*
X161607428Y-104816819D02*
X161512190Y-104769200D01*
X161512190Y-104769200D02*
X161464571Y-104721580D01*
X161464571Y-104721580D02*
X161416952Y-104626342D01*
X161416952Y-104626342D02*
X161416952Y-104340628D01*
X161416952Y-104340628D02*
X161464571Y-104245390D01*
X161464571Y-104245390D02*
X161512190Y-104197771D01*
X161512190Y-104197771D02*
X161607428Y-104150152D01*
X161607428Y-104150152D02*
X161797904Y-104150152D01*
X161797904Y-104150152D02*
X161893142Y-104197771D01*
X162321714Y-104816819D02*
X162321714Y-104150152D01*
X162321714Y-103816819D02*
X162274095Y-103864438D01*
X162274095Y-103864438D02*
X162321714Y-103912057D01*
X162321714Y-103912057D02*
X162369333Y-103864438D01*
X162369333Y-103864438D02*
X162321714Y-103816819D01*
X162321714Y-103816819D02*
X162321714Y-103912057D01*
X163226475Y-104816819D02*
X163226475Y-104293009D01*
X163226475Y-104293009D02*
X163178856Y-104197771D01*
X163178856Y-104197771D02*
X163083618Y-104150152D01*
X163083618Y-104150152D02*
X162893142Y-104150152D01*
X162893142Y-104150152D02*
X162797904Y-104197771D01*
X163226475Y-104769200D02*
X163131237Y-104816819D01*
X163131237Y-104816819D02*
X162893142Y-104816819D01*
X162893142Y-104816819D02*
X162797904Y-104769200D01*
X162797904Y-104769200D02*
X162750285Y-104673961D01*
X162750285Y-104673961D02*
X162750285Y-104578723D01*
X162750285Y-104578723D02*
X162797904Y-104483485D01*
X162797904Y-104483485D02*
X162893142Y-104435866D01*
X162893142Y-104435866D02*
X163131237Y-104435866D01*
X163131237Y-104435866D02*
X163226475Y-104388247D01*
X163845523Y-104816819D02*
X163750285Y-104769200D01*
X163750285Y-104769200D02*
X163702666Y-104673961D01*
X163702666Y-104673961D02*
X163702666Y-103816819D01*
D11*
X160607429Y-102334403D02*
X160474096Y-102334403D01*
X160474096Y-102543927D02*
X160474096Y-102143927D01*
X160474096Y-102143927D02*
X160664572Y-102143927D01*
X160816953Y-102543927D02*
X160816953Y-102143927D01*
X161007429Y-102543927D02*
X161007429Y-102143927D01*
X161007429Y-102143927D02*
X161102667Y-102143927D01*
X161102667Y-102143927D02*
X161159810Y-102162975D01*
X161159810Y-102162975D02*
X161197905Y-102201070D01*
X161197905Y-102201070D02*
X161216952Y-102239165D01*
X161216952Y-102239165D02*
X161236000Y-102315356D01*
X161236000Y-102315356D02*
X161236000Y-102372499D01*
X161236000Y-102372499D02*
X161216952Y-102448689D01*
X161216952Y-102448689D02*
X161197905Y-102486784D01*
X161197905Y-102486784D02*
X161159810Y-102524880D01*
X161159810Y-102524880D02*
X161102667Y-102543927D01*
X161102667Y-102543927D02*
X161007429Y-102543927D01*
X161616952Y-102543927D02*
X161388381Y-102543927D01*
X161502667Y-102543927D02*
X161502667Y-102143927D01*
X161502667Y-102143927D02*
X161464571Y-102201070D01*
X161464571Y-102201070D02*
X161426476Y-102239165D01*
X161426476Y-102239165D02*
X161388381Y-102258213D01*
X160384096Y-102343927D02*
X161704668Y-102343927D01*
D10*
X115983047Y-104293009D02*
X115649714Y-104293009D01*
X115649714Y-104816819D02*
X115649714Y-103816819D01*
X115649714Y-103816819D02*
X116125904Y-103816819D01*
X116506857Y-104816819D02*
X116506857Y-104150152D01*
X116506857Y-103816819D02*
X116459238Y-103864438D01*
X116459238Y-103864438D02*
X116506857Y-103912057D01*
X116506857Y-103912057D02*
X116554476Y-103864438D01*
X116554476Y-103864438D02*
X116506857Y-103816819D01*
X116506857Y-103816819D02*
X116506857Y-103912057D01*
X117411618Y-104816819D02*
X117411618Y-103816819D01*
X117411618Y-104769200D02*
X117316380Y-104816819D01*
X117316380Y-104816819D02*
X117125904Y-104816819D01*
X117125904Y-104816819D02*
X117030666Y-104769200D01*
X117030666Y-104769200D02*
X116983047Y-104721580D01*
X116983047Y-104721580D02*
X116935428Y-104626342D01*
X116935428Y-104626342D02*
X116935428Y-104340628D01*
X116935428Y-104340628D02*
X116983047Y-104245390D01*
X116983047Y-104245390D02*
X117030666Y-104197771D01*
X117030666Y-104197771D02*
X117125904Y-104150152D01*
X117125904Y-104150152D02*
X117316380Y-104150152D01*
X117316380Y-104150152D02*
X117411618Y-104197771D01*
X118316380Y-104150152D02*
X118316380Y-104816819D01*
X117887809Y-104150152D02*
X117887809Y-104673961D01*
X117887809Y-104673961D02*
X117935428Y-104769200D01*
X117935428Y-104769200D02*
X118030666Y-104816819D01*
X118030666Y-104816819D02*
X118173523Y-104816819D01*
X118173523Y-104816819D02*
X118268761Y-104769200D01*
X118268761Y-104769200D02*
X118316380Y-104721580D01*
X119221142Y-104769200D02*
X119125904Y-104816819D01*
X119125904Y-104816819D02*
X118935428Y-104816819D01*
X118935428Y-104816819D02*
X118840190Y-104769200D01*
X118840190Y-104769200D02*
X118792571Y-104721580D01*
X118792571Y-104721580D02*
X118744952Y-104626342D01*
X118744952Y-104626342D02*
X118744952Y-104340628D01*
X118744952Y-104340628D02*
X118792571Y-104245390D01*
X118792571Y-104245390D02*
X118840190Y-104197771D01*
X118840190Y-104197771D02*
X118935428Y-104150152D01*
X118935428Y-104150152D02*
X119125904Y-104150152D01*
X119125904Y-104150152D02*
X119221142Y-104197771D01*
X119649714Y-104816819D02*
X119649714Y-104150152D01*
X119649714Y-103816819D02*
X119602095Y-103864438D01*
X119602095Y-103864438D02*
X119649714Y-103912057D01*
X119649714Y-103912057D02*
X119697333Y-103864438D01*
X119697333Y-103864438D02*
X119649714Y-103816819D01*
X119649714Y-103816819D02*
X119649714Y-103912057D01*
X120554475Y-104816819D02*
X120554475Y-104293009D01*
X120554475Y-104293009D02*
X120506856Y-104197771D01*
X120506856Y-104197771D02*
X120411618Y-104150152D01*
X120411618Y-104150152D02*
X120221142Y-104150152D01*
X120221142Y-104150152D02*
X120125904Y-104197771D01*
X120554475Y-104769200D02*
X120459237Y-104816819D01*
X120459237Y-104816819D02*
X120221142Y-104816819D01*
X120221142Y-104816819D02*
X120125904Y-104769200D01*
X120125904Y-104769200D02*
X120078285Y-104673961D01*
X120078285Y-104673961D02*
X120078285Y-104578723D01*
X120078285Y-104578723D02*
X120125904Y-104483485D01*
X120125904Y-104483485D02*
X120221142Y-104435866D01*
X120221142Y-104435866D02*
X120459237Y-104435866D01*
X120459237Y-104435866D02*
X120554475Y-104388247D01*
X121173523Y-104816819D02*
X121078285Y-104769200D01*
X121078285Y-104769200D02*
X121030666Y-104673961D01*
X121030666Y-104673961D02*
X121030666Y-103816819D01*
D11*
X117935429Y-102334403D02*
X117802096Y-102334403D01*
X117802096Y-102543927D02*
X117802096Y-102143927D01*
X117802096Y-102143927D02*
X117992572Y-102143927D01*
X118144953Y-102543927D02*
X118144953Y-102143927D01*
X118335429Y-102543927D02*
X118335429Y-102143927D01*
X118335429Y-102143927D02*
X118430667Y-102143927D01*
X118430667Y-102143927D02*
X118487810Y-102162975D01*
X118487810Y-102162975D02*
X118525905Y-102201070D01*
X118525905Y-102201070D02*
X118544952Y-102239165D01*
X118544952Y-102239165D02*
X118564000Y-102315356D01*
X118564000Y-102315356D02*
X118564000Y-102372499D01*
X118564000Y-102372499D02*
X118544952Y-102448689D01*
X118544952Y-102448689D02*
X118525905Y-102486784D01*
X118525905Y-102486784D02*
X118487810Y-102524880D01*
X118487810Y-102524880D02*
X118430667Y-102543927D01*
X118430667Y-102543927D02*
X118335429Y-102543927D01*
X118697333Y-102143927D02*
X118944952Y-102143927D01*
X118944952Y-102143927D02*
X118811619Y-102296308D01*
X118811619Y-102296308D02*
X118868762Y-102296308D01*
X118868762Y-102296308D02*
X118906857Y-102315356D01*
X118906857Y-102315356D02*
X118925905Y-102334403D01*
X118925905Y-102334403D02*
X118944952Y-102372499D01*
X118944952Y-102372499D02*
X118944952Y-102467737D01*
X118944952Y-102467737D02*
X118925905Y-102505832D01*
X118925905Y-102505832D02*
X118906857Y-102524880D01*
X118906857Y-102524880D02*
X118868762Y-102543927D01*
X118868762Y-102543927D02*
X118754476Y-102543927D01*
X118754476Y-102543927D02*
X118716381Y-102524880D01*
X118716381Y-102524880D02*
X118697333Y-102505832D01*
X117712096Y-102343927D02*
X119034952Y-102343927D01*
D10*
X115983047Y-115469009D02*
X115649714Y-115469009D01*
X115649714Y-115992819D02*
X115649714Y-114992819D01*
X115649714Y-114992819D02*
X116125904Y-114992819D01*
X116506857Y-115992819D02*
X116506857Y-115326152D01*
X116506857Y-114992819D02*
X116459238Y-115040438D01*
X116459238Y-115040438D02*
X116506857Y-115088057D01*
X116506857Y-115088057D02*
X116554476Y-115040438D01*
X116554476Y-115040438D02*
X116506857Y-114992819D01*
X116506857Y-114992819D02*
X116506857Y-115088057D01*
X117411618Y-115992819D02*
X117411618Y-114992819D01*
X117411618Y-115945200D02*
X117316380Y-115992819D01*
X117316380Y-115992819D02*
X117125904Y-115992819D01*
X117125904Y-115992819D02*
X117030666Y-115945200D01*
X117030666Y-115945200D02*
X116983047Y-115897580D01*
X116983047Y-115897580D02*
X116935428Y-115802342D01*
X116935428Y-115802342D02*
X116935428Y-115516628D01*
X116935428Y-115516628D02*
X116983047Y-115421390D01*
X116983047Y-115421390D02*
X117030666Y-115373771D01*
X117030666Y-115373771D02*
X117125904Y-115326152D01*
X117125904Y-115326152D02*
X117316380Y-115326152D01*
X117316380Y-115326152D02*
X117411618Y-115373771D01*
X118316380Y-115326152D02*
X118316380Y-115992819D01*
X117887809Y-115326152D02*
X117887809Y-115849961D01*
X117887809Y-115849961D02*
X117935428Y-115945200D01*
X117935428Y-115945200D02*
X118030666Y-115992819D01*
X118030666Y-115992819D02*
X118173523Y-115992819D01*
X118173523Y-115992819D02*
X118268761Y-115945200D01*
X118268761Y-115945200D02*
X118316380Y-115897580D01*
X119221142Y-115945200D02*
X119125904Y-115992819D01*
X119125904Y-115992819D02*
X118935428Y-115992819D01*
X118935428Y-115992819D02*
X118840190Y-115945200D01*
X118840190Y-115945200D02*
X118792571Y-115897580D01*
X118792571Y-115897580D02*
X118744952Y-115802342D01*
X118744952Y-115802342D02*
X118744952Y-115516628D01*
X118744952Y-115516628D02*
X118792571Y-115421390D01*
X118792571Y-115421390D02*
X118840190Y-115373771D01*
X118840190Y-115373771D02*
X118935428Y-115326152D01*
X118935428Y-115326152D02*
X119125904Y-115326152D01*
X119125904Y-115326152D02*
X119221142Y-115373771D01*
X119649714Y-115992819D02*
X119649714Y-115326152D01*
X119649714Y-114992819D02*
X119602095Y-115040438D01*
X119602095Y-115040438D02*
X119649714Y-115088057D01*
X119649714Y-115088057D02*
X119697333Y-115040438D01*
X119697333Y-115040438D02*
X119649714Y-114992819D01*
X119649714Y-114992819D02*
X119649714Y-115088057D01*
X120554475Y-115992819D02*
X120554475Y-115469009D01*
X120554475Y-115469009D02*
X120506856Y-115373771D01*
X120506856Y-115373771D02*
X120411618Y-115326152D01*
X120411618Y-115326152D02*
X120221142Y-115326152D01*
X120221142Y-115326152D02*
X120125904Y-115373771D01*
X120554475Y-115945200D02*
X120459237Y-115992819D01*
X120459237Y-115992819D02*
X120221142Y-115992819D01*
X120221142Y-115992819D02*
X120125904Y-115945200D01*
X120125904Y-115945200D02*
X120078285Y-115849961D01*
X120078285Y-115849961D02*
X120078285Y-115754723D01*
X120078285Y-115754723D02*
X120125904Y-115659485D01*
X120125904Y-115659485D02*
X120221142Y-115611866D01*
X120221142Y-115611866D02*
X120459237Y-115611866D01*
X120459237Y-115611866D02*
X120554475Y-115564247D01*
X121173523Y-115992819D02*
X121078285Y-115945200D01*
X121078285Y-115945200D02*
X121030666Y-115849961D01*
X121030666Y-115849961D02*
X121030666Y-114992819D01*
D11*
X117935429Y-113510403D02*
X117802096Y-113510403D01*
X117802096Y-113719927D02*
X117802096Y-113319927D01*
X117802096Y-113319927D02*
X117992572Y-113319927D01*
X118144953Y-113719927D02*
X118144953Y-113319927D01*
X118335429Y-113719927D02*
X118335429Y-113319927D01*
X118335429Y-113319927D02*
X118430667Y-113319927D01*
X118430667Y-113319927D02*
X118487810Y-113338975D01*
X118487810Y-113338975D02*
X118525905Y-113377070D01*
X118525905Y-113377070D02*
X118544952Y-113415165D01*
X118544952Y-113415165D02*
X118564000Y-113491356D01*
X118564000Y-113491356D02*
X118564000Y-113548499D01*
X118564000Y-113548499D02*
X118544952Y-113624689D01*
X118544952Y-113624689D02*
X118525905Y-113662784D01*
X118525905Y-113662784D02*
X118487810Y-113700880D01*
X118487810Y-113700880D02*
X118430667Y-113719927D01*
X118430667Y-113719927D02*
X118335429Y-113719927D01*
X118716381Y-113358022D02*
X118735429Y-113338975D01*
X118735429Y-113338975D02*
X118773524Y-113319927D01*
X118773524Y-113319927D02*
X118868762Y-113319927D01*
X118868762Y-113319927D02*
X118906857Y-113338975D01*
X118906857Y-113338975D02*
X118925905Y-113358022D01*
X118925905Y-113358022D02*
X118944952Y-113396118D01*
X118944952Y-113396118D02*
X118944952Y-113434213D01*
X118944952Y-113434213D02*
X118925905Y-113491356D01*
X118925905Y-113491356D02*
X118697333Y-113719927D01*
X118697333Y-113719927D02*
X118944952Y-113719927D01*
X117712096Y-113519927D02*
X119034952Y-113519927D01*
D12*
%TO.C,D1*%
X139650000Y-100580000D02*
X140350000Y-100580000D01*
X140000000Y-100230000D02*
X140000000Y-100930000D01*
D13*
X139250000Y-101330000D02*
X140750000Y-101330000D01*
X140750000Y-99830000D01*
X139250000Y-99830000D01*
X139250000Y-101330000D01*
D12*
X140250000Y-100580000D02*
G75*
G02*
X139750000Y-100580000I-250000J0D01*
G01*
X139750000Y-100580000D02*
G75*
G02*
X140250000Y-100580000I250000J0D01*
G01*
D10*
%TO.C,R3*%
X141900000Y-110550000D02*
X143600000Y-110550000D01*
X141900000Y-111450000D02*
X141900000Y-110550000D01*
D12*
X142750000Y-110650000D02*
X142750000Y-111350000D01*
X143100000Y-111000000D02*
X142400000Y-111000000D01*
D10*
X143600000Y-110550000D02*
X143600000Y-111450000D01*
X143600000Y-111450000D02*
X141900000Y-111450000D01*
D12*
X143000000Y-111000000D02*
G75*
G02*
X142500000Y-111000000I-250000J0D01*
G01*
X142500000Y-111000000D02*
G75*
G02*
X143000000Y-111000000I250000J0D01*
G01*
D14*
%TO.C,H3*%
X163830000Y-99060000D02*
G75*
G02*
X161290000Y-99060000I-1270000J0D01*
G01*
X161290000Y-99060000D02*
G75*
G02*
X163830000Y-99060000I1270000J0D01*
G01*
X163830000Y-99060000D02*
G75*
G02*
X161290000Y-99060000I-1270000J0D01*
G01*
X161290000Y-99060000D02*
G75*
G02*
X163830000Y-99060000I1270000J0D01*
G01*
D12*
%TO.C,J3*%
X151125000Y-106680000D02*
X151825000Y-106680000D01*
X151475000Y-106330000D02*
X151475000Y-107030000D01*
D14*
X144750000Y-113680000D02*
X159200000Y-113680000D01*
X159200000Y-99680000D01*
X144750000Y-99680000D01*
X144750000Y-113680000D01*
D12*
X151736008Y-106680000D02*
G75*
G02*
X151213992Y-106680000I-261008J0D01*
G01*
X151213992Y-106680000D02*
G75*
G02*
X151736008Y-106680000I261008J0D01*
G01*
D10*
%TO.C,C5*%
X136285000Y-103157000D02*
X138035000Y-103157000D01*
X136285000Y-104107000D02*
X136285000Y-103157000D01*
D12*
X137160000Y-103282000D02*
X137160000Y-103982000D01*
X137510000Y-103632000D02*
X136810000Y-103632000D01*
D10*
X138035000Y-103157000D02*
X138035000Y-104107000D01*
X138035000Y-104107000D02*
X136285000Y-104107000D01*
D12*
X137410000Y-103632000D02*
G75*
G02*
X136910000Y-103632000I-250000J0D01*
G01*
X136910000Y-103632000D02*
G75*
G02*
X137410000Y-103632000I250000J0D01*
G01*
D10*
%TO.C,C3*%
X128665000Y-111539000D02*
X130415000Y-111539000D01*
X128665000Y-112489000D02*
X128665000Y-111539000D01*
D12*
X129190000Y-112014000D02*
X129890000Y-112014000D01*
X129540000Y-112364000D02*
X129540000Y-111664000D01*
D10*
X130415000Y-111539000D02*
X130415000Y-112489000D01*
X130415000Y-112489000D02*
X128665000Y-112489000D01*
D12*
X129790000Y-112014000D02*
G75*
G02*
X129290000Y-112014000I-250000J0D01*
G01*
X129290000Y-112014000D02*
G75*
G02*
X129790000Y-112014000I250000J0D01*
G01*
D10*
%TO.C,R6*%
X141900000Y-104450000D02*
X143600000Y-104450000D01*
X141900000Y-105350000D02*
X141900000Y-104450000D01*
D12*
X142750000Y-104550000D02*
X142750000Y-105250000D01*
X143100000Y-104900000D02*
X142400000Y-104900000D01*
D10*
X143600000Y-104450000D02*
X143600000Y-105350000D01*
X143600000Y-105350000D02*
X141900000Y-105350000D01*
D12*
X143000000Y-104900000D02*
G75*
G02*
X142500000Y-104900000I-250000J0D01*
G01*
X142500000Y-104900000D02*
G75*
G02*
X143000000Y-104900000I250000J0D01*
G01*
D10*
%TO.C,C1*%
X141875000Y-115100000D02*
X143625000Y-115100000D01*
X141875000Y-116050000D02*
X141875000Y-115100000D01*
D12*
X142750000Y-115225000D02*
X142750000Y-115925000D01*
X143100000Y-115575000D02*
X142400000Y-115575000D01*
D10*
X143625000Y-115100000D02*
X143625000Y-116050000D01*
X143625000Y-116050000D02*
X141875000Y-116050000D01*
D12*
X143000000Y-115575000D02*
G75*
G02*
X142500000Y-115575000I-250000J0D01*
G01*
X142500000Y-115575000D02*
G75*
G02*
X143000000Y-115575000I250000J0D01*
G01*
D14*
%TO.C,H4*%
X163830000Y-116840000D02*
G75*
G02*
X161290000Y-116840000I-1270000J0D01*
G01*
X161290000Y-116840000D02*
G75*
G02*
X163830000Y-116840000I1270000J0D01*
G01*
X163830000Y-116840000D02*
G75*
G02*
X161290000Y-116840000I-1270000J0D01*
G01*
X161290000Y-116840000D02*
G75*
G02*
X163830000Y-116840000I1270000J0D01*
G01*
D10*
%TO.C,R5*%
X141900000Y-107500000D02*
X143600000Y-107500000D01*
X141900000Y-108400000D02*
X141900000Y-107500000D01*
D12*
X142750000Y-107600000D02*
X142750000Y-108300000D01*
X143100000Y-107950000D02*
X142400000Y-107950000D01*
D10*
X143600000Y-107500000D02*
X143600000Y-108400000D01*
X143600000Y-108400000D02*
X141900000Y-108400000D01*
D12*
X143000000Y-107950000D02*
G75*
G02*
X142500000Y-107950000I-250000J0D01*
G01*
X142500000Y-107950000D02*
G75*
G02*
X143000000Y-107950000I250000J0D01*
G01*
%TO.C,SW1*%
D14*
X124200000Y-97275000D02*
X122700000Y-97275000D01*
X122700000Y-95275000D01*
X124200000Y-95275000D01*
X124200000Y-97275000D01*
X126200000Y-97275000D02*
X124700000Y-97275000D01*
X124700000Y-95275000D01*
X126200000Y-95275000D01*
X126200000Y-97275000D01*
X128950000Y-100875000D02*
X119950000Y-100875000D01*
X119950000Y-97275000D01*
X128950000Y-97275000D01*
X128950000Y-100875000D01*
%TO.C,J4*%
X115155400Y-104950000D02*
X115155400Y-110950000D01*
D12*
X117730400Y-107600000D02*
X117730400Y-108300000D01*
X118080400Y-107950000D02*
X117380400Y-107950000D01*
D14*
X118698293Y-106450000D02*
X119405400Y-106950000D01*
X119405400Y-104950000D02*
X115155400Y-104950000D01*
X119405400Y-104950000D02*
X119405400Y-110950000D01*
X119405400Y-105950000D02*
X118698293Y-106450000D01*
X119405400Y-110950000D02*
X115155400Y-110950000D01*
D12*
X117980400Y-107950000D02*
G75*
G02*
X117480400Y-107950000I-250000J0D01*
G01*
X117480400Y-107950000D02*
G75*
G02*
X117980400Y-107950000I250000J0D01*
G01*
D10*
%TO.C,R1*%
X141900000Y-105975000D02*
X143600000Y-105975000D01*
X141900000Y-106875000D02*
X141900000Y-105975000D01*
D12*
X142750000Y-106075000D02*
X142750000Y-106775000D01*
X143100000Y-106425000D02*
X142400000Y-106425000D01*
D10*
X143600000Y-105975000D02*
X143600000Y-106875000D01*
X143600000Y-106875000D02*
X141900000Y-106875000D01*
D12*
X143000000Y-106425000D02*
G75*
G02*
X142500000Y-106425000I-250000J0D01*
G01*
X142500000Y-106425000D02*
G75*
G02*
X143000000Y-106425000I250000J0D01*
G01*
D13*
%TO.C,U2*%
X135610000Y-106208000D02*
X138710000Y-106208000D01*
X135610000Y-109658000D02*
X135610000Y-106208000D01*
X136660000Y-110708000D02*
X135610000Y-109658000D01*
D12*
X136810000Y-108458000D02*
X137510000Y-108458000D01*
X137160000Y-108108000D02*
X137160000Y-108808000D01*
D13*
X138710000Y-106208000D02*
X138710000Y-110708000D01*
X138710000Y-110708000D02*
X136660000Y-110708000D01*
D12*
X137410000Y-108458000D02*
G75*
G02*
X136910000Y-108458000I-250000J0D01*
G01*
X136910000Y-108458000D02*
G75*
G02*
X137410000Y-108458000I250000J0D01*
G01*
D14*
%TO.C,FID1*%
X162036000Y-102362000D02*
G75*
G02*
X160036000Y-102362000I-1000000J0D01*
G01*
X160036000Y-102362000D02*
G75*
G02*
X162036000Y-102362000I1000000J0D01*
G01*
X162036000Y-102362000D02*
G75*
G02*
X160036000Y-102362000I-1000000J0D01*
G01*
X160036000Y-102362000D02*
G75*
G02*
X162036000Y-102362000I1000000J0D01*
G01*
%TO.C,H1*%
X118110000Y-99060000D02*
G75*
G02*
X115570000Y-99060000I-1270000J0D01*
G01*
X115570000Y-99060000D02*
G75*
G02*
X118110000Y-99060000I1270000J0D01*
G01*
X118110000Y-99060000D02*
G75*
G02*
X115570000Y-99060000I-1270000J0D01*
G01*
X115570000Y-99060000D02*
G75*
G02*
X118110000Y-99060000I1270000J0D01*
G01*
D10*
%TO.C,R11*%
X136056000Y-99875000D02*
X137756000Y-99875000D01*
X136056000Y-100775000D02*
X136056000Y-99875000D01*
D12*
X136906000Y-99975000D02*
X136906000Y-100675000D01*
X137256000Y-100325000D02*
X136556000Y-100325000D01*
D10*
X137756000Y-99875000D02*
X137756000Y-100775000D01*
X137756000Y-100775000D02*
X136056000Y-100775000D01*
D12*
X137156000Y-100325000D02*
G75*
G02*
X136656000Y-100325000I-250000J0D01*
G01*
X136656000Y-100325000D02*
G75*
G02*
X137156000Y-100325000I250000J0D01*
G01*
D10*
%TO.C,C2*%
X141875000Y-113575000D02*
X143625000Y-113575000D01*
X141875000Y-114525000D02*
X141875000Y-113575000D01*
D12*
X142750000Y-113700000D02*
X142750000Y-114400000D01*
X143100000Y-114050000D02*
X142400000Y-114050000D01*
D10*
X143625000Y-113575000D02*
X143625000Y-114525000D01*
X143625000Y-114525000D02*
X141875000Y-114525000D01*
D12*
X143000000Y-114050000D02*
G75*
G02*
X142500000Y-114050000I-250000J0D01*
G01*
X142500000Y-114050000D02*
G75*
G02*
X143000000Y-114050000I250000J0D01*
G01*
D10*
%TO.C,R7*%
X141900000Y-102925000D02*
X143600000Y-102925000D01*
X141900000Y-103825000D02*
X141900000Y-102925000D01*
D12*
X142750000Y-103025000D02*
X142750000Y-103725000D01*
X143100000Y-103375000D02*
X142400000Y-103375000D01*
D10*
X143600000Y-102925000D02*
X143600000Y-103825000D01*
X143600000Y-103825000D02*
X141900000Y-103825000D01*
D12*
X143000000Y-103375000D02*
G75*
G02*
X142500000Y-103375000I-250000J0D01*
G01*
X142500000Y-103375000D02*
G75*
G02*
X143000000Y-103375000I250000J0D01*
G01*
D14*
%TO.C,FID3*%
X119364000Y-102362000D02*
G75*
G02*
X117364000Y-102362000I-1000000J0D01*
G01*
X117364000Y-102362000D02*
G75*
G02*
X119364000Y-102362000I1000000J0D01*
G01*
X119364000Y-102362000D02*
G75*
G02*
X117364000Y-102362000I-1000000J0D01*
G01*
X117364000Y-102362000D02*
G75*
G02*
X119364000Y-102362000I1000000J0D01*
G01*
%TO.C,FID2*%
X119364000Y-113538000D02*
G75*
G02*
X117364000Y-113538000I-1000000J0D01*
G01*
X117364000Y-113538000D02*
G75*
G02*
X119364000Y-113538000I1000000J0D01*
G01*
X119364000Y-113538000D02*
G75*
G02*
X117364000Y-113538000I-1000000J0D01*
G01*
X117364000Y-113538000D02*
G75*
G02*
X119364000Y-113538000I1000000J0D01*
G01*
D10*
%TO.C,R2*%
X141900000Y-112075000D02*
X143600000Y-112075000D01*
X141900000Y-112975000D02*
X141900000Y-112075000D01*
D12*
X142750000Y-112175000D02*
X142750000Y-112875000D01*
X143100000Y-112525000D02*
X142400000Y-112525000D01*
D10*
X143600000Y-112075000D02*
X143600000Y-112975000D01*
X143600000Y-112975000D02*
X141900000Y-112975000D01*
D12*
X143000000Y-112525000D02*
G75*
G02*
X142500000Y-112525000I-250000J0D01*
G01*
X142500000Y-112525000D02*
G75*
G02*
X143000000Y-112525000I250000J0D01*
G01*
%TO.C,U1*%
D14*
X128290000Y-109962000D02*
X130790000Y-109962000D01*
X130790000Y-107462000D01*
X128290000Y-107462000D01*
X128290000Y-109962000D01*
D10*
%TO.C,R4*%
X141900000Y-109025000D02*
X143600000Y-109025000D01*
X141900000Y-109925000D02*
X141900000Y-109025000D01*
D12*
X142750000Y-109125000D02*
X142750000Y-109825000D01*
X143100000Y-109475000D02*
X142400000Y-109475000D01*
D10*
X143600000Y-109025000D02*
X143600000Y-109925000D01*
X143600000Y-109925000D02*
X141900000Y-109925000D01*
D12*
X143000000Y-109475000D02*
G75*
G02*
X142500000Y-109475000I-250000J0D01*
G01*
X142500000Y-109475000D02*
G75*
G02*
X143000000Y-109475000I250000J0D01*
G01*
D10*
%TO.C,C4*%
X126779000Y-112155000D02*
X127729000Y-112155000D01*
X126779000Y-113905000D02*
X126779000Y-112155000D01*
D12*
X127254000Y-113380000D02*
X127254000Y-112680000D01*
X127604000Y-113030000D02*
X126904000Y-113030000D01*
D10*
X127729000Y-112155000D02*
X127729000Y-113905000D01*
X127729000Y-113905000D02*
X126779000Y-113905000D01*
D12*
X127504000Y-113030000D02*
G75*
G02*
X127004000Y-113030000I-250000J0D01*
G01*
X127004000Y-113030000D02*
G75*
G02*
X127504000Y-113030000I250000J0D01*
G01*
D10*
%TO.C,R8*%
X141900000Y-101400000D02*
X143600000Y-101400000D01*
X141900000Y-102300000D02*
X141900000Y-101400000D01*
D12*
X142750000Y-101500000D02*
X142750000Y-102200000D01*
X143100000Y-101850000D02*
X142400000Y-101850000D01*
D10*
X143600000Y-101400000D02*
X143600000Y-102300000D01*
X143600000Y-102300000D02*
X141900000Y-102300000D01*
D12*
X143000000Y-101850000D02*
G75*
G02*
X142500000Y-101850000I-250000J0D01*
G01*
X142500000Y-101850000D02*
G75*
G02*
X143000000Y-101850000I250000J0D01*
G01*
D14*
%TO.C,H2*%
X118110000Y-116840000D02*
G75*
G02*
X115570000Y-116840000I-1270000J0D01*
G01*
X115570000Y-116840000D02*
G75*
G02*
X118110000Y-116840000I1270000J0D01*
G01*
X118110000Y-116840000D02*
G75*
G02*
X115570000Y-116840000I-1270000J0D01*
G01*
X115570000Y-116840000D02*
G75*
G02*
X118110000Y-116840000I1270000J0D01*
G01*
D10*
%TO.C,R10*%
X131376000Y-112180000D02*
X132276000Y-112180000D01*
X131376000Y-113880000D02*
X131376000Y-112180000D01*
D12*
X131476000Y-113030000D02*
X132176000Y-113030000D01*
X131826000Y-112680000D02*
X131826000Y-113380000D01*
D10*
X132276000Y-112180000D02*
X132276000Y-113880000D01*
X132276000Y-113880000D02*
X131376000Y-113880000D01*
D12*
X132076000Y-113030000D02*
G75*
G02*
X131576000Y-113030000I-250000J0D01*
G01*
X131576000Y-113030000D02*
G75*
G02*
X132076000Y-113030000I250000J0D01*
G01*
D10*
%TO.C,R9*%
X141900000Y-99875000D02*
X143600000Y-99875000D01*
X141900000Y-100775000D02*
X141900000Y-99875000D01*
D12*
X142750000Y-99975000D02*
X142750000Y-100675000D01*
X143100000Y-100325000D02*
X142400000Y-100325000D01*
D10*
X143600000Y-99875000D02*
X143600000Y-100775000D01*
X143600000Y-100775000D02*
X141900000Y-100775000D01*
D12*
X143000000Y-100325000D02*
G75*
G02*
X142500000Y-100325000I-250000J0D01*
G01*
X142500000Y-100325000D02*
G75*
G02*
X143000000Y-100325000I250000J0D01*
G01*
%TD*%
D14*
X160235000Y-96735000D02*
X164885000Y-101385000D01*
X160235000Y-101385000D02*
X164885000Y-96735000D01*
X160235000Y-114515000D02*
X164885000Y-119165000D01*
X160235000Y-119165000D02*
X164885000Y-114515000D01*
X159761000Y-101087000D02*
X162311000Y-103637000D01*
X159761000Y-103637000D02*
X162311000Y-101087000D01*
X114515000Y-96735000D02*
X119165000Y-101385000D01*
X114515000Y-101385000D02*
X119165000Y-96735000D01*
X117089000Y-101087000D02*
X119639000Y-103637000D01*
X117089000Y-103637000D02*
X119639000Y-101087000D01*
X117089000Y-112263000D02*
X119639000Y-114813000D01*
X117089000Y-114813000D02*
X119639000Y-112263000D01*
X114515000Y-114515000D02*
X119165000Y-119165000D01*
X114515000Y-119165000D02*
X119165000Y-114515000D01*
M02*
