%TF.GenerationSoftware,KiCad,Pcbnew,9.0.0*%
%TF.CreationDate,2025-03-29T14:14:08-04:00*%
%TF.ProjectId,weather-featherwing,77656174-6865-4722-9d66-656174686572,1.3.0*%
%TF.SameCoordinates,Original*%
%TF.FileFunction,Profile,NP*%
%FSLAX46Y46*%
G04 Gerber Fmt 4.6, Leading zero omitted, Abs format (unit mm)*
G04 Created by KiCad (PCBNEW 9.0.0) date 2025-03-29 14:14:08*
%MOMM*%
%LPD*%
G01*
G04 APERTURE LIST*
%TA.AperFunction,Profile*%
%ADD10C,0.100000*%
%TD*%
%TA.AperFunction,Profile*%
%ADD11C,0.120000*%
%TD*%
G04 APERTURE END LIST*
D10*
X131100000Y-106500000D02*
G75*
G02*
X131400000Y-106800000I0J-300000D01*
G01*
D11*
X163836656Y-114644151D02*
G75*
G02*
X162575434Y-112344287I1276644J2195851D01*
G01*
X114300000Y-99060000D02*
X114300000Y-116840000D01*
X116840000Y-119380000D02*
X162560000Y-119380000D01*
X162560000Y-96520000D02*
G75*
G02*
X165100000Y-99060000I0J-2540000D01*
G01*
D10*
X131100000Y-105900000D02*
X127900000Y-105900000D01*
X127600000Y-106800000D02*
G75*
G02*
X127900000Y-106500000I300000J0D01*
G01*
X132000000Y-106800000D02*
X132000000Y-109700000D01*
D11*
X163836656Y-114644152D02*
G75*
G02*
X165100000Y-116840000I-1276656J-2195848D01*
G01*
D10*
X132000000Y-109700000D02*
G75*
G02*
X131400000Y-109700000I-300000J0D01*
G01*
D11*
X121436000Y-96520000D02*
X162560000Y-96520000D01*
D10*
X127600000Y-106800000D02*
X127600000Y-109700000D01*
X127000000Y-106800000D02*
G75*
G02*
X127900000Y-105900000I900000J0D01*
G01*
X127600000Y-109700000D02*
G75*
G02*
X127000000Y-109700000I-300000J0D01*
G01*
D11*
X165100000Y-116840000D02*
G75*
G02*
X162560000Y-119380000I-2540000J0D01*
G01*
D10*
X127000000Y-106800000D02*
X127000000Y-109700000D01*
X127900000Y-106500000D02*
X131100000Y-106500000D01*
X131100000Y-105900000D02*
G75*
G02*
X132000000Y-106800000I0J-900000D01*
G01*
D11*
X116840000Y-119380000D02*
G75*
G02*
X114300000Y-116840000I0J2540000D01*
G01*
D10*
X131400000Y-106800000D02*
X131400000Y-109700000D01*
D11*
X162575444Y-103555713D02*
X162575444Y-112344287D01*
X162575444Y-103555713D02*
G75*
G02*
X163836661Y-101255857I2537856J104013D01*
G01*
X114300000Y-99060000D02*
G75*
G02*
X116840000Y-96520000I2540000J0D01*
G01*
X165100000Y-99060000D02*
G75*
G02*
X163836656Y-101255848I-2540000J0D01*
G01*
X116840000Y-96520000D02*
X121436000Y-96520000D01*
M02*
