M48
; DRILL file {KiCad 9.0.0} date 2025-03-29T14:14:05-0400
; FORMAT={-:-/ absolute / metric / decimal}
; #@! TF.CreationDate,2025-03-29T14:14:05-04:00
; #@! TF.GenerationSoftware,Kicad,Pcbnew,9.0.0
; #@! TF.FileFunction,Plated,1,2,PTH
FMAT,2
METRIC
; #@! TA.AperFunction,Plated,PTH,ViaDrill
T1C0.350
; #@! TA.AperFunction,Plated,PTH,ComponentDrill
T2C1.000
; #@! TA.AperFunction,Plated,PTH,ComponentDrill
T3C2.540
%
G90
G05
T1
X116.84Y-101.6
X116.84Y-104.14
X116.84Y-106.68
X116.84Y-109.22
X116.84Y-111.76
X119.38Y-104.14
X120.65Y-114.3
X121.92Y-104.14
X121.92Y-106.68
X121.92Y-116.586
X124.46Y-101.6
X124.46Y-104.14
X124.46Y-106.68
X124.5Y-109.85
X124.5Y-111.85
X127.0Y-104.14
X127.0Y-114.3
X127.85Y-112.15
X128.85Y-111.15
X129.54Y-104.14
X129.54Y-114.3
X130.81Y-101.6
X131.65Y-112.1
X132.08Y-104.14
X133.3Y-107.0
X133.3Y-108.45
X133.35Y-101.6
X134.25Y-107.0
X134.25Y-108.9
X134.62Y-114.3
X134.95Y-109.55
X135.633Y-101.983
X136.6Y-109.65
X137.0Y-101.75
X137.0Y-104.65
X137.16Y-114.3
X137.35Y-106.8
X138.684Y-100.965
X138.938Y-102.489
X139.7Y-104.902
X139.7Y-106.68
X139.7Y-111.76
X139.7Y-114.3
X140.741Y-102.54
X145.0Y-101.85
X145.5Y-107.5
X145.5Y-110.25
X145.974Y-100.33
X146.0Y-115.35
X146.5Y-108.0
X146.5Y-109.0
X146.5Y-110.0
X146.5Y-112.5
X146.685Y-106.045
X146.736Y-103.0
X149.86Y-104.14
X149.86Y-106.045
X150.0Y-108.0
X150.5Y-109.0
X150.5Y-110.5
X151.0Y-112.5
X151.0Y-115.35
X152.4Y-99.06
X152.4Y-104.14
X152.4Y-110.49
X152.4Y-114.3
X152.4Y-116.84
X153.67Y-102.25
X154.94Y-114.3
X154.94Y-116.84
X157.48Y-101.6
X157.48Y-104.14
X157.48Y-106.68
X157.48Y-116.84
X157.607Y-100.203
X157.607Y-109.22
X157.607Y-111.76
X159.258Y-101.473
X160.02Y-104.14
X160.02Y-106.68
X160.02Y-109.22
T2
X120.65Y-118.11
X123.19Y-118.11
X125.73Y-118.11
X128.27Y-118.11
X130.81Y-97.79
X130.81Y-118.11
X133.35Y-97.79
X133.35Y-118.11
X135.89Y-97.79
X135.89Y-118.11
X138.43Y-97.79
X138.43Y-118.11
X140.97Y-97.79
X140.97Y-118.11
X143.51Y-97.79
X143.51Y-118.11
X146.05Y-97.79
X146.05Y-118.11
X148.59Y-97.79
X148.59Y-118.11
X151.13Y-97.79
X151.13Y-118.11
X153.67Y-97.79
X153.67Y-118.11
X156.21Y-97.79
X156.21Y-118.11
X158.75Y-97.79
X158.75Y-118.11
T3
X116.84Y-99.06
X116.84Y-116.84
M30
