%TF.GenerationSoftware,KiCad,Pcbnew,9.0.3*%
%TF.CreationDate,2025-08-05T15:09:14-04:00*%
%TF.ProjectId,weather-featherwing,77656174-6865-4722-9d66-656174686572,1.4.0*%
%TF.SameCoordinates,Original*%
%TF.FileFunction,Profile,NP*%
%FSLAX46Y46*%
G04 Gerber Fmt 4.6, Leading zero omitted, Abs format (unit mm)*
G04 Created by KiCad (PCBNEW 9.0.3) date 2025-08-05 15:09:14*
%MOMM*%
%LPD*%
G01*
G04 APERTURE LIST*
%TA.AperFunction,Profile*%
%ADD10C,0.120000*%
%TD*%
%TA.AperFunction,Profile*%
%ADD11C,0.100000*%
%TD*%
G04 APERTURE END LIST*
D10*
X163836656Y-114644151D02*
G75*
G02*
X162575434Y-112344287I1276644J2195851D01*
G01*
X114300000Y-99060000D02*
X114300000Y-116840000D01*
D11*
X131064000Y-106426000D02*
G75*
G02*
X131572000Y-106934000I0J-508000D01*
G01*
D10*
X116840000Y-119380000D02*
X162560000Y-119380000D01*
X162560000Y-96520000D02*
G75*
G02*
X165100000Y-99060000I0J-2540000D01*
G01*
D11*
X131064000Y-105664000D02*
X128016000Y-105664000D01*
X131064000Y-105664000D02*
G75*
G02*
X132334000Y-106934000I0J-1270000D01*
G01*
X132334000Y-106934000D02*
X132334000Y-110490000D01*
D10*
X163836656Y-114644152D02*
G75*
G02*
X165100000Y-116840000I-1276656J-2195848D01*
G01*
D11*
X126746000Y-106934000D02*
G75*
G02*
X128016000Y-105664000I1270000J0D01*
G01*
X132334000Y-110490000D02*
G75*
G02*
X131572000Y-110490000I-381000J0D01*
G01*
D10*
X121436000Y-96520000D02*
X162560000Y-96520000D01*
D11*
X127508000Y-106934000D02*
X127508000Y-110490000D01*
D10*
X165100000Y-116840000D02*
G75*
G02*
X162560000Y-119380000I-2540000J0D01*
G01*
D11*
X126746000Y-106934000D02*
X126746000Y-110490000D01*
X128016000Y-106426000D02*
X131064000Y-106426000D01*
D10*
X116840000Y-119380000D02*
G75*
G02*
X114300000Y-116840000I0J2540000D01*
G01*
D11*
X131572000Y-106934000D02*
X131572000Y-110490000D01*
X127508000Y-110490000D02*
G75*
G02*
X126746000Y-110490000I-381000J0D01*
G01*
D10*
X162575444Y-103555713D02*
X162575444Y-112344287D01*
X162575444Y-103555713D02*
G75*
G02*
X163836661Y-101255857I2537856J104013D01*
G01*
D11*
X127508000Y-106934000D02*
G75*
G02*
X128016000Y-106426000I508000J0D01*
G01*
D10*
X114300000Y-99060000D02*
G75*
G02*
X116840000Y-96520000I2540000J0D01*
G01*
X165100000Y-99060000D02*
G75*
G02*
X163836656Y-101255848I-2540000J0D01*
G01*
X116840000Y-96520000D02*
X121436000Y-96520000D01*
M02*
