%TF.GenerationSoftware,KiCad,Pcbnew,9.0.3*%
%TF.CreationDate,2025-08-05T15:09:14-04:00*%
%TF.ProjectId,weather-featherwing,77656174-6865-4722-9d66-656174686572,1.4.0*%
%TF.SameCoordinates,Original*%
%TF.FileFunction,Soldermask,Bot*%
%TF.FilePolarity,Negative*%
%FSLAX46Y46*%
G04 Gerber Fmt 4.6, Leading zero omitted, Abs format (unit mm)*
G04 Created by KiCad (PCBNEW 9.0.3) date 2025-08-05 15:09:14*
%MOMM*%
%LPD*%
G01*
G04 APERTURE LIST*
G04 APERTURE END LIST*
G36*
X120896742Y-117296601D02*
G01*
X121050687Y-117360367D01*
X121189234Y-117452941D01*
X121307059Y-117570766D01*
X121399633Y-117709313D01*
X121463399Y-117863258D01*
X121495907Y-118026685D01*
X121495907Y-118193315D01*
X121463399Y-118356742D01*
X121399633Y-118510687D01*
X121307059Y-118649234D01*
X121189234Y-118767059D01*
X121050687Y-118859633D01*
X120896742Y-118923399D01*
X120733315Y-118955907D01*
X120566685Y-118955907D01*
X120403258Y-118923399D01*
X120249313Y-118859633D01*
X120110766Y-118767059D01*
X119992941Y-118649234D01*
X119900367Y-118510687D01*
X119836601Y-118356742D01*
X119804093Y-118193315D01*
X119804093Y-118026685D01*
X119836601Y-117863258D01*
X119900367Y-117709313D01*
X119992941Y-117570766D01*
X120110766Y-117452941D01*
X120249313Y-117360367D01*
X120403258Y-117296601D01*
X120566685Y-117264093D01*
X120733315Y-117264093D01*
X120896742Y-117296601D01*
G37*
G36*
X123436742Y-117296601D02*
G01*
X123590687Y-117360367D01*
X123729234Y-117452941D01*
X123847059Y-117570766D01*
X123939633Y-117709313D01*
X124003399Y-117863258D01*
X124035907Y-118026685D01*
X124035907Y-118193315D01*
X124003399Y-118356742D01*
X123939633Y-118510687D01*
X123847059Y-118649234D01*
X123729234Y-118767059D01*
X123590687Y-118859633D01*
X123436742Y-118923399D01*
X123273315Y-118955907D01*
X123106685Y-118955907D01*
X122943258Y-118923399D01*
X122789313Y-118859633D01*
X122650766Y-118767059D01*
X122532941Y-118649234D01*
X122440367Y-118510687D01*
X122376601Y-118356742D01*
X122344093Y-118193315D01*
X122344093Y-118026685D01*
X122376601Y-117863258D01*
X122440367Y-117709313D01*
X122532941Y-117570766D01*
X122650766Y-117452941D01*
X122789313Y-117360367D01*
X122943258Y-117296601D01*
X123106685Y-117264093D01*
X123273315Y-117264093D01*
X123436742Y-117296601D01*
G37*
G36*
X125976742Y-117296601D02*
G01*
X126130687Y-117360367D01*
X126269234Y-117452941D01*
X126387059Y-117570766D01*
X126479633Y-117709313D01*
X126543399Y-117863258D01*
X126575907Y-118026685D01*
X126575907Y-118193315D01*
X126543399Y-118356742D01*
X126479633Y-118510687D01*
X126387059Y-118649234D01*
X126269234Y-118767059D01*
X126130687Y-118859633D01*
X125976742Y-118923399D01*
X125813315Y-118955907D01*
X125646685Y-118955907D01*
X125483258Y-118923399D01*
X125329313Y-118859633D01*
X125190766Y-118767059D01*
X125072941Y-118649234D01*
X124980367Y-118510687D01*
X124916601Y-118356742D01*
X124884093Y-118193315D01*
X124884093Y-118026685D01*
X124916601Y-117863258D01*
X124980367Y-117709313D01*
X125072941Y-117570766D01*
X125190766Y-117452941D01*
X125329313Y-117360367D01*
X125483258Y-117296601D01*
X125646685Y-117264093D01*
X125813315Y-117264093D01*
X125976742Y-117296601D01*
G37*
G36*
X128516742Y-117296601D02*
G01*
X128670687Y-117360367D01*
X128809234Y-117452941D01*
X128927059Y-117570766D01*
X129019633Y-117709313D01*
X129083399Y-117863258D01*
X129115907Y-118026685D01*
X129115907Y-118193315D01*
X129083399Y-118356742D01*
X129019633Y-118510687D01*
X128927059Y-118649234D01*
X128809234Y-118767059D01*
X128670687Y-118859633D01*
X128516742Y-118923399D01*
X128353315Y-118955907D01*
X128186685Y-118955907D01*
X128023258Y-118923399D01*
X127869313Y-118859633D01*
X127730766Y-118767059D01*
X127612941Y-118649234D01*
X127520367Y-118510687D01*
X127456601Y-118356742D01*
X127424093Y-118193315D01*
X127424093Y-118026685D01*
X127456601Y-117863258D01*
X127520367Y-117709313D01*
X127612941Y-117570766D01*
X127730766Y-117452941D01*
X127869313Y-117360367D01*
X128023258Y-117296601D01*
X128186685Y-117264093D01*
X128353315Y-117264093D01*
X128516742Y-117296601D01*
G37*
G36*
X131056742Y-117296601D02*
G01*
X131210687Y-117360367D01*
X131349234Y-117452941D01*
X131467059Y-117570766D01*
X131559633Y-117709313D01*
X131623399Y-117863258D01*
X131655907Y-118026685D01*
X131655907Y-118193315D01*
X131623399Y-118356742D01*
X131559633Y-118510687D01*
X131467059Y-118649234D01*
X131349234Y-118767059D01*
X131210687Y-118859633D01*
X131056742Y-118923399D01*
X130893315Y-118955907D01*
X130726685Y-118955907D01*
X130563258Y-118923399D01*
X130409313Y-118859633D01*
X130270766Y-118767059D01*
X130152941Y-118649234D01*
X130060367Y-118510687D01*
X129996601Y-118356742D01*
X129964093Y-118193315D01*
X129964093Y-118026685D01*
X129996601Y-117863258D01*
X130060367Y-117709313D01*
X130152941Y-117570766D01*
X130270766Y-117452941D01*
X130409313Y-117360367D01*
X130563258Y-117296601D01*
X130726685Y-117264093D01*
X130893315Y-117264093D01*
X131056742Y-117296601D01*
G37*
G36*
X133596742Y-117296601D02*
G01*
X133750687Y-117360367D01*
X133889234Y-117452941D01*
X134007059Y-117570766D01*
X134099633Y-117709313D01*
X134163399Y-117863258D01*
X134195907Y-118026685D01*
X134195907Y-118193315D01*
X134163399Y-118356742D01*
X134099633Y-118510687D01*
X134007059Y-118649234D01*
X133889234Y-118767059D01*
X133750687Y-118859633D01*
X133596742Y-118923399D01*
X133433315Y-118955907D01*
X133266685Y-118955907D01*
X133103258Y-118923399D01*
X132949313Y-118859633D01*
X132810766Y-118767059D01*
X132692941Y-118649234D01*
X132600367Y-118510687D01*
X132536601Y-118356742D01*
X132504093Y-118193315D01*
X132504093Y-118026685D01*
X132536601Y-117863258D01*
X132600367Y-117709313D01*
X132692941Y-117570766D01*
X132810766Y-117452941D01*
X132949313Y-117360367D01*
X133103258Y-117296601D01*
X133266685Y-117264093D01*
X133433315Y-117264093D01*
X133596742Y-117296601D01*
G37*
G36*
X136136742Y-117296601D02*
G01*
X136290687Y-117360367D01*
X136429234Y-117452941D01*
X136547059Y-117570766D01*
X136639633Y-117709313D01*
X136703399Y-117863258D01*
X136735907Y-118026685D01*
X136735907Y-118193315D01*
X136703399Y-118356742D01*
X136639633Y-118510687D01*
X136547059Y-118649234D01*
X136429234Y-118767059D01*
X136290687Y-118859633D01*
X136136742Y-118923399D01*
X135973315Y-118955907D01*
X135806685Y-118955907D01*
X135643258Y-118923399D01*
X135489313Y-118859633D01*
X135350766Y-118767059D01*
X135232941Y-118649234D01*
X135140367Y-118510687D01*
X135076601Y-118356742D01*
X135044093Y-118193315D01*
X135044093Y-118026685D01*
X135076601Y-117863258D01*
X135140367Y-117709313D01*
X135232941Y-117570766D01*
X135350766Y-117452941D01*
X135489313Y-117360367D01*
X135643258Y-117296601D01*
X135806685Y-117264093D01*
X135973315Y-117264093D01*
X136136742Y-117296601D01*
G37*
G36*
X138676742Y-117296601D02*
G01*
X138830687Y-117360367D01*
X138969234Y-117452941D01*
X139087059Y-117570766D01*
X139179633Y-117709313D01*
X139243399Y-117863258D01*
X139275907Y-118026685D01*
X139275907Y-118193315D01*
X139243399Y-118356742D01*
X139179633Y-118510687D01*
X139087059Y-118649234D01*
X138969234Y-118767059D01*
X138830687Y-118859633D01*
X138676742Y-118923399D01*
X138513315Y-118955907D01*
X138346685Y-118955907D01*
X138183258Y-118923399D01*
X138029313Y-118859633D01*
X137890766Y-118767059D01*
X137772941Y-118649234D01*
X137680367Y-118510687D01*
X137616601Y-118356742D01*
X137584093Y-118193315D01*
X137584093Y-118026685D01*
X137616601Y-117863258D01*
X137680367Y-117709313D01*
X137772941Y-117570766D01*
X137890766Y-117452941D01*
X138029313Y-117360367D01*
X138183258Y-117296601D01*
X138346685Y-117264093D01*
X138513315Y-117264093D01*
X138676742Y-117296601D01*
G37*
G36*
X141216742Y-117296601D02*
G01*
X141370687Y-117360367D01*
X141509234Y-117452941D01*
X141627059Y-117570766D01*
X141719633Y-117709313D01*
X141783399Y-117863258D01*
X141815907Y-118026685D01*
X141815907Y-118193315D01*
X141783399Y-118356742D01*
X141719633Y-118510687D01*
X141627059Y-118649234D01*
X141509234Y-118767059D01*
X141370687Y-118859633D01*
X141216742Y-118923399D01*
X141053315Y-118955907D01*
X140886685Y-118955907D01*
X140723258Y-118923399D01*
X140569313Y-118859633D01*
X140430766Y-118767059D01*
X140312941Y-118649234D01*
X140220367Y-118510687D01*
X140156601Y-118356742D01*
X140124093Y-118193315D01*
X140124093Y-118026685D01*
X140156601Y-117863258D01*
X140220367Y-117709313D01*
X140312941Y-117570766D01*
X140430766Y-117452941D01*
X140569313Y-117360367D01*
X140723258Y-117296601D01*
X140886685Y-117264093D01*
X141053315Y-117264093D01*
X141216742Y-117296601D01*
G37*
G36*
X143756742Y-117296601D02*
G01*
X143910687Y-117360367D01*
X144049234Y-117452941D01*
X144167059Y-117570766D01*
X144259633Y-117709313D01*
X144323399Y-117863258D01*
X144355907Y-118026685D01*
X144355907Y-118193315D01*
X144323399Y-118356742D01*
X144259633Y-118510687D01*
X144167059Y-118649234D01*
X144049234Y-118767059D01*
X143910687Y-118859633D01*
X143756742Y-118923399D01*
X143593315Y-118955907D01*
X143426685Y-118955907D01*
X143263258Y-118923399D01*
X143109313Y-118859633D01*
X142970766Y-118767059D01*
X142852941Y-118649234D01*
X142760367Y-118510687D01*
X142696601Y-118356742D01*
X142664093Y-118193315D01*
X142664093Y-118026685D01*
X142696601Y-117863258D01*
X142760367Y-117709313D01*
X142852941Y-117570766D01*
X142970766Y-117452941D01*
X143109313Y-117360367D01*
X143263258Y-117296601D01*
X143426685Y-117264093D01*
X143593315Y-117264093D01*
X143756742Y-117296601D01*
G37*
G36*
X146296742Y-117296601D02*
G01*
X146450687Y-117360367D01*
X146589234Y-117452941D01*
X146707059Y-117570766D01*
X146799633Y-117709313D01*
X146863399Y-117863258D01*
X146895907Y-118026685D01*
X146895907Y-118193315D01*
X146863399Y-118356742D01*
X146799633Y-118510687D01*
X146707059Y-118649234D01*
X146589234Y-118767059D01*
X146450687Y-118859633D01*
X146296742Y-118923399D01*
X146133315Y-118955907D01*
X145966685Y-118955907D01*
X145803258Y-118923399D01*
X145649313Y-118859633D01*
X145510766Y-118767059D01*
X145392941Y-118649234D01*
X145300367Y-118510687D01*
X145236601Y-118356742D01*
X145204093Y-118193315D01*
X145204093Y-118026685D01*
X145236601Y-117863258D01*
X145300367Y-117709313D01*
X145392941Y-117570766D01*
X145510766Y-117452941D01*
X145649313Y-117360367D01*
X145803258Y-117296601D01*
X145966685Y-117264093D01*
X146133315Y-117264093D01*
X146296742Y-117296601D01*
G37*
G36*
X148836742Y-117296601D02*
G01*
X148990687Y-117360367D01*
X149129234Y-117452941D01*
X149247059Y-117570766D01*
X149339633Y-117709313D01*
X149403399Y-117863258D01*
X149435907Y-118026685D01*
X149435907Y-118193315D01*
X149403399Y-118356742D01*
X149339633Y-118510687D01*
X149247059Y-118649234D01*
X149129234Y-118767059D01*
X148990687Y-118859633D01*
X148836742Y-118923399D01*
X148673315Y-118955907D01*
X148506685Y-118955907D01*
X148343258Y-118923399D01*
X148189313Y-118859633D01*
X148050766Y-118767059D01*
X147932941Y-118649234D01*
X147840367Y-118510687D01*
X147776601Y-118356742D01*
X147744093Y-118193315D01*
X147744093Y-118026685D01*
X147776601Y-117863258D01*
X147840367Y-117709313D01*
X147932941Y-117570766D01*
X148050766Y-117452941D01*
X148189313Y-117360367D01*
X148343258Y-117296601D01*
X148506685Y-117264093D01*
X148673315Y-117264093D01*
X148836742Y-117296601D01*
G37*
G36*
X151376742Y-117296601D02*
G01*
X151530687Y-117360367D01*
X151669234Y-117452941D01*
X151787059Y-117570766D01*
X151879633Y-117709313D01*
X151943399Y-117863258D01*
X151975907Y-118026685D01*
X151975907Y-118193315D01*
X151943399Y-118356742D01*
X151879633Y-118510687D01*
X151787059Y-118649234D01*
X151669234Y-118767059D01*
X151530687Y-118859633D01*
X151376742Y-118923399D01*
X151213315Y-118955907D01*
X151046685Y-118955907D01*
X150883258Y-118923399D01*
X150729313Y-118859633D01*
X150590766Y-118767059D01*
X150472941Y-118649234D01*
X150380367Y-118510687D01*
X150316601Y-118356742D01*
X150284093Y-118193315D01*
X150284093Y-118026685D01*
X150316601Y-117863258D01*
X150380367Y-117709313D01*
X150472941Y-117570766D01*
X150590766Y-117452941D01*
X150729313Y-117360367D01*
X150883258Y-117296601D01*
X151046685Y-117264093D01*
X151213315Y-117264093D01*
X151376742Y-117296601D01*
G37*
G36*
X153916742Y-117296601D02*
G01*
X154070687Y-117360367D01*
X154209234Y-117452941D01*
X154327059Y-117570766D01*
X154419633Y-117709313D01*
X154483399Y-117863258D01*
X154515907Y-118026685D01*
X154515907Y-118193315D01*
X154483399Y-118356742D01*
X154419633Y-118510687D01*
X154327059Y-118649234D01*
X154209234Y-118767059D01*
X154070687Y-118859633D01*
X153916742Y-118923399D01*
X153753315Y-118955907D01*
X153586685Y-118955907D01*
X153423258Y-118923399D01*
X153269313Y-118859633D01*
X153130766Y-118767059D01*
X153012941Y-118649234D01*
X152920367Y-118510687D01*
X152856601Y-118356742D01*
X152824093Y-118193315D01*
X152824093Y-118026685D01*
X152856601Y-117863258D01*
X152920367Y-117709313D01*
X153012941Y-117570766D01*
X153130766Y-117452941D01*
X153269313Y-117360367D01*
X153423258Y-117296601D01*
X153586685Y-117264093D01*
X153753315Y-117264093D01*
X153916742Y-117296601D01*
G37*
G36*
X156456742Y-117296601D02*
G01*
X156610687Y-117360367D01*
X156749234Y-117452941D01*
X156867059Y-117570766D01*
X156959633Y-117709313D01*
X157023399Y-117863258D01*
X157055907Y-118026685D01*
X157055907Y-118193315D01*
X157023399Y-118356742D01*
X156959633Y-118510687D01*
X156867059Y-118649234D01*
X156749234Y-118767059D01*
X156610687Y-118859633D01*
X156456742Y-118923399D01*
X156293315Y-118955907D01*
X156126685Y-118955907D01*
X155963258Y-118923399D01*
X155809313Y-118859633D01*
X155670766Y-118767059D01*
X155552941Y-118649234D01*
X155460367Y-118510687D01*
X155396601Y-118356742D01*
X155364093Y-118193315D01*
X155364093Y-118026685D01*
X155396601Y-117863258D01*
X155460367Y-117709313D01*
X155552941Y-117570766D01*
X155670766Y-117452941D01*
X155809313Y-117360367D01*
X155963258Y-117296601D01*
X156126685Y-117264093D01*
X156293315Y-117264093D01*
X156456742Y-117296601D01*
G37*
G36*
X158996742Y-117296601D02*
G01*
X159150687Y-117360367D01*
X159289234Y-117452941D01*
X159407059Y-117570766D01*
X159499633Y-117709313D01*
X159563399Y-117863258D01*
X159595907Y-118026685D01*
X159595907Y-118193315D01*
X159563399Y-118356742D01*
X159499633Y-118510687D01*
X159407059Y-118649234D01*
X159289234Y-118767059D01*
X159150687Y-118859633D01*
X158996742Y-118923399D01*
X158833315Y-118955907D01*
X158666685Y-118955907D01*
X158503258Y-118923399D01*
X158349313Y-118859633D01*
X158210766Y-118767059D01*
X158092941Y-118649234D01*
X158000367Y-118510687D01*
X157936601Y-118356742D01*
X157904093Y-118193315D01*
X157904093Y-118026685D01*
X157936601Y-117863258D01*
X158000367Y-117709313D01*
X158092941Y-117570766D01*
X158210766Y-117452941D01*
X158349313Y-117360367D01*
X158503258Y-117296601D01*
X158666685Y-117264093D01*
X158833315Y-117264093D01*
X158996742Y-117296601D01*
G37*
G36*
X117206509Y-115313379D02*
G01*
X117440813Y-115389509D01*
X117660323Y-115501355D01*
X117859633Y-115646163D01*
X118033837Y-115820367D01*
X118178645Y-116019677D01*
X118290491Y-116239187D01*
X118366621Y-116473491D01*
X118405160Y-116716819D01*
X118405160Y-116963181D01*
X118366621Y-117206509D01*
X118290491Y-117440813D01*
X118178645Y-117660323D01*
X118033837Y-117859633D01*
X117859633Y-118033837D01*
X117660323Y-118178645D01*
X117440813Y-118290491D01*
X117206509Y-118366621D01*
X116963181Y-118405160D01*
X116716819Y-118405160D01*
X116473491Y-118366621D01*
X116239187Y-118290491D01*
X116019677Y-118178645D01*
X115820367Y-118033837D01*
X115646163Y-117859633D01*
X115501355Y-117660323D01*
X115389509Y-117440813D01*
X115313379Y-117206509D01*
X115274840Y-116963181D01*
X115274840Y-116716819D01*
X115313379Y-116473491D01*
X115389509Y-116239187D01*
X115501355Y-116019677D01*
X115646163Y-115820367D01*
X115820367Y-115646163D01*
X116019677Y-115501355D01*
X116239187Y-115389509D01*
X116473491Y-115313379D01*
X116716819Y-115274840D01*
X116963181Y-115274840D01*
X117206509Y-115313379D01*
G37*
G36*
X162856476Y-115605090D02*
G01*
X163046008Y-115666673D01*
X163223573Y-115757147D01*
X163384799Y-115874284D01*
X163525716Y-116015201D01*
X163642853Y-116176427D01*
X163733327Y-116353992D01*
X163794910Y-116543524D01*
X163826085Y-116740357D01*
X163826085Y-116939643D01*
X163794910Y-117136476D01*
X163733327Y-117326008D01*
X163642853Y-117503573D01*
X163525716Y-117664799D01*
X163384799Y-117805716D01*
X163223573Y-117922853D01*
X163046008Y-118013327D01*
X162856476Y-118074910D01*
X162659643Y-118106085D01*
X162460357Y-118106085D01*
X162263524Y-118074910D01*
X162073992Y-118013327D01*
X161896427Y-117922853D01*
X161735201Y-117805716D01*
X161594284Y-117664799D01*
X161477147Y-117503573D01*
X161386673Y-117326008D01*
X161325090Y-117136476D01*
X161293915Y-116939643D01*
X161293915Y-116740357D01*
X161325090Y-116543524D01*
X161386673Y-116353992D01*
X161477147Y-116176427D01*
X161594284Y-116015201D01*
X161735201Y-115874284D01*
X161896427Y-115757147D01*
X162073992Y-115666673D01*
X162263524Y-115605090D01*
X162460357Y-115573915D01*
X162659643Y-115573915D01*
X162856476Y-115605090D01*
G37*
G36*
X134906536Y-107704464D02*
G01*
X134907160Y-107705226D01*
X134910551Y-107710312D01*
X134910552Y-107710313D01*
X135401555Y-108446818D01*
X135407160Y-108455226D01*
X135407903Y-108458981D01*
X135407160Y-108460774D01*
X135404398Y-108464917D01*
X134915034Y-109198964D01*
X134907160Y-109210774D01*
X134903981Y-109212903D01*
X134903000Y-109213000D01*
X134896886Y-109213000D01*
X133913104Y-109213000D01*
X133903000Y-109213000D01*
X133899464Y-109211536D01*
X133898000Y-109208000D01*
X133898000Y-107708000D01*
X133899464Y-107704464D01*
X133903000Y-107703000D01*
X134903000Y-107703000D01*
X134906536Y-107704464D01*
G37*
G36*
X136356536Y-107704464D02*
G01*
X136358000Y-107708000D01*
X136358000Y-109208000D01*
X136356536Y-109211536D01*
X136353000Y-109213000D01*
X136342896Y-109213000D01*
X135213104Y-109213000D01*
X135203000Y-109213000D01*
X135199464Y-109211536D01*
X135198000Y-109208000D01*
X135198840Y-109205226D01*
X135203011Y-109198968D01*
X135203013Y-109198964D01*
X135686736Y-108473381D01*
X135686736Y-108442619D01*
X135204444Y-107719181D01*
X135204443Y-107719179D01*
X135198840Y-107710774D01*
X135198097Y-107707019D01*
X135200226Y-107703840D01*
X135203000Y-107703000D01*
X136353000Y-107703000D01*
X136356536Y-107704464D01*
G37*
G36*
X117206509Y-97533379D02*
G01*
X117440813Y-97609509D01*
X117660323Y-97721355D01*
X117859633Y-97866163D01*
X118033837Y-98040367D01*
X118178645Y-98239677D01*
X118290491Y-98459187D01*
X118366621Y-98693491D01*
X118405160Y-98936819D01*
X118405160Y-99183181D01*
X118366621Y-99426509D01*
X118290491Y-99660813D01*
X118178645Y-99880323D01*
X118033837Y-100079633D01*
X117859633Y-100253837D01*
X117660323Y-100398645D01*
X117440813Y-100510491D01*
X117206509Y-100586621D01*
X116963181Y-100625160D01*
X116716819Y-100625160D01*
X116473491Y-100586621D01*
X116239187Y-100510491D01*
X116019677Y-100398645D01*
X115820367Y-100253837D01*
X115646163Y-100079633D01*
X115501355Y-99880323D01*
X115389509Y-99660813D01*
X115313379Y-99426509D01*
X115274840Y-99183181D01*
X115274840Y-98936819D01*
X115313379Y-98693491D01*
X115389509Y-98459187D01*
X115501355Y-98239677D01*
X115646163Y-98040367D01*
X115820367Y-97866163D01*
X116019677Y-97721355D01*
X116239187Y-97609509D01*
X116473491Y-97533379D01*
X116716819Y-97494840D01*
X116963181Y-97494840D01*
X117206509Y-97533379D01*
G37*
G36*
X162856476Y-97825090D02*
G01*
X163046008Y-97886673D01*
X163223573Y-97977147D01*
X163384799Y-98094284D01*
X163525716Y-98235201D01*
X163642853Y-98396427D01*
X163733327Y-98573992D01*
X163794910Y-98763524D01*
X163826085Y-98960357D01*
X163826085Y-99159643D01*
X163794910Y-99356476D01*
X163733327Y-99546008D01*
X163642853Y-99723573D01*
X163525716Y-99884799D01*
X163384799Y-100025716D01*
X163223573Y-100142853D01*
X163046008Y-100233327D01*
X162856476Y-100294910D01*
X162659643Y-100326085D01*
X162460357Y-100326085D01*
X162263524Y-100294910D01*
X162073992Y-100233327D01*
X161896427Y-100142853D01*
X161735201Y-100025716D01*
X161594284Y-99884799D01*
X161477147Y-99723573D01*
X161386673Y-99546008D01*
X161325090Y-99356476D01*
X161293915Y-99159643D01*
X161293915Y-98960357D01*
X161325090Y-98763524D01*
X161386673Y-98573992D01*
X161477147Y-98396427D01*
X161594284Y-98235201D01*
X161735201Y-98094284D01*
X161896427Y-97977147D01*
X162073992Y-97886673D01*
X162263524Y-97825090D01*
X162460357Y-97793915D01*
X162659643Y-97793915D01*
X162856476Y-97825090D01*
G37*
G36*
X121222208Y-98659254D02*
G01*
X121323943Y-98717991D01*
X121407009Y-98801057D01*
X121465746Y-98902792D01*
X121496150Y-99016263D01*
X121496150Y-99133737D01*
X121465746Y-99247208D01*
X121407009Y-99348943D01*
X121323943Y-99432009D01*
X121222208Y-99490746D01*
X121108737Y-99521150D01*
X120991263Y-99521150D01*
X120877792Y-99490746D01*
X120776057Y-99432009D01*
X120692991Y-99348943D01*
X120634254Y-99247208D01*
X120603850Y-99133737D01*
X120603850Y-99016263D01*
X120634254Y-98902792D01*
X120692991Y-98801057D01*
X120776057Y-98717991D01*
X120877792Y-98659254D01*
X120991263Y-98628850D01*
X121108737Y-98628850D01*
X121222208Y-98659254D01*
G37*
G36*
X128022208Y-98659254D02*
G01*
X128123943Y-98717991D01*
X128207009Y-98801057D01*
X128265746Y-98902792D01*
X128296150Y-99016263D01*
X128296150Y-99133737D01*
X128265746Y-99247208D01*
X128207009Y-99348943D01*
X128123943Y-99432009D01*
X128022208Y-99490746D01*
X127908737Y-99521150D01*
X127791263Y-99521150D01*
X127677792Y-99490746D01*
X127576057Y-99432009D01*
X127492991Y-99348943D01*
X127434254Y-99247208D01*
X127403850Y-99133737D01*
X127403850Y-99016263D01*
X127434254Y-98902792D01*
X127492991Y-98801057D01*
X127576057Y-98717991D01*
X127677792Y-98659254D01*
X127791263Y-98628850D01*
X127908737Y-98628850D01*
X128022208Y-98659254D01*
G37*
G36*
X131056742Y-96976601D02*
G01*
X131210687Y-97040367D01*
X131349234Y-97132941D01*
X131467059Y-97250766D01*
X131559633Y-97389313D01*
X131623399Y-97543258D01*
X131655907Y-97706685D01*
X131655907Y-97873315D01*
X131623399Y-98036742D01*
X131559633Y-98190687D01*
X131467059Y-98329234D01*
X131349234Y-98447059D01*
X131210687Y-98539633D01*
X131056742Y-98603399D01*
X130893315Y-98635907D01*
X130726685Y-98635907D01*
X130563258Y-98603399D01*
X130409313Y-98539633D01*
X130270766Y-98447059D01*
X130152941Y-98329234D01*
X130060367Y-98190687D01*
X129996601Y-98036742D01*
X129964093Y-97873315D01*
X129964093Y-97706685D01*
X129996601Y-97543258D01*
X130060367Y-97389313D01*
X130152941Y-97250766D01*
X130270766Y-97132941D01*
X130409313Y-97040367D01*
X130563258Y-96976601D01*
X130726685Y-96944093D01*
X130893315Y-96944093D01*
X131056742Y-96976601D01*
G37*
G36*
X133596742Y-96976601D02*
G01*
X133750687Y-97040367D01*
X133889234Y-97132941D01*
X134007059Y-97250766D01*
X134099633Y-97389313D01*
X134163399Y-97543258D01*
X134195907Y-97706685D01*
X134195907Y-97873315D01*
X134163399Y-98036742D01*
X134099633Y-98190687D01*
X134007059Y-98329234D01*
X133889234Y-98447059D01*
X133750687Y-98539633D01*
X133596742Y-98603399D01*
X133433315Y-98635907D01*
X133266685Y-98635907D01*
X133103258Y-98603399D01*
X132949313Y-98539633D01*
X132810766Y-98447059D01*
X132692941Y-98329234D01*
X132600367Y-98190687D01*
X132536601Y-98036742D01*
X132504093Y-97873315D01*
X132504093Y-97706685D01*
X132536601Y-97543258D01*
X132600367Y-97389313D01*
X132692941Y-97250766D01*
X132810766Y-97132941D01*
X132949313Y-97040367D01*
X133103258Y-96976601D01*
X133266685Y-96944093D01*
X133433315Y-96944093D01*
X133596742Y-96976601D01*
G37*
G36*
X136136742Y-96976601D02*
G01*
X136290687Y-97040367D01*
X136429234Y-97132941D01*
X136547059Y-97250766D01*
X136639633Y-97389313D01*
X136703399Y-97543258D01*
X136735907Y-97706685D01*
X136735907Y-97873315D01*
X136703399Y-98036742D01*
X136639633Y-98190687D01*
X136547059Y-98329234D01*
X136429234Y-98447059D01*
X136290687Y-98539633D01*
X136136742Y-98603399D01*
X135973315Y-98635907D01*
X135806685Y-98635907D01*
X135643258Y-98603399D01*
X135489313Y-98539633D01*
X135350766Y-98447059D01*
X135232941Y-98329234D01*
X135140367Y-98190687D01*
X135076601Y-98036742D01*
X135044093Y-97873315D01*
X135044093Y-97706685D01*
X135076601Y-97543258D01*
X135140367Y-97389313D01*
X135232941Y-97250766D01*
X135350766Y-97132941D01*
X135489313Y-97040367D01*
X135643258Y-96976601D01*
X135806685Y-96944093D01*
X135973315Y-96944093D01*
X136136742Y-96976601D01*
G37*
G36*
X138676742Y-96976601D02*
G01*
X138830687Y-97040367D01*
X138969234Y-97132941D01*
X139087059Y-97250766D01*
X139179633Y-97389313D01*
X139243399Y-97543258D01*
X139275907Y-97706685D01*
X139275907Y-97873315D01*
X139243399Y-98036742D01*
X139179633Y-98190687D01*
X139087059Y-98329234D01*
X138969234Y-98447059D01*
X138830687Y-98539633D01*
X138676742Y-98603399D01*
X138513315Y-98635907D01*
X138346685Y-98635907D01*
X138183258Y-98603399D01*
X138029313Y-98539633D01*
X137890766Y-98447059D01*
X137772941Y-98329234D01*
X137680367Y-98190687D01*
X137616601Y-98036742D01*
X137584093Y-97873315D01*
X137584093Y-97706685D01*
X137616601Y-97543258D01*
X137680367Y-97389313D01*
X137772941Y-97250766D01*
X137890766Y-97132941D01*
X138029313Y-97040367D01*
X138183258Y-96976601D01*
X138346685Y-96944093D01*
X138513315Y-96944093D01*
X138676742Y-96976601D01*
G37*
G36*
X141216742Y-96976601D02*
G01*
X141370687Y-97040367D01*
X141509234Y-97132941D01*
X141627059Y-97250766D01*
X141719633Y-97389313D01*
X141783399Y-97543258D01*
X141815907Y-97706685D01*
X141815907Y-97873315D01*
X141783399Y-98036742D01*
X141719633Y-98190687D01*
X141627059Y-98329234D01*
X141509234Y-98447059D01*
X141370687Y-98539633D01*
X141216742Y-98603399D01*
X141053315Y-98635907D01*
X140886685Y-98635907D01*
X140723258Y-98603399D01*
X140569313Y-98539633D01*
X140430766Y-98447059D01*
X140312941Y-98329234D01*
X140220367Y-98190687D01*
X140156601Y-98036742D01*
X140124093Y-97873315D01*
X140124093Y-97706685D01*
X140156601Y-97543258D01*
X140220367Y-97389313D01*
X140312941Y-97250766D01*
X140430766Y-97132941D01*
X140569313Y-97040367D01*
X140723258Y-96976601D01*
X140886685Y-96944093D01*
X141053315Y-96944093D01*
X141216742Y-96976601D01*
G37*
G36*
X143756742Y-96976601D02*
G01*
X143910687Y-97040367D01*
X144049234Y-97132941D01*
X144167059Y-97250766D01*
X144259633Y-97389313D01*
X144323399Y-97543258D01*
X144355907Y-97706685D01*
X144355907Y-97873315D01*
X144323399Y-98036742D01*
X144259633Y-98190687D01*
X144167059Y-98329234D01*
X144049234Y-98447059D01*
X143910687Y-98539633D01*
X143756742Y-98603399D01*
X143593315Y-98635907D01*
X143426685Y-98635907D01*
X143263258Y-98603399D01*
X143109313Y-98539633D01*
X142970766Y-98447059D01*
X142852941Y-98329234D01*
X142760367Y-98190687D01*
X142696601Y-98036742D01*
X142664093Y-97873315D01*
X142664093Y-97706685D01*
X142696601Y-97543258D01*
X142760367Y-97389313D01*
X142852941Y-97250766D01*
X142970766Y-97132941D01*
X143109313Y-97040367D01*
X143263258Y-96976601D01*
X143426685Y-96944093D01*
X143593315Y-96944093D01*
X143756742Y-96976601D01*
G37*
G36*
X146296742Y-96976601D02*
G01*
X146450687Y-97040367D01*
X146589234Y-97132941D01*
X146707059Y-97250766D01*
X146799633Y-97389313D01*
X146863399Y-97543258D01*
X146895907Y-97706685D01*
X146895907Y-97873315D01*
X146863399Y-98036742D01*
X146799633Y-98190687D01*
X146707059Y-98329234D01*
X146589234Y-98447059D01*
X146450687Y-98539633D01*
X146296742Y-98603399D01*
X146133315Y-98635907D01*
X145966685Y-98635907D01*
X145803258Y-98603399D01*
X145649313Y-98539633D01*
X145510766Y-98447059D01*
X145392941Y-98329234D01*
X145300367Y-98190687D01*
X145236601Y-98036742D01*
X145204093Y-97873315D01*
X145204093Y-97706685D01*
X145236601Y-97543258D01*
X145300367Y-97389313D01*
X145392941Y-97250766D01*
X145510766Y-97132941D01*
X145649313Y-97040367D01*
X145803258Y-96976601D01*
X145966685Y-96944093D01*
X146133315Y-96944093D01*
X146296742Y-96976601D01*
G37*
G36*
X148836742Y-96976601D02*
G01*
X148990687Y-97040367D01*
X149129234Y-97132941D01*
X149247059Y-97250766D01*
X149339633Y-97389313D01*
X149403399Y-97543258D01*
X149435907Y-97706685D01*
X149435907Y-97873315D01*
X149403399Y-98036742D01*
X149339633Y-98190687D01*
X149247059Y-98329234D01*
X149129234Y-98447059D01*
X148990687Y-98539633D01*
X148836742Y-98603399D01*
X148673315Y-98635907D01*
X148506685Y-98635907D01*
X148343258Y-98603399D01*
X148189313Y-98539633D01*
X148050766Y-98447059D01*
X147932941Y-98329234D01*
X147840367Y-98190687D01*
X147776601Y-98036742D01*
X147744093Y-97873315D01*
X147744093Y-97706685D01*
X147776601Y-97543258D01*
X147840367Y-97389313D01*
X147932941Y-97250766D01*
X148050766Y-97132941D01*
X148189313Y-97040367D01*
X148343258Y-96976601D01*
X148506685Y-96944093D01*
X148673315Y-96944093D01*
X148836742Y-96976601D01*
G37*
G36*
X151376742Y-96976601D02*
G01*
X151530687Y-97040367D01*
X151669234Y-97132941D01*
X151787059Y-97250766D01*
X151879633Y-97389313D01*
X151943399Y-97543258D01*
X151975907Y-97706685D01*
X151975907Y-97873315D01*
X151943399Y-98036742D01*
X151879633Y-98190687D01*
X151787059Y-98329234D01*
X151669234Y-98447059D01*
X151530687Y-98539633D01*
X151376742Y-98603399D01*
X151213315Y-98635907D01*
X151046685Y-98635907D01*
X150883258Y-98603399D01*
X150729313Y-98539633D01*
X150590766Y-98447059D01*
X150472941Y-98329234D01*
X150380367Y-98190687D01*
X150316601Y-98036742D01*
X150284093Y-97873315D01*
X150284093Y-97706685D01*
X150316601Y-97543258D01*
X150380367Y-97389313D01*
X150472941Y-97250766D01*
X150590766Y-97132941D01*
X150729313Y-97040367D01*
X150883258Y-96976601D01*
X151046685Y-96944093D01*
X151213315Y-96944093D01*
X151376742Y-96976601D01*
G37*
G36*
X153916742Y-96976601D02*
G01*
X154070687Y-97040367D01*
X154209234Y-97132941D01*
X154327059Y-97250766D01*
X154419633Y-97389313D01*
X154483399Y-97543258D01*
X154515907Y-97706685D01*
X154515907Y-97873315D01*
X154483399Y-98036742D01*
X154419633Y-98190687D01*
X154327059Y-98329234D01*
X154209234Y-98447059D01*
X154070687Y-98539633D01*
X153916742Y-98603399D01*
X153753315Y-98635907D01*
X153586685Y-98635907D01*
X153423258Y-98603399D01*
X153269313Y-98539633D01*
X153130766Y-98447059D01*
X153012941Y-98329234D01*
X152920367Y-98190687D01*
X152856601Y-98036742D01*
X152824093Y-97873315D01*
X152824093Y-97706685D01*
X152856601Y-97543258D01*
X152920367Y-97389313D01*
X153012941Y-97250766D01*
X153130766Y-97132941D01*
X153269313Y-97040367D01*
X153423258Y-96976601D01*
X153586685Y-96944093D01*
X153753315Y-96944093D01*
X153916742Y-96976601D01*
G37*
G36*
X156456742Y-96976601D02*
G01*
X156610687Y-97040367D01*
X156749234Y-97132941D01*
X156867059Y-97250766D01*
X156959633Y-97389313D01*
X157023399Y-97543258D01*
X157055907Y-97706685D01*
X157055907Y-97873315D01*
X157023399Y-98036742D01*
X156959633Y-98190687D01*
X156867059Y-98329234D01*
X156749234Y-98447059D01*
X156610687Y-98539633D01*
X156456742Y-98603399D01*
X156293315Y-98635907D01*
X156126685Y-98635907D01*
X155963258Y-98603399D01*
X155809313Y-98539633D01*
X155670766Y-98447059D01*
X155552941Y-98329234D01*
X155460367Y-98190687D01*
X155396601Y-98036742D01*
X155364093Y-97873315D01*
X155364093Y-97706685D01*
X155396601Y-97543258D01*
X155460367Y-97389313D01*
X155552941Y-97250766D01*
X155670766Y-97132941D01*
X155809313Y-97040367D01*
X155963258Y-96976601D01*
X156126685Y-96944093D01*
X156293315Y-96944093D01*
X156456742Y-96976601D01*
G37*
G36*
X158996742Y-96976601D02*
G01*
X159150687Y-97040367D01*
X159289234Y-97132941D01*
X159407059Y-97250766D01*
X159499633Y-97389313D01*
X159563399Y-97543258D01*
X159595907Y-97706685D01*
X159595907Y-97873315D01*
X159563399Y-98036742D01*
X159499633Y-98190687D01*
X159407059Y-98329234D01*
X159289234Y-98447059D01*
X159150687Y-98539633D01*
X158996742Y-98603399D01*
X158833315Y-98635907D01*
X158666685Y-98635907D01*
X158503258Y-98603399D01*
X158349313Y-98539633D01*
X158210766Y-98447059D01*
X158092941Y-98329234D01*
X158000367Y-98190687D01*
X157936601Y-98036742D01*
X157904093Y-97873315D01*
X157904093Y-97706685D01*
X157936601Y-97543258D01*
X158000367Y-97389313D01*
X158092941Y-97250766D01*
X158210766Y-97132941D01*
X158349313Y-97040367D01*
X158503258Y-96976601D01*
X158666685Y-96944093D01*
X158833315Y-96944093D01*
X158996742Y-96976601D01*
G37*
M02*
