%TF.GenerationSoftware,KiCad,Pcbnew,9.0.0*%
%TF.CreationDate,2025-03-29T14:14:08-04:00*%
%TF.ProjectId,weather-featherwing,77656174-6865-4722-9d66-656174686572,1.3.0*%
%TF.SameCoordinates,Original*%
%TF.FileFunction,Copper,L2,Bot*%
%TF.FilePolarity,Positive*%
%FSLAX46Y46*%
G04 Gerber Fmt 4.6, Leading zero omitted, Abs format (unit mm)*
G04 Created by KiCad (PCBNEW 9.0.0) date 2025-03-29 14:14:08*
%MOMM*%
%LPD*%
G01*
G04 APERTURE LIST*
G04 Aperture macros list*
%AMFreePoly0*
4,1,6,1.000000,0.000000,0.500000,-0.750000,-0.500000,-0.750000,-0.500000,0.750000,0.500000,0.750000,1.000000,0.000000,1.000000,0.000000,$1*%
%AMFreePoly1*
4,1,6,0.500000,-0.750000,-0.650000,-0.750000,-0.150000,0.000000,-0.650000,0.750000,0.500000,0.750000,0.500000,-0.750000,0.500000,-0.750000,$1*%
G04 Aperture macros list end*
%TA.AperFunction,ComponentPad*%
%ADD10C,3.140000*%
%TD*%
%TA.AperFunction,ComponentPad*%
%ADD11C,1.700000*%
%TD*%
%TA.AperFunction,SMDPad,CuDef*%
%ADD12FreePoly0,0.000000*%
%TD*%
%TA.AperFunction,SMDPad,CuDef*%
%ADD13FreePoly1,0.000000*%
%TD*%
%TA.AperFunction,ViaPad*%
%ADD14C,0.750000*%
%TD*%
%TA.AperFunction,Conductor*%
%ADD15C,0.350000*%
%TD*%
%TA.AperFunction,Conductor*%
%ADD16C,0.200000*%
%TD*%
G04 APERTURE END LIST*
D10*
%TO.P,H1,*%
%TO.N,*%
X116840000Y-99060000D03*
%TD*%
%TO.P,H2,*%
%TO.N,*%
X116840000Y-116840000D03*
%TD*%
D11*
%TO.P,J1,17,Pin_17*%
%TO.N,/SDA*%
X158750000Y-97790000D03*
%TO.P,J1,18,Pin_18*%
%TO.N,/SCL*%
X156210000Y-97790000D03*
%TO.P,J1,19,Pin_19*%
%TO.N,/CS_SD*%
X153670000Y-97790000D03*
%TO.P,J1,20,Pin_20*%
%TO.N,/CD*%
X151130000Y-97790000D03*
%TO.P,J1,21,Pin_21*%
%TO.N,/EEPROM_SCIO*%
X148590000Y-97790000D03*
%TO.P,J1,22,Pin_22*%
%TO.N,/NP_DIN*%
X146050000Y-97790000D03*
%TO.P,J1,23,3*%
%TO.N,/D11*%
X143510000Y-97790000D03*
%TO.P,J1,24,Pin_24*%
%TO.N,/D12*%
X140970000Y-97790000D03*
%TO.P,J1,25,Pin_25*%
%TO.N,/LPS_INT*%
X138430000Y-97790000D03*
%TO.P,J1,26,Pin_26*%
%TO.N,/USB*%
X135890000Y-97790000D03*
%TO.P,J1,27,Pin_27*%
%TO.N,/EN*%
X133350000Y-97790000D03*
%TO.P,J1,28,Pin_28*%
%TO.N,/BAT*%
X130810000Y-97790000D03*
%TD*%
D12*
%TO.P,JP1,1,A*%
%TO.N,VSS*%
X135175000Y-110800000D03*
D13*
%TO.P,JP1,2,B*%
%TO.N,Net-(JP1-B)*%
X136625000Y-110800000D03*
%TD*%
D11*
%TO.P,J2,1,Pin_1*%
%TO.N,/RST*%
X120650000Y-118110000D03*
%TO.P,J2,2,Pin_2*%
%TO.N,+3V3*%
X123190000Y-118110000D03*
%TO.P,J2,3,Pin_3*%
X125730000Y-118110000D03*
%TO.P,J2,4,Pin_4*%
%TO.N,VSS*%
X128270000Y-118110000D03*
%TO.P,J2,5,Pin_5*%
%TO.N,/A0*%
X130810000Y-118110000D03*
%TO.P,J2,6,Pin_6*%
%TO.N,/A1*%
X133350000Y-118110000D03*
%TO.P,J2,7,Pin_7*%
%TO.N,/A2*%
X135890000Y-118110000D03*
%TO.P,J2,8,Pin_8*%
%TO.N,/A3*%
X138430000Y-118110000D03*
%TO.P,J2,9,Pin_9*%
%TO.N,/A4*%
X140970000Y-118110000D03*
%TO.P,J2,10,Pin_10*%
%TO.N,/A5*%
X143510000Y-118110000D03*
%TO.P,J2,11,Pin_11*%
%TO.N,/SCK*%
X146050000Y-118110000D03*
%TO.P,J2,12,Pin_12*%
%TO.N,/MOSI*%
X148590000Y-118110000D03*
%TO.P,J2,13,Pin_13*%
%TO.N,/MISO*%
X151130000Y-118110000D03*
%TO.P,J2,14,Pin_14*%
%TO.N,/RX*%
X153670000Y-118110000D03*
%TO.P,J2,15,Pin_15*%
%TO.N,/TX*%
X156210000Y-118110000D03*
%TO.P,J2,16,Pin_16*%
%TO.N,/DBG*%
X158750000Y-118110000D03*
%TD*%
D14*
%TO.N,+3V3*%
X146000000Y-115350000D03*
X151000000Y-115350000D03*
%TO.N,/SCK*%
X150500000Y-109000000D03*
X146500000Y-109000000D03*
%TO.N,/MOSI*%
X150000000Y-108000000D03*
X146500000Y-108000000D03*
%TO.N,/MISO*%
X150500000Y-110500000D03*
X146500000Y-110000000D03*
%TO.N,/CS_SD*%
X153670000Y-102250000D03*
%TO.N,VSS*%
X132080000Y-104140000D03*
X149860000Y-106045000D03*
X152400000Y-114300000D03*
X116840000Y-106680000D03*
X134950000Y-109550000D03*
X130810000Y-101600000D03*
X157480000Y-104140000D03*
X120650000Y-114300000D03*
X139700000Y-104902000D03*
X119380000Y-104140000D03*
X160020000Y-104140000D03*
X134620000Y-114300000D03*
X124460000Y-104140000D03*
X116840000Y-109220000D03*
X139700000Y-114300000D03*
X127000000Y-104140000D03*
X121920000Y-104140000D03*
X152400000Y-110490000D03*
X138684000Y-100965000D03*
X157607000Y-111760000D03*
X139700000Y-111760000D03*
X121920000Y-106680000D03*
X154940000Y-114300000D03*
X159258000Y-101473000D03*
X124460000Y-106680000D03*
X160020000Y-106680000D03*
X137160000Y-114300000D03*
X157480000Y-106680000D03*
X157607000Y-109220000D03*
X124460000Y-101600000D03*
X152400000Y-116840000D03*
X129540000Y-104140000D03*
X152400000Y-99060000D03*
X129540000Y-114300000D03*
X137350000Y-106800000D03*
X116840000Y-111760000D03*
X157607000Y-100203000D03*
X152400000Y-104140000D03*
X116840000Y-101600000D03*
X160020000Y-109220000D03*
X133350000Y-101600000D03*
X157480000Y-116840000D03*
X121920000Y-116586000D03*
X146685000Y-106045000D03*
X131650000Y-112100000D03*
X127000000Y-114300000D03*
X157480000Y-101600000D03*
X116840000Y-104140000D03*
X149860000Y-104140000D03*
X139700000Y-106680000D03*
X154940000Y-116840000D03*
%TO.N,/CD*%
X145500000Y-110250000D03*
X145500000Y-107500000D03*
X146735800Y-103000000D03*
%TO.N,/SDA*%
X145000000Y-101850000D03*
X134250000Y-107000000D03*
X140741400Y-102539800D03*
X134250000Y-108900000D03*
%TO.N,/SCL*%
X128850000Y-111150000D03*
X127850000Y-112150000D03*
X133300000Y-107000000D03*
X145973800Y-100330000D03*
X138938000Y-102489000D03*
X133300000Y-108450000D03*
%TO.N,Net-(JP1-B)*%
X136600000Y-109650000D03*
%TO.N,/LPS_INT*%
X137000000Y-104650000D03*
X137000000Y-101750000D03*
%TO.N,/EEPROM_SCIO*%
X135633500Y-101983500D03*
X124500000Y-109850000D03*
X124500000Y-111850000D03*
%TO.N,/DAT1*%
X151000000Y-112500000D03*
X146500000Y-112500000D03*
%TD*%
D15*
%TO.N,+3V3*%
X151000000Y-115350000D02*
X146000000Y-115350000D01*
D16*
%TO.N,/SCK*%
X150500000Y-109000000D02*
X146500000Y-109000000D01*
%TO.N,/MOSI*%
X146500000Y-108000000D02*
X150000000Y-108000000D01*
%TO.N,/MISO*%
X147000000Y-110500000D02*
X146500000Y-110000000D01*
X150500000Y-110500000D02*
X147000000Y-110500000D01*
%TO.N,/CS_SD*%
X153670000Y-97790000D02*
X153670000Y-102250000D01*
%TO.N,/CD*%
X150647400Y-97790000D02*
X151130000Y-97790000D01*
X145500000Y-107500000D02*
X145500000Y-110250000D01*
X146735800Y-103000000D02*
X146735800Y-101701600D01*
X146735800Y-101701600D02*
X150647400Y-97790000D01*
%TO.N,/SDA*%
X134250000Y-107000000D02*
X134250000Y-108900000D01*
X145000000Y-101850000D02*
X141431200Y-101850000D01*
X141431200Y-101850000D02*
X140741400Y-102539800D01*
%TO.N,/SCL*%
X141102000Y-100325000D02*
X145968800Y-100325000D01*
X128840000Y-111160000D02*
X128840000Y-111150000D01*
X145968800Y-100325000D02*
X145973800Y-100330000D01*
X138938000Y-102489000D02*
X141102000Y-100325000D01*
X133300000Y-107000000D02*
X133300000Y-108450000D01*
X128850000Y-111150000D02*
X127850000Y-112150000D01*
%TO.N,Net-(JP1-B)*%
X136625000Y-109675000D02*
X136625000Y-110800000D01*
X136600000Y-109650000D02*
X136625000Y-109675000D01*
%TO.N,/LPS_INT*%
X137000000Y-101750000D02*
X137000000Y-104650000D01*
%TO.N,/EEPROM_SCIO*%
X147320000Y-99060000D02*
X148590000Y-97790000D01*
X138557000Y-99060000D02*
X147320000Y-99060000D01*
X124500000Y-109850000D02*
X124500000Y-111850000D01*
X135633500Y-101983500D02*
X138557000Y-99060000D01*
%TO.N,/DAT1*%
X151000000Y-112500000D02*
X146500000Y-112500000D01*
%TD*%
%TA.AperFunction,Conductor*%
%TO.N,VSS*%
G36*
X129905111Y-96940185D02*
G01*
X129950866Y-96992989D01*
X129960810Y-97062147D01*
X129938390Y-97117386D01*
X129868768Y-97213211D01*
X129790128Y-97367552D01*
X129736597Y-97532302D01*
X129709500Y-97703389D01*
X129709500Y-97876610D01*
X129736597Y-98047697D01*
X129736597Y-98047699D01*
X129736598Y-98047701D01*
X129790127Y-98212445D01*
X129868768Y-98366788D01*
X129970586Y-98506928D01*
X130093072Y-98629414D01*
X130233212Y-98731232D01*
X130387555Y-98809873D01*
X130552299Y-98863402D01*
X130723389Y-98890500D01*
X130723390Y-98890500D01*
X130896610Y-98890500D01*
X130896611Y-98890500D01*
X131067701Y-98863402D01*
X131232445Y-98809873D01*
X131386788Y-98731232D01*
X131526928Y-98629414D01*
X131649414Y-98506928D01*
X131751232Y-98366788D01*
X131829873Y-98212445D01*
X131883402Y-98047701D01*
X131910500Y-97876611D01*
X131910500Y-97703389D01*
X131883402Y-97532299D01*
X131829873Y-97367555D01*
X131751232Y-97213212D01*
X131681609Y-97117385D01*
X131658130Y-97051579D01*
X131673955Y-96983525D01*
X131724061Y-96934830D01*
X131781928Y-96920500D01*
X132378072Y-96920500D01*
X132445111Y-96940185D01*
X132490866Y-96992989D01*
X132500810Y-97062147D01*
X132478390Y-97117386D01*
X132408768Y-97213211D01*
X132330128Y-97367552D01*
X132276597Y-97532302D01*
X132249500Y-97703389D01*
X132249500Y-97876610D01*
X132276597Y-98047697D01*
X132276597Y-98047699D01*
X132276598Y-98047701D01*
X132330127Y-98212445D01*
X132408768Y-98366788D01*
X132510586Y-98506928D01*
X132633072Y-98629414D01*
X132773212Y-98731232D01*
X132927555Y-98809873D01*
X133092299Y-98863402D01*
X133263389Y-98890500D01*
X133263390Y-98890500D01*
X133436610Y-98890500D01*
X133436611Y-98890500D01*
X133607701Y-98863402D01*
X133772445Y-98809873D01*
X133926788Y-98731232D01*
X134066928Y-98629414D01*
X134189414Y-98506928D01*
X134291232Y-98366788D01*
X134369873Y-98212445D01*
X134423402Y-98047701D01*
X134450500Y-97876611D01*
X134450500Y-97703389D01*
X134423402Y-97532299D01*
X134369873Y-97367555D01*
X134291232Y-97213212D01*
X134221609Y-97117385D01*
X134198130Y-97051579D01*
X134213955Y-96983525D01*
X134264061Y-96934830D01*
X134321928Y-96920500D01*
X134918072Y-96920500D01*
X134985111Y-96940185D01*
X135030866Y-96992989D01*
X135040810Y-97062147D01*
X135018390Y-97117386D01*
X134948768Y-97213211D01*
X134870128Y-97367552D01*
X134816597Y-97532302D01*
X134789500Y-97703389D01*
X134789500Y-97876610D01*
X134816597Y-98047697D01*
X134816597Y-98047699D01*
X134816598Y-98047701D01*
X134870127Y-98212445D01*
X134948768Y-98366788D01*
X135050586Y-98506928D01*
X135173072Y-98629414D01*
X135313212Y-98731232D01*
X135467555Y-98809873D01*
X135632299Y-98863402D01*
X135803389Y-98890500D01*
X135803390Y-98890500D01*
X135976610Y-98890500D01*
X135976611Y-98890500D01*
X136147701Y-98863402D01*
X136312445Y-98809873D01*
X136466788Y-98731232D01*
X136606928Y-98629414D01*
X136729414Y-98506928D01*
X136831232Y-98366788D01*
X136909873Y-98212445D01*
X136963402Y-98047701D01*
X136990500Y-97876611D01*
X136990500Y-97703389D01*
X136963402Y-97532299D01*
X136909873Y-97367555D01*
X136831232Y-97213212D01*
X136761609Y-97117385D01*
X136738130Y-97051579D01*
X136753955Y-96983525D01*
X136804061Y-96934830D01*
X136861928Y-96920500D01*
X137458072Y-96920500D01*
X137525111Y-96940185D01*
X137570866Y-96992989D01*
X137580810Y-97062147D01*
X137558390Y-97117386D01*
X137488768Y-97213211D01*
X137410128Y-97367552D01*
X137356597Y-97532302D01*
X137329500Y-97703389D01*
X137329500Y-97876610D01*
X137356597Y-98047697D01*
X137356597Y-98047699D01*
X137356598Y-98047701D01*
X137410127Y-98212445D01*
X137488768Y-98366788D01*
X137590586Y-98506928D01*
X137713072Y-98629414D01*
X137853212Y-98731232D01*
X138007555Y-98809873D01*
X138044474Y-98821868D01*
X138102149Y-98861305D01*
X138129348Y-98925663D01*
X138117434Y-98994509D01*
X138093837Y-99027480D01*
X135798671Y-101322645D01*
X135737348Y-101356130D01*
X135698842Y-101358368D01*
X135695107Y-101358000D01*
X135695106Y-101358000D01*
X135571894Y-101358000D01*
X135571889Y-101358000D01*
X135451055Y-101382035D01*
X135451045Y-101382038D01*
X135337216Y-101429187D01*
X135337207Y-101429192D01*
X135234767Y-101497641D01*
X135234763Y-101497644D01*
X135147644Y-101584763D01*
X135147641Y-101584767D01*
X135079192Y-101687207D01*
X135079187Y-101687216D01*
X135032038Y-101801045D01*
X135032035Y-101801055D01*
X135008000Y-101921889D01*
X135008000Y-102045110D01*
X135032035Y-102165944D01*
X135032038Y-102165954D01*
X135079187Y-102279783D01*
X135079192Y-102279792D01*
X135147641Y-102382232D01*
X135147644Y-102382236D01*
X135234763Y-102469355D01*
X135234767Y-102469358D01*
X135337207Y-102537807D01*
X135337213Y-102537810D01*
X135337214Y-102537811D01*
X135451048Y-102584963D01*
X135571889Y-102608999D01*
X135571893Y-102609000D01*
X135571894Y-102609000D01*
X135695107Y-102609000D01*
X135695108Y-102608999D01*
X135815952Y-102584963D01*
X135929786Y-102537811D01*
X136032233Y-102469358D01*
X136119358Y-102382233D01*
X136187811Y-102279786D01*
X136234963Y-102165952D01*
X136243243Y-102124320D01*
X136250007Y-102111389D01*
X136252092Y-102096944D01*
X136265875Y-102081052D01*
X136275626Y-102062412D01*
X136288309Y-102055188D01*
X136297873Y-102044163D01*
X136318059Y-102038246D01*
X136336340Y-102027836D01*
X136350916Y-102028616D01*
X136364922Y-102024512D01*
X136385102Y-102030448D01*
X136406110Y-102031574D01*
X136419158Y-102040466D01*
X136431952Y-102044230D01*
X136448399Y-102060394D01*
X136458614Y-102067356D01*
X136463671Y-102073198D01*
X136514142Y-102148733D01*
X136601267Y-102235858D01*
X136608872Y-102240939D01*
X136619254Y-102252933D01*
X136629540Y-102275486D01*
X136643497Y-102295973D01*
X136645930Y-102311424D01*
X136648247Y-102316504D01*
X136647521Y-102321528D01*
X136649500Y-102334089D01*
X136649500Y-104065910D01*
X136629815Y-104132949D01*
X136604165Y-104161763D01*
X136601264Y-104164143D01*
X136514144Y-104251263D01*
X136514141Y-104251267D01*
X136445692Y-104353707D01*
X136445687Y-104353716D01*
X136398538Y-104467545D01*
X136398535Y-104467555D01*
X136374500Y-104588389D01*
X136374500Y-104711610D01*
X136398535Y-104832444D01*
X136398538Y-104832454D01*
X136445687Y-104946283D01*
X136445692Y-104946292D01*
X136514141Y-105048732D01*
X136514144Y-105048736D01*
X136601263Y-105135855D01*
X136601267Y-105135858D01*
X136703707Y-105204307D01*
X136703713Y-105204310D01*
X136703714Y-105204311D01*
X136817548Y-105251463D01*
X136938389Y-105275499D01*
X136938393Y-105275500D01*
X136938394Y-105275500D01*
X137061607Y-105275500D01*
X137061608Y-105275499D01*
X137182452Y-105251463D01*
X137296286Y-105204311D01*
X137398733Y-105135858D01*
X137485858Y-105048733D01*
X137554311Y-104946286D01*
X137601463Y-104832452D01*
X137625500Y-104711606D01*
X137625500Y-104588394D01*
X137601463Y-104467548D01*
X137554311Y-104353714D01*
X137554310Y-104353713D01*
X137554307Y-104353707D01*
X137485858Y-104251267D01*
X137485855Y-104251263D01*
X137398735Y-104164143D01*
X137395835Y-104161763D01*
X137394724Y-104160132D01*
X137394426Y-104159834D01*
X137394482Y-104159777D01*
X137356500Y-104104017D01*
X137350500Y-104065910D01*
X137350500Y-102427389D01*
X138312500Y-102427389D01*
X138312500Y-102550610D01*
X138336535Y-102671444D01*
X138336538Y-102671454D01*
X138383687Y-102785283D01*
X138383692Y-102785292D01*
X138452141Y-102887732D01*
X138452144Y-102887736D01*
X138539263Y-102974855D01*
X138539267Y-102974858D01*
X138641707Y-103043307D01*
X138641713Y-103043310D01*
X138641714Y-103043311D01*
X138755548Y-103090463D01*
X138876389Y-103114499D01*
X138876393Y-103114500D01*
X138876394Y-103114500D01*
X138999607Y-103114500D01*
X138999608Y-103114499D01*
X139120452Y-103090463D01*
X139234286Y-103043311D01*
X139336733Y-102974858D01*
X139423858Y-102887733D01*
X139492311Y-102785286D01*
X139539463Y-102671452D01*
X139563500Y-102550606D01*
X139563500Y-102478189D01*
X140115900Y-102478189D01*
X140115900Y-102601410D01*
X140139935Y-102722244D01*
X140139938Y-102722254D01*
X140187087Y-102836083D01*
X140187092Y-102836092D01*
X140255541Y-102938532D01*
X140255544Y-102938536D01*
X140342663Y-103025655D01*
X140342667Y-103025658D01*
X140445107Y-103094107D01*
X140445113Y-103094110D01*
X140445114Y-103094111D01*
X140558948Y-103141263D01*
X140679789Y-103165299D01*
X140679793Y-103165300D01*
X140679794Y-103165300D01*
X140803007Y-103165300D01*
X140803008Y-103165299D01*
X140923852Y-103141263D01*
X141037686Y-103094111D01*
X141140133Y-103025658D01*
X141227258Y-102938533D01*
X141295711Y-102836086D01*
X141342863Y-102722252D01*
X141366900Y-102601406D01*
X141366900Y-102478194D01*
X141366898Y-102478188D01*
X141366532Y-102474465D01*
X141366853Y-102472768D01*
X141366251Y-102471152D01*
X141373336Y-102438582D01*
X141379549Y-102405818D01*
X141380853Y-102404025D01*
X141381103Y-102402879D01*
X141402247Y-102374633D01*
X141540064Y-102236816D01*
X141601387Y-102203334D01*
X141627744Y-102200500D01*
X144415910Y-102200500D01*
X144482949Y-102220185D01*
X144511763Y-102245835D01*
X144514143Y-102248735D01*
X144601263Y-102335855D01*
X144601267Y-102335858D01*
X144703707Y-102404307D01*
X144703713Y-102404310D01*
X144703714Y-102404311D01*
X144817548Y-102451463D01*
X144924659Y-102472768D01*
X144938389Y-102475499D01*
X144938393Y-102475500D01*
X144938394Y-102475500D01*
X145061607Y-102475500D01*
X145061608Y-102475499D01*
X145182452Y-102451463D01*
X145296286Y-102404311D01*
X145398733Y-102335858D01*
X145485858Y-102248733D01*
X145554311Y-102146286D01*
X145601463Y-102032452D01*
X145625500Y-101911606D01*
X145625500Y-101788394D01*
X145601463Y-101667548D01*
X145554311Y-101553714D01*
X145554310Y-101553713D01*
X145554307Y-101553707D01*
X145485858Y-101451267D01*
X145485855Y-101451263D01*
X145398736Y-101364144D01*
X145398732Y-101364141D01*
X145296292Y-101295692D01*
X145296283Y-101295687D01*
X145182454Y-101248538D01*
X145182455Y-101248538D01*
X145182452Y-101248537D01*
X145182448Y-101248536D01*
X145182444Y-101248535D01*
X145061610Y-101224500D01*
X145061606Y-101224500D01*
X144938394Y-101224500D01*
X144938389Y-101224500D01*
X144817555Y-101248535D01*
X144817545Y-101248538D01*
X144703716Y-101295687D01*
X144703707Y-101295692D01*
X144601267Y-101364141D01*
X144601263Y-101364144D01*
X144514143Y-101451264D01*
X144511763Y-101454165D01*
X144510132Y-101455275D01*
X144509834Y-101455574D01*
X144509777Y-101455517D01*
X144454017Y-101493500D01*
X144415910Y-101499500D01*
X141385056Y-101499500D01*
X141297408Y-101522985D01*
X141297401Y-101522987D01*
X141295914Y-101523385D01*
X141295907Y-101523388D01*
X141215994Y-101569525D01*
X141215990Y-101569528D01*
X140906571Y-101878946D01*
X140845248Y-101912430D01*
X140806742Y-101914668D01*
X140803007Y-101914300D01*
X140803006Y-101914300D01*
X140679794Y-101914300D01*
X140679789Y-101914300D01*
X140558955Y-101938335D01*
X140558945Y-101938338D01*
X140445116Y-101985487D01*
X140445107Y-101985492D01*
X140342667Y-102053941D01*
X140342663Y-102053944D01*
X140255544Y-102141063D01*
X140255541Y-102141067D01*
X140187092Y-102243507D01*
X140187087Y-102243516D01*
X140139938Y-102357345D01*
X140139935Y-102357355D01*
X140115900Y-102478189D01*
X139563500Y-102478189D01*
X139563500Y-102427394D01*
X139562709Y-102423418D01*
X139562551Y-102413482D01*
X139570551Y-102384534D01*
X139576149Y-102355018D01*
X139580278Y-102349345D01*
X139581165Y-102346137D01*
X139585319Y-102342419D01*
X139598851Y-102323829D01*
X141210863Y-100711819D01*
X141272186Y-100678334D01*
X141298544Y-100675500D01*
X145386093Y-100675500D01*
X145453132Y-100695185D01*
X145483214Y-100724733D01*
X145484078Y-100724025D01*
X145487944Y-100728736D01*
X145575063Y-100815855D01*
X145575067Y-100815858D01*
X145677507Y-100884307D01*
X145677513Y-100884310D01*
X145677514Y-100884311D01*
X145791348Y-100931463D01*
X145912189Y-100955499D01*
X145912193Y-100955500D01*
X145912194Y-100955500D01*
X146035407Y-100955500D01*
X146035408Y-100955499D01*
X146156252Y-100931463D01*
X146270086Y-100884311D01*
X146372533Y-100815858D01*
X146459658Y-100728733D01*
X146528111Y-100626286D01*
X146575263Y-100512452D01*
X146599300Y-100391606D01*
X146599300Y-100268394D01*
X146575263Y-100147548D01*
X146528111Y-100033714D01*
X146528110Y-100033713D01*
X146528107Y-100033707D01*
X146459658Y-99931267D01*
X146459655Y-99931263D01*
X146372536Y-99844144D01*
X146372532Y-99844141D01*
X146270092Y-99775692D01*
X146270083Y-99775687D01*
X146156254Y-99728538D01*
X146156255Y-99728538D01*
X146156252Y-99728537D01*
X146156248Y-99728536D01*
X146156244Y-99728535D01*
X146035410Y-99704500D01*
X146035406Y-99704500D01*
X145912194Y-99704500D01*
X145912189Y-99704500D01*
X145791355Y-99728535D01*
X145791345Y-99728538D01*
X145677516Y-99775687D01*
X145677507Y-99775692D01*
X145575067Y-99844141D01*
X145575063Y-99844144D01*
X145483634Y-99935574D01*
X145482264Y-99934204D01*
X145431935Y-99968495D01*
X145393814Y-99974500D01*
X141055856Y-99974500D01*
X140966712Y-99998386D01*
X140966709Y-99998387D01*
X140886791Y-100044527D01*
X140886786Y-100044531D01*
X139103171Y-101828145D01*
X139041848Y-101861630D01*
X139003342Y-101863868D01*
X138999607Y-101863500D01*
X138999606Y-101863500D01*
X138876394Y-101863500D01*
X138876389Y-101863500D01*
X138755555Y-101887535D01*
X138755545Y-101887538D01*
X138641716Y-101934687D01*
X138641707Y-101934692D01*
X138539267Y-102003141D01*
X138539263Y-102003144D01*
X138452144Y-102090263D01*
X138452141Y-102090267D01*
X138383692Y-102192707D01*
X138383687Y-102192716D01*
X138336538Y-102306545D01*
X138336535Y-102306555D01*
X138312500Y-102427389D01*
X137350500Y-102427389D01*
X137350500Y-102334089D01*
X137370185Y-102267050D01*
X137395842Y-102238230D01*
X137398725Y-102235862D01*
X137398733Y-102235858D01*
X137485858Y-102148733D01*
X137554311Y-102046286D01*
X137601463Y-101932452D01*
X137625500Y-101811606D01*
X137625500Y-101688394D01*
X137601463Y-101567548D01*
X137563020Y-101474739D01*
X137554312Y-101453716D01*
X137554307Y-101453707D01*
X137485858Y-101351267D01*
X137485855Y-101351263D01*
X137398736Y-101264144D01*
X137398732Y-101264141D01*
X137296292Y-101195692D01*
X137296282Y-101195687D01*
X137199537Y-101155614D01*
X137145134Y-101111773D01*
X137123069Y-101045479D01*
X137140348Y-100977779D01*
X137159305Y-100953376D01*
X138665862Y-99446818D01*
X138727185Y-99413334D01*
X138753543Y-99410500D01*
X147366142Y-99410500D01*
X147366144Y-99410500D01*
X147455288Y-99386614D01*
X147455316Y-99386598D01*
X147535212Y-99340470D01*
X148037031Y-98838649D01*
X148098352Y-98805166D01*
X148163029Y-98808401D01*
X148167547Y-98809869D01*
X148167555Y-98809873D01*
X148332299Y-98863402D01*
X148503389Y-98890500D01*
X148503390Y-98890500D01*
X148676609Y-98890500D01*
X148676611Y-98890500D01*
X148744783Y-98879702D01*
X148814073Y-98888656D01*
X148867526Y-98933652D01*
X148888166Y-99000403D01*
X148869442Y-99067717D01*
X148851860Y-99089856D01*
X146455331Y-101486386D01*
X146455327Y-101486391D01*
X146409187Y-101566309D01*
X146409186Y-101566312D01*
X146385300Y-101655456D01*
X146385300Y-102415910D01*
X146365615Y-102482949D01*
X146339965Y-102511763D01*
X146337064Y-102514143D01*
X146249944Y-102601263D01*
X146249941Y-102601267D01*
X146181492Y-102703707D01*
X146181487Y-102703716D01*
X146134338Y-102817545D01*
X146134335Y-102817555D01*
X146110300Y-102938389D01*
X146110300Y-103061610D01*
X146134335Y-103182444D01*
X146134338Y-103182454D01*
X146181487Y-103296283D01*
X146181492Y-103296292D01*
X146249941Y-103398732D01*
X146249944Y-103398736D01*
X146337063Y-103485855D01*
X146337067Y-103485858D01*
X146439507Y-103554307D01*
X146439513Y-103554310D01*
X146439514Y-103554311D01*
X146553348Y-103601463D01*
X146674189Y-103625499D01*
X146674193Y-103625500D01*
X146674194Y-103625500D01*
X146797407Y-103625500D01*
X146797408Y-103625499D01*
X146918252Y-103601463D01*
X147032086Y-103554311D01*
X147134533Y-103485858D01*
X147221658Y-103398733D01*
X147290111Y-103296286D01*
X147337263Y-103182452D01*
X147361300Y-103061606D01*
X147361300Y-102938394D01*
X147337263Y-102817548D01*
X147290111Y-102703714D01*
X147290110Y-102703713D01*
X147290107Y-102703707D01*
X147221658Y-102601267D01*
X147221655Y-102601263D01*
X147134535Y-102514143D01*
X147131635Y-102511763D01*
X147130524Y-102510132D01*
X147130226Y-102509834D01*
X147130282Y-102509777D01*
X147092300Y-102454017D01*
X147086300Y-102415910D01*
X147086300Y-101898144D01*
X147105985Y-101831105D01*
X147122619Y-101810463D01*
X148694635Y-100238447D01*
X150274821Y-98658260D01*
X150336142Y-98624777D01*
X150405834Y-98629761D01*
X150435380Y-98645621D01*
X150553212Y-98731232D01*
X150707555Y-98809873D01*
X150872299Y-98863402D01*
X151043389Y-98890500D01*
X151043390Y-98890500D01*
X151216610Y-98890500D01*
X151216611Y-98890500D01*
X151387701Y-98863402D01*
X151552445Y-98809873D01*
X151706788Y-98731232D01*
X151846928Y-98629414D01*
X151969414Y-98506928D01*
X152071232Y-98366788D01*
X152149873Y-98212445D01*
X152203402Y-98047701D01*
X152230500Y-97876611D01*
X152230500Y-97703389D01*
X152203402Y-97532299D01*
X152149873Y-97367555D01*
X152071232Y-97213212D01*
X152001609Y-97117385D01*
X151978130Y-97051579D01*
X151993955Y-96983525D01*
X152044061Y-96934830D01*
X152101928Y-96920500D01*
X152698072Y-96920500D01*
X152765111Y-96940185D01*
X152810866Y-96992989D01*
X152820810Y-97062147D01*
X152798390Y-97117386D01*
X152728768Y-97213211D01*
X152650128Y-97367552D01*
X152596597Y-97532302D01*
X152569500Y-97703389D01*
X152569500Y-97876610D01*
X152596597Y-98047697D01*
X152596597Y-98047699D01*
X152596598Y-98047701D01*
X152650127Y-98212445D01*
X152728768Y-98366788D01*
X152830586Y-98506928D01*
X152953072Y-98629414D01*
X152992778Y-98658262D01*
X153093213Y-98731233D01*
X153251794Y-98812033D01*
X153302591Y-98860007D01*
X153319500Y-98922518D01*
X153319500Y-101665910D01*
X153299815Y-101732949D01*
X153274165Y-101761763D01*
X153271264Y-101764143D01*
X153184144Y-101851263D01*
X153184141Y-101851267D01*
X153115692Y-101953707D01*
X153115687Y-101953716D01*
X153068538Y-102067545D01*
X153068535Y-102067555D01*
X153044500Y-102188389D01*
X153044500Y-102311610D01*
X153068535Y-102432444D01*
X153068538Y-102432454D01*
X153115687Y-102546283D01*
X153115692Y-102546292D01*
X153184141Y-102648732D01*
X153184144Y-102648736D01*
X153271263Y-102735855D01*
X153271267Y-102735858D01*
X153373707Y-102804307D01*
X153373713Y-102804310D01*
X153373714Y-102804311D01*
X153487548Y-102851463D01*
X153608389Y-102875499D01*
X153608393Y-102875500D01*
X153608394Y-102875500D01*
X153731607Y-102875500D01*
X153731608Y-102875499D01*
X153852452Y-102851463D01*
X153966286Y-102804311D01*
X154068733Y-102735858D01*
X154155858Y-102648733D01*
X154224311Y-102546286D01*
X154271463Y-102432452D01*
X154295500Y-102311606D01*
X154295500Y-102188394D01*
X154271463Y-102067548D01*
X154224311Y-101953714D01*
X154224310Y-101953713D01*
X154224307Y-101953707D01*
X154155858Y-101851267D01*
X154155855Y-101851263D01*
X154068735Y-101764143D01*
X154065835Y-101761763D01*
X154064724Y-101760132D01*
X154064426Y-101759834D01*
X154064482Y-101759777D01*
X154026500Y-101704017D01*
X154020500Y-101665910D01*
X154020500Y-98950502D01*
X160889500Y-98950502D01*
X160889500Y-99169497D01*
X160906744Y-99300472D01*
X160918083Y-99386598D01*
X160925247Y-99413334D01*
X160960500Y-99544904D01*
X160974759Y-99598117D01*
X161058560Y-99800428D01*
X161058562Y-99800433D01*
X161058565Y-99800438D01*
X161168049Y-99990070D01*
X161301355Y-100163798D01*
X161301361Y-100163805D01*
X161456194Y-100318638D01*
X161456201Y-100318644D01*
X161629929Y-100451950D01*
X161819561Y-100561434D01*
X161819563Y-100561434D01*
X161819572Y-100561440D01*
X162021883Y-100645241D01*
X162233402Y-100701917D01*
X162450510Y-100730500D01*
X162450517Y-100730500D01*
X162669483Y-100730500D01*
X162669490Y-100730500D01*
X162886598Y-100701917D01*
X163098117Y-100645241D01*
X163300428Y-100561440D01*
X163490071Y-100451950D01*
X163663800Y-100318643D01*
X163818643Y-100163800D01*
X163951950Y-99990071D01*
X164061440Y-99800428D01*
X164145241Y-99598117D01*
X164201917Y-99386598D01*
X164230500Y-99169490D01*
X164230500Y-98950510D01*
X164201917Y-98733402D01*
X164145241Y-98521883D01*
X164061440Y-98319572D01*
X164025420Y-98257184D01*
X163951950Y-98129929D01*
X163818644Y-97956201D01*
X163818638Y-97956194D01*
X163663805Y-97801361D01*
X163663798Y-97801355D01*
X163490070Y-97668049D01*
X163300438Y-97558565D01*
X163300433Y-97558562D01*
X163300428Y-97558560D01*
X163098117Y-97474759D01*
X163098118Y-97474759D01*
X163098115Y-97474758D01*
X162992357Y-97446421D01*
X162886598Y-97418083D01*
X162850314Y-97413306D01*
X162669497Y-97389500D01*
X162669490Y-97389500D01*
X162450510Y-97389500D01*
X162450502Y-97389500D01*
X162243853Y-97416707D01*
X162233402Y-97418083D01*
X162212312Y-97423734D01*
X162021884Y-97474758D01*
X161903374Y-97523847D01*
X161819572Y-97558560D01*
X161819569Y-97558561D01*
X161819561Y-97558565D01*
X161629929Y-97668049D01*
X161456201Y-97801355D01*
X161456194Y-97801361D01*
X161301361Y-97956194D01*
X161301355Y-97956201D01*
X161168049Y-98129929D01*
X161058565Y-98319561D01*
X161058561Y-98319569D01*
X161058560Y-98319572D01*
X161048869Y-98342969D01*
X160974758Y-98521884D01*
X160934499Y-98672137D01*
X160918665Y-98731232D01*
X160918084Y-98733399D01*
X160918082Y-98733410D01*
X160889500Y-98950502D01*
X154020500Y-98950502D01*
X154020500Y-98922518D01*
X154040185Y-98855479D01*
X154088206Y-98812033D01*
X154246786Y-98731233D01*
X154246785Y-98731233D01*
X154246788Y-98731232D01*
X154386928Y-98629414D01*
X154509414Y-98506928D01*
X154611232Y-98366788D01*
X154689873Y-98212445D01*
X154743402Y-98047701D01*
X154770500Y-97876611D01*
X154770500Y-97703389D01*
X154743402Y-97532299D01*
X154689873Y-97367555D01*
X154611232Y-97213212D01*
X154541609Y-97117385D01*
X154518130Y-97051579D01*
X154533955Y-96983525D01*
X154584061Y-96934830D01*
X154641928Y-96920500D01*
X155238072Y-96920500D01*
X155305111Y-96940185D01*
X155350866Y-96992989D01*
X155360810Y-97062147D01*
X155338390Y-97117386D01*
X155268768Y-97213211D01*
X155190128Y-97367552D01*
X155136597Y-97532302D01*
X155109500Y-97703389D01*
X155109500Y-97876610D01*
X155136597Y-98047697D01*
X155136597Y-98047699D01*
X155136598Y-98047701D01*
X155190127Y-98212445D01*
X155268768Y-98366788D01*
X155370586Y-98506928D01*
X155493072Y-98629414D01*
X155633212Y-98731232D01*
X155787555Y-98809873D01*
X155952299Y-98863402D01*
X156123389Y-98890500D01*
X156123390Y-98890500D01*
X156296610Y-98890500D01*
X156296611Y-98890500D01*
X156467701Y-98863402D01*
X156632445Y-98809873D01*
X156786788Y-98731232D01*
X156926928Y-98629414D01*
X157049414Y-98506928D01*
X157151232Y-98366788D01*
X157229873Y-98212445D01*
X157283402Y-98047701D01*
X157310500Y-97876611D01*
X157310500Y-97703389D01*
X157283402Y-97532299D01*
X157229873Y-97367555D01*
X157151232Y-97213212D01*
X157081609Y-97117385D01*
X157058130Y-97051579D01*
X157073955Y-96983525D01*
X157124061Y-96934830D01*
X157181928Y-96920500D01*
X157778072Y-96920500D01*
X157845111Y-96940185D01*
X157890866Y-96992989D01*
X157900810Y-97062147D01*
X157878390Y-97117386D01*
X157808768Y-97213211D01*
X157730128Y-97367552D01*
X157676597Y-97532302D01*
X157649500Y-97703389D01*
X157649500Y-97876610D01*
X157676597Y-98047697D01*
X157676597Y-98047699D01*
X157676598Y-98047701D01*
X157730127Y-98212445D01*
X157808768Y-98366788D01*
X157910586Y-98506928D01*
X158033072Y-98629414D01*
X158173212Y-98731232D01*
X158327555Y-98809873D01*
X158492299Y-98863402D01*
X158663389Y-98890500D01*
X158663390Y-98890500D01*
X158836610Y-98890500D01*
X158836611Y-98890500D01*
X159007701Y-98863402D01*
X159172445Y-98809873D01*
X159326788Y-98731232D01*
X159466928Y-98629414D01*
X159589414Y-98506928D01*
X159691232Y-98366788D01*
X159769873Y-98212445D01*
X159823402Y-98047701D01*
X159850500Y-97876611D01*
X159850500Y-97703389D01*
X159823402Y-97532299D01*
X159769873Y-97367555D01*
X159691232Y-97213212D01*
X159621609Y-97117385D01*
X159598130Y-97051579D01*
X159613955Y-96983525D01*
X159664061Y-96934830D01*
X159721928Y-96920500D01*
X162502417Y-96920500D01*
X162555948Y-96920500D01*
X162564028Y-96920764D01*
X162831170Y-96938273D01*
X162847226Y-96940388D01*
X163105778Y-96991817D01*
X163121429Y-96996011D01*
X163371059Y-97080749D01*
X163386037Y-97086953D01*
X163622460Y-97203544D01*
X163636508Y-97211654D01*
X163855691Y-97358108D01*
X163868552Y-97367976D01*
X163925688Y-97418083D01*
X164066744Y-97541786D01*
X164078213Y-97553255D01*
X164252020Y-97751444D01*
X164261894Y-97764312D01*
X164408345Y-97983492D01*
X164416455Y-97997539D01*
X164533046Y-98233962D01*
X164539253Y-98248947D01*
X164623985Y-98498559D01*
X164628183Y-98514227D01*
X164679610Y-98772768D01*
X164681727Y-98788842D01*
X164698999Y-99052351D01*
X164699055Y-99067650D01*
X164685534Y-99300472D01*
X164683870Y-99314754D01*
X164643408Y-99544904D01*
X164640102Y-99558897D01*
X164573269Y-99782821D01*
X164568365Y-99796337D01*
X164476060Y-100011020D01*
X164469624Y-100023877D01*
X164353094Y-100226420D01*
X164345213Y-100238447D01*
X164206010Y-100426153D01*
X164196790Y-100437185D01*
X164036808Y-100607501D01*
X164026373Y-100617393D01*
X163847740Y-100768054D01*
X163836230Y-100776671D01*
X163638370Y-100907618D01*
X163632288Y-100911396D01*
X163629838Y-100912821D01*
X163585576Y-100938556D01*
X163585543Y-100938588D01*
X163578221Y-100942849D01*
X163578217Y-100942849D01*
X163578205Y-100942858D01*
X163497316Y-100989898D01*
X163497307Y-100989903D01*
X163240205Y-101179388D01*
X163005125Y-101395618D01*
X163005116Y-101395626D01*
X162794863Y-101636011D01*
X162794855Y-101636020D01*
X162611847Y-101897798D01*
X162458270Y-102177849D01*
X162335933Y-102472869D01*
X162335929Y-102472882D01*
X162246258Y-102779430D01*
X162246256Y-102779439D01*
X162190316Y-103093876D01*
X162190313Y-103093897D01*
X162168755Y-103412547D01*
X162168754Y-103412561D01*
X162174840Y-103561330D01*
X162174944Y-103566398D01*
X162174944Y-112333356D01*
X162174840Y-112338424D01*
X162168744Y-112487438D01*
X162168745Y-112487452D01*
X162190303Y-112806104D01*
X162190306Y-112806125D01*
X162246246Y-113120562D01*
X162246248Y-113120571D01*
X162246249Y-113120575D01*
X162247690Y-113125499D01*
X162335919Y-113427121D01*
X162335923Y-113427134D01*
X162447116Y-113695277D01*
X162458264Y-113722160D01*
X162499685Y-113797692D01*
X162611838Y-114002206D01*
X162794847Y-114263985D01*
X162794855Y-114263994D01*
X163005109Y-114504380D01*
X163005116Y-114504386D01*
X163005119Y-114504390D01*
X163240195Y-114720614D01*
X163497305Y-114910108D01*
X163585564Y-114961431D01*
X163585576Y-114961444D01*
X163632256Y-114988584D01*
X163638341Y-114992363D01*
X163731031Y-115053707D01*
X163836230Y-115123329D01*
X163847740Y-115131946D01*
X164026368Y-115282603D01*
X164036803Y-115292494D01*
X164196797Y-115462822D01*
X164206017Y-115473856D01*
X164345209Y-115661548D01*
X164353090Y-115673574D01*
X164469623Y-115876122D01*
X164476059Y-115888979D01*
X164568364Y-116103662D01*
X164573268Y-116117178D01*
X164640101Y-116341102D01*
X164643407Y-116355095D01*
X164683869Y-116585245D01*
X164685533Y-116599527D01*
X164699055Y-116832359D01*
X164698998Y-116847658D01*
X164681727Y-117111150D01*
X164679610Y-117127231D01*
X164628183Y-117385772D01*
X164623985Y-117401440D01*
X164539253Y-117651052D01*
X164533046Y-117666037D01*
X164416455Y-117902460D01*
X164408345Y-117916507D01*
X164261894Y-118135687D01*
X164252020Y-118148555D01*
X164078213Y-118346744D01*
X164066744Y-118358213D01*
X163868555Y-118532020D01*
X163855687Y-118541894D01*
X163636507Y-118688345D01*
X163622460Y-118696455D01*
X163386037Y-118813046D01*
X163371052Y-118819253D01*
X163121440Y-118903985D01*
X163105772Y-118908183D01*
X162847231Y-118959610D01*
X162831150Y-118961727D01*
X162564058Y-118979234D01*
X162555948Y-118979500D01*
X159721928Y-118979500D01*
X159654889Y-118959815D01*
X159609134Y-118907011D01*
X159599190Y-118837853D01*
X159621610Y-118782614D01*
X159684208Y-118696455D01*
X159691232Y-118686788D01*
X159769873Y-118532445D01*
X159823402Y-118367701D01*
X159850500Y-118196611D01*
X159850500Y-118023389D01*
X159823402Y-117852299D01*
X159769873Y-117687555D01*
X159691232Y-117533212D01*
X159589414Y-117393072D01*
X159466928Y-117270586D01*
X159326788Y-117168768D01*
X159172445Y-117090127D01*
X159007701Y-117036598D01*
X159007699Y-117036597D01*
X159007698Y-117036597D01*
X158876271Y-117015781D01*
X158836611Y-117009500D01*
X158663389Y-117009500D01*
X158623728Y-117015781D01*
X158492302Y-117036597D01*
X158327552Y-117090128D01*
X158173211Y-117168768D01*
X158135835Y-117195924D01*
X158033072Y-117270586D01*
X158033070Y-117270588D01*
X158033069Y-117270588D01*
X157910588Y-117393069D01*
X157910588Y-117393070D01*
X157910586Y-117393072D01*
X157886346Y-117426436D01*
X157808768Y-117533211D01*
X157730128Y-117687552D01*
X157676597Y-117852302D01*
X157649500Y-118023389D01*
X157649500Y-118196610D01*
X157674892Y-118356934D01*
X157676598Y-118367701D01*
X157722996Y-118510499D01*
X157730128Y-118532447D01*
X157808768Y-118686788D01*
X157878390Y-118782614D01*
X157901870Y-118848421D01*
X157886045Y-118916475D01*
X157835939Y-118965170D01*
X157778072Y-118979500D01*
X157181928Y-118979500D01*
X157114889Y-118959815D01*
X157069134Y-118907011D01*
X157059190Y-118837853D01*
X157081610Y-118782614D01*
X157144208Y-118696455D01*
X157151232Y-118686788D01*
X157229873Y-118532445D01*
X157283402Y-118367701D01*
X157310500Y-118196611D01*
X157310500Y-118023389D01*
X157283402Y-117852299D01*
X157229873Y-117687555D01*
X157151232Y-117533212D01*
X157049414Y-117393072D01*
X156926928Y-117270586D01*
X156786788Y-117168768D01*
X156632445Y-117090127D01*
X156467701Y-117036598D01*
X156467699Y-117036597D01*
X156467698Y-117036597D01*
X156336271Y-117015781D01*
X156296611Y-117009500D01*
X156123389Y-117009500D01*
X156083728Y-117015781D01*
X155952302Y-117036597D01*
X155787552Y-117090128D01*
X155633211Y-117168768D01*
X155595835Y-117195924D01*
X155493072Y-117270586D01*
X155493070Y-117270588D01*
X155493069Y-117270588D01*
X155370588Y-117393069D01*
X155370588Y-117393070D01*
X155370586Y-117393072D01*
X155346346Y-117426436D01*
X155268768Y-117533211D01*
X155190128Y-117687552D01*
X155136597Y-117852302D01*
X155109500Y-118023389D01*
X155109500Y-118196610D01*
X155134892Y-118356934D01*
X155136598Y-118367701D01*
X155182996Y-118510499D01*
X155190128Y-118532447D01*
X155268768Y-118686788D01*
X155338390Y-118782614D01*
X155361870Y-118848421D01*
X155346045Y-118916475D01*
X155295939Y-118965170D01*
X155238072Y-118979500D01*
X154641928Y-118979500D01*
X154574889Y-118959815D01*
X154529134Y-118907011D01*
X154519190Y-118837853D01*
X154541610Y-118782614D01*
X154604208Y-118696455D01*
X154611232Y-118686788D01*
X154689873Y-118532445D01*
X154743402Y-118367701D01*
X154770500Y-118196611D01*
X154770500Y-118023389D01*
X154743402Y-117852299D01*
X154689873Y-117687555D01*
X154611232Y-117533212D01*
X154509414Y-117393072D01*
X154386928Y-117270586D01*
X154246788Y-117168768D01*
X154092445Y-117090127D01*
X153927701Y-117036598D01*
X153927699Y-117036597D01*
X153927698Y-117036597D01*
X153796271Y-117015781D01*
X153756611Y-117009500D01*
X153583389Y-117009500D01*
X153543728Y-117015781D01*
X153412302Y-117036597D01*
X153247552Y-117090128D01*
X153093211Y-117168768D01*
X153055835Y-117195924D01*
X152953072Y-117270586D01*
X152953070Y-117270588D01*
X152953069Y-117270588D01*
X152830588Y-117393069D01*
X152830588Y-117393070D01*
X152830586Y-117393072D01*
X152806346Y-117426436D01*
X152728768Y-117533211D01*
X152650128Y-117687552D01*
X152596597Y-117852302D01*
X152569500Y-118023389D01*
X152569500Y-118196610D01*
X152594892Y-118356934D01*
X152596598Y-118367701D01*
X152642996Y-118510499D01*
X152650128Y-118532447D01*
X152728768Y-118686788D01*
X152798390Y-118782614D01*
X152821870Y-118848421D01*
X152806045Y-118916475D01*
X152755939Y-118965170D01*
X152698072Y-118979500D01*
X152101928Y-118979500D01*
X152034889Y-118959815D01*
X151989134Y-118907011D01*
X151979190Y-118837853D01*
X152001610Y-118782614D01*
X152064208Y-118696455D01*
X152071232Y-118686788D01*
X152149873Y-118532445D01*
X152203402Y-118367701D01*
X152230500Y-118196611D01*
X152230500Y-118023389D01*
X152203402Y-117852299D01*
X152149873Y-117687555D01*
X152071232Y-117533212D01*
X151969414Y-117393072D01*
X151846928Y-117270586D01*
X151706788Y-117168768D01*
X151552445Y-117090127D01*
X151387701Y-117036598D01*
X151387699Y-117036597D01*
X151387698Y-117036597D01*
X151256271Y-117015781D01*
X151216611Y-117009500D01*
X151043389Y-117009500D01*
X151003728Y-117015781D01*
X150872302Y-117036597D01*
X150707552Y-117090128D01*
X150553211Y-117168768D01*
X150515835Y-117195924D01*
X150413072Y-117270586D01*
X150413070Y-117270588D01*
X150413069Y-117270588D01*
X150290588Y-117393069D01*
X150290588Y-117393070D01*
X150290586Y-117393072D01*
X150266346Y-117426436D01*
X150188768Y-117533211D01*
X150110128Y-117687552D01*
X150056597Y-117852302D01*
X150029500Y-118023389D01*
X150029500Y-118196610D01*
X150054892Y-118356934D01*
X150056598Y-118367701D01*
X150102996Y-118510499D01*
X150110128Y-118532447D01*
X150188768Y-118686788D01*
X150258390Y-118782614D01*
X150281870Y-118848421D01*
X150266045Y-118916475D01*
X150215939Y-118965170D01*
X150158072Y-118979500D01*
X149561928Y-118979500D01*
X149494889Y-118959815D01*
X149449134Y-118907011D01*
X149439190Y-118837853D01*
X149461610Y-118782614D01*
X149524208Y-118696455D01*
X149531232Y-118686788D01*
X149609873Y-118532445D01*
X149663402Y-118367701D01*
X149690500Y-118196611D01*
X149690500Y-118023389D01*
X149663402Y-117852299D01*
X149609873Y-117687555D01*
X149531232Y-117533212D01*
X149429414Y-117393072D01*
X149306928Y-117270586D01*
X149166788Y-117168768D01*
X149012445Y-117090127D01*
X148847701Y-117036598D01*
X148847699Y-117036597D01*
X148847698Y-117036597D01*
X148716271Y-117015781D01*
X148676611Y-117009500D01*
X148503389Y-117009500D01*
X148463728Y-117015781D01*
X148332302Y-117036597D01*
X148167552Y-117090128D01*
X148013211Y-117168768D01*
X147975835Y-117195924D01*
X147873072Y-117270586D01*
X147873070Y-117270588D01*
X147873069Y-117270588D01*
X147750588Y-117393069D01*
X147750588Y-117393070D01*
X147750586Y-117393072D01*
X147726346Y-117426436D01*
X147648768Y-117533211D01*
X147570128Y-117687552D01*
X147516597Y-117852302D01*
X147489500Y-118023389D01*
X147489500Y-118196610D01*
X147514892Y-118356934D01*
X147516598Y-118367701D01*
X147562996Y-118510499D01*
X147570128Y-118532447D01*
X147648768Y-118686788D01*
X147718390Y-118782614D01*
X147741870Y-118848421D01*
X147726045Y-118916475D01*
X147675939Y-118965170D01*
X147618072Y-118979500D01*
X147021928Y-118979500D01*
X146954889Y-118959815D01*
X146909134Y-118907011D01*
X146899190Y-118837853D01*
X146921610Y-118782614D01*
X146984208Y-118696455D01*
X146991232Y-118686788D01*
X147069873Y-118532445D01*
X147123402Y-118367701D01*
X147150500Y-118196611D01*
X147150500Y-118023389D01*
X147123402Y-117852299D01*
X147069873Y-117687555D01*
X146991232Y-117533212D01*
X146889414Y-117393072D01*
X146766928Y-117270586D01*
X146626788Y-117168768D01*
X146472445Y-117090127D01*
X146307701Y-117036598D01*
X146307699Y-117036597D01*
X146307698Y-117036597D01*
X146176271Y-117015781D01*
X146136611Y-117009500D01*
X145963389Y-117009500D01*
X145923728Y-117015781D01*
X145792302Y-117036597D01*
X145627552Y-117090128D01*
X145473211Y-117168768D01*
X145435835Y-117195924D01*
X145333072Y-117270586D01*
X145333070Y-117270588D01*
X145333069Y-117270588D01*
X145210588Y-117393069D01*
X145210588Y-117393070D01*
X145210586Y-117393072D01*
X145186346Y-117426436D01*
X145108768Y-117533211D01*
X145030128Y-117687552D01*
X144976597Y-117852302D01*
X144949500Y-118023389D01*
X144949500Y-118196610D01*
X144974892Y-118356934D01*
X144976598Y-118367701D01*
X145022996Y-118510499D01*
X145030128Y-118532447D01*
X145108768Y-118686788D01*
X145178390Y-118782614D01*
X145201870Y-118848421D01*
X145186045Y-118916475D01*
X145135939Y-118965170D01*
X145078072Y-118979500D01*
X144481928Y-118979500D01*
X144414889Y-118959815D01*
X144369134Y-118907011D01*
X144359190Y-118837853D01*
X144381610Y-118782614D01*
X144444208Y-118696455D01*
X144451232Y-118686788D01*
X144529873Y-118532445D01*
X144583402Y-118367701D01*
X144610500Y-118196611D01*
X144610500Y-118023389D01*
X144583402Y-117852299D01*
X144529873Y-117687555D01*
X144451232Y-117533212D01*
X144349414Y-117393072D01*
X144226928Y-117270586D01*
X144086788Y-117168768D01*
X143932445Y-117090127D01*
X143767701Y-117036598D01*
X143767699Y-117036597D01*
X143767698Y-117036597D01*
X143636271Y-117015781D01*
X143596611Y-117009500D01*
X143423389Y-117009500D01*
X143383728Y-117015781D01*
X143252302Y-117036597D01*
X143087552Y-117090128D01*
X142933211Y-117168768D01*
X142895835Y-117195924D01*
X142793072Y-117270586D01*
X142793070Y-117270588D01*
X142793069Y-117270588D01*
X142670588Y-117393069D01*
X142670588Y-117393070D01*
X142670586Y-117393072D01*
X142646346Y-117426436D01*
X142568768Y-117533211D01*
X142490128Y-117687552D01*
X142436597Y-117852302D01*
X142409500Y-118023389D01*
X142409500Y-118196610D01*
X142434892Y-118356934D01*
X142436598Y-118367701D01*
X142482996Y-118510499D01*
X142490128Y-118532447D01*
X142568768Y-118686788D01*
X142638390Y-118782614D01*
X142661870Y-118848421D01*
X142646045Y-118916475D01*
X142595939Y-118965170D01*
X142538072Y-118979500D01*
X141941928Y-118979500D01*
X141874889Y-118959815D01*
X141829134Y-118907011D01*
X141819190Y-118837853D01*
X141841610Y-118782614D01*
X141904208Y-118696455D01*
X141911232Y-118686788D01*
X141989873Y-118532445D01*
X142043402Y-118367701D01*
X142070500Y-118196611D01*
X142070500Y-118023389D01*
X142043402Y-117852299D01*
X141989873Y-117687555D01*
X141911232Y-117533212D01*
X141809414Y-117393072D01*
X141686928Y-117270586D01*
X141546788Y-117168768D01*
X141392445Y-117090127D01*
X141227701Y-117036598D01*
X141227699Y-117036597D01*
X141227698Y-117036597D01*
X141096271Y-117015781D01*
X141056611Y-117009500D01*
X140883389Y-117009500D01*
X140843728Y-117015781D01*
X140712302Y-117036597D01*
X140547552Y-117090128D01*
X140393211Y-117168768D01*
X140355835Y-117195924D01*
X140253072Y-117270586D01*
X140253070Y-117270588D01*
X140253069Y-117270588D01*
X140130588Y-117393069D01*
X140130588Y-117393070D01*
X140130586Y-117393072D01*
X140106346Y-117426436D01*
X140028768Y-117533211D01*
X139950128Y-117687552D01*
X139896597Y-117852302D01*
X139869500Y-118023389D01*
X139869500Y-118196610D01*
X139894892Y-118356934D01*
X139896598Y-118367701D01*
X139942996Y-118510499D01*
X139950128Y-118532447D01*
X140028768Y-118686788D01*
X140098390Y-118782614D01*
X140121870Y-118848421D01*
X140106045Y-118916475D01*
X140055939Y-118965170D01*
X139998072Y-118979500D01*
X139401928Y-118979500D01*
X139334889Y-118959815D01*
X139289134Y-118907011D01*
X139279190Y-118837853D01*
X139301610Y-118782614D01*
X139364208Y-118696455D01*
X139371232Y-118686788D01*
X139449873Y-118532445D01*
X139503402Y-118367701D01*
X139530500Y-118196611D01*
X139530500Y-118023389D01*
X139503402Y-117852299D01*
X139449873Y-117687555D01*
X139371232Y-117533212D01*
X139269414Y-117393072D01*
X139146928Y-117270586D01*
X139006788Y-117168768D01*
X138852445Y-117090127D01*
X138687701Y-117036598D01*
X138687699Y-117036597D01*
X138687698Y-117036597D01*
X138556271Y-117015781D01*
X138516611Y-117009500D01*
X138343389Y-117009500D01*
X138303728Y-117015781D01*
X138172302Y-117036597D01*
X138007552Y-117090128D01*
X137853211Y-117168768D01*
X137815835Y-117195924D01*
X137713072Y-117270586D01*
X137713070Y-117270588D01*
X137713069Y-117270588D01*
X137590588Y-117393069D01*
X137590588Y-117393070D01*
X137590586Y-117393072D01*
X137566346Y-117426436D01*
X137488768Y-117533211D01*
X137410128Y-117687552D01*
X137356597Y-117852302D01*
X137329500Y-118023389D01*
X137329500Y-118196610D01*
X137354892Y-118356934D01*
X137356598Y-118367701D01*
X137402996Y-118510499D01*
X137410128Y-118532447D01*
X137488768Y-118686788D01*
X137558390Y-118782614D01*
X137581870Y-118848421D01*
X137566045Y-118916475D01*
X137515939Y-118965170D01*
X137458072Y-118979500D01*
X136861928Y-118979500D01*
X136794889Y-118959815D01*
X136749134Y-118907011D01*
X136739190Y-118837853D01*
X136761610Y-118782614D01*
X136824208Y-118696455D01*
X136831232Y-118686788D01*
X136909873Y-118532445D01*
X136963402Y-118367701D01*
X136990500Y-118196611D01*
X136990500Y-118023389D01*
X136963402Y-117852299D01*
X136909873Y-117687555D01*
X136831232Y-117533212D01*
X136729414Y-117393072D01*
X136606928Y-117270586D01*
X136466788Y-117168768D01*
X136312445Y-117090127D01*
X136147701Y-117036598D01*
X136147699Y-117036597D01*
X136147698Y-117036597D01*
X136016271Y-117015781D01*
X135976611Y-117009500D01*
X135803389Y-117009500D01*
X135763728Y-117015781D01*
X135632302Y-117036597D01*
X135467552Y-117090128D01*
X135313211Y-117168768D01*
X135275835Y-117195924D01*
X135173072Y-117270586D01*
X135173070Y-117270588D01*
X135173069Y-117270588D01*
X135050588Y-117393069D01*
X135050588Y-117393070D01*
X135050586Y-117393072D01*
X135026346Y-117426436D01*
X134948768Y-117533211D01*
X134870128Y-117687552D01*
X134816597Y-117852302D01*
X134789500Y-118023389D01*
X134789500Y-118196610D01*
X134814892Y-118356934D01*
X134816598Y-118367701D01*
X134862996Y-118510499D01*
X134870128Y-118532447D01*
X134948768Y-118686788D01*
X135018390Y-118782614D01*
X135041870Y-118848421D01*
X135026045Y-118916475D01*
X134975939Y-118965170D01*
X134918072Y-118979500D01*
X134321928Y-118979500D01*
X134254889Y-118959815D01*
X134209134Y-118907011D01*
X134199190Y-118837853D01*
X134221610Y-118782614D01*
X134284208Y-118696455D01*
X134291232Y-118686788D01*
X134369873Y-118532445D01*
X134423402Y-118367701D01*
X134450500Y-118196611D01*
X134450500Y-118023389D01*
X134423402Y-117852299D01*
X134369873Y-117687555D01*
X134291232Y-117533212D01*
X134189414Y-117393072D01*
X134066928Y-117270586D01*
X133926788Y-117168768D01*
X133772445Y-117090127D01*
X133607701Y-117036598D01*
X133607699Y-117036597D01*
X133607698Y-117036597D01*
X133476271Y-117015781D01*
X133436611Y-117009500D01*
X133263389Y-117009500D01*
X133223728Y-117015781D01*
X133092302Y-117036597D01*
X132927552Y-117090128D01*
X132773211Y-117168768D01*
X132735835Y-117195924D01*
X132633072Y-117270586D01*
X132633070Y-117270588D01*
X132633069Y-117270588D01*
X132510588Y-117393069D01*
X132510588Y-117393070D01*
X132510586Y-117393072D01*
X132486346Y-117426436D01*
X132408768Y-117533211D01*
X132330128Y-117687552D01*
X132276597Y-117852302D01*
X132249500Y-118023389D01*
X132249500Y-118196610D01*
X132274892Y-118356934D01*
X132276598Y-118367701D01*
X132322996Y-118510499D01*
X132330128Y-118532447D01*
X132408768Y-118686788D01*
X132478390Y-118782614D01*
X132501870Y-118848421D01*
X132486045Y-118916475D01*
X132435939Y-118965170D01*
X132378072Y-118979500D01*
X131781928Y-118979500D01*
X131714889Y-118959815D01*
X131669134Y-118907011D01*
X131659190Y-118837853D01*
X131681610Y-118782614D01*
X131744208Y-118696455D01*
X131751232Y-118686788D01*
X131829873Y-118532445D01*
X131883402Y-118367701D01*
X131910500Y-118196611D01*
X131910500Y-118023389D01*
X131883402Y-117852299D01*
X131829873Y-117687555D01*
X131751232Y-117533212D01*
X131649414Y-117393072D01*
X131526928Y-117270586D01*
X131386788Y-117168768D01*
X131232445Y-117090127D01*
X131067701Y-117036598D01*
X131067699Y-117036597D01*
X131067698Y-117036597D01*
X130936271Y-117015781D01*
X130896611Y-117009500D01*
X130723389Y-117009500D01*
X130683728Y-117015781D01*
X130552302Y-117036597D01*
X130387552Y-117090128D01*
X130233211Y-117168768D01*
X130195835Y-117195924D01*
X130093072Y-117270586D01*
X130093070Y-117270588D01*
X130093069Y-117270588D01*
X129970588Y-117393069D01*
X129970588Y-117393070D01*
X129970586Y-117393072D01*
X129946346Y-117426436D01*
X129868768Y-117533211D01*
X129790128Y-117687552D01*
X129736597Y-117852302D01*
X129709500Y-118023389D01*
X129709500Y-118196610D01*
X129734892Y-118356934D01*
X129736598Y-118367701D01*
X129782996Y-118510499D01*
X129790128Y-118532447D01*
X129868768Y-118686788D01*
X129938390Y-118782614D01*
X129961870Y-118848421D01*
X129946045Y-118916475D01*
X129895939Y-118965170D01*
X129838072Y-118979500D01*
X126701928Y-118979500D01*
X126634889Y-118959815D01*
X126589134Y-118907011D01*
X126579190Y-118837853D01*
X126601610Y-118782614D01*
X126664208Y-118696455D01*
X126671232Y-118686788D01*
X126749873Y-118532445D01*
X126803402Y-118367701D01*
X126830500Y-118196611D01*
X126830500Y-118023389D01*
X126803402Y-117852299D01*
X126749873Y-117687555D01*
X126671232Y-117533212D01*
X126569414Y-117393072D01*
X126446928Y-117270586D01*
X126306788Y-117168768D01*
X126152445Y-117090127D01*
X125987701Y-117036598D01*
X125987699Y-117036597D01*
X125987698Y-117036597D01*
X125856271Y-117015781D01*
X125816611Y-117009500D01*
X125643389Y-117009500D01*
X125603728Y-117015781D01*
X125472302Y-117036597D01*
X125307552Y-117090128D01*
X125153211Y-117168768D01*
X125115835Y-117195924D01*
X125013072Y-117270586D01*
X125013070Y-117270588D01*
X125013069Y-117270588D01*
X124890588Y-117393069D01*
X124890588Y-117393070D01*
X124890586Y-117393072D01*
X124866346Y-117426436D01*
X124788768Y-117533211D01*
X124710128Y-117687552D01*
X124656597Y-117852302D01*
X124629500Y-118023389D01*
X124629500Y-118196610D01*
X124654892Y-118356934D01*
X124656598Y-118367701D01*
X124702996Y-118510499D01*
X124710128Y-118532447D01*
X124788768Y-118686788D01*
X124858390Y-118782614D01*
X124881870Y-118848421D01*
X124866045Y-118916475D01*
X124815939Y-118965170D01*
X124758072Y-118979500D01*
X124161928Y-118979500D01*
X124094889Y-118959815D01*
X124049134Y-118907011D01*
X124039190Y-118837853D01*
X124061610Y-118782614D01*
X124124208Y-118696455D01*
X124131232Y-118686788D01*
X124209873Y-118532445D01*
X124263402Y-118367701D01*
X124290500Y-118196611D01*
X124290500Y-118023389D01*
X124263402Y-117852299D01*
X124209873Y-117687555D01*
X124131232Y-117533212D01*
X124029414Y-117393072D01*
X123906928Y-117270586D01*
X123766788Y-117168768D01*
X123612445Y-117090127D01*
X123447701Y-117036598D01*
X123447699Y-117036597D01*
X123447698Y-117036597D01*
X123316271Y-117015781D01*
X123276611Y-117009500D01*
X123103389Y-117009500D01*
X123063728Y-117015781D01*
X122932302Y-117036597D01*
X122767552Y-117090128D01*
X122613211Y-117168768D01*
X122575835Y-117195924D01*
X122473072Y-117270586D01*
X122473070Y-117270588D01*
X122473069Y-117270588D01*
X122350588Y-117393069D01*
X122350588Y-117393070D01*
X122350586Y-117393072D01*
X122326346Y-117426436D01*
X122248768Y-117533211D01*
X122170128Y-117687552D01*
X122116597Y-117852302D01*
X122089500Y-118023389D01*
X122089500Y-118196610D01*
X122114892Y-118356934D01*
X122116598Y-118367701D01*
X122162996Y-118510499D01*
X122170128Y-118532447D01*
X122248768Y-118686788D01*
X122318390Y-118782614D01*
X122341870Y-118848421D01*
X122326045Y-118916475D01*
X122275939Y-118965170D01*
X122218072Y-118979500D01*
X121621928Y-118979500D01*
X121554889Y-118959815D01*
X121509134Y-118907011D01*
X121499190Y-118837853D01*
X121521610Y-118782614D01*
X121584208Y-118696455D01*
X121591232Y-118686788D01*
X121669873Y-118532445D01*
X121723402Y-118367701D01*
X121750500Y-118196611D01*
X121750500Y-118023389D01*
X121723402Y-117852299D01*
X121669873Y-117687555D01*
X121591232Y-117533212D01*
X121489414Y-117393072D01*
X121366928Y-117270586D01*
X121226788Y-117168768D01*
X121072445Y-117090127D01*
X120907701Y-117036598D01*
X120907699Y-117036597D01*
X120907698Y-117036597D01*
X120776271Y-117015781D01*
X120736611Y-117009500D01*
X120563389Y-117009500D01*
X120523728Y-117015781D01*
X120392302Y-117036597D01*
X120227552Y-117090128D01*
X120073211Y-117168768D01*
X120035835Y-117195924D01*
X119933072Y-117270586D01*
X119933070Y-117270588D01*
X119933069Y-117270588D01*
X119810588Y-117393069D01*
X119810588Y-117393070D01*
X119810586Y-117393072D01*
X119786346Y-117426436D01*
X119708768Y-117533211D01*
X119630128Y-117687552D01*
X119576597Y-117852302D01*
X119549500Y-118023389D01*
X119549500Y-118196610D01*
X119574892Y-118356934D01*
X119576598Y-118367701D01*
X119622996Y-118510499D01*
X119630128Y-118532447D01*
X119708768Y-118686788D01*
X119778390Y-118782614D01*
X119801870Y-118848421D01*
X119786045Y-118916475D01*
X119735939Y-118965170D01*
X119678072Y-118979500D01*
X116844052Y-118979500D01*
X116835942Y-118979234D01*
X116568849Y-118961727D01*
X116552768Y-118959610D01*
X116294227Y-118908183D01*
X116278559Y-118903985D01*
X116028947Y-118819253D01*
X116013962Y-118813046D01*
X115777539Y-118696455D01*
X115763492Y-118688345D01*
X115544312Y-118541894D01*
X115531444Y-118532020D01*
X115333255Y-118358213D01*
X115321786Y-118346744D01*
X115249762Y-118264616D01*
X115147976Y-118148552D01*
X115138105Y-118135687D01*
X114991654Y-117916507D01*
X114983544Y-117902460D01*
X114866953Y-117666037D01*
X114860749Y-117651059D01*
X114776011Y-117401429D01*
X114771816Y-117385772D01*
X114770293Y-117378117D01*
X114720388Y-117127226D01*
X114718273Y-117111170D01*
X114700764Y-116844028D01*
X114700500Y-116835948D01*
X114700500Y-116720684D01*
X115019500Y-116720684D01*
X115019500Y-116959315D01*
X115019501Y-116959332D01*
X115050648Y-117195920D01*
X115112415Y-117426436D01*
X115203734Y-117646902D01*
X115203740Y-117646914D01*
X115323062Y-117853586D01*
X115323064Y-117853589D01*
X115323065Y-117853590D01*
X115468337Y-118042912D01*
X115468343Y-118042919D01*
X115637080Y-118211656D01*
X115637086Y-118211661D01*
X115826414Y-118356938D01*
X116033086Y-118476260D01*
X116033091Y-118476262D01*
X116033097Y-118476265D01*
X116115746Y-118510499D01*
X116253564Y-118567585D01*
X116484076Y-118629351D01*
X116720678Y-118660500D01*
X116720685Y-118660500D01*
X116959315Y-118660500D01*
X116959322Y-118660500D01*
X117195924Y-118629351D01*
X117426436Y-118567585D01*
X117646914Y-118476260D01*
X117853586Y-118356938D01*
X118042914Y-118211661D01*
X118211661Y-118042914D01*
X118356938Y-117853586D01*
X118476260Y-117646914D01*
X118567585Y-117426436D01*
X118629351Y-117195924D01*
X118660500Y-116959322D01*
X118660500Y-116730502D01*
X160889500Y-116730502D01*
X160889500Y-116949497D01*
X160900968Y-117036598D01*
X160918083Y-117166598D01*
X160925940Y-117195920D01*
X160974758Y-117378115D01*
X160984420Y-117401440D01*
X161058560Y-117580428D01*
X161058562Y-117580433D01*
X161058565Y-117580438D01*
X161168049Y-117770070D01*
X161301355Y-117943798D01*
X161301361Y-117943805D01*
X161456194Y-118098638D01*
X161456201Y-118098644D01*
X161629929Y-118231950D01*
X161819561Y-118341434D01*
X161819563Y-118341434D01*
X161819572Y-118341440D01*
X162021883Y-118425241D01*
X162233402Y-118481917D01*
X162450510Y-118510500D01*
X162450517Y-118510500D01*
X162669483Y-118510500D01*
X162669490Y-118510500D01*
X162886598Y-118481917D01*
X163098117Y-118425241D01*
X163300428Y-118341440D01*
X163490071Y-118231950D01*
X163663800Y-118098643D01*
X163818643Y-117943800D01*
X163951950Y-117770071D01*
X164061440Y-117580428D01*
X164145241Y-117378117D01*
X164201917Y-117166598D01*
X164230500Y-116949490D01*
X164230500Y-116730510D01*
X164201917Y-116513402D01*
X164145241Y-116301883D01*
X164061440Y-116099572D01*
X164023054Y-116033086D01*
X163951950Y-115909929D01*
X163818644Y-115736201D01*
X163818638Y-115736194D01*
X163663805Y-115581361D01*
X163663798Y-115581355D01*
X163490070Y-115448049D01*
X163300438Y-115338565D01*
X163300433Y-115338562D01*
X163300428Y-115338560D01*
X163098117Y-115254759D01*
X163098118Y-115254759D01*
X163098115Y-115254758D01*
X162992357Y-115226421D01*
X162886598Y-115198083D01*
X162850314Y-115193306D01*
X162669497Y-115169500D01*
X162669490Y-115169500D01*
X162450510Y-115169500D01*
X162450502Y-115169500D01*
X162243853Y-115196707D01*
X162233402Y-115198083D01*
X162212312Y-115203734D01*
X162021884Y-115254758D01*
X161903374Y-115303847D01*
X161819572Y-115338560D01*
X161819569Y-115338561D01*
X161819561Y-115338565D01*
X161629929Y-115448049D01*
X161456201Y-115581355D01*
X161456194Y-115581361D01*
X161301361Y-115736194D01*
X161301355Y-115736201D01*
X161168049Y-115909929D01*
X161058565Y-116099561D01*
X161058561Y-116099569D01*
X161058560Y-116099572D01*
X161023847Y-116183374D01*
X160974758Y-116301884D01*
X160918084Y-116513399D01*
X160918082Y-116513410D01*
X160889500Y-116730502D01*
X118660500Y-116730502D01*
X118660500Y-116720678D01*
X118629351Y-116484076D01*
X118567585Y-116253564D01*
X118503800Y-116099573D01*
X118476265Y-116033097D01*
X118476262Y-116033091D01*
X118476260Y-116033086D01*
X118356938Y-115826414D01*
X118234872Y-115667335D01*
X118211662Y-115637087D01*
X118211656Y-115637080D01*
X118042919Y-115468343D01*
X118016473Y-115448050D01*
X117853586Y-115323062D01*
X117793531Y-115288389D01*
X145374500Y-115288389D01*
X145374500Y-115411610D01*
X145398535Y-115532444D01*
X145398538Y-115532454D01*
X145445687Y-115646283D01*
X145445692Y-115646292D01*
X145514141Y-115748732D01*
X145514144Y-115748736D01*
X145601263Y-115835855D01*
X145601267Y-115835858D01*
X145703707Y-115904307D01*
X145703713Y-115904310D01*
X145703714Y-115904311D01*
X145817548Y-115951463D01*
X145938389Y-115975499D01*
X145938393Y-115975500D01*
X145938394Y-115975500D01*
X146061607Y-115975500D01*
X146061608Y-115975499D01*
X146182452Y-115951463D01*
X146296286Y-115904311D01*
X146398733Y-115835858D01*
X146408182Y-115826409D01*
X146422773Y-115811819D01*
X146484096Y-115778334D01*
X146510454Y-115775500D01*
X150489546Y-115775500D01*
X150556585Y-115795185D01*
X150577227Y-115811819D01*
X150601263Y-115835855D01*
X150601267Y-115835858D01*
X150703707Y-115904307D01*
X150703713Y-115904310D01*
X150703714Y-115904311D01*
X150817548Y-115951463D01*
X150938389Y-115975499D01*
X150938393Y-115975500D01*
X150938394Y-115975500D01*
X151061607Y-115975500D01*
X151061608Y-115975499D01*
X151182452Y-115951463D01*
X151296286Y-115904311D01*
X151398733Y-115835858D01*
X151485858Y-115748733D01*
X151554311Y-115646286D01*
X151601463Y-115532452D01*
X151625500Y-115411606D01*
X151625500Y-115288394D01*
X151601463Y-115167548D01*
X151554311Y-115053714D01*
X151554310Y-115053713D01*
X151554307Y-115053707D01*
X151485858Y-114951267D01*
X151485855Y-114951263D01*
X151398736Y-114864144D01*
X151398732Y-114864141D01*
X151296292Y-114795692D01*
X151296283Y-114795687D01*
X151182454Y-114748538D01*
X151182455Y-114748538D01*
X151182452Y-114748537D01*
X151182448Y-114748536D01*
X151182444Y-114748535D01*
X151061610Y-114724500D01*
X151061606Y-114724500D01*
X150938394Y-114724500D01*
X150938389Y-114724500D01*
X150817555Y-114748535D01*
X150817545Y-114748538D01*
X150703716Y-114795687D01*
X150703707Y-114795692D01*
X150601267Y-114864141D01*
X150601263Y-114864144D01*
X150577227Y-114888181D01*
X150515904Y-114921666D01*
X150489546Y-114924500D01*
X146510454Y-114924500D01*
X146443415Y-114904815D01*
X146422773Y-114888181D01*
X146398736Y-114864144D01*
X146398732Y-114864141D01*
X146296292Y-114795692D01*
X146296283Y-114795687D01*
X146182454Y-114748538D01*
X146182455Y-114748538D01*
X146182452Y-114748537D01*
X146182448Y-114748536D01*
X146182444Y-114748535D01*
X146061610Y-114724500D01*
X146061606Y-114724500D01*
X145938394Y-114724500D01*
X145938389Y-114724500D01*
X145817555Y-114748535D01*
X145817545Y-114748538D01*
X145703716Y-114795687D01*
X145703707Y-114795692D01*
X145601267Y-114864141D01*
X145601263Y-114864144D01*
X145514144Y-114951263D01*
X145514141Y-114951267D01*
X145445692Y-115053707D01*
X145445687Y-115053716D01*
X145398538Y-115167545D01*
X145398535Y-115167555D01*
X145374500Y-115288389D01*
X117793531Y-115288389D01*
X117646914Y-115203740D01*
X117646902Y-115203734D01*
X117426436Y-115112415D01*
X117207370Y-115053716D01*
X117195924Y-115050649D01*
X117195923Y-115050648D01*
X117195920Y-115050648D01*
X116959332Y-115019501D01*
X116959327Y-115019500D01*
X116959322Y-115019500D01*
X116720678Y-115019500D01*
X116720672Y-115019500D01*
X116720667Y-115019501D01*
X116484079Y-115050648D01*
X116253563Y-115112415D01*
X116033097Y-115203734D01*
X116033083Y-115203741D01*
X115826409Y-115323065D01*
X115637087Y-115468337D01*
X115637080Y-115468343D01*
X115468343Y-115637080D01*
X115468337Y-115637087D01*
X115323065Y-115826409D01*
X115203741Y-116033083D01*
X115203734Y-116033097D01*
X115112415Y-116253563D01*
X115050648Y-116484079D01*
X115019501Y-116720667D01*
X115019500Y-116720684D01*
X114700500Y-116720684D01*
X114700500Y-109788389D01*
X123874500Y-109788389D01*
X123874500Y-109911610D01*
X123898535Y-110032444D01*
X123898538Y-110032454D01*
X123945687Y-110146283D01*
X123945692Y-110146292D01*
X124014141Y-110248732D01*
X124014144Y-110248736D01*
X124101260Y-110335852D01*
X124104158Y-110338230D01*
X124105269Y-110339861D01*
X124105574Y-110340166D01*
X124105516Y-110340223D01*
X124143497Y-110395973D01*
X124149500Y-110434089D01*
X124149500Y-111265910D01*
X124129815Y-111332949D01*
X124104165Y-111361763D01*
X124101264Y-111364143D01*
X124014144Y-111451263D01*
X124014141Y-111451267D01*
X123945692Y-111553707D01*
X123945687Y-111553716D01*
X123898538Y-111667545D01*
X123898535Y-111667555D01*
X123874500Y-111788389D01*
X123874500Y-111911610D01*
X123895268Y-112016018D01*
X123898537Y-112032452D01*
X123907246Y-112053477D01*
X123945687Y-112146283D01*
X123945692Y-112146292D01*
X124014141Y-112248732D01*
X124014144Y-112248736D01*
X124101263Y-112335855D01*
X124101267Y-112335858D01*
X124203707Y-112404307D01*
X124203713Y-112404310D01*
X124203714Y-112404311D01*
X124317548Y-112451463D01*
X124438389Y-112475499D01*
X124438393Y-112475500D01*
X124438394Y-112475500D01*
X124561607Y-112475500D01*
X124561608Y-112475499D01*
X124682452Y-112451463D01*
X124796286Y-112404311D01*
X124898733Y-112335858D01*
X124985858Y-112248733D01*
X125054311Y-112146286D01*
X125101463Y-112032452D01*
X125125500Y-111911606D01*
X125125500Y-111788394D01*
X125101463Y-111667548D01*
X125054311Y-111553714D01*
X125054310Y-111553713D01*
X125054307Y-111553707D01*
X124985858Y-111451267D01*
X124985855Y-111451263D01*
X124898735Y-111364143D01*
X124895835Y-111361763D01*
X124894724Y-111360132D01*
X124894426Y-111359834D01*
X124894482Y-111359777D01*
X124856500Y-111304017D01*
X124850500Y-111265910D01*
X124850500Y-110434089D01*
X124870185Y-110367050D01*
X124895842Y-110338230D01*
X124898725Y-110335862D01*
X124898733Y-110335858D01*
X124985858Y-110248733D01*
X125054311Y-110146286D01*
X125101463Y-110032452D01*
X125125500Y-109911606D01*
X125125500Y-109788394D01*
X125101463Y-109667548D01*
X125054311Y-109553714D01*
X125054310Y-109553713D01*
X125054307Y-109553707D01*
X124985858Y-109451267D01*
X124985855Y-109451263D01*
X124898736Y-109364144D01*
X124898732Y-109364141D01*
X124796292Y-109295692D01*
X124796283Y-109295687D01*
X124703477Y-109257246D01*
X124682452Y-109248537D01*
X124682448Y-109248536D01*
X124682444Y-109248535D01*
X124561610Y-109224500D01*
X124561606Y-109224500D01*
X124438394Y-109224500D01*
X124438389Y-109224500D01*
X124317555Y-109248535D01*
X124317545Y-109248538D01*
X124203716Y-109295687D01*
X124203707Y-109295692D01*
X124101267Y-109364141D01*
X124101263Y-109364144D01*
X124014144Y-109451263D01*
X124014141Y-109451267D01*
X123945692Y-109553707D01*
X123945687Y-109553716D01*
X123898538Y-109667545D01*
X123898535Y-109667555D01*
X123874500Y-109788389D01*
X114700500Y-109788389D01*
X114700500Y-106697648D01*
X126599500Y-106697648D01*
X126599500Y-109778931D01*
X126634626Y-109932826D01*
X126703114Y-110075042D01*
X126703116Y-110075045D01*
X126703117Y-110075046D01*
X126801538Y-110198462D01*
X126864580Y-110248736D01*
X126924957Y-110296885D01*
X127067173Y-110365373D01*
X127067174Y-110365373D01*
X127067176Y-110365374D01*
X127173459Y-110389632D01*
X127221068Y-110400499D01*
X127221073Y-110400500D01*
X127381429Y-110400500D01*
X127390328Y-110400000D01*
X128437809Y-110400000D01*
X128504848Y-110419685D01*
X128550603Y-110472489D01*
X128560547Y-110541647D01*
X128531522Y-110605203D01*
X128506700Y-110627102D01*
X128451267Y-110664141D01*
X128451263Y-110664144D01*
X128364144Y-110751263D01*
X128364141Y-110751267D01*
X128295692Y-110853707D01*
X128295687Y-110853716D01*
X128248538Y-110967545D01*
X128248535Y-110967555D01*
X128224500Y-111088389D01*
X128224500Y-111211603D01*
X128224868Y-111215342D01*
X128224547Y-111217033D01*
X128225148Y-111218644D01*
X128218061Y-111251218D01*
X128211845Y-111283988D01*
X128210544Y-111285774D01*
X128210296Y-111286917D01*
X128189145Y-111315171D01*
X128015171Y-111489145D01*
X127953848Y-111522630D01*
X127915342Y-111524868D01*
X127911607Y-111524500D01*
X127911606Y-111524500D01*
X127788394Y-111524500D01*
X127788389Y-111524500D01*
X127667555Y-111548535D01*
X127667545Y-111548538D01*
X127553716Y-111595687D01*
X127553707Y-111595692D01*
X127451267Y-111664141D01*
X127451263Y-111664144D01*
X127364144Y-111751263D01*
X127364141Y-111751267D01*
X127295692Y-111853707D01*
X127295687Y-111853716D01*
X127248538Y-111967545D01*
X127248535Y-111967555D01*
X127224500Y-112088389D01*
X127224500Y-112211610D01*
X127248535Y-112332444D01*
X127248537Y-112332452D01*
X127249947Y-112335855D01*
X127295687Y-112446283D01*
X127295692Y-112446292D01*
X127364141Y-112548732D01*
X127364144Y-112548736D01*
X127451263Y-112635855D01*
X127451267Y-112635858D01*
X127553707Y-112704307D01*
X127553713Y-112704310D01*
X127553714Y-112704311D01*
X127667548Y-112751463D01*
X127788389Y-112775499D01*
X127788393Y-112775500D01*
X127788394Y-112775500D01*
X127911607Y-112775500D01*
X127911608Y-112775499D01*
X128032452Y-112751463D01*
X128146286Y-112704311D01*
X128248733Y-112635858D01*
X128335858Y-112548733D01*
X128404311Y-112446286D01*
X128407580Y-112438394D01*
X128407582Y-112438389D01*
X145874500Y-112438389D01*
X145874500Y-112561610D01*
X145898535Y-112682444D01*
X145898538Y-112682454D01*
X145945687Y-112796283D01*
X145945692Y-112796292D01*
X146014141Y-112898732D01*
X146014144Y-112898736D01*
X146101263Y-112985855D01*
X146101267Y-112985858D01*
X146203707Y-113054307D01*
X146203713Y-113054310D01*
X146203714Y-113054311D01*
X146317548Y-113101463D01*
X146413634Y-113120575D01*
X146438389Y-113125499D01*
X146438393Y-113125500D01*
X146438394Y-113125500D01*
X146561607Y-113125500D01*
X146561608Y-113125499D01*
X146682452Y-113101463D01*
X146796286Y-113054311D01*
X146898733Y-112985858D01*
X146985858Y-112898733D01*
X146985859Y-112898730D01*
X146988237Y-112895835D01*
X146989867Y-112894724D01*
X146990166Y-112894426D01*
X146990222Y-112894482D01*
X147045983Y-112856500D01*
X147084090Y-112850500D01*
X150415910Y-112850500D01*
X150482949Y-112870185D01*
X150511763Y-112895835D01*
X150514143Y-112898735D01*
X150601263Y-112985855D01*
X150601267Y-112985858D01*
X150703707Y-113054307D01*
X150703713Y-113054310D01*
X150703714Y-113054311D01*
X150817548Y-113101463D01*
X150913634Y-113120575D01*
X150938389Y-113125499D01*
X150938393Y-113125500D01*
X150938394Y-113125500D01*
X151061607Y-113125500D01*
X151061608Y-113125499D01*
X151182452Y-113101463D01*
X151296286Y-113054311D01*
X151398733Y-112985858D01*
X151485858Y-112898733D01*
X151554311Y-112796286D01*
X151601463Y-112682452D01*
X151625500Y-112561606D01*
X151625500Y-112438394D01*
X151601463Y-112317548D01*
X151557582Y-112211610D01*
X151554312Y-112203716D01*
X151554307Y-112203707D01*
X151485858Y-112101267D01*
X151485855Y-112101263D01*
X151398736Y-112014144D01*
X151398732Y-112014141D01*
X151296292Y-111945692D01*
X151296283Y-111945687D01*
X151182454Y-111898538D01*
X151182455Y-111898538D01*
X151182452Y-111898537D01*
X151182448Y-111898536D01*
X151182444Y-111898535D01*
X151061610Y-111874500D01*
X151061606Y-111874500D01*
X150938394Y-111874500D01*
X150938389Y-111874500D01*
X150817555Y-111898535D01*
X150817545Y-111898538D01*
X150703716Y-111945687D01*
X150703707Y-111945692D01*
X150601267Y-112014141D01*
X150601263Y-112014144D01*
X150514143Y-112101264D01*
X150511763Y-112104165D01*
X150510132Y-112105275D01*
X150509834Y-112105574D01*
X150509777Y-112105517D01*
X150454017Y-112143500D01*
X150415910Y-112149500D01*
X147084090Y-112149500D01*
X147017051Y-112129815D01*
X146988237Y-112104165D01*
X146985856Y-112101264D01*
X146898736Y-112014144D01*
X146898732Y-112014141D01*
X146796292Y-111945692D01*
X146796283Y-111945687D01*
X146682454Y-111898538D01*
X146682455Y-111898538D01*
X146682452Y-111898537D01*
X146682448Y-111898536D01*
X146682444Y-111898535D01*
X146561610Y-111874500D01*
X146561606Y-111874500D01*
X146438394Y-111874500D01*
X146438389Y-111874500D01*
X146317555Y-111898535D01*
X146317545Y-111898538D01*
X146203716Y-111945687D01*
X146203707Y-111945692D01*
X146101267Y-112014141D01*
X146101263Y-112014144D01*
X146014144Y-112101263D01*
X146014141Y-112101267D01*
X145945692Y-112203707D01*
X145945687Y-112203716D01*
X145898538Y-112317545D01*
X145898535Y-112317555D01*
X145874500Y-112438389D01*
X128407582Y-112438389D01*
X128429759Y-112384850D01*
X128429759Y-112384849D01*
X128451463Y-112332452D01*
X128475500Y-112211606D01*
X128475500Y-112088394D01*
X128475498Y-112088388D01*
X128475132Y-112084665D01*
X128475453Y-112082968D01*
X128474851Y-112081353D01*
X128481934Y-112048790D01*
X128488149Y-112016018D01*
X128489453Y-112014225D01*
X128489703Y-112013080D01*
X128510851Y-111984829D01*
X128684828Y-111810852D01*
X128746149Y-111777369D01*
X128784665Y-111775132D01*
X128788388Y-111775498D01*
X128788394Y-111775500D01*
X128788400Y-111775500D01*
X128911607Y-111775500D01*
X128911608Y-111775499D01*
X129032452Y-111751463D01*
X129146286Y-111704311D01*
X129248733Y-111635858D01*
X129334592Y-111549999D01*
X135719500Y-111549999D01*
X135719500Y-111550002D01*
X135738947Y-111647771D01*
X135738950Y-111647778D01*
X135776724Y-111704311D01*
X135794334Y-111730666D01*
X135877224Y-111786051D01*
X135877227Y-111786051D01*
X135877228Y-111786052D01*
X135974995Y-111805499D01*
X135974998Y-111805500D01*
X135975000Y-111805500D01*
X137125002Y-111805500D01*
X137125003Y-111805499D01*
X137222776Y-111786051D01*
X137305666Y-111730666D01*
X137361051Y-111647776D01*
X137380500Y-111550000D01*
X137380500Y-110050000D01*
X137380500Y-110049997D01*
X137380499Y-110049995D01*
X137361052Y-109952228D01*
X137361051Y-109952227D01*
X137361051Y-109952224D01*
X137361049Y-109952221D01*
X137305667Y-109869335D01*
X137305666Y-109869334D01*
X137276100Y-109849578D01*
X137231297Y-109795969D01*
X137222589Y-109726644D01*
X137223367Y-109722324D01*
X137225500Y-109711606D01*
X137225500Y-109588394D01*
X137201463Y-109467548D01*
X137158631Y-109364144D01*
X137154312Y-109353716D01*
X137154307Y-109353707D01*
X137085858Y-109251267D01*
X137085855Y-109251263D01*
X136998736Y-109164144D01*
X136998732Y-109164141D01*
X136896292Y-109095692D01*
X136896283Y-109095687D01*
X136782454Y-109048538D01*
X136782455Y-109048538D01*
X136782452Y-109048537D01*
X136782448Y-109048536D01*
X136782444Y-109048535D01*
X136661610Y-109024500D01*
X136661606Y-109024500D01*
X136538394Y-109024500D01*
X136538389Y-109024500D01*
X136417555Y-109048535D01*
X136417545Y-109048538D01*
X136303716Y-109095687D01*
X136303707Y-109095692D01*
X136201267Y-109164141D01*
X136201263Y-109164144D01*
X136114144Y-109251263D01*
X136114141Y-109251267D01*
X136045692Y-109353707D01*
X136045687Y-109353716D01*
X135998538Y-109467545D01*
X135998535Y-109467555D01*
X135974500Y-109588389D01*
X135974500Y-109696138D01*
X135954815Y-109763177D01*
X135902011Y-109808932D01*
X135897833Y-109810749D01*
X135833273Y-109837411D01*
X135762706Y-109907831D01*
X135724462Y-109999890D01*
X135724356Y-110099583D01*
X135724357Y-110099585D01*
X135762409Y-110191721D01*
X135762413Y-110191729D01*
X136122071Y-110731216D01*
X136142879Y-110797915D01*
X136124324Y-110865276D01*
X136122071Y-110868782D01*
X135762413Y-111408269D01*
X135762409Y-111408276D01*
X135738948Y-111452224D01*
X135719500Y-111549999D01*
X129334592Y-111549999D01*
X129335858Y-111548733D01*
X129365318Y-111504642D01*
X129389204Y-111468896D01*
X129404307Y-111446292D01*
X129404307Y-111446291D01*
X129404311Y-111446286D01*
X129451463Y-111332452D01*
X129475500Y-111211606D01*
X129475500Y-111088394D01*
X129451463Y-110967548D01*
X129404311Y-110853714D01*
X129404310Y-110853713D01*
X129404307Y-110853707D01*
X129335858Y-110751267D01*
X129335855Y-110751263D01*
X129248736Y-110664144D01*
X129248732Y-110664141D01*
X129193300Y-110627102D01*
X129148495Y-110573489D01*
X129139788Y-110504164D01*
X129169943Y-110441137D01*
X129229386Y-110404418D01*
X129262191Y-110400000D01*
X131609672Y-110400000D01*
X131618571Y-110400500D01*
X131621073Y-110400500D01*
X131778927Y-110400500D01*
X131932824Y-110365374D01*
X131994127Y-110335852D01*
X132075042Y-110296885D01*
X132075042Y-110296884D01*
X132075046Y-110296883D01*
X132198462Y-110198462D01*
X132296883Y-110075046D01*
X132365374Y-109932824D01*
X132400500Y-109778927D01*
X132400500Y-109700000D01*
X132400500Y-109642417D01*
X132400500Y-106938389D01*
X132674500Y-106938389D01*
X132674500Y-107061610D01*
X132698535Y-107182444D01*
X132698538Y-107182454D01*
X132745687Y-107296283D01*
X132745692Y-107296292D01*
X132814141Y-107398732D01*
X132814144Y-107398736D01*
X132901260Y-107485852D01*
X132904158Y-107488230D01*
X132905269Y-107489861D01*
X132905574Y-107490166D01*
X132905516Y-107490223D01*
X132943497Y-107545973D01*
X132949500Y-107584089D01*
X132949500Y-107865910D01*
X132929815Y-107932949D01*
X132904165Y-107961763D01*
X132901264Y-107964143D01*
X132814144Y-108051263D01*
X132814141Y-108051267D01*
X132745692Y-108153707D01*
X132745687Y-108153716D01*
X132698538Y-108267545D01*
X132698535Y-108267555D01*
X132674500Y-108388389D01*
X132674500Y-108511610D01*
X132698535Y-108632444D01*
X132698538Y-108632454D01*
X132745687Y-108746283D01*
X132745692Y-108746292D01*
X132814141Y-108848732D01*
X132814144Y-108848736D01*
X132901263Y-108935855D01*
X132901267Y-108935858D01*
X133003707Y-109004307D01*
X133003713Y-109004310D01*
X133003714Y-109004311D01*
X133117548Y-109051463D01*
X133238389Y-109075499D01*
X133238393Y-109075500D01*
X133238394Y-109075500D01*
X133361607Y-109075500D01*
X133361608Y-109075499D01*
X133482452Y-109051463D01*
X133498696Y-109044734D01*
X133568159Y-109037263D01*
X133630640Y-109068535D01*
X133660710Y-109111841D01*
X133695687Y-109196282D01*
X133695692Y-109196292D01*
X133764141Y-109298732D01*
X133764144Y-109298736D01*
X133851263Y-109385855D01*
X133851267Y-109385858D01*
X133953707Y-109454307D01*
X133953713Y-109454310D01*
X133953714Y-109454311D01*
X134067548Y-109501463D01*
X134188389Y-109525499D01*
X134188393Y-109525500D01*
X134188394Y-109525500D01*
X134311607Y-109525500D01*
X134311608Y-109525499D01*
X134432452Y-109501463D01*
X134546286Y-109454311D01*
X134648733Y-109385858D01*
X134735858Y-109298733D01*
X134804311Y-109196286D01*
X134851463Y-109082452D01*
X134875500Y-108961606D01*
X134875500Y-108838394D01*
X134851463Y-108717548D01*
X134804311Y-108603714D01*
X134804310Y-108603713D01*
X134804307Y-108603707D01*
X134735858Y-108501267D01*
X134735855Y-108501263D01*
X134648735Y-108414143D01*
X134645835Y-108411763D01*
X134644724Y-108410132D01*
X134644426Y-108409834D01*
X134644482Y-108409777D01*
X134606500Y-108354017D01*
X134600500Y-108315910D01*
X134600500Y-107584089D01*
X134620185Y-107517050D01*
X134632770Y-107500653D01*
X134642344Y-107490126D01*
X134648733Y-107485858D01*
X134696202Y-107438389D01*
X144874500Y-107438389D01*
X144874500Y-107561610D01*
X144898535Y-107682444D01*
X144898538Y-107682454D01*
X144945687Y-107796283D01*
X144945692Y-107796292D01*
X145014141Y-107898732D01*
X145014144Y-107898736D01*
X145101260Y-107985852D01*
X145104158Y-107988230D01*
X145105269Y-107989861D01*
X145105574Y-107990166D01*
X145105516Y-107990223D01*
X145143497Y-108045973D01*
X145149500Y-108084089D01*
X145149500Y-109665910D01*
X145129815Y-109732949D01*
X145104165Y-109761763D01*
X145101264Y-109764143D01*
X145014144Y-109851263D01*
X145014141Y-109851267D01*
X144945692Y-109953707D01*
X144945687Y-109953716D01*
X144898538Y-110067545D01*
X144898535Y-110067555D01*
X144874500Y-110188389D01*
X144874500Y-110311610D01*
X144898535Y-110432444D01*
X144898537Y-110432452D01*
X144907246Y-110453477D01*
X144945687Y-110546283D01*
X144945692Y-110546292D01*
X145014141Y-110648732D01*
X145014144Y-110648736D01*
X145101263Y-110735855D01*
X145101267Y-110735858D01*
X145203707Y-110804307D01*
X145203713Y-110804310D01*
X145203714Y-110804311D01*
X145317548Y-110851463D01*
X145411673Y-110870185D01*
X145438389Y-110875499D01*
X145438393Y-110875500D01*
X145438394Y-110875500D01*
X145561607Y-110875500D01*
X145561608Y-110875499D01*
X145682452Y-110851463D01*
X145796286Y-110804311D01*
X145898733Y-110735858D01*
X145985858Y-110648733D01*
X146027828Y-110585920D01*
X146081438Y-110541117D01*
X146150763Y-110532408D01*
X146199818Y-110551709D01*
X146203704Y-110554305D01*
X146203716Y-110554312D01*
X146221328Y-110561607D01*
X146317548Y-110601463D01*
X146436549Y-110625133D01*
X146438389Y-110625499D01*
X146438393Y-110625500D01*
X146438394Y-110625500D01*
X146561607Y-110625500D01*
X146565331Y-110625133D01*
X146567267Y-110625500D01*
X146567698Y-110625500D01*
X146567698Y-110625581D01*
X146633978Y-110638148D01*
X146665172Y-110660854D01*
X146784788Y-110780470D01*
X146784789Y-110780471D01*
X146784791Y-110780472D01*
X146815004Y-110797915D01*
X146864712Y-110826614D01*
X146953856Y-110850500D01*
X149915910Y-110850500D01*
X149982949Y-110870185D01*
X150011763Y-110895835D01*
X150014143Y-110898735D01*
X150101263Y-110985855D01*
X150101267Y-110985858D01*
X150203707Y-111054307D01*
X150203713Y-111054310D01*
X150203714Y-111054311D01*
X150317548Y-111101463D01*
X150438389Y-111125499D01*
X150438393Y-111125500D01*
X150438394Y-111125500D01*
X150561607Y-111125500D01*
X150561608Y-111125499D01*
X150682452Y-111101463D01*
X150796286Y-111054311D01*
X150898733Y-110985858D01*
X150985858Y-110898733D01*
X151054311Y-110796286D01*
X151101463Y-110682452D01*
X151125500Y-110561606D01*
X151125500Y-110438394D01*
X151101463Y-110317548D01*
X151054311Y-110203714D01*
X151054310Y-110203713D01*
X151054307Y-110203707D01*
X150985858Y-110101267D01*
X150985855Y-110101263D01*
X150898736Y-110014144D01*
X150898732Y-110014141D01*
X150796292Y-109945692D01*
X150796283Y-109945687D01*
X150682454Y-109898538D01*
X150682455Y-109898538D01*
X150682452Y-109898537D01*
X150682448Y-109898536D01*
X150682444Y-109898535D01*
X150561610Y-109874500D01*
X150561606Y-109874500D01*
X150438394Y-109874500D01*
X150438389Y-109874500D01*
X150317555Y-109898535D01*
X150317545Y-109898538D01*
X150203716Y-109945687D01*
X150203707Y-109945692D01*
X150101267Y-110014141D01*
X150101263Y-110014144D01*
X150014143Y-110101264D01*
X150011763Y-110104165D01*
X150010132Y-110105275D01*
X150009834Y-110105574D01*
X150009777Y-110105517D01*
X149954017Y-110143500D01*
X149915910Y-110149500D01*
X147249500Y-110149500D01*
X147182461Y-110129815D01*
X147136706Y-110077011D01*
X147125500Y-110025500D01*
X147125500Y-109938393D01*
X147125499Y-109938389D01*
X147124392Y-109932824D01*
X147101463Y-109817548D01*
X147054311Y-109703714D01*
X147054310Y-109703713D01*
X147054307Y-109703707D01*
X146985858Y-109601267D01*
X146985855Y-109601263D01*
X146972273Y-109587681D01*
X146968757Y-109581242D01*
X146962766Y-109577009D01*
X146952239Y-109550992D01*
X146938788Y-109526358D01*
X146939311Y-109519040D01*
X146936560Y-109512240D01*
X146941769Y-109484662D01*
X146943772Y-109456666D01*
X146948487Y-109449101D01*
X146949530Y-109443585D01*
X146966297Y-109420534D01*
X146969897Y-109414760D01*
X146971064Y-109413526D01*
X146985858Y-109398733D01*
X146987757Y-109395890D01*
X146994033Y-109389260D01*
X147020587Y-109373798D01*
X147045983Y-109356500D01*
X147051897Y-109355568D01*
X147054413Y-109354104D01*
X147059719Y-109354337D01*
X147084090Y-109350500D01*
X149915910Y-109350500D01*
X149982949Y-109370185D01*
X150011763Y-109395835D01*
X150014143Y-109398735D01*
X150101263Y-109485855D01*
X150101267Y-109485858D01*
X150203707Y-109554307D01*
X150203713Y-109554310D01*
X150203714Y-109554311D01*
X150317548Y-109601463D01*
X150438389Y-109625499D01*
X150438393Y-109625500D01*
X150438394Y-109625500D01*
X150561607Y-109625500D01*
X150561608Y-109625499D01*
X150682452Y-109601463D01*
X150796286Y-109554311D01*
X150898733Y-109485858D01*
X150985858Y-109398733D01*
X151054311Y-109296286D01*
X151101463Y-109182452D01*
X151125500Y-109061606D01*
X151125500Y-108938394D01*
X151101463Y-108817548D01*
X151054311Y-108703714D01*
X151054310Y-108703713D01*
X151054307Y-108703707D01*
X150985858Y-108601267D01*
X150985855Y-108601263D01*
X150898736Y-108514144D01*
X150898732Y-108514141D01*
X150796292Y-108445692D01*
X150796283Y-108445687D01*
X150682454Y-108398538D01*
X150682455Y-108398538D01*
X150682452Y-108398537D01*
X150682448Y-108398536D01*
X150682441Y-108398534D01*
X150673121Y-108396680D01*
X150611211Y-108364293D01*
X150576639Y-108303576D01*
X150580382Y-108233806D01*
X150582742Y-108227647D01*
X150601463Y-108182452D01*
X150625500Y-108061606D01*
X150625500Y-107938394D01*
X150601463Y-107817548D01*
X150554311Y-107703714D01*
X150554310Y-107703713D01*
X150554307Y-107703707D01*
X150485858Y-107601267D01*
X150485855Y-107601263D01*
X150398736Y-107514144D01*
X150398732Y-107514141D01*
X150296292Y-107445692D01*
X150296283Y-107445687D01*
X150182925Y-107398733D01*
X150182452Y-107398537D01*
X150182448Y-107398536D01*
X150182444Y-107398535D01*
X150061610Y-107374500D01*
X150061606Y-107374500D01*
X149938394Y-107374500D01*
X149938389Y-107374500D01*
X149817555Y-107398535D01*
X149817545Y-107398538D01*
X149703716Y-107445687D01*
X149703707Y-107445692D01*
X149601267Y-107514141D01*
X149601263Y-107514144D01*
X149514143Y-107601264D01*
X149511763Y-107604165D01*
X149510132Y-107605275D01*
X149509834Y-107605574D01*
X149509777Y-107605517D01*
X149454017Y-107643500D01*
X149415910Y-107649500D01*
X147084090Y-107649500D01*
X147017051Y-107629815D01*
X146988237Y-107604165D01*
X146985856Y-107601264D01*
X146898736Y-107514144D01*
X146898732Y-107514141D01*
X146796292Y-107445692D01*
X146796283Y-107445687D01*
X146682925Y-107398733D01*
X146682452Y-107398537D01*
X146682448Y-107398536D01*
X146682444Y-107398535D01*
X146561610Y-107374500D01*
X146561606Y-107374500D01*
X146438394Y-107374500D01*
X146438389Y-107374500D01*
X146317555Y-107398535D01*
X146317545Y-107398538D01*
X146272388Y-107417243D01*
X146202918Y-107424712D01*
X146140439Y-107393437D01*
X146104787Y-107333348D01*
X146103321Y-107326893D01*
X146101463Y-107317548D01*
X146054311Y-107203714D01*
X146054310Y-107203713D01*
X146054307Y-107203707D01*
X145985858Y-107101267D01*
X145985855Y-107101263D01*
X145898736Y-107014144D01*
X145898732Y-107014141D01*
X145796292Y-106945692D01*
X145796283Y-106945687D01*
X145682454Y-106898538D01*
X145682455Y-106898538D01*
X145682452Y-106898537D01*
X145682448Y-106898536D01*
X145682444Y-106898535D01*
X145561610Y-106874500D01*
X145561606Y-106874500D01*
X145438394Y-106874500D01*
X145438389Y-106874500D01*
X145317555Y-106898535D01*
X145317545Y-106898538D01*
X145203716Y-106945687D01*
X145203707Y-106945692D01*
X145101267Y-107014141D01*
X145101263Y-107014144D01*
X145014144Y-107101263D01*
X145014141Y-107101267D01*
X144945692Y-107203707D01*
X144945687Y-107203716D01*
X144898538Y-107317545D01*
X144898535Y-107317555D01*
X144874500Y-107438389D01*
X134696202Y-107438389D01*
X134735858Y-107398733D01*
X134804311Y-107296286D01*
X134851463Y-107182452D01*
X134875500Y-107061606D01*
X134875500Y-106938394D01*
X134851463Y-106817548D01*
X134804311Y-106703714D01*
X134804310Y-106703713D01*
X134804307Y-106703707D01*
X134735858Y-106601267D01*
X134735855Y-106601263D01*
X134648736Y-106514144D01*
X134648732Y-106514141D01*
X134546292Y-106445692D01*
X134546283Y-106445687D01*
X134432454Y-106398538D01*
X134432455Y-106398538D01*
X134432452Y-106398537D01*
X134432448Y-106398536D01*
X134432444Y-106398535D01*
X134311610Y-106374500D01*
X134311606Y-106374500D01*
X134188394Y-106374500D01*
X134188389Y-106374500D01*
X134067555Y-106398535D01*
X134067545Y-106398538D01*
X133953716Y-106445687D01*
X133953707Y-106445692D01*
X133846202Y-106517526D01*
X133845067Y-106515828D01*
X133789336Y-106539488D01*
X133720470Y-106527687D01*
X133704057Y-106517138D01*
X133703798Y-106517526D01*
X133596292Y-106445692D01*
X133596283Y-106445687D01*
X133482454Y-106398538D01*
X133482455Y-106398538D01*
X133482452Y-106398537D01*
X133482448Y-106398536D01*
X133482444Y-106398535D01*
X133361610Y-106374500D01*
X133361606Y-106374500D01*
X133238394Y-106374500D01*
X133238389Y-106374500D01*
X133117555Y-106398535D01*
X133117545Y-106398538D01*
X133003716Y-106445687D01*
X133003707Y-106445692D01*
X132901267Y-106514141D01*
X132901263Y-106514144D01*
X132814144Y-106601263D01*
X132814141Y-106601267D01*
X132745692Y-106703707D01*
X132745687Y-106703716D01*
X132698538Y-106817545D01*
X132698535Y-106817555D01*
X132674500Y-106938389D01*
X132400500Y-106938389D01*
X132400500Y-106747273D01*
X132400500Y-106697648D01*
X132375450Y-106539488D01*
X132368477Y-106495465D01*
X132305218Y-106300776D01*
X132271503Y-106234607D01*
X132212287Y-106118390D01*
X132204556Y-106107749D01*
X132091971Y-105952786D01*
X131947213Y-105808028D01*
X131781613Y-105687715D01*
X131781612Y-105687714D01*
X131781610Y-105687713D01*
X131724653Y-105658691D01*
X131599223Y-105594781D01*
X131404534Y-105531522D01*
X131229995Y-105503878D01*
X131202352Y-105499500D01*
X131152727Y-105499500D01*
X127957583Y-105499500D01*
X127900000Y-105499500D01*
X127797648Y-105499500D01*
X127773329Y-105503351D01*
X127595465Y-105531522D01*
X127400776Y-105594781D01*
X127218386Y-105687715D01*
X127052786Y-105808028D01*
X126908028Y-105952786D01*
X126787715Y-106118386D01*
X126694781Y-106300776D01*
X126631522Y-106495465D01*
X126599500Y-106697648D01*
X114700500Y-106697648D01*
X114700500Y-99064051D01*
X114700763Y-99055972D01*
X114708320Y-98940684D01*
X115019500Y-98940684D01*
X115019500Y-99179315D01*
X115019501Y-99179332D01*
X115050648Y-99415920D01*
X115112415Y-99646436D01*
X115203734Y-99866902D01*
X115203741Y-99866916D01*
X115218695Y-99892817D01*
X115323062Y-100073586D01*
X115323064Y-100073589D01*
X115323065Y-100073590D01*
X115468337Y-100262912D01*
X115468343Y-100262919D01*
X115637080Y-100431656D01*
X115637087Y-100431662D01*
X115742377Y-100512454D01*
X115826414Y-100576938D01*
X116033086Y-100696260D01*
X116033091Y-100696262D01*
X116033097Y-100696265D01*
X116101826Y-100724733D01*
X116253564Y-100787585D01*
X116484076Y-100849351D01*
X116720678Y-100880500D01*
X116720685Y-100880500D01*
X116959315Y-100880500D01*
X116959322Y-100880500D01*
X117195924Y-100849351D01*
X117426436Y-100787585D01*
X117646914Y-100696260D01*
X117853586Y-100576938D01*
X118042914Y-100431661D01*
X118211661Y-100262914D01*
X118356938Y-100073586D01*
X118476260Y-99866914D01*
X118567585Y-99646436D01*
X118629351Y-99415924D01*
X118660500Y-99179322D01*
X118660500Y-98991228D01*
X120199500Y-98991228D01*
X120199500Y-99158771D01*
X120232182Y-99323074D01*
X120232184Y-99323082D01*
X120296295Y-99477860D01*
X120389373Y-99617162D01*
X120507837Y-99735626D01*
X120578470Y-99782821D01*
X120647137Y-99828703D01*
X120801918Y-99892816D01*
X120966228Y-99925499D01*
X120966232Y-99925500D01*
X120966233Y-99925500D01*
X121133768Y-99925500D01*
X121133769Y-99925499D01*
X121298082Y-99892816D01*
X121452863Y-99828703D01*
X121592162Y-99735626D01*
X121710626Y-99617162D01*
X121803703Y-99477863D01*
X121867816Y-99323082D01*
X121900500Y-99158767D01*
X121900500Y-98991233D01*
X121900499Y-98991228D01*
X126999500Y-98991228D01*
X126999500Y-99158771D01*
X127032182Y-99323074D01*
X127032184Y-99323082D01*
X127096295Y-99477860D01*
X127189373Y-99617162D01*
X127307837Y-99735626D01*
X127378470Y-99782821D01*
X127447137Y-99828703D01*
X127601918Y-99892816D01*
X127766228Y-99925499D01*
X127766232Y-99925500D01*
X127766233Y-99925500D01*
X127933768Y-99925500D01*
X127933769Y-99925499D01*
X128098082Y-99892816D01*
X128252863Y-99828703D01*
X128392162Y-99735626D01*
X128510626Y-99617162D01*
X128603703Y-99477863D01*
X128667816Y-99323082D01*
X128700500Y-99158767D01*
X128700500Y-98991233D01*
X128667816Y-98826918D01*
X128616933Y-98704076D01*
X128603704Y-98672139D01*
X128510626Y-98532837D01*
X128392162Y-98414373D01*
X128252860Y-98321295D01*
X128098082Y-98257184D01*
X128098074Y-98257182D01*
X127933771Y-98224500D01*
X127933767Y-98224500D01*
X127766233Y-98224500D01*
X127766228Y-98224500D01*
X127601925Y-98257182D01*
X127601917Y-98257184D01*
X127447139Y-98321295D01*
X127307837Y-98414373D01*
X127189373Y-98532837D01*
X127096295Y-98672139D01*
X127032184Y-98826917D01*
X127032182Y-98826925D01*
X126999500Y-98991228D01*
X121900499Y-98991228D01*
X121867816Y-98826918D01*
X121816933Y-98704076D01*
X121803704Y-98672139D01*
X121710626Y-98532837D01*
X121592162Y-98414373D01*
X121452860Y-98321295D01*
X121298082Y-98257184D01*
X121298074Y-98257182D01*
X121133771Y-98224500D01*
X121133767Y-98224500D01*
X120966233Y-98224500D01*
X120966228Y-98224500D01*
X120801925Y-98257182D01*
X120801917Y-98257184D01*
X120647139Y-98321295D01*
X120507837Y-98414373D01*
X120389373Y-98532837D01*
X120296295Y-98672139D01*
X120232184Y-98826917D01*
X120232182Y-98826925D01*
X120199500Y-98991228D01*
X118660500Y-98991228D01*
X118660500Y-98940678D01*
X118629351Y-98704076D01*
X118567585Y-98473564D01*
X118503800Y-98319573D01*
X118476265Y-98253097D01*
X118476262Y-98253091D01*
X118476260Y-98253086D01*
X118356938Y-98046414D01*
X118250229Y-97907349D01*
X118211662Y-97857087D01*
X118211656Y-97857080D01*
X118042919Y-97688343D01*
X118042912Y-97688337D01*
X117853590Y-97543065D01*
X117853589Y-97543064D01*
X117853586Y-97543062D01*
X117646914Y-97423740D01*
X117646902Y-97423734D01*
X117426436Y-97332415D01*
X117195920Y-97270648D01*
X116959332Y-97239501D01*
X116959327Y-97239500D01*
X116959322Y-97239500D01*
X116720678Y-97239500D01*
X116720672Y-97239500D01*
X116720667Y-97239501D01*
X116484079Y-97270648D01*
X116253563Y-97332415D01*
X116033097Y-97423734D01*
X116033083Y-97423741D01*
X115826409Y-97543065D01*
X115637087Y-97688337D01*
X115637080Y-97688343D01*
X115468343Y-97857080D01*
X115468337Y-97857087D01*
X115323065Y-98046409D01*
X115203741Y-98253083D01*
X115203734Y-98253097D01*
X115112415Y-98473563D01*
X115050648Y-98704079D01*
X115019501Y-98940667D01*
X115019500Y-98940684D01*
X114708320Y-98940684D01*
X114718272Y-98788842D01*
X114720387Y-98772775D01*
X114771818Y-98514217D01*
X114776009Y-98498574D01*
X114860750Y-98248935D01*
X114866950Y-98233968D01*
X114983547Y-97997533D01*
X114991650Y-97983498D01*
X115138113Y-97764300D01*
X115147970Y-97751454D01*
X115321791Y-97553249D01*
X115333249Y-97541791D01*
X115531454Y-97367970D01*
X115544300Y-97358113D01*
X115763498Y-97211650D01*
X115777533Y-97203547D01*
X116013968Y-97086950D01*
X116028935Y-97080750D01*
X116278574Y-96996009D01*
X116294217Y-96991818D01*
X116552775Y-96940387D01*
X116568827Y-96938273D01*
X116835971Y-96920764D01*
X116844052Y-96920500D01*
X116897583Y-96920500D01*
X121383273Y-96920500D01*
X129838072Y-96920500D01*
X129905111Y-96940185D01*
G37*
%TD.AperFunction*%
%TD*%
M02*
