%TF.GenerationSoftware,KiCad,Pcbnew,9.0.3*%
%TF.CreationDate,2025-08-05T15:38:48-04:00*%
%TF.ProjectId,weather-featherwing,77656174-6865-4722-9d66-656174686572,1.4.0*%
%TF.SameCoordinates,Original*%
%TF.FileFunction,Copper,L1,Top*%
%TF.FilePolarity,Positive*%
%FSLAX46Y46*%
G04 Gerber Fmt 4.6, Leading zero omitted, Abs format (unit mm)*
G04 Created by KiCad (PCBNEW 9.0.3) date 2025-08-05 15:38:48*
%MOMM*%
%LPD*%
G01*
G04 APERTURE LIST*
G04 Aperture macros list*
%AMRoundRect*
0 Rectangle with rounded corners*
0 $1 Rounding radius*
0 $2 $3 $4 $5 $6 $7 $8 $9 X,Y pos of 4 corners*
0 Add a 4 corners polygon primitive as box body*
4,1,4,$2,$3,$4,$5,$6,$7,$8,$9,$2,$3,0*
0 Add four circle primitives for the rounded corners*
1,1,$1+$1,$2,$3*
1,1,$1+$1,$4,$5*
1,1,$1+$1,$6,$7*
1,1,$1+$1,$8,$9*
0 Add four rect primitives between the rounded corners*
20,1,$1+$1,$2,$3,$4,$5,0*
20,1,$1+$1,$4,$5,$6,$7,0*
20,1,$1+$1,$6,$7,$8,$9,0*
20,1,$1+$1,$8,$9,$2,$3,0*%
%AMFreePoly0*
4,1,18,-0.500000,0.750000,-0.496194,0.769134,-0.485355,0.785355,-0.469134,0.796194,-0.450000,0.800000,0.450000,0.800000,0.469134,0.796194,0.485355,0.785355,0.496194,0.769134,0.500000,0.750000,0.500000,-0.750000,0.496194,-0.769134,0.485355,-0.785355,0.469134,-0.796194,0.450000,-0.800000,0.000000,-0.800000,-0.500000,-0.300000,-0.500000,0.750000,-0.500000,0.750000,$1*%
%AMFreePoly1*
4,1,18,-0.500000,0.300000,0.000000,0.800000,0.450000,0.800000,0.469134,0.796194,0.485355,0.785355,0.496194,0.769134,0.500000,0.750000,0.500000,-0.750000,0.496194,-0.769134,0.485355,-0.785355,0.469134,-0.796194,0.450000,-0.800000,-0.450000,-0.800000,-0.469134,-0.796194,-0.485355,-0.785355,-0.496194,-0.769134,-0.500000,-0.750000,-0.500000,0.300000,-0.500000,0.300000,$1*%
%AMFreePoly2*
4,1,18,-0.500000,0.750000,-0.496194,0.769134,-0.485355,0.785355,-0.469134,0.796194,-0.450000,0.800000,0.450000,0.800000,0.469134,0.796194,0.485355,0.785355,0.496194,0.769134,0.500000,0.750000,0.500000,-0.300000,0.000000,-0.800000,-0.450000,-0.800000,-0.469134,-0.796194,-0.485355,-0.785355,-0.496194,-0.769134,-0.500000,-0.750000,-0.500000,0.750000,-0.500000,0.750000,$1*%
%AMFreePoly3*
4,1,18,-0.500000,0.750000,-0.496194,0.769134,-0.485355,0.785355,-0.469134,0.796194,-0.450000,0.800000,0.000000,0.800000,0.500000,0.300000,0.500000,-0.750000,0.496194,-0.769134,0.485355,-0.785355,0.469134,-0.796194,0.450000,-0.800000,-0.450000,-0.800000,-0.469134,-0.796194,-0.485355,-0.785355,-0.496194,-0.769134,-0.500000,-0.750000,-0.500000,0.750000,-0.500000,0.750000,$1*%
G04 Aperture macros list end*
%TA.AperFunction,SMDPad,CuDef*%
%ADD10RoundRect,0.050000X0.950000X-0.350000X0.950000X0.350000X-0.950000X0.350000X-0.950000X-0.350000X0*%
%TD*%
%TA.AperFunction,SMDPad,CuDef*%
%ADD11RoundRect,0.050000X0.650000X-0.850000X0.650000X0.850000X-0.650000X0.850000X-0.650000X-0.850000X0*%
%TD*%
%TA.AperFunction,SMDPad,CuDef*%
%ADD12RoundRect,0.050000X0.900000X-0.650000X0.900000X0.650000X-0.900000X0.650000X-0.900000X-0.650000X0*%
%TD*%
%TA.AperFunction,SMDPad,CuDef*%
%ADD13RoundRect,0.050000X0.225000X-0.225000X0.225000X0.225000X-0.225000X0.225000X-0.225000X-0.225000X0*%
%TD*%
%TA.AperFunction,SMDPad,CuDef*%
%ADD14RoundRect,0.187500X-0.187500X-0.312500X0.187500X-0.312500X0.187500X0.312500X-0.187500X0.312500X0*%
%TD*%
%TA.AperFunction,SMDPad,CuDef*%
%ADD15RoundRect,0.200000X-0.200000X-0.250000X0.200000X-0.250000X0.200000X0.250000X-0.200000X0.250000X0*%
%TD*%
%TA.AperFunction,SMDPad,CuDef*%
%ADD16RoundRect,0.200000X0.200000X0.250000X-0.200000X0.250000X-0.200000X-0.250000X0.200000X-0.250000X0*%
%TD*%
%TA.AperFunction,SMDPad,CuDef*%
%ADD17FreePoly0,180.000000*%
%TD*%
%TA.AperFunction,SMDPad,CuDef*%
%ADD18FreePoly1,180.000000*%
%TD*%
%TA.AperFunction,SMDPad,CuDef*%
%ADD19RoundRect,0.050000X0.450000X0.750000X-0.450000X0.750000X-0.450000X-0.750000X0.450000X-0.750000X0*%
%TD*%
%TA.AperFunction,SMDPad,CuDef*%
%ADD20FreePoly2,180.000000*%
%TD*%
%TA.AperFunction,SMDPad,CuDef*%
%ADD21FreePoly3,180.000000*%
%TD*%
%TA.AperFunction,SMDPad,CuDef*%
%ADD22RoundRect,0.150000X-0.625000X0.150000X-0.625000X-0.150000X0.625000X-0.150000X0.625000X0.150000X0*%
%TD*%
%TA.AperFunction,SMDPad,CuDef*%
%ADD23RoundRect,0.250000X-0.650000X0.350000X-0.650000X-0.350000X0.650000X-0.350000X0.650000X0.350000X0*%
%TD*%
%TA.AperFunction,SMDPad,CuDef*%
%ADD24RoundRect,0.100000X0.100000X-0.675000X0.100000X0.675000X-0.100000X0.675000X-0.100000X-0.675000X0*%
%TD*%
%TA.AperFunction,SMDPad,CuDef*%
%ADD25C,1.000000*%
%TD*%
%TA.AperFunction,ComponentPad*%
%ADD26C,3.140000*%
%TD*%
%TA.AperFunction,SMDPad,CuDef*%
%ADD27RoundRect,0.035000X0.140000X-0.215000X0.140000X0.215000X-0.140000X0.215000X-0.140000X-0.215000X0*%
%TD*%
%TA.AperFunction,SMDPad,CuDef*%
%ADD28RoundRect,0.200000X-0.250000X0.200000X-0.250000X-0.200000X0.250000X-0.200000X0.250000X0.200000X0*%
%TD*%
%TA.AperFunction,SMDPad,CuDef*%
%ADD29RoundRect,0.187500X0.312500X-0.187500X0.312500X0.187500X-0.312500X0.187500X-0.312500X-0.187500X0*%
%TD*%
%TA.AperFunction,ComponentPad*%
%ADD30C,1.700000*%
%TD*%
%TA.AperFunction,ViaPad*%
%ADD31C,0.750000*%
%TD*%
%TA.AperFunction,Conductor*%
%ADD32C,0.250000*%
%TD*%
%TA.AperFunction,Conductor*%
%ADD33C,0.200000*%
%TD*%
%TA.AperFunction,Conductor*%
%ADD34C,0.350000*%
%TD*%
G04 APERTURE END LIST*
D10*
%TO.P,J3,1,DAT2*%
%TO.N,/DAT2*%
X155700000Y-104765000D03*
%TO.P,J3,2,DAT3/CD*%
%TO.N,/CS_SD*%
X155300000Y-105865000D03*
%TO.P,J3,3,CMD*%
%TO.N,/MOSI*%
X155700000Y-106965000D03*
%TO.P,J3,4,VDD*%
%TO.N,+3V3*%
X155900000Y-108065000D03*
%TO.P,J3,5,CLK*%
%TO.N,/SCK*%
X155700000Y-109165000D03*
%TO.P,J3,6,VSS*%
%TO.N,VSS*%
X155900000Y-110265000D03*
%TO.P,J3,7,DAT0*%
%TO.N,/MISO*%
X155700000Y-111365000D03*
%TO.P,J3,8,DAT1*%
%TO.N,/DAT1*%
X155700000Y-112465000D03*
D11*
%TO.P,J3,9,DET*%
%TO.N,/CD*%
X145150000Y-111655000D03*
X145150000Y-105955000D03*
D12*
%TO.P,J3,10,SHIELD*%
%TO.N,VSS*%
X158300000Y-113255000D03*
X159300000Y-100105000D03*
%TD*%
D13*
%TO.P,D1,1,DIN*%
%TO.N,Net-(D1-DIN)*%
X140475000Y-101055000D03*
%TO.P,D1,2,VDD*%
%TO.N,+3V3*%
X140475000Y-100105000D03*
%TO.P,D1,3,DOUT*%
%TO.N,unconnected-(D1-DOUT-Pad3)*%
X139525000Y-100105000D03*
%TO.P,D1,4,GND*%
%TO.N,VSS*%
X139525000Y-101055000D03*
%TD*%
D14*
%TO.P,R3,1*%
%TO.N,+3V3*%
X142000000Y-111000000D03*
%TO.P,R3,2*%
%TO.N,/MISO*%
X143500000Y-111000000D03*
%TD*%
D15*
%TO.P,C5,1*%
%TO.N,+3V3*%
X136460000Y-103632000D03*
%TO.P,C5,2*%
%TO.N,VSS*%
X137860000Y-103632000D03*
%TD*%
D16*
%TO.P,C3,1*%
%TO.N,+3V3*%
X130240000Y-112014000D03*
%TO.P,C3,2*%
%TO.N,VSS*%
X128840000Y-112014000D03*
%TD*%
D14*
%TO.P,R6,1*%
%TO.N,+3V3*%
X142000000Y-104900000D03*
%TO.P,R6,2*%
%TO.N,/CS_SD*%
X143500000Y-104900000D03*
%TD*%
D15*
%TO.P,C1,1*%
%TO.N,+3V3*%
X142050000Y-115575000D03*
%TO.P,C1,2*%
%TO.N,VSS*%
X143450000Y-115575000D03*
%TD*%
D14*
%TO.P,R5,1*%
%TO.N,+3V3*%
X142000000Y-107950000D03*
%TO.P,R5,2*%
%TO.N,/MOSI*%
X143500000Y-107950000D03*
%TD*%
D17*
%TO.P,SW1,1,A*%
%TO.N,/EN*%
X126950000Y-100275000D03*
D18*
X126950000Y-97875000D03*
D19*
%TO.P,SW1,2,B*%
%TO.N,VSS*%
X124450000Y-100275000D03*
X124450000Y-97875000D03*
D20*
%TO.P,SW1,3,C*%
%TO.N,unconnected-(SW1-C-Pad3)*%
X121950000Y-100275000D03*
D21*
%TO.N,unconnected-(SW1-C-Pad3)_1*%
X121950000Y-97875000D03*
%TD*%
D22*
%TO.P,J4,1,GND*%
%TO.N,VSS*%
X119730400Y-106450000D03*
%TO.P,J4,2,+3V3*%
%TO.N,+3V3*%
X119730400Y-107450000D03*
%TO.P,J4,3,SDA*%
%TO.N,/SDA*%
X119730400Y-108450000D03*
%TO.P,J4,4,SCL*%
%TO.N,/SCL*%
X119730400Y-109450000D03*
D23*
%TO.P,J4,MP,Shield*%
%TO.N,VSS*%
X115855400Y-105150000D03*
X115855400Y-110750000D03*
%TD*%
D14*
%TO.P,R1,1*%
%TO.N,+3V3*%
X142000000Y-106425000D03*
%TO.P,R1,2*%
%TO.N,/CD*%
X143500000Y-106425000D03*
%TD*%
D24*
%TO.P,U2,1,E0*%
%TO.N,VSS*%
X136185000Y-111358000D03*
%TO.P,U2,2,E1*%
X136835000Y-111358000D03*
%TO.P,U2,3,E2*%
X137485000Y-111358000D03*
%TO.P,U2,4,VSS*%
X138135000Y-111358000D03*
%TO.P,U2,5,SDA*%
%TO.N,/SDA*%
X138135000Y-105558000D03*
%TO.P,U2,6,SCL*%
%TO.N,/SCL*%
X137485000Y-105558000D03*
%TO.P,U2,7,~{WC}*%
%TO.N,unconnected-(U2-~{WC}-Pad7)*%
X136835000Y-105558000D03*
%TO.P,U2,8,VCC*%
%TO.N,+3V3*%
X136185000Y-105558000D03*
%TD*%
D25*
%TO.P,FID1,*%
%TO.N,*%
X161036000Y-102362000D03*
%TD*%
D26*
%TO.P,H1,*%
%TO.N,*%
X116840000Y-99060000D03*
%TD*%
D14*
%TO.P,R11,1*%
%TO.N,/NP_DIN*%
X136156000Y-100325000D03*
%TO.P,R11,2*%
%TO.N,Net-(D1-DIN)*%
X137656000Y-100325000D03*
%TD*%
D15*
%TO.P,C2,1*%
%TO.N,+3V3*%
X142050000Y-114050000D03*
%TO.P,C2,2*%
%TO.N,VSS*%
X143450000Y-114050000D03*
%TD*%
D14*
%TO.P,R7,1*%
%TO.N,+3V3*%
X142000000Y-103375000D03*
%TO.P,R7,2*%
%TO.N,/DAT2*%
X143500000Y-103375000D03*
%TD*%
D25*
%TO.P,FID3,*%
%TO.N,*%
X118364000Y-102362000D03*
%TD*%
%TO.P,FID2,*%
%TO.N,*%
X118364000Y-113538000D03*
%TD*%
D14*
%TO.P,R2,1*%
%TO.N,+3V3*%
X142000000Y-112525000D03*
%TO.P,R2,2*%
%TO.N,/DAT1*%
X143500000Y-112525000D03*
%TD*%
D27*
%TO.P,U1,1,GND*%
%TO.N,VSS*%
X128565000Y-107687000D03*
%TO.P,U1,2,CSB*%
%TO.N,+3V3*%
X129215000Y-107687000D03*
%TO.P,U1,3,SDI*%
%TO.N,/SDA*%
X129865000Y-107687000D03*
%TO.P,U1,4,SCK*%
%TO.N,/SCL*%
X130515000Y-107687000D03*
%TO.P,U1,5,SDO*%
%TO.N,/ADDR*%
X130515000Y-109737000D03*
%TO.P,U1,6,VDDIO*%
%TO.N,+3V3*%
X129865000Y-109737000D03*
%TO.P,U1,7,GND*%
%TO.N,VSS*%
X129215000Y-109737000D03*
%TO.P,U1,8,VDD*%
%TO.N,+3V3*%
X128565000Y-109737000D03*
%TD*%
D14*
%TO.P,R4,1*%
%TO.N,+3V3*%
X142000000Y-109475000D03*
%TO.P,R4,2*%
%TO.N,/SCK*%
X143500000Y-109475000D03*
%TD*%
D28*
%TO.P,C4,1*%
%TO.N,+3V3*%
X127254000Y-112330000D03*
%TO.P,C4,2*%
%TO.N,VSS*%
X127254000Y-113730000D03*
%TD*%
D14*
%TO.P,R8,1*%
%TO.N,+3V3*%
X142000000Y-101850000D03*
%TO.P,R8,2*%
%TO.N,/SDA*%
X143500000Y-101850000D03*
%TD*%
D26*
%TO.P,H2,*%
%TO.N,*%
X116840000Y-116840000D03*
%TD*%
D29*
%TO.P,R10,1*%
%TO.N,+3V3*%
X131826000Y-113780000D03*
%TO.P,R10,2*%
%TO.N,/ADDR*%
X131826000Y-112280000D03*
%TD*%
D14*
%TO.P,R9,1*%
%TO.N,+3V3*%
X142000000Y-100325000D03*
%TO.P,R9,2*%
%TO.N,/SCL*%
X143500000Y-100325000D03*
%TD*%
D30*
%TO.P,J2,17,Pin_17*%
%TO.N,/SDA*%
X158750000Y-97790000D03*
%TO.P,J2,18,Pin_18*%
%TO.N,/SCL*%
X156210000Y-97790000D03*
%TO.P,J2,19,Pin_19*%
%TO.N,/CS_SD*%
X153670000Y-97790000D03*
%TO.P,J2,20,Pin_20*%
%TO.N,/CD*%
X151130000Y-97790000D03*
%TO.P,J2,21,Pin_21*%
%TO.N,/NP_DIN*%
X148590000Y-97790000D03*
%TO.P,J2,22,Pin_22*%
%TO.N,/D10*%
X146050000Y-97790000D03*
%TO.P,J2,23,3*%
%TO.N,/D11*%
X143510000Y-97790000D03*
%TO.P,J2,24,Pin_24*%
%TO.N,/D12*%
X140970000Y-97790000D03*
%TO.P,J2,25,Pin_25*%
%TO.N,/D13*%
X138430000Y-97790000D03*
%TO.P,J2,26,Pin_26*%
%TO.N,/USB*%
X135890000Y-97790000D03*
%TO.P,J2,27,Pin_27*%
%TO.N,/EN*%
X133350000Y-97790000D03*
%TO.P,J2,28,Pin_28*%
%TO.N,/BAT*%
X130810000Y-97790000D03*
%TD*%
%TO.P,J1,1,Pin_1*%
%TO.N,/RST*%
X120650000Y-118110000D03*
%TO.P,J1,2,Pin_2*%
%TO.N,+3V3*%
X123190000Y-118110000D03*
%TO.P,J1,3,Pin_3*%
X125730000Y-118110000D03*
%TO.P,J1,4,Pin_4*%
%TO.N,VSS*%
X128270000Y-118110000D03*
%TO.P,J1,5,Pin_5*%
%TO.N,/A0*%
X130810000Y-118110000D03*
%TO.P,J1,6,Pin_6*%
%TO.N,/A1*%
X133350000Y-118110000D03*
%TO.P,J1,7,Pin_7*%
%TO.N,/A2*%
X135890000Y-118110000D03*
%TO.P,J1,8,Pin_8*%
%TO.N,/A3*%
X138430000Y-118110000D03*
%TO.P,J1,9,Pin_9*%
%TO.N,/A4*%
X140970000Y-118110000D03*
%TO.P,J1,10,Pin_10*%
%TO.N,/A5*%
X143510000Y-118110000D03*
%TO.P,J1,11,Pin_11*%
%TO.N,/SCK*%
X146050000Y-118110000D03*
%TO.P,J1,12,Pin_12*%
%TO.N,/MOSI*%
X148590000Y-118110000D03*
%TO.P,J1,13,Pin_13*%
%TO.N,/MISO*%
X151130000Y-118110000D03*
%TO.P,J1,14,Pin_14*%
%TO.N,/RX*%
X153670000Y-118110000D03*
%TO.P,J1,15,Pin_15*%
%TO.N,/TX*%
X156210000Y-118110000D03*
%TO.P,J1,16,Pin_16*%
%TO.N,/DBG*%
X158750000Y-118110000D03*
%TD*%
D31*
%TO.N,+3V3*%
X140716000Y-104140000D03*
X146000000Y-115350000D03*
X151000000Y-115350000D03*
X136460000Y-102412800D03*
X122174000Y-107467400D03*
X122174000Y-109220000D03*
%TO.N,/SCK*%
X150500000Y-109000000D03*
X146500000Y-109000000D03*
%TO.N,/MOSI*%
X150000000Y-108000000D03*
X146500000Y-108000000D03*
%TO.N,/MISO*%
X150500000Y-110500000D03*
X146500000Y-110000000D03*
%TO.N,/CS_SD*%
X153670000Y-102250000D03*
%TO.N,VSS*%
X149860000Y-106045000D03*
X137160000Y-112776000D03*
X152400000Y-114300000D03*
X116840000Y-106680000D03*
X139700000Y-109220000D03*
X157480000Y-104140000D03*
X119380000Y-116840000D03*
X139700000Y-104902000D03*
X123190000Y-102870000D03*
X119380000Y-104140000D03*
X119380000Y-111760000D03*
X124460000Y-114300000D03*
X160020000Y-104140000D03*
X121920000Y-114300000D03*
X133350000Y-100330000D03*
X134620000Y-114300000D03*
X124460000Y-104140000D03*
X116840000Y-109220000D03*
X139700000Y-114300000D03*
X121920000Y-104140000D03*
X152400000Y-110490000D03*
X138684000Y-100965000D03*
X157607000Y-111760000D03*
X139700000Y-111760000D03*
X154940000Y-114300000D03*
X128270000Y-102870000D03*
X159258000Y-101473000D03*
X124460000Y-106680000D03*
X160020000Y-106680000D03*
X137160000Y-114300000D03*
X157480000Y-106680000D03*
X137160000Y-109220000D03*
X157607000Y-109220000D03*
X124460000Y-101600000D03*
X137860000Y-102412800D03*
X124460000Y-116840000D03*
X121920000Y-111760000D03*
X121920000Y-116840000D03*
X152400000Y-116840000D03*
X152400000Y-99060000D03*
X134620000Y-111760000D03*
X116840000Y-111760000D03*
X125730000Y-102870000D03*
X127000000Y-116840000D03*
X157607000Y-100203000D03*
X152400000Y-104140000D03*
X116840000Y-101600000D03*
X160020000Y-109220000D03*
X130810000Y-102870000D03*
X129540000Y-114300000D03*
X157480000Y-116840000D03*
X146685000Y-106045000D03*
X133350000Y-102870000D03*
X157480000Y-101600000D03*
X120650000Y-102870000D03*
X116840000Y-104140000D03*
X128828800Y-113741200D03*
X129540000Y-116840000D03*
X149860000Y-104140000D03*
X139700000Y-106680000D03*
X154940000Y-116840000D03*
%TO.N,/CD*%
X145500000Y-110250000D03*
X145500000Y-107500000D03*
X146735800Y-103000000D03*
%TO.N,/SDA*%
X145000000Y-101850000D03*
X140741400Y-102539800D03*
%TO.N,/SCL*%
X133604000Y-106172000D03*
X145973800Y-100330000D03*
X138938000Y-102489000D03*
X135128000Y-104648000D03*
%TO.N,/DAT1*%
X151000000Y-112500000D03*
X146500000Y-112500000D03*
%TO.N,/ADDR*%
X133858000Y-109982000D03*
%TD*%
D32*
%TO.N,+3V3*%
X140716000Y-104140000D02*
X141452600Y-104140000D01*
D33*
X128565000Y-109737000D02*
X128565000Y-111124936D01*
D32*
X136185000Y-105558000D02*
X136185000Y-103907000D01*
X140475000Y-100105000D02*
X141780000Y-100105000D01*
D34*
X144600000Y-116750000D02*
X143225000Y-116750000D01*
D33*
X141750000Y-108200000D02*
X142000000Y-107950000D01*
D34*
X126061400Y-113359000D02*
X127090400Y-112330000D01*
D32*
X141780000Y-100105000D02*
X142000000Y-100325000D01*
D34*
X126060200Y-113106200D02*
X126059000Y-113105000D01*
X143225000Y-116750000D02*
X142050000Y-115575000D01*
D32*
X136460000Y-103632000D02*
X136460000Y-102412800D01*
D34*
X126059000Y-113105000D02*
X126059000Y-113359000D01*
X155900000Y-108065000D02*
X157514075Y-108065000D01*
X131179000Y-113780000D02*
X130240000Y-112841000D01*
X126065200Y-115575000D02*
X126059000Y-115568800D01*
D33*
X142120000Y-100325000D02*
X142000000Y-100325000D01*
D34*
X122156600Y-107450000D02*
X119730400Y-107450000D01*
X131826000Y-113780000D02*
X131826000Y-115575000D01*
X127090400Y-112330000D02*
X127254000Y-112330000D01*
X158800000Y-115350000D02*
X151000000Y-115350000D01*
D33*
X129215000Y-108895000D02*
X129865000Y-109545000D01*
D34*
X126055200Y-115575000D02*
X126065200Y-115575000D01*
D33*
X129865000Y-109737000D02*
X129865000Y-111639000D01*
D34*
X125730000Y-118110000D02*
X125700000Y-118080000D01*
X157514075Y-108065000D02*
X160000000Y-110550925D01*
X126059000Y-113107400D02*
X126060200Y-113106200D01*
X126065200Y-115575000D02*
X131826000Y-115575000D01*
D33*
X127359936Y-112330000D02*
X127254000Y-112330000D01*
D34*
X122174000Y-107467400D02*
X122156600Y-107450000D01*
X160000000Y-114150000D02*
X158800000Y-115350000D01*
X160000000Y-110550925D02*
X160000000Y-114150000D01*
D33*
X129865000Y-109545000D02*
X129865000Y-109737000D01*
X129215000Y-107687000D02*
X129215000Y-108895000D01*
D34*
X131826000Y-113780000D02*
X131179000Y-113780000D01*
X122174000Y-109220000D02*
X126060200Y-113106200D01*
X126059000Y-113359000D02*
X126061400Y-113359000D01*
X125730000Y-118110000D02*
X123190000Y-118110000D01*
D32*
X136185000Y-103907000D02*
X136460000Y-103632000D01*
D33*
X142122500Y-100327500D02*
X142120000Y-100325000D01*
D34*
X125700000Y-115930200D02*
X126055200Y-115575000D01*
D33*
X129865000Y-111639000D02*
X130240000Y-112014000D01*
D34*
X146000000Y-115350000D02*
X144600000Y-116750000D01*
D33*
X141725000Y-109750000D02*
X142000000Y-109475000D01*
D34*
X126059000Y-115568800D02*
X126059000Y-113107400D01*
D33*
X128565000Y-111124936D02*
X127359936Y-112330000D01*
D34*
X125700000Y-118080000D02*
X125700000Y-115930200D01*
X131826000Y-115575000D02*
X142050000Y-115575000D01*
X130240000Y-112841000D02*
X130240000Y-112014000D01*
D32*
%TO.N,Net-(D1-DIN)*%
X138326000Y-101750000D02*
X137656000Y-101080000D01*
X140475000Y-101055000D02*
X140475000Y-101425000D01*
X140475000Y-101425000D02*
X140150000Y-101750000D01*
X140150000Y-101750000D02*
X138326000Y-101750000D01*
X137656000Y-101080000D02*
X137656000Y-100325000D01*
D33*
%TO.N,/SCK*%
X147176000Y-109676000D02*
X146500000Y-109000000D01*
X146050000Y-118110000D02*
X147176000Y-116984000D01*
X150500000Y-109000000D02*
X150665000Y-109165000D01*
X147176000Y-116984000D02*
X147176000Y-109676000D01*
X143975000Y-109000000D02*
X143500000Y-109475000D01*
X146500000Y-109000000D02*
X143975000Y-109000000D01*
X150665000Y-109165000D02*
X155700000Y-109165000D01*
%TO.N,/MOSI*%
X155700000Y-106965000D02*
X151035000Y-106965000D01*
X146324000Y-108176000D02*
X146500000Y-108000000D01*
X143500000Y-107950000D02*
X143726000Y-108176000D01*
X149606000Y-108394000D02*
X149606000Y-117094000D01*
X150000000Y-108000000D02*
X149606000Y-108394000D01*
X143726000Y-108176000D02*
X146324000Y-108176000D01*
X149606000Y-117094000D02*
X148590000Y-118110000D01*
X151035000Y-106965000D02*
X150000000Y-108000000D01*
%TO.N,/MISO*%
X146074000Y-109574000D02*
X144926000Y-109574000D01*
X144926000Y-109574000D02*
X143500000Y-111000000D01*
X150500000Y-110500000D02*
X150007000Y-110993000D01*
X150007000Y-116987000D02*
X151130000Y-118110000D01*
X150007000Y-110993000D02*
X150007000Y-116987000D01*
X151365000Y-111365000D02*
X155700000Y-111365000D01*
X146500000Y-110000000D02*
X146074000Y-109574000D01*
X150500000Y-110500000D02*
X151365000Y-111365000D01*
D32*
%TO.N,/DAT2*%
X154500000Y-102000000D02*
X154000000Y-101500000D01*
X154500000Y-104150000D02*
X154500000Y-102000000D01*
X146370682Y-101500000D02*
X144495682Y-103375000D01*
X155115000Y-104765000D02*
X154500000Y-104150000D01*
X154000000Y-101500000D02*
X146370682Y-101500000D01*
X155700000Y-104765000D02*
X155115000Y-104765000D01*
X144495682Y-103375000D02*
X143500000Y-103375000D01*
D33*
%TO.N,/CS_SD*%
X153670000Y-102250000D02*
X146223136Y-102250000D01*
X143573136Y-104900000D02*
X143500000Y-104900000D01*
X154633000Y-105865000D02*
X155300000Y-105865000D01*
X153670000Y-104902000D02*
X154633000Y-105865000D01*
X146223136Y-102250000D02*
X143573136Y-104900000D01*
X153670000Y-102250000D02*
X153670000Y-104902000D01*
%TO.N,VSS*%
X128565000Y-108892700D02*
X129215000Y-109542700D01*
X128565000Y-107687000D02*
X128565000Y-108892700D01*
X129215000Y-111639000D02*
X128840000Y-112014000D01*
X129215000Y-109542700D02*
X129215000Y-109737000D01*
X129215000Y-109737000D02*
X129215000Y-111639000D01*
%TO.N,/CD*%
X146735800Y-103000000D02*
X146735800Y-104369200D01*
X145500000Y-111305000D02*
X145150000Y-111655000D01*
X144975000Y-105575000D02*
X145150000Y-105750000D01*
X145161000Y-105966000D02*
X145150000Y-105955000D01*
X145150000Y-105750000D02*
X145150000Y-105955000D01*
X145150000Y-105955000D02*
X143970000Y-105955000D01*
X145500000Y-110250000D02*
X145500000Y-111305000D01*
X145500000Y-106305000D02*
X145500000Y-107500000D01*
X143970000Y-105955000D02*
X143500000Y-106425000D01*
X145150000Y-105955000D02*
X145500000Y-106305000D01*
X146735800Y-104369200D02*
X145150000Y-105955000D01*
%TO.N,/SDA*%
X129865000Y-107687000D02*
X129865000Y-107335200D01*
X138379200Y-104902000D02*
X138226800Y-104902000D01*
X126635000Y-111379000D02*
X123706000Y-108450000D01*
X127508000Y-111379000D02*
X126635000Y-111379000D01*
X133350000Y-104902000D02*
X127254000Y-104902000D01*
X137414000Y-107442000D02*
X135890000Y-107442000D01*
X158750000Y-97790000D02*
X155473400Y-101066600D01*
X138135000Y-106721000D02*
X137414000Y-107442000D01*
X138135000Y-104993800D02*
X138135000Y-105558000D01*
X128016000Y-107365800D02*
X128016000Y-110871000D01*
X135890000Y-107442000D02*
X133350000Y-104902000D01*
X138226800Y-104902000D02*
X138135000Y-104993800D01*
X129865000Y-107335200D02*
X129590800Y-107061000D01*
X129590800Y-107061000D02*
X128320800Y-107061000D01*
X128016000Y-110871000D02*
X127508000Y-111379000D01*
X145000000Y-101850000D02*
X143500000Y-101850000D01*
X128320800Y-107061000D02*
X128016000Y-107365800D01*
X140741400Y-102539800D02*
X138379200Y-104902000D01*
X138135000Y-105558000D02*
X138135000Y-106721000D01*
X127254000Y-104902000D02*
X123706000Y-108450000D01*
X123706000Y-108450000D02*
X119730400Y-108450000D01*
X145783400Y-101066600D02*
X145000000Y-101850000D01*
X155473400Y-101066600D02*
X145783400Y-101066600D01*
%TO.N,/SCL*%
X137769600Y-104394000D02*
X137485000Y-104678600D01*
X138938000Y-103733600D02*
X138277600Y-104394000D01*
X135128000Y-104648000D02*
X134505700Y-105270300D01*
X138277600Y-104394000D02*
X137769600Y-104394000D01*
X125984000Y-105410000D02*
X119126000Y-105410000D01*
X118848000Y-109450000D02*
X119730400Y-109450000D01*
X118364000Y-106172000D02*
X118364000Y-108966000D01*
X136169400Y-106934000D02*
X134505700Y-105270300D01*
X126974600Y-104419400D02*
X125984000Y-105410000D01*
X137485000Y-105558000D02*
X137485000Y-106634400D01*
X132588000Y-111379000D02*
X131546600Y-111379000D01*
X131064000Y-110896400D02*
X131064000Y-108236000D01*
X118364000Y-108966000D02*
X118848000Y-109450000D01*
X137485000Y-106634400D02*
X137185400Y-106934000D01*
X134505700Y-105270300D02*
X133654800Y-104419400D01*
X133096000Y-106680000D02*
X133096000Y-110871000D01*
X145973800Y-100330000D02*
X153670000Y-100330000D01*
X145973800Y-100330000D02*
X143505000Y-100330000D01*
X133604000Y-106172000D02*
X133096000Y-106680000D01*
X153670000Y-100330000D02*
X156210000Y-97790000D01*
X131064000Y-108236000D02*
X130515000Y-107687000D01*
X133654800Y-104419400D02*
X126974600Y-104419400D01*
X143505000Y-100330000D02*
X143500000Y-100325000D01*
X119126000Y-105410000D02*
X118364000Y-106172000D01*
X137485000Y-104678600D02*
X137485000Y-105558000D01*
X137185400Y-106934000D02*
X136169400Y-106934000D01*
X138938000Y-102489000D02*
X138938000Y-103733600D01*
X133096000Y-110871000D02*
X132588000Y-111379000D01*
X131546600Y-111379000D02*
X131064000Y-110896400D01*
%TO.N,/NP_DIN*%
X136274500Y-100325000D02*
X137524500Y-99075000D01*
X147305000Y-99075000D02*
X148590000Y-97790000D01*
X136156000Y-100325000D02*
X136274500Y-100325000D01*
X137524500Y-99075000D02*
X147305000Y-99075000D01*
D32*
%TO.N,/EN*%
X126950000Y-100575000D02*
X126950000Y-100275000D01*
X126950000Y-97875000D02*
X126575000Y-98250000D01*
X129838000Y-101302000D02*
X127677000Y-101302000D01*
X127677000Y-101302000D02*
X126950000Y-100575000D01*
X126575000Y-99900000D02*
X126950000Y-100275000D01*
X133350000Y-97790000D02*
X129838000Y-101302000D01*
X126575000Y-98250000D02*
X126575000Y-99900000D01*
D33*
%TO.N,/DAT1*%
X143831000Y-112856000D02*
X143500000Y-112525000D01*
X146500000Y-112500000D02*
X146144000Y-112856000D01*
X146144000Y-112856000D02*
X143831000Y-112856000D01*
X151035000Y-112465000D02*
X155700000Y-112465000D01*
X151000000Y-112500000D02*
X151035000Y-112465000D01*
%TO.N,/ADDR*%
X132588000Y-112014000D02*
X133858000Y-110744000D01*
X130515000Y-110969000D02*
X131826000Y-112280000D01*
X132207000Y-112014000D02*
X132588000Y-112014000D01*
X131941000Y-112280000D02*
X132207000Y-112014000D01*
X133858000Y-110744000D02*
X133858000Y-109982000D01*
X130515000Y-109737000D02*
X130515000Y-110969000D01*
X131826000Y-112280000D02*
X131941000Y-112280000D01*
%TD*%
%TA.AperFunction,Conductor*%
%TO.N,+3V3*%
G36*
X142593039Y-99644685D02*
G01*
X142638794Y-99697489D01*
X142650000Y-99749000D01*
X142650000Y-116101000D01*
X142630315Y-116168039D01*
X142577511Y-116213794D01*
X142526000Y-116225000D01*
X141549000Y-116225000D01*
X141481961Y-116205315D01*
X141436206Y-116152511D01*
X141425000Y-116101000D01*
X141425000Y-99749000D01*
X141444685Y-99681961D01*
X141497489Y-99636206D01*
X141549000Y-99625000D01*
X142526000Y-99625000D01*
X142593039Y-99644685D01*
G37*
%TD.AperFunction*%
%TD*%
%TA.AperFunction,Conductor*%
%TO.N,VSS*%
G36*
X121222829Y-96939407D02*
G01*
X121258793Y-96988907D01*
X121261735Y-97038813D01*
X121253290Y-97081273D01*
X121249500Y-97100325D01*
X121249500Y-98126888D01*
X121230593Y-98185079D01*
X121181093Y-98221043D01*
X121138750Y-98223545D01*
X121138610Y-98224977D01*
X121133768Y-98224500D01*
X121133767Y-98224500D01*
X120966233Y-98224500D01*
X120966230Y-98224500D01*
X120801920Y-98257183D01*
X120801914Y-98257185D01*
X120647137Y-98321296D01*
X120507838Y-98414374D01*
X120507834Y-98414377D01*
X120389377Y-98532834D01*
X120389374Y-98532838D01*
X120296296Y-98672137D01*
X120232185Y-98826914D01*
X120232183Y-98826920D01*
X120199500Y-98991230D01*
X120199500Y-99158769D01*
X120232183Y-99323079D01*
X120232185Y-99323085D01*
X120296296Y-99477862D01*
X120317778Y-99510012D01*
X120389374Y-99617162D01*
X120507838Y-99735626D01*
X120647137Y-99828703D01*
X120801918Y-99892816D01*
X120966233Y-99925500D01*
X120966234Y-99925500D01*
X121133766Y-99925500D01*
X121133767Y-99925500D01*
X121133767Y-99925499D01*
X121138611Y-99925023D01*
X121138797Y-99926919D01*
X121191924Y-99933194D01*
X121236865Y-99974715D01*
X121249500Y-100023111D01*
X121249500Y-101049672D01*
X121249501Y-101049684D01*
X121264033Y-101122736D01*
X121264035Y-101122742D01*
X121319397Y-101205599D01*
X121319400Y-101205602D01*
X121385673Y-101249883D01*
X121402260Y-101260966D01*
X121457808Y-101272015D01*
X121475315Y-101275498D01*
X121475320Y-101275498D01*
X121475326Y-101275500D01*
X121475327Y-101275500D01*
X122424673Y-101275500D01*
X122424674Y-101275500D01*
X122497740Y-101260966D01*
X122580601Y-101205601D01*
X122635966Y-101122740D01*
X122650500Y-101049674D01*
X122650500Y-99500326D01*
X122649173Y-99493657D01*
X122646032Y-99477863D01*
X122635966Y-99427260D01*
X122614015Y-99394407D01*
X122580602Y-99344400D01*
X122580599Y-99344397D01*
X122497742Y-99289035D01*
X122497740Y-99289034D01*
X122497737Y-99289033D01*
X122497736Y-99289033D01*
X122424684Y-99274501D01*
X122424674Y-99274500D01*
X122424673Y-99274500D01*
X121998112Y-99274500D01*
X121939921Y-99255593D01*
X121903957Y-99206093D01*
X121901456Y-99163752D01*
X121900023Y-99163611D01*
X121900500Y-99158765D01*
X121900500Y-98991234D01*
X121900023Y-98986389D01*
X121901910Y-98986203D01*
X121908213Y-98933036D01*
X121949754Y-98888114D01*
X121998112Y-98875500D01*
X122424673Y-98875500D01*
X122424674Y-98875500D01*
X122497740Y-98860966D01*
X122580601Y-98805601D01*
X122635966Y-98722740D01*
X122650500Y-98649674D01*
X122650500Y-97100326D01*
X122638264Y-97038813D01*
X122645455Y-96978054D01*
X122686988Y-96933123D01*
X122735362Y-96920500D01*
X126164638Y-96920500D01*
X126222829Y-96939407D01*
X126258793Y-96988907D01*
X126261735Y-97038813D01*
X126253290Y-97081273D01*
X126249500Y-97100325D01*
X126249500Y-101049672D01*
X126249501Y-101049684D01*
X126264033Y-101122736D01*
X126264035Y-101122742D01*
X126319397Y-101205599D01*
X126319400Y-101205602D01*
X126385673Y-101249883D01*
X126402260Y-101260966D01*
X126457808Y-101272015D01*
X126475315Y-101275498D01*
X126475320Y-101275498D01*
X126475326Y-101275500D01*
X127149165Y-101275500D01*
X127207356Y-101294407D01*
X127219168Y-101304496D01*
X127477137Y-101562464D01*
X127477142Y-101562468D01*
X127551357Y-101605316D01*
X127551355Y-101605316D01*
X127551359Y-101605317D01*
X127551361Y-101605318D01*
X127634147Y-101627500D01*
X127634149Y-101627500D01*
X129880851Y-101627500D01*
X129880853Y-101627500D01*
X129963639Y-101605318D01*
X129963641Y-101605316D01*
X129963643Y-101605316D01*
X130037857Y-101562468D01*
X130037857Y-101562467D01*
X130037862Y-101562465D01*
X132824709Y-98775616D01*
X132879224Y-98747841D01*
X132932593Y-98754157D01*
X133043580Y-98800130D01*
X133246535Y-98840500D01*
X133246536Y-98840500D01*
X133453464Y-98840500D01*
X133453465Y-98840500D01*
X133656420Y-98800130D01*
X133847598Y-98720941D01*
X134019655Y-98605977D01*
X134165977Y-98459655D01*
X134280941Y-98287598D01*
X134360130Y-98096420D01*
X134400500Y-97893465D01*
X134400500Y-97686535D01*
X134360130Y-97483580D01*
X134280941Y-97292402D01*
X134165977Y-97120345D01*
X134135133Y-97089501D01*
X134107358Y-97034987D01*
X134116929Y-96974555D01*
X134160194Y-96931290D01*
X134205139Y-96920500D01*
X135034861Y-96920500D01*
X135093052Y-96939407D01*
X135129016Y-96988907D01*
X135129016Y-97050093D01*
X135104866Y-97089501D01*
X135074023Y-97120345D01*
X135074020Y-97120348D01*
X134959058Y-97292402D01*
X134879869Y-97483581D01*
X134839500Y-97686532D01*
X134839500Y-97893467D01*
X134879869Y-98096418D01*
X134959058Y-98287597D01*
X135043767Y-98414374D01*
X135074023Y-98459655D01*
X135220345Y-98605977D01*
X135392402Y-98720941D01*
X135583580Y-98800130D01*
X135786535Y-98840500D01*
X135786536Y-98840500D01*
X135993464Y-98840500D01*
X135993465Y-98840500D01*
X136196420Y-98800130D01*
X136387598Y-98720941D01*
X136559655Y-98605977D01*
X136705977Y-98459655D01*
X136820941Y-98287598D01*
X136900130Y-98096420D01*
X136940500Y-97893465D01*
X136940500Y-97686535D01*
X136900130Y-97483580D01*
X136820941Y-97292402D01*
X136705977Y-97120345D01*
X136675133Y-97089501D01*
X136647358Y-97034987D01*
X136656929Y-96974555D01*
X136700194Y-96931290D01*
X136745139Y-96920500D01*
X137574861Y-96920500D01*
X137633052Y-96939407D01*
X137669016Y-96988907D01*
X137669016Y-97050093D01*
X137644866Y-97089501D01*
X137614023Y-97120345D01*
X137614020Y-97120348D01*
X137499058Y-97292402D01*
X137419869Y-97483581D01*
X137379500Y-97686532D01*
X137379500Y-97893467D01*
X137419869Y-98096418D01*
X137499058Y-98287597D01*
X137583767Y-98414374D01*
X137614023Y-98459655D01*
X137759866Y-98605498D01*
X137787642Y-98660013D01*
X137778071Y-98720445D01*
X137734806Y-98763710D01*
X137689861Y-98774500D01*
X137484935Y-98774500D01*
X137408512Y-98794978D01*
X137375415Y-98814087D01*
X137375414Y-98814086D01*
X137339988Y-98834540D01*
X136561184Y-99613342D01*
X136506668Y-99641119D01*
X136472849Y-99638456D01*
X136472588Y-99640110D01*
X136464893Y-99638891D01*
X136405608Y-99629501D01*
X136374034Y-99624500D01*
X135937965Y-99624500D01*
X135847107Y-99638891D01*
X135847100Y-99638893D01*
X135737599Y-99694687D01*
X135650687Y-99781599D01*
X135594892Y-99891103D01*
X135594891Y-99891105D01*
X135580500Y-99981965D01*
X135580500Y-100668034D01*
X135594891Y-100758892D01*
X135594893Y-100758899D01*
X135637490Y-100842499D01*
X135650689Y-100868403D01*
X135737597Y-100955311D01*
X135847107Y-101011109D01*
X135937967Y-101025500D01*
X136374032Y-101025499D01*
X136374034Y-101025499D01*
X136393543Y-101022408D01*
X136464893Y-101011109D01*
X136574403Y-100955311D01*
X136661311Y-100868403D01*
X136717109Y-100758893D01*
X136731500Y-100668033D01*
X136731499Y-100333977D01*
X136750406Y-100275787D01*
X136760489Y-100263980D01*
X136911498Y-100112971D01*
X136966013Y-100085196D01*
X137026445Y-100094767D01*
X137069710Y-100138032D01*
X137080500Y-100182977D01*
X137080500Y-100668034D01*
X137094891Y-100758892D01*
X137094893Y-100758899D01*
X137137490Y-100842499D01*
X137150689Y-100868403D01*
X137237597Y-100955311D01*
X137276444Y-100975104D01*
X137319709Y-101018367D01*
X137330500Y-101063314D01*
X137330500Y-101122853D01*
X137341496Y-101163891D01*
X137352683Y-101205643D01*
X137395531Y-101279857D01*
X137395533Y-101279859D01*
X137395535Y-101279862D01*
X138126138Y-102010465D01*
X138126140Y-102010466D01*
X138126142Y-102010468D01*
X138200357Y-102053316D01*
X138200355Y-102053316D01*
X138200359Y-102053317D01*
X138200361Y-102053318D01*
X138283147Y-102075500D01*
X138340730Y-102075500D01*
X138398921Y-102094407D01*
X138434885Y-102143907D01*
X138434885Y-102205093D01*
X138426467Y-102224000D01*
X138401719Y-102266863D01*
X138388107Y-102317665D01*
X138362500Y-102413234D01*
X138362500Y-102564766D01*
X138386366Y-102653835D01*
X138401720Y-102711139D01*
X138477481Y-102842360D01*
X138477483Y-102842362D01*
X138477485Y-102842365D01*
X138584635Y-102949515D01*
X138587994Y-102951454D01*
X138628938Y-102996919D01*
X138637500Y-103037193D01*
X138637500Y-103568121D01*
X138618593Y-103626312D01*
X138608504Y-103638125D01*
X138182125Y-104064504D01*
X138127608Y-104092281D01*
X138112121Y-104093500D01*
X137730035Y-104093500D01*
X137653611Y-104113978D01*
X137609619Y-104139378D01*
X137609618Y-104139378D01*
X137585089Y-104153539D01*
X137244539Y-104494089D01*
X137204978Y-104562611D01*
X137204841Y-104562942D01*
X137204674Y-104563136D01*
X137201734Y-104568230D01*
X137200789Y-104567684D01*
X137165102Y-104609466D01*
X137105607Y-104623746D01*
X137073393Y-104615617D01*
X137004991Y-104585415D01*
X137004990Y-104585414D01*
X137004988Y-104585414D01*
X136979868Y-104582500D01*
X136690140Y-104582500D01*
X136690135Y-104582501D01*
X136665009Y-104585414D01*
X136665007Y-104585415D01*
X136649487Y-104592268D01*
X136644307Y-104592796D01*
X136640093Y-104595858D01*
X136614281Y-104595858D01*
X136588617Y-104598475D01*
X136584116Y-104595858D01*
X136578907Y-104595858D01*
X136558026Y-104580687D01*
X136535724Y-104567719D01*
X136533620Y-104562955D01*
X136529407Y-104559894D01*
X136521431Y-104535348D01*
X136511011Y-104511746D01*
X136510500Y-104501703D01*
X136510500Y-104381499D01*
X136529407Y-104323308D01*
X136578907Y-104287344D01*
X136609500Y-104282499D01*
X136691521Y-104282499D01*
X136691522Y-104282498D01*
X136746926Y-104273724D01*
X136785299Y-104267647D01*
X136785299Y-104267646D01*
X136785304Y-104267646D01*
X136898342Y-104210050D01*
X136988050Y-104120342D01*
X137045646Y-104007304D01*
X137060500Y-103913519D01*
X137060499Y-103350482D01*
X137060498Y-103350478D01*
X137060498Y-103350476D01*
X137045647Y-103256700D01*
X137045646Y-103256698D01*
X137045646Y-103256696D01*
X136988050Y-103143658D01*
X136898342Y-103053950D01*
X136887216Y-103048281D01*
X136843793Y-103026155D01*
X136800530Y-102982890D01*
X136790959Y-102922457D01*
X136818735Y-102867944D01*
X136920515Y-102766165D01*
X136920518Y-102766160D01*
X136996279Y-102634939D01*
X136996279Y-102634937D01*
X136996281Y-102634935D01*
X137035500Y-102488566D01*
X137035500Y-102337034D01*
X136996281Y-102190665D01*
X136996279Y-102190662D01*
X136996279Y-102190660D01*
X136920518Y-102059439D01*
X136920516Y-102059437D01*
X136920515Y-102059435D01*
X136813365Y-101952285D01*
X136813362Y-101952283D01*
X136813360Y-101952281D01*
X136682138Y-101876520D01*
X136682140Y-101876520D01*
X136625347Y-101861303D01*
X136535766Y-101837300D01*
X136384234Y-101837300D01*
X136294652Y-101861303D01*
X136237860Y-101876520D01*
X136106639Y-101952281D01*
X135999481Y-102059439D01*
X135923720Y-102190660D01*
X135901793Y-102272493D01*
X135884500Y-102337034D01*
X135884500Y-102488566D01*
X135905285Y-102566138D01*
X135923720Y-102634939D01*
X135999481Y-102766160D01*
X135999483Y-102766162D01*
X135999485Y-102766165D01*
X136101264Y-102867944D01*
X136129040Y-102922459D01*
X136119469Y-102982891D01*
X136076206Y-103026155D01*
X136021659Y-103053949D01*
X135931949Y-103143659D01*
X135874354Y-103256695D01*
X135859500Y-103350478D01*
X135859500Y-104402453D01*
X135840593Y-104460644D01*
X135791093Y-104496608D01*
X135729907Y-104496608D01*
X135680407Y-104460644D01*
X135664874Y-104428077D01*
X135664281Y-104425865D01*
X135664279Y-104425861D01*
X135588518Y-104294639D01*
X135588516Y-104294637D01*
X135588515Y-104294635D01*
X135481365Y-104187485D01*
X135481362Y-104187483D01*
X135481360Y-104187481D01*
X135350138Y-104111720D01*
X135350140Y-104111720D01*
X135282140Y-104093500D01*
X135203766Y-104072500D01*
X135052234Y-104072500D01*
X134973860Y-104093500D01*
X134905860Y-104111720D01*
X134774639Y-104187481D01*
X134667481Y-104294639D01*
X134591720Y-104425860D01*
X134569793Y-104507693D01*
X134554987Y-104562955D01*
X134552500Y-104572235D01*
X134552500Y-104653121D01*
X134533593Y-104711312D01*
X134484093Y-104747276D01*
X134422907Y-104747276D01*
X134383496Y-104723125D01*
X134121015Y-104460644D01*
X133839311Y-104178940D01*
X133839308Y-104178938D01*
X133770792Y-104139380D01*
X133770788Y-104139378D01*
X133694364Y-104118900D01*
X133694362Y-104118900D01*
X126935038Y-104118900D01*
X126935035Y-104118900D01*
X126858611Y-104139378D01*
X126858607Y-104139380D01*
X126790091Y-104178938D01*
X125888525Y-105080504D01*
X125834008Y-105108281D01*
X125818521Y-105109500D01*
X119165562Y-105109500D01*
X119086438Y-105109500D01*
X119039661Y-105122033D01*
X119010007Y-105129979D01*
X118941493Y-105169536D01*
X118179489Y-105931540D01*
X118179488Y-105931539D01*
X118123539Y-105987489D01*
X118083980Y-106056007D01*
X118083978Y-106056011D01*
X118063500Y-106132435D01*
X118063500Y-109005564D01*
X118083978Y-109081988D01*
X118083979Y-109081990D01*
X118103607Y-109115985D01*
X118103607Y-109115988D01*
X118103608Y-109115988D01*
X118103609Y-109115989D01*
X118123540Y-109150511D01*
X118123542Y-109150513D01*
X118607539Y-109634511D01*
X118663489Y-109690460D01*
X118732007Y-109730019D01*
X118732011Y-109730021D01*
X118742351Y-109732792D01*
X118793665Y-109766116D01*
X118805667Y-109784935D01*
X118816200Y-109806480D01*
X118816201Y-109806481D01*
X118816202Y-109806483D01*
X118898917Y-109889198D01*
X118914130Y-109896635D01*
X119004004Y-109940572D01*
X119004005Y-109940572D01*
X119004007Y-109940573D01*
X119072140Y-109950500D01*
X119072143Y-109950500D01*
X120388657Y-109950500D01*
X120388660Y-109950500D01*
X120456793Y-109940573D01*
X120561883Y-109889198D01*
X120644598Y-109806483D01*
X120695973Y-109701393D01*
X120705900Y-109633260D01*
X120705900Y-109266740D01*
X120695973Y-109198607D01*
X120644598Y-109093517D01*
X120571082Y-109020001D01*
X120564855Y-109007778D01*
X120554769Y-108998478D01*
X120551309Y-108981192D01*
X120543307Y-108965487D01*
X120545453Y-108951936D01*
X120542760Y-108938482D01*
X120549928Y-108923680D01*
X120552878Y-108905055D01*
X120568309Y-108882886D01*
X120569659Y-108881421D01*
X120644598Y-108806483D01*
X120651179Y-108793020D01*
X120660986Y-108782386D01*
X120675662Y-108774143D01*
X120687365Y-108762047D01*
X120705030Y-108757650D01*
X120714334Y-108752426D01*
X120722283Y-108753357D01*
X120733765Y-108750500D01*
X121580195Y-108750500D01*
X121638386Y-108769407D01*
X121674350Y-108818907D01*
X121674350Y-108880093D01*
X121665933Y-108898995D01*
X121614423Y-108988216D01*
X121573500Y-109140943D01*
X121573500Y-109299057D01*
X121614423Y-109451784D01*
X121693480Y-109588716D01*
X121805284Y-109700520D01*
X121942216Y-109779577D01*
X122094943Y-109820500D01*
X122202455Y-109820500D01*
X122260646Y-109839407D01*
X122272459Y-109849496D01*
X125654504Y-113231541D01*
X125682281Y-113286058D01*
X125683500Y-113301545D01*
X125683500Y-115374655D01*
X125664593Y-115432846D01*
X125654509Y-115444653D01*
X125469438Y-115629725D01*
X125469437Y-115629724D01*
X125399524Y-115699638D01*
X125350091Y-115785258D01*
X125350089Y-115785262D01*
X125337294Y-115833010D01*
X125337295Y-115833011D01*
X125331606Y-115854245D01*
X125325918Y-115875474D01*
X125324500Y-115880765D01*
X125324500Y-115880767D01*
X125324500Y-117074760D01*
X125305593Y-117132951D01*
X125263388Y-117166223D01*
X125232403Y-117179057D01*
X125060348Y-117294020D01*
X124914020Y-117440348D01*
X124799058Y-117612402D01*
X124773798Y-117673386D01*
X124734061Y-117719912D01*
X124682334Y-117734500D01*
X124237666Y-117734500D01*
X124179475Y-117715593D01*
X124146202Y-117673386D01*
X124120941Y-117612402D01*
X124005979Y-117440348D01*
X124005977Y-117440345D01*
X123859655Y-117294023D01*
X123859651Y-117294020D01*
X123687597Y-117179058D01*
X123496418Y-117099869D01*
X123293467Y-117059500D01*
X123293465Y-117059500D01*
X123086535Y-117059500D01*
X123086532Y-117059500D01*
X122883581Y-117099869D01*
X122692402Y-117179058D01*
X122520348Y-117294020D01*
X122374020Y-117440348D01*
X122259058Y-117612402D01*
X122179869Y-117803581D01*
X122139500Y-118006532D01*
X122139500Y-118213467D01*
X122179869Y-118416418D01*
X122259058Y-118607597D01*
X122317946Y-118695729D01*
X122374023Y-118779655D01*
X122404866Y-118810498D01*
X122432642Y-118865013D01*
X122423071Y-118925445D01*
X122379806Y-118968710D01*
X122334861Y-118979500D01*
X121505139Y-118979500D01*
X121446948Y-118960593D01*
X121410984Y-118911093D01*
X121410984Y-118849907D01*
X121435133Y-118810498D01*
X121465977Y-118779655D01*
X121580941Y-118607598D01*
X121660130Y-118416420D01*
X121700500Y-118213465D01*
X121700500Y-118006535D01*
X121660130Y-117803580D01*
X121580941Y-117612402D01*
X121465977Y-117440345D01*
X121319655Y-117294023D01*
X121319651Y-117294020D01*
X121147597Y-117179058D01*
X120956418Y-117099869D01*
X120753467Y-117059500D01*
X120753465Y-117059500D01*
X120546535Y-117059500D01*
X120546532Y-117059500D01*
X120343581Y-117099869D01*
X120152402Y-117179058D01*
X119980348Y-117294020D01*
X119834020Y-117440348D01*
X119719058Y-117612402D01*
X119639869Y-117803581D01*
X119599500Y-118006532D01*
X119599500Y-118213467D01*
X119639869Y-118416418D01*
X119719058Y-118607597D01*
X119777946Y-118695729D01*
X119834023Y-118779655D01*
X119864866Y-118810498D01*
X119892642Y-118865013D01*
X119883071Y-118925445D01*
X119839806Y-118968710D01*
X119794861Y-118979500D01*
X116843241Y-118979500D01*
X116836766Y-118979288D01*
X116567216Y-118961620D01*
X116554377Y-118959930D01*
X116292617Y-118907863D01*
X116280109Y-118904511D01*
X116163751Y-118865013D01*
X116027393Y-118818725D01*
X116015429Y-118813770D01*
X115992533Y-118802479D01*
X115776060Y-118695726D01*
X115764862Y-118689261D01*
X115542945Y-118540981D01*
X115532678Y-118533102D01*
X115506904Y-118510499D01*
X115332021Y-118357131D01*
X115322866Y-118347976D01*
X115221114Y-118231950D01*
X115146896Y-118147319D01*
X115139020Y-118137056D01*
X114990735Y-117915132D01*
X114984275Y-117903944D01*
X114866225Y-117664562D01*
X114861276Y-117652614D01*
X114775485Y-117399881D01*
X114772138Y-117387392D01*
X114720068Y-117125617D01*
X114718379Y-117112783D01*
X114717648Y-117101634D01*
X114700712Y-116843234D01*
X114700500Y-116836759D01*
X114700500Y-116723954D01*
X115069500Y-116723954D01*
X115069500Y-116956045D01*
X115099793Y-117186141D01*
X115099793Y-117186146D01*
X115159862Y-117410329D01*
X115248677Y-117624747D01*
X115248680Y-117624752D01*
X115364724Y-117825748D01*
X115364726Y-117825750D01*
X115364728Y-117825754D01*
X115506005Y-118009870D01*
X115506007Y-118009872D01*
X115506011Y-118009877D01*
X115670123Y-118173989D01*
X115670127Y-118173992D01*
X115670129Y-118173994D01*
X115854245Y-118315271D01*
X115854252Y-118315276D01*
X116055248Y-118431320D01*
X116055249Y-118431320D01*
X116055252Y-118431322D01*
X116246402Y-118510499D01*
X116269670Y-118520137D01*
X116493851Y-118580206D01*
X116723955Y-118610500D01*
X116723956Y-118610500D01*
X116956044Y-118610500D01*
X116956045Y-118610500D01*
X117186149Y-118580206D01*
X117410330Y-118520137D01*
X117624752Y-118431320D01*
X117825748Y-118315276D01*
X118009877Y-118173989D01*
X118173989Y-118009877D01*
X118315276Y-117825748D01*
X118431320Y-117624752D01*
X118520137Y-117410330D01*
X118580206Y-117186149D01*
X118610500Y-116956045D01*
X118610500Y-116723955D01*
X118580206Y-116493851D01*
X118520137Y-116269670D01*
X118456397Y-116115789D01*
X118431322Y-116055252D01*
X118428001Y-116049500D01*
X118315276Y-115854252D01*
X118298979Y-115833013D01*
X118173994Y-115670129D01*
X118173992Y-115670127D01*
X118173989Y-115670123D01*
X118009877Y-115506011D01*
X118009872Y-115506007D01*
X118009870Y-115506005D01*
X117825754Y-115364728D01*
X117825750Y-115364726D01*
X117825748Y-115364724D01*
X117624752Y-115248680D01*
X117624747Y-115248677D01*
X117410329Y-115159862D01*
X117257207Y-115118834D01*
X117186149Y-115099794D01*
X117186146Y-115099793D01*
X117186144Y-115099793D01*
X116956045Y-115069500D01*
X116723955Y-115069500D01*
X116723954Y-115069500D01*
X116493858Y-115099793D01*
X116493853Y-115099793D01*
X116269670Y-115159862D01*
X116055252Y-115248677D01*
X115854245Y-115364728D01*
X115670129Y-115506005D01*
X115506005Y-115670129D01*
X115364728Y-115854245D01*
X115248677Y-116055252D01*
X115159862Y-116269670D01*
X115099793Y-116493853D01*
X115099793Y-116493858D01*
X115069500Y-116723954D01*
X114700500Y-116723954D01*
X114700500Y-113439456D01*
X117363500Y-113439456D01*
X117363500Y-113636543D01*
X117401949Y-113829834D01*
X117401949Y-113829836D01*
X117477367Y-114011913D01*
X117477368Y-114011914D01*
X117586861Y-114175782D01*
X117726218Y-114315139D01*
X117890086Y-114424632D01*
X118072165Y-114500051D01*
X118265459Y-114538500D01*
X118265460Y-114538500D01*
X118462540Y-114538500D01*
X118462541Y-114538500D01*
X118655835Y-114500051D01*
X118837914Y-114424632D01*
X119001782Y-114315139D01*
X119141139Y-114175782D01*
X119250632Y-114011914D01*
X119326051Y-113829835D01*
X119364500Y-113636541D01*
X119364500Y-113439459D01*
X119326051Y-113246165D01*
X119250632Y-113064086D01*
X119141139Y-112900218D01*
X119001782Y-112760861D01*
X118887854Y-112684737D01*
X118837913Y-112651367D01*
X118655835Y-112575949D01*
X118462543Y-112537500D01*
X118462541Y-112537500D01*
X118265459Y-112537500D01*
X118265456Y-112537500D01*
X118072165Y-112575949D01*
X118072163Y-112575949D01*
X117890086Y-112651367D01*
X117726218Y-112760861D01*
X117726214Y-112760864D01*
X117586864Y-112900214D01*
X117586861Y-112900218D01*
X117477367Y-113064086D01*
X117401949Y-113246163D01*
X117401949Y-113246165D01*
X117363500Y-113439456D01*
X114700500Y-113439456D01*
X114700500Y-102263456D01*
X117363500Y-102263456D01*
X117363500Y-102460543D01*
X117378878Y-102537853D01*
X117395084Y-102619325D01*
X117401949Y-102653834D01*
X117401949Y-102653836D01*
X117477367Y-102835913D01*
X117506179Y-102879033D01*
X117586861Y-102999782D01*
X117726218Y-103139139D01*
X117890086Y-103248632D01*
X118072165Y-103324051D01*
X118265459Y-103362500D01*
X118265460Y-103362500D01*
X118462540Y-103362500D01*
X118462541Y-103362500D01*
X118655835Y-103324051D01*
X118837914Y-103248632D01*
X119001782Y-103139139D01*
X119141139Y-102999782D01*
X119250632Y-102835914D01*
X119326051Y-102653835D01*
X119364500Y-102460541D01*
X119364500Y-102263459D01*
X119326051Y-102070165D01*
X119250632Y-101888086D01*
X119141139Y-101724218D01*
X119001782Y-101584861D01*
X118880698Y-101503955D01*
X118837913Y-101475367D01*
X118655835Y-101399949D01*
X118462543Y-101361500D01*
X118462541Y-101361500D01*
X118265459Y-101361500D01*
X118265456Y-101361500D01*
X118072165Y-101399949D01*
X118072163Y-101399949D01*
X117890086Y-101475367D01*
X117726218Y-101584861D01*
X117726214Y-101584864D01*
X117586864Y-101724214D01*
X117586861Y-101724218D01*
X117477367Y-101888086D01*
X117401949Y-102070163D01*
X117401949Y-102070165D01*
X117363500Y-102263456D01*
X114700500Y-102263456D01*
X114700500Y-99063240D01*
X114700712Y-99056765D01*
X114708106Y-98943955D01*
X115069500Y-98943955D01*
X115069500Y-99176045D01*
X115099118Y-99401018D01*
X115099793Y-99406141D01*
X115099793Y-99406146D01*
X115159862Y-99630329D01*
X115248677Y-99844747D01*
X115248680Y-99844752D01*
X115364724Y-100045748D01*
X115364726Y-100045750D01*
X115364728Y-100045754D01*
X115506005Y-100229870D01*
X115506007Y-100229872D01*
X115506011Y-100229877D01*
X115670123Y-100393989D01*
X115670127Y-100393992D01*
X115670129Y-100393994D01*
X115853964Y-100535055D01*
X115854252Y-100535276D01*
X116055248Y-100651320D01*
X116055249Y-100651320D01*
X116055252Y-100651322D01*
X116177399Y-100701917D01*
X116269670Y-100740137D01*
X116493851Y-100800206D01*
X116723955Y-100830500D01*
X116723956Y-100830500D01*
X116956044Y-100830500D01*
X116956045Y-100830500D01*
X117186149Y-100800206D01*
X117410330Y-100740137D01*
X117624752Y-100651320D01*
X117825748Y-100535276D01*
X118009877Y-100393989D01*
X118173989Y-100229877D01*
X118315276Y-100045748D01*
X118431320Y-99844752D01*
X118520137Y-99630330D01*
X118580206Y-99406149D01*
X118610500Y-99176045D01*
X118610500Y-98943955D01*
X118580206Y-98713851D01*
X118520137Y-98489670D01*
X118507703Y-98459651D01*
X118431322Y-98275252D01*
X118420891Y-98257185D01*
X118315276Y-98074252D01*
X118246676Y-97984850D01*
X118173994Y-97890129D01*
X118173992Y-97890127D01*
X118173989Y-97890123D01*
X118009877Y-97726011D01*
X118009872Y-97726007D01*
X118009870Y-97726005D01*
X117825754Y-97584728D01*
X117825750Y-97584726D01*
X117825748Y-97584724D01*
X117624752Y-97468680D01*
X117624747Y-97468677D01*
X117410329Y-97379862D01*
X117257207Y-97338834D01*
X117186149Y-97319794D01*
X117186146Y-97319793D01*
X117186144Y-97319793D01*
X116956045Y-97289500D01*
X116723955Y-97289500D01*
X116723954Y-97289500D01*
X116493858Y-97319793D01*
X116493853Y-97319793D01*
X116269670Y-97379862D01*
X116055252Y-97468677D01*
X115854245Y-97584728D01*
X115670129Y-97726005D01*
X115506005Y-97890129D01*
X115364728Y-98074245D01*
X115248677Y-98275252D01*
X115159862Y-98489670D01*
X115099793Y-98713853D01*
X115099793Y-98713858D01*
X115070938Y-98933036D01*
X115069500Y-98943955D01*
X114708106Y-98943955D01*
X114708743Y-98934239D01*
X114712593Y-98875498D01*
X114718379Y-98787208D01*
X114720069Y-98774377D01*
X114722191Y-98763710D01*
X114772139Y-98512603D01*
X114775484Y-98500122D01*
X114861278Y-98247379D01*
X114866223Y-98235443D01*
X114984279Y-97996048D01*
X114990731Y-97984873D01*
X115139025Y-97762935D01*
X115146890Y-97752687D01*
X115322875Y-97552013D01*
X115332013Y-97542875D01*
X115532687Y-97366890D01*
X115542935Y-97359025D01*
X115764873Y-97210731D01*
X115776048Y-97204279D01*
X116015443Y-97086223D01*
X116027379Y-97081278D01*
X116280122Y-96995484D01*
X116292603Y-96992139D01*
X116554384Y-96940068D01*
X116567208Y-96938379D01*
X116836766Y-96920712D01*
X116843241Y-96920500D01*
X116897583Y-96920500D01*
X121164638Y-96920500D01*
X121222829Y-96939407D01*
G37*
%TD.AperFunction*%
%TA.AperFunction,Conductor*%
G36*
X141085412Y-115955345D02*
G01*
X141101093Y-115955345D01*
X141113778Y-115964561D01*
X141128691Y-115969407D01*
X141137907Y-115982092D01*
X141150593Y-115991309D01*
X141155438Y-116006221D01*
X141164655Y-116018907D01*
X141169500Y-116049500D01*
X141169500Y-116100996D01*
X141169499Y-116100996D01*
X141175340Y-116155322D01*
X141186538Y-116206796D01*
X141186550Y-116206846D01*
X141193780Y-116233196D01*
X141193782Y-116233202D01*
X141243107Y-116319821D01*
X141243117Y-116319834D01*
X141288852Y-116372616D01*
X141288861Y-116372626D01*
X141321641Y-116404257D01*
X141321644Y-116404259D01*
X141409974Y-116450464D01*
X141409976Y-116450465D01*
X141477015Y-116470150D01*
X141517006Y-116475900D01*
X141548996Y-116480500D01*
X141549000Y-116480500D01*
X142383455Y-116480500D01*
X142441646Y-116499407D01*
X142453459Y-116509496D01*
X142924525Y-116980562D01*
X142924524Y-116980562D01*
X142993413Y-117049450D01*
X143021191Y-117103966D01*
X143011620Y-117164398D01*
X142978412Y-117201769D01*
X142840349Y-117294019D01*
X142694020Y-117440348D01*
X142579058Y-117612402D01*
X142499869Y-117803581D01*
X142459500Y-118006532D01*
X142459500Y-118213467D01*
X142499869Y-118416418D01*
X142579058Y-118607597D01*
X142637946Y-118695729D01*
X142694023Y-118779655D01*
X142724866Y-118810498D01*
X142752642Y-118865013D01*
X142743071Y-118925445D01*
X142699806Y-118968710D01*
X142654861Y-118979500D01*
X141825139Y-118979500D01*
X141766948Y-118960593D01*
X141730984Y-118911093D01*
X141730984Y-118849907D01*
X141755133Y-118810498D01*
X141785977Y-118779655D01*
X141900941Y-118607598D01*
X141980130Y-118416420D01*
X142020500Y-118213465D01*
X142020500Y-118006535D01*
X141980130Y-117803580D01*
X141900941Y-117612402D01*
X141785977Y-117440345D01*
X141639655Y-117294023D01*
X141639651Y-117294020D01*
X141467597Y-117179058D01*
X141276418Y-117099869D01*
X141073467Y-117059500D01*
X141073465Y-117059500D01*
X140866535Y-117059500D01*
X140866532Y-117059500D01*
X140663581Y-117099869D01*
X140472402Y-117179058D01*
X140300348Y-117294020D01*
X140154020Y-117440348D01*
X140039058Y-117612402D01*
X139959869Y-117803581D01*
X139919500Y-118006532D01*
X139919500Y-118213467D01*
X139959869Y-118416418D01*
X140039058Y-118607597D01*
X140097946Y-118695729D01*
X140154023Y-118779655D01*
X140184866Y-118810498D01*
X140212642Y-118865013D01*
X140203071Y-118925445D01*
X140159806Y-118968710D01*
X140114861Y-118979500D01*
X139285139Y-118979500D01*
X139226948Y-118960593D01*
X139190984Y-118911093D01*
X139190984Y-118849907D01*
X139215133Y-118810498D01*
X139245977Y-118779655D01*
X139360941Y-118607598D01*
X139440130Y-118416420D01*
X139480500Y-118213465D01*
X139480500Y-118006535D01*
X139440130Y-117803580D01*
X139360941Y-117612402D01*
X139245977Y-117440345D01*
X139099655Y-117294023D01*
X139099651Y-117294020D01*
X138927597Y-117179058D01*
X138736418Y-117099869D01*
X138533467Y-117059500D01*
X138533465Y-117059500D01*
X138326535Y-117059500D01*
X138326532Y-117059500D01*
X138123581Y-117099869D01*
X137932402Y-117179058D01*
X137760348Y-117294020D01*
X137614020Y-117440348D01*
X137499058Y-117612402D01*
X137419869Y-117803581D01*
X137379500Y-118006532D01*
X137379500Y-118213467D01*
X137419869Y-118416418D01*
X137499058Y-118607597D01*
X137557946Y-118695729D01*
X137614023Y-118779655D01*
X137644866Y-118810498D01*
X137672642Y-118865013D01*
X137663071Y-118925445D01*
X137619806Y-118968710D01*
X137574861Y-118979500D01*
X136745139Y-118979500D01*
X136686948Y-118960593D01*
X136650984Y-118911093D01*
X136650984Y-118849907D01*
X136675133Y-118810498D01*
X136705977Y-118779655D01*
X136820941Y-118607598D01*
X136900130Y-118416420D01*
X136940500Y-118213465D01*
X136940500Y-118006535D01*
X136900130Y-117803580D01*
X136820941Y-117612402D01*
X136705977Y-117440345D01*
X136559655Y-117294023D01*
X136559651Y-117294020D01*
X136387597Y-117179058D01*
X136196418Y-117099869D01*
X135993467Y-117059500D01*
X135993465Y-117059500D01*
X135786535Y-117059500D01*
X135786532Y-117059500D01*
X135583581Y-117099869D01*
X135392402Y-117179058D01*
X135220348Y-117294020D01*
X135074020Y-117440348D01*
X134959058Y-117612402D01*
X134879869Y-117803581D01*
X134839500Y-118006532D01*
X134839500Y-118213467D01*
X134879869Y-118416418D01*
X134959058Y-118607597D01*
X135017946Y-118695729D01*
X135074023Y-118779655D01*
X135104866Y-118810498D01*
X135132642Y-118865013D01*
X135123071Y-118925445D01*
X135079806Y-118968710D01*
X135034861Y-118979500D01*
X134205139Y-118979500D01*
X134146948Y-118960593D01*
X134110984Y-118911093D01*
X134110984Y-118849907D01*
X134135133Y-118810498D01*
X134165977Y-118779655D01*
X134280941Y-118607598D01*
X134360130Y-118416420D01*
X134400500Y-118213465D01*
X134400500Y-118006535D01*
X134360130Y-117803580D01*
X134280941Y-117612402D01*
X134165977Y-117440345D01*
X134019655Y-117294023D01*
X134019651Y-117294020D01*
X133847597Y-117179058D01*
X133656418Y-117099869D01*
X133453467Y-117059500D01*
X133453465Y-117059500D01*
X133246535Y-117059500D01*
X133246532Y-117059500D01*
X133043581Y-117099869D01*
X132852402Y-117179058D01*
X132680348Y-117294020D01*
X132534020Y-117440348D01*
X132419058Y-117612402D01*
X132339869Y-117803581D01*
X132299500Y-118006532D01*
X132299500Y-118213467D01*
X132339869Y-118416418D01*
X132419058Y-118607597D01*
X132477946Y-118695729D01*
X132534023Y-118779655D01*
X132564866Y-118810498D01*
X132592642Y-118865013D01*
X132583071Y-118925445D01*
X132539806Y-118968710D01*
X132494861Y-118979500D01*
X131665139Y-118979500D01*
X131606948Y-118960593D01*
X131570984Y-118911093D01*
X131570984Y-118849907D01*
X131595133Y-118810498D01*
X131625977Y-118779655D01*
X131740941Y-118607598D01*
X131820130Y-118416420D01*
X131860500Y-118213465D01*
X131860500Y-118006535D01*
X131820130Y-117803580D01*
X131740941Y-117612402D01*
X131625977Y-117440345D01*
X131479655Y-117294023D01*
X131479651Y-117294020D01*
X131307597Y-117179058D01*
X131116418Y-117099869D01*
X130913467Y-117059500D01*
X130913465Y-117059500D01*
X130706535Y-117059500D01*
X130706532Y-117059500D01*
X130503581Y-117099869D01*
X130312402Y-117179058D01*
X130140348Y-117294020D01*
X129994020Y-117440348D01*
X129879058Y-117612402D01*
X129799869Y-117803581D01*
X129759500Y-118006532D01*
X129759500Y-118213467D01*
X129799869Y-118416418D01*
X129879058Y-118607597D01*
X129937946Y-118695729D01*
X129994023Y-118779655D01*
X130024866Y-118810498D01*
X130052642Y-118865013D01*
X130043071Y-118925445D01*
X129999806Y-118968710D01*
X129954861Y-118979500D01*
X126585139Y-118979500D01*
X126526948Y-118960593D01*
X126490984Y-118911093D01*
X126490984Y-118849907D01*
X126515133Y-118810498D01*
X126545977Y-118779655D01*
X126660941Y-118607598D01*
X126740130Y-118416420D01*
X126780500Y-118213465D01*
X126780500Y-118006535D01*
X126740130Y-117803580D01*
X126660941Y-117612402D01*
X126545977Y-117440345D01*
X126399655Y-117294023D01*
X126399649Y-117294019D01*
X126227598Y-117179059D01*
X126136613Y-117141371D01*
X126090088Y-117101634D01*
X126075500Y-117049907D01*
X126075500Y-116126744D01*
X126094407Y-116068553D01*
X126104497Y-116056740D01*
X126181742Y-115979496D01*
X126236259Y-115951719D01*
X126251745Y-115950500D01*
X131776565Y-115950500D01*
X141070500Y-115950500D01*
X141085412Y-115955345D01*
G37*
%TD.AperFunction*%
%TA.AperFunction,Conductor*%
G36*
X146842744Y-113045637D02*
G01*
X146873337Y-113098625D01*
X146875500Y-113119209D01*
X146875500Y-116818521D01*
X146856593Y-116876712D01*
X146846503Y-116888525D01*
X146600291Y-117134736D01*
X146545775Y-117162513D01*
X146492402Y-117156196D01*
X146356418Y-117099869D01*
X146153467Y-117059500D01*
X146153465Y-117059500D01*
X145946535Y-117059500D01*
X145946532Y-117059500D01*
X145743581Y-117099869D01*
X145552402Y-117179058D01*
X145380348Y-117294020D01*
X145234020Y-117440348D01*
X145119058Y-117612402D01*
X145039869Y-117803581D01*
X144999500Y-118006532D01*
X144999500Y-118213467D01*
X145039869Y-118416418D01*
X145119058Y-118607597D01*
X145177946Y-118695729D01*
X145234023Y-118779655D01*
X145264866Y-118810498D01*
X145292642Y-118865013D01*
X145283071Y-118925445D01*
X145239806Y-118968710D01*
X145194861Y-118979500D01*
X144365139Y-118979500D01*
X144306948Y-118960593D01*
X144270984Y-118911093D01*
X144270984Y-118849907D01*
X144295133Y-118810498D01*
X144325977Y-118779655D01*
X144440941Y-118607598D01*
X144520130Y-118416420D01*
X144560500Y-118213465D01*
X144560500Y-118006535D01*
X144520130Y-117803580D01*
X144440941Y-117612402D01*
X144325977Y-117440345D01*
X144180133Y-117294501D01*
X144152358Y-117239987D01*
X144161929Y-117179555D01*
X144205194Y-117136290D01*
X144250139Y-117125500D01*
X144649435Y-117125500D01*
X144649436Y-117125500D01*
X144726061Y-117104968D01*
X144744938Y-117099910D01*
X144830562Y-117050475D01*
X144900475Y-116980562D01*
X145926541Y-115954496D01*
X145981058Y-115926719D01*
X145996545Y-115925500D01*
X146075764Y-115925500D01*
X146075766Y-115925500D01*
X146222135Y-115886281D01*
X146222137Y-115886279D01*
X146222139Y-115886279D01*
X146353360Y-115810518D01*
X146353360Y-115810517D01*
X146353365Y-115810515D01*
X146460515Y-115703365D01*
X146479704Y-115670129D01*
X146536279Y-115572139D01*
X146536279Y-115572137D01*
X146536281Y-115572135D01*
X146575500Y-115425766D01*
X146575500Y-115274234D01*
X146536281Y-115127865D01*
X146536279Y-115127862D01*
X146536279Y-115127860D01*
X146460518Y-114996639D01*
X146460516Y-114996637D01*
X146460515Y-114996635D01*
X146353365Y-114889485D01*
X146353362Y-114889483D01*
X146353360Y-114889481D01*
X146222138Y-114813720D01*
X146222140Y-114813720D01*
X146165347Y-114798503D01*
X146075766Y-114774500D01*
X145924234Y-114774500D01*
X145834652Y-114798503D01*
X145777860Y-114813720D01*
X145646639Y-114889481D01*
X145539481Y-114996639D01*
X145463720Y-115127860D01*
X145424500Y-115274235D01*
X145424500Y-115353455D01*
X145405593Y-115411646D01*
X145395504Y-115423459D01*
X144473459Y-116345504D01*
X144418942Y-116373281D01*
X144403455Y-116374500D01*
X143421545Y-116374500D01*
X143363354Y-116355593D01*
X143351541Y-116345504D01*
X142934496Y-115928459D01*
X142906719Y-115873942D01*
X142905500Y-115858455D01*
X142905500Y-113218221D01*
X142924407Y-113160030D01*
X142973907Y-113124066D01*
X143035093Y-113124066D01*
X143074501Y-113148215D01*
X143081597Y-113155311D01*
X143191107Y-113211109D01*
X143281967Y-113225500D01*
X143718032Y-113225499D01*
X143718034Y-113225499D01*
X143737543Y-113222408D01*
X143808893Y-113211109D01*
X143894892Y-113167289D01*
X143939837Y-113156500D01*
X146183563Y-113156500D01*
X146183563Y-113156499D01*
X146259989Y-113136021D01*
X146328511Y-113096460D01*
X146328516Y-113096454D01*
X146333657Y-113092511D01*
X146335384Y-113094761D01*
X146379317Y-113072347D01*
X146420482Y-113074494D01*
X146424234Y-113075500D01*
X146424237Y-113075500D01*
X146575764Y-113075500D01*
X146575766Y-113075500D01*
X146722135Y-113036281D01*
X146722137Y-113036279D01*
X146722139Y-113036279D01*
X146727000Y-113033473D01*
X146786848Y-113020751D01*
X146842744Y-113045637D01*
G37*
%TD.AperFunction*%
%TA.AperFunction,Conductor*%
G36*
X153141493Y-102556896D02*
G01*
X153162077Y-102559061D01*
X153169936Y-102566138D01*
X153179997Y-102569407D01*
X153207543Y-102600002D01*
X153209485Y-102603365D01*
X153316635Y-102710515D01*
X153319994Y-102712454D01*
X153360938Y-102757919D01*
X153369500Y-102798193D01*
X153369500Y-104941562D01*
X153381896Y-104987824D01*
X153389979Y-105017989D01*
X153389980Y-105017991D01*
X153398845Y-105033346D01*
X153398852Y-105033356D01*
X153398855Y-105033362D01*
X153429540Y-105086511D01*
X154070505Y-105727476D01*
X154098281Y-105781991D01*
X154099500Y-105797478D01*
X154099500Y-106239672D01*
X154099501Y-106239684D01*
X154114033Y-106312736D01*
X154114035Y-106312742D01*
X154169397Y-106395599D01*
X154169400Y-106395602D01*
X154201590Y-106417110D01*
X154252260Y-106450966D01*
X154307808Y-106462015D01*
X154325315Y-106465498D01*
X154325320Y-106465498D01*
X154325326Y-106465500D01*
X154403697Y-106465500D01*
X154427515Y-106473239D01*
X154452078Y-106478127D01*
X154456163Y-106482546D01*
X154461888Y-106484407D01*
X154476609Y-106504669D01*
X154493607Y-106523060D01*
X154494313Y-106529037D01*
X154497852Y-106533907D01*
X154500793Y-106583822D01*
X154500594Y-106584822D01*
X154470693Y-106638204D01*
X154415126Y-106663815D01*
X154403498Y-106664500D01*
X150995435Y-106664500D01*
X150919011Y-106684978D01*
X150884060Y-106705158D01*
X150878651Y-106708281D01*
X150870283Y-106713111D01*
X150850489Y-106724539D01*
X150175144Y-107399882D01*
X150120628Y-107427659D01*
X150079525Y-107425507D01*
X150075766Y-107424500D01*
X149924234Y-107424500D01*
X149834652Y-107448503D01*
X149777860Y-107463720D01*
X149646639Y-107539481D01*
X149539481Y-107646639D01*
X149463720Y-107777860D01*
X149424500Y-107924235D01*
X149424500Y-108075765D01*
X149425506Y-108079520D01*
X149422303Y-108140621D01*
X149399883Y-108175145D01*
X149365539Y-108209489D01*
X149325980Y-108278007D01*
X149325978Y-108278011D01*
X149305500Y-108354435D01*
X149305500Y-116928521D01*
X149303031Y-116936118D01*
X149304281Y-116944008D01*
X149293757Y-116964661D01*
X149286593Y-116986712D01*
X149276503Y-116998525D01*
X149140291Y-117134736D01*
X149085775Y-117162513D01*
X149032402Y-117156196D01*
X148896418Y-117099869D01*
X148693467Y-117059500D01*
X148693465Y-117059500D01*
X148486535Y-117059500D01*
X148486532Y-117059500D01*
X148283581Y-117099869D01*
X148092402Y-117179058D01*
X147920348Y-117294020D01*
X147774020Y-117440348D01*
X147659058Y-117612402D01*
X147579869Y-117803581D01*
X147539500Y-118006532D01*
X147539500Y-118213467D01*
X147579869Y-118416418D01*
X147659058Y-118607597D01*
X147717946Y-118695729D01*
X147774023Y-118779655D01*
X147804866Y-118810498D01*
X147832642Y-118865013D01*
X147823071Y-118925445D01*
X147779806Y-118968710D01*
X147734861Y-118979500D01*
X146905139Y-118979500D01*
X146846948Y-118960593D01*
X146810984Y-118911093D01*
X146810984Y-118849907D01*
X146835133Y-118810498D01*
X146865977Y-118779655D01*
X146980941Y-118607598D01*
X147060130Y-118416420D01*
X147100500Y-118213465D01*
X147100500Y-118006535D01*
X147060130Y-117803580D01*
X147003801Y-117667592D01*
X146999001Y-117606600D01*
X147025261Y-117559708D01*
X147416460Y-117168511D01*
X147421097Y-117160480D01*
X147456021Y-117099989D01*
X147476500Y-117023562D01*
X147476500Y-109636438D01*
X147456021Y-109560011D01*
X147444279Y-109539674D01*
X147416460Y-109491489D01*
X147360511Y-109435539D01*
X147360511Y-109435540D01*
X147100116Y-109175145D01*
X147072339Y-109120628D01*
X147074496Y-109079510D01*
X147075500Y-109075766D01*
X147075500Y-108924234D01*
X147036281Y-108777865D01*
X147036279Y-108777862D01*
X147036279Y-108777860D01*
X146960518Y-108646639D01*
X146960516Y-108646637D01*
X146960515Y-108646635D01*
X146883881Y-108570001D01*
X146856106Y-108515487D01*
X146865677Y-108455055D01*
X146883880Y-108429999D01*
X146960515Y-108353365D01*
X146965576Y-108344599D01*
X147036279Y-108222139D01*
X147036279Y-108222137D01*
X147036281Y-108222135D01*
X147075500Y-108075766D01*
X147075500Y-107924234D01*
X147036281Y-107777865D01*
X147036279Y-107777862D01*
X147036279Y-107777860D01*
X146960518Y-107646639D01*
X146960516Y-107646637D01*
X146960515Y-107646635D01*
X146853365Y-107539485D01*
X146853362Y-107539483D01*
X146853360Y-107539481D01*
X146722138Y-107463720D01*
X146722140Y-107463720D01*
X146665347Y-107448503D01*
X146575766Y-107424500D01*
X146424234Y-107424500D01*
X146295152Y-107459086D01*
X146277861Y-107463720D01*
X146222938Y-107495430D01*
X146163090Y-107508151D01*
X146107194Y-107483264D01*
X146076602Y-107430275D01*
X146075680Y-107424910D01*
X146075500Y-107424238D01*
X146075500Y-107424234D01*
X146036281Y-107277865D01*
X146036279Y-107277862D01*
X146036279Y-107277860D01*
X145960518Y-107146639D01*
X145960516Y-107146637D01*
X145960515Y-107146635D01*
X145957324Y-107143444D01*
X145929549Y-107088930D01*
X145939120Y-107028498D01*
X145972332Y-106991125D01*
X145980601Y-106985601D01*
X146035966Y-106902740D01*
X146050500Y-106829674D01*
X146050500Y-105520478D01*
X146069407Y-105462287D01*
X146079490Y-105450480D01*
X146976260Y-104553711D01*
X146988788Y-104532012D01*
X147000489Y-104511746D01*
X147006287Y-104501703D01*
X147015821Y-104485189D01*
X147036300Y-104408762D01*
X147036300Y-103548193D01*
X147055207Y-103490002D01*
X147085804Y-103462454D01*
X147089165Y-103460515D01*
X147196315Y-103353365D01*
X147272081Y-103222135D01*
X147311300Y-103075766D01*
X147311300Y-102924234D01*
X147272081Y-102777865D01*
X147272079Y-102777862D01*
X147272079Y-102777860D01*
X147226549Y-102699000D01*
X147213827Y-102639152D01*
X147238714Y-102583256D01*
X147291702Y-102552663D01*
X147312285Y-102550500D01*
X153121806Y-102550500D01*
X153141493Y-102556896D01*
G37*
%TD.AperFunction*%
%TA.AperFunction,Conductor*%
G36*
X162563234Y-96920712D02*
G01*
X162832789Y-96938379D01*
X162845617Y-96940068D01*
X163107392Y-96992138D01*
X163119881Y-96995485D01*
X163372614Y-97081276D01*
X163384562Y-97086225D01*
X163623944Y-97204275D01*
X163635132Y-97210735D01*
X163857056Y-97359020D01*
X163867319Y-97366896D01*
X163990314Y-97474759D01*
X164067976Y-97542866D01*
X164077131Y-97552021D01*
X164229716Y-97726011D01*
X164253102Y-97752678D01*
X164260981Y-97762945D01*
X164409261Y-97984862D01*
X164415726Y-97996060D01*
X164527909Y-98223545D01*
X164533770Y-98235429D01*
X164538726Y-98247394D01*
X164624511Y-98500109D01*
X164627863Y-98512617D01*
X164679930Y-98774377D01*
X164681620Y-98787216D01*
X164699100Y-99053897D01*
X164699145Y-99066112D01*
X164685450Y-99301919D01*
X164684122Y-99313321D01*
X164643156Y-99546339D01*
X164640516Y-99557511D01*
X164572854Y-99784210D01*
X164568939Y-99795001D01*
X164475485Y-100012356D01*
X164470346Y-100022621D01*
X164352370Y-100227679D01*
X164346078Y-100237281D01*
X164205151Y-100427311D01*
X164197791Y-100436119D01*
X164035812Y-100608562D01*
X164027480Y-100616460D01*
X163846628Y-100768992D01*
X163837439Y-100775871D01*
X163637761Y-100908021D01*
X163632905Y-100911037D01*
X163632885Y-100911048D01*
X163632885Y-100911049D01*
X163631748Y-100911709D01*
X163626792Y-100914592D01*
X163585576Y-100938556D01*
X163585543Y-100938589D01*
X163579683Y-100941999D01*
X163579679Y-100941999D01*
X163579669Y-100942007D01*
X163497305Y-100989904D01*
X163240199Y-101179393D01*
X163240198Y-101179395D01*
X163005132Y-101395610D01*
X163005128Y-101395614D01*
X162794854Y-101636022D01*
X162611846Y-101897798D01*
X162611846Y-101897799D01*
X162458280Y-102177829D01*
X162458271Y-102177850D01*
X162335932Y-102472873D01*
X162335924Y-102472895D01*
X162246259Y-102779424D01*
X162190314Y-103093890D01*
X162168755Y-103412551D01*
X162168755Y-103412557D01*
X162174861Y-103561844D01*
X162174944Y-103565890D01*
X162174944Y-112333864D01*
X162174860Y-112337910D01*
X162168745Y-112487450D01*
X162169753Y-112502342D01*
X162190304Y-112806111D01*
X162190304Y-112806115D01*
X162190305Y-112806118D01*
X162205306Y-112890435D01*
X162246249Y-113120577D01*
X162335914Y-113427108D01*
X162335919Y-113427122D01*
X162335920Y-113427125D01*
X162458264Y-113722160D01*
X162458266Y-113722164D01*
X162458271Y-113722175D01*
X162611837Y-114002205D01*
X162611837Y-114002206D01*
X162794846Y-114263983D01*
X163005121Y-114504392D01*
X163005125Y-114504396D01*
X163240188Y-114720608D01*
X163240195Y-114720614D01*
X163381870Y-114825031D01*
X163497300Y-114910105D01*
X163497304Y-114910107D01*
X163497305Y-114910108D01*
X163585564Y-114961431D01*
X163585576Y-114961444D01*
X163632885Y-114988950D01*
X163637712Y-114991947D01*
X163837450Y-115124137D01*
X163846619Y-115131001D01*
X164016445Y-115274234D01*
X164027480Y-115283541D01*
X164035808Y-115291435D01*
X164197792Y-115463881D01*
X164205141Y-115472675D01*
X164315531Y-115621529D01*
X164346081Y-115662723D01*
X164352364Y-115672311D01*
X164470346Y-115877378D01*
X164475484Y-115887643D01*
X164568938Y-116104998D01*
X164572853Y-116115789D01*
X164640515Y-116342488D01*
X164643155Y-116353660D01*
X164684121Y-116586678D01*
X164685449Y-116598080D01*
X164699144Y-116833899D01*
X164699099Y-116846114D01*
X164681620Y-117112783D01*
X164679930Y-117125622D01*
X164627863Y-117387382D01*
X164624511Y-117399890D01*
X164538726Y-117652605D01*
X164533770Y-117664570D01*
X164415729Y-117903934D01*
X164409257Y-117915143D01*
X164374572Y-117967054D01*
X164260985Y-118137048D01*
X164253102Y-118147321D01*
X164077133Y-118347976D01*
X164067976Y-118357133D01*
X163867321Y-118533102D01*
X163857048Y-118540985D01*
X163635143Y-118689257D01*
X163623934Y-118695729D01*
X163384570Y-118813770D01*
X163372605Y-118818726D01*
X163119890Y-118904511D01*
X163107382Y-118907863D01*
X162845622Y-118959930D01*
X162832783Y-118961620D01*
X162563234Y-118979288D01*
X162556759Y-118979500D01*
X159605139Y-118979500D01*
X159546948Y-118960593D01*
X159510984Y-118911093D01*
X159510984Y-118849907D01*
X159535133Y-118810498D01*
X159565977Y-118779655D01*
X159680941Y-118607598D01*
X159760130Y-118416420D01*
X159800500Y-118213465D01*
X159800500Y-118006535D01*
X159760130Y-117803580D01*
X159680941Y-117612402D01*
X159565977Y-117440345D01*
X159419655Y-117294023D01*
X159419651Y-117294020D01*
X159247597Y-117179058D01*
X159056418Y-117099869D01*
X158853467Y-117059500D01*
X158853465Y-117059500D01*
X158646535Y-117059500D01*
X158646532Y-117059500D01*
X158443581Y-117099869D01*
X158252402Y-117179058D01*
X158080348Y-117294020D01*
X157934020Y-117440348D01*
X157819058Y-117612402D01*
X157739869Y-117803581D01*
X157699500Y-118006532D01*
X157699500Y-118213467D01*
X157739869Y-118416418D01*
X157819058Y-118607597D01*
X157877946Y-118695729D01*
X157934023Y-118779655D01*
X157964866Y-118810498D01*
X157992642Y-118865013D01*
X157983071Y-118925445D01*
X157939806Y-118968710D01*
X157894861Y-118979500D01*
X157065139Y-118979500D01*
X157006948Y-118960593D01*
X156970984Y-118911093D01*
X156970984Y-118849907D01*
X156995133Y-118810498D01*
X157025977Y-118779655D01*
X157140941Y-118607598D01*
X157220130Y-118416420D01*
X157260500Y-118213465D01*
X157260500Y-118006535D01*
X157220130Y-117803580D01*
X157140941Y-117612402D01*
X157025977Y-117440345D01*
X156879655Y-117294023D01*
X156879651Y-117294020D01*
X156707597Y-117179058D01*
X156516418Y-117099869D01*
X156313467Y-117059500D01*
X156313465Y-117059500D01*
X156106535Y-117059500D01*
X156106532Y-117059500D01*
X155903581Y-117099869D01*
X155712402Y-117179058D01*
X155540348Y-117294020D01*
X155394020Y-117440348D01*
X155279058Y-117612402D01*
X155199869Y-117803581D01*
X155159500Y-118006532D01*
X155159500Y-118213467D01*
X155199869Y-118416418D01*
X155279058Y-118607597D01*
X155337946Y-118695729D01*
X155394023Y-118779655D01*
X155424866Y-118810498D01*
X155452642Y-118865013D01*
X155443071Y-118925445D01*
X155399806Y-118968710D01*
X155354861Y-118979500D01*
X154525139Y-118979500D01*
X154466948Y-118960593D01*
X154430984Y-118911093D01*
X154430984Y-118849907D01*
X154455133Y-118810498D01*
X154485977Y-118779655D01*
X154600941Y-118607598D01*
X154680130Y-118416420D01*
X154720500Y-118213465D01*
X154720500Y-118006535D01*
X154680130Y-117803580D01*
X154600941Y-117612402D01*
X154485977Y-117440345D01*
X154339655Y-117294023D01*
X154339651Y-117294020D01*
X154167597Y-117179058D01*
X153976418Y-117099869D01*
X153773467Y-117059500D01*
X153773465Y-117059500D01*
X153566535Y-117059500D01*
X153566532Y-117059500D01*
X153363581Y-117099869D01*
X153172402Y-117179058D01*
X153000348Y-117294020D01*
X152854020Y-117440348D01*
X152739058Y-117612402D01*
X152659869Y-117803581D01*
X152619500Y-118006532D01*
X152619500Y-118213467D01*
X152659869Y-118416418D01*
X152739058Y-118607597D01*
X152797946Y-118695729D01*
X152854023Y-118779655D01*
X152884866Y-118810498D01*
X152912642Y-118865013D01*
X152903071Y-118925445D01*
X152859806Y-118968710D01*
X152814861Y-118979500D01*
X151985139Y-118979500D01*
X151926948Y-118960593D01*
X151890984Y-118911093D01*
X151890984Y-118849907D01*
X151915133Y-118810498D01*
X151945977Y-118779655D01*
X152060941Y-118607598D01*
X152140130Y-118416420D01*
X152180500Y-118213465D01*
X152180500Y-118006535D01*
X152140130Y-117803580D01*
X152060941Y-117612402D01*
X151945977Y-117440345D01*
X151799655Y-117294023D01*
X151799651Y-117294020D01*
X151627597Y-117179058D01*
X151436418Y-117099869D01*
X151233467Y-117059500D01*
X151233465Y-117059500D01*
X151026535Y-117059500D01*
X151026532Y-117059500D01*
X150823580Y-117099870D01*
X150823578Y-117099870D01*
X150687596Y-117156196D01*
X150626600Y-117160997D01*
X150579707Y-117134736D01*
X150336496Y-116891525D01*
X150332869Y-116884407D01*
X150326407Y-116879712D01*
X150319243Y-116857663D01*
X150308719Y-116837008D01*
X150307500Y-116821521D01*
X150307500Y-116730509D01*
X160889500Y-116730509D01*
X160889500Y-116949490D01*
X160918082Y-117166590D01*
X160918082Y-117166595D01*
X160974758Y-117378116D01*
X161058557Y-117580423D01*
X161168052Y-117770074D01*
X161301351Y-117943793D01*
X161301353Y-117943795D01*
X161301357Y-117943800D01*
X161456200Y-118098643D01*
X161456204Y-118098646D01*
X161456206Y-118098648D01*
X161519638Y-118147321D01*
X161629929Y-118231950D01*
X161819572Y-118341440D01*
X161819573Y-118341440D01*
X161819576Y-118341442D01*
X162000583Y-118416418D01*
X162021883Y-118425241D01*
X162233402Y-118481917D01*
X162450510Y-118510500D01*
X162450511Y-118510500D01*
X162669489Y-118510500D01*
X162669490Y-118510500D01*
X162886598Y-118481917D01*
X163098117Y-118425241D01*
X163300428Y-118341440D01*
X163490071Y-118231950D01*
X163663800Y-118098643D01*
X163818643Y-117943800D01*
X163951950Y-117770071D01*
X164061440Y-117580428D01*
X164145241Y-117378117D01*
X164201917Y-117166598D01*
X164230500Y-116949490D01*
X164230500Y-116730510D01*
X164201917Y-116513402D01*
X164145241Y-116301883D01*
X164116792Y-116233202D01*
X164061442Y-116099576D01*
X164035852Y-116055252D01*
X163951950Y-115909929D01*
X163933803Y-115886279D01*
X163818648Y-115736206D01*
X163818646Y-115736204D01*
X163818643Y-115736200D01*
X163663800Y-115581357D01*
X163663795Y-115581353D01*
X163663793Y-115581351D01*
X163490074Y-115448052D01*
X163484197Y-115444659D01*
X163356768Y-115371088D01*
X163300423Y-115338557D01*
X163098116Y-115254758D01*
X162953641Y-115216047D01*
X162886598Y-115198083D01*
X162886595Y-115198082D01*
X162886593Y-115198082D01*
X162669490Y-115169500D01*
X162450510Y-115169500D01*
X162450509Y-115169500D01*
X162233409Y-115198082D01*
X162233404Y-115198082D01*
X162021883Y-115254758D01*
X161819576Y-115338557D01*
X161629925Y-115448052D01*
X161456206Y-115581351D01*
X161301351Y-115736206D01*
X161168052Y-115909925D01*
X161058557Y-116099576D01*
X160974758Y-116301883D01*
X160918082Y-116513404D01*
X160918082Y-116513409D01*
X160889500Y-116730509D01*
X150307500Y-116730509D01*
X150307500Y-115671029D01*
X150326407Y-115612838D01*
X150375907Y-115576874D01*
X150437093Y-115576874D01*
X150486593Y-115612838D01*
X150492236Y-115621529D01*
X150539481Y-115703360D01*
X150539483Y-115703362D01*
X150539485Y-115703365D01*
X150646635Y-115810515D01*
X150646637Y-115810516D01*
X150646639Y-115810518D01*
X150777861Y-115886279D01*
X150777859Y-115886279D01*
X150777863Y-115886280D01*
X150777865Y-115886281D01*
X150924234Y-115925500D01*
X150924236Y-115925500D01*
X151075764Y-115925500D01*
X151075766Y-115925500D01*
X151222135Y-115886281D01*
X151222137Y-115886279D01*
X151222139Y-115886279D01*
X151353360Y-115810518D01*
X151353360Y-115810517D01*
X151353365Y-115810515D01*
X151381375Y-115782505D01*
X151409385Y-115754496D01*
X151463902Y-115726719D01*
X151479388Y-115725500D01*
X158849436Y-115725500D01*
X158897186Y-115712705D01*
X158897187Y-115712705D01*
X158944934Y-115699911D01*
X158944933Y-115699911D01*
X158944938Y-115699910D01*
X159030562Y-115650475D01*
X159100475Y-115580562D01*
X160300474Y-114380563D01*
X160303611Y-114375130D01*
X160304647Y-114373337D01*
X160338249Y-114315135D01*
X160349910Y-114294938D01*
X160375500Y-114199435D01*
X160375500Y-110501490D01*
X160349910Y-110405987D01*
X160319529Y-110353365D01*
X160300475Y-110320362D01*
X157744638Y-107764526D01*
X157744638Y-107764525D01*
X157659016Y-107715091D01*
X157659009Y-107715088D01*
X157607894Y-107701392D01*
X157607893Y-107701392D01*
X157563513Y-107689500D01*
X157563511Y-107689500D01*
X157563510Y-107689500D01*
X157181582Y-107689500D01*
X157123391Y-107670593D01*
X157090840Y-107625791D01*
X157089696Y-107626266D01*
X157087721Y-107621497D01*
X157087427Y-107621093D01*
X157087212Y-107620268D01*
X157085965Y-107617258D01*
X157030602Y-107534400D01*
X157030599Y-107534397D01*
X156939633Y-107473617D01*
X156941360Y-107471031D01*
X156907020Y-107441700D01*
X156892738Y-107382205D01*
X156894333Y-107370673D01*
X156900500Y-107339674D01*
X156900500Y-106590326D01*
X156885966Y-106517260D01*
X156877553Y-106504669D01*
X156830602Y-106434400D01*
X156830599Y-106434397D01*
X156747742Y-106379035D01*
X156747740Y-106379034D01*
X156747737Y-106379033D01*
X156747736Y-106379033D01*
X156674684Y-106364501D01*
X156674674Y-106364500D01*
X156674673Y-106364500D01*
X156596303Y-106364500D01*
X156538112Y-106345593D01*
X156502148Y-106296093D01*
X156499205Y-106246187D01*
X156500499Y-106239679D01*
X156500500Y-106239672D01*
X156500500Y-105490327D01*
X156500499Y-105490320D01*
X156499205Y-105483813D01*
X156506397Y-105423052D01*
X156547930Y-105378122D01*
X156596303Y-105365500D01*
X156674673Y-105365500D01*
X156674674Y-105365500D01*
X156747740Y-105350966D01*
X156830601Y-105295601D01*
X156885966Y-105212740D01*
X156900500Y-105139674D01*
X156900500Y-104390326D01*
X156885966Y-104317260D01*
X156830601Y-104234399D01*
X156830599Y-104234397D01*
X156747742Y-104179035D01*
X156747740Y-104179034D01*
X156747737Y-104179033D01*
X156747736Y-104179033D01*
X156674684Y-104164501D01*
X156674674Y-104164500D01*
X156674673Y-104164500D01*
X155015835Y-104164500D01*
X155008237Y-104162031D01*
X155000348Y-104163281D01*
X154979692Y-104152756D01*
X154957644Y-104145593D01*
X154945831Y-104135504D01*
X154854496Y-104044169D01*
X154826719Y-103989652D01*
X154825500Y-103974165D01*
X154825500Y-102263456D01*
X160035500Y-102263456D01*
X160035500Y-102460543D01*
X160050878Y-102537853D01*
X160067084Y-102619325D01*
X160073949Y-102653834D01*
X160073949Y-102653836D01*
X160149367Y-102835913D01*
X160178179Y-102879033D01*
X160258861Y-102999782D01*
X160398218Y-103139139D01*
X160562086Y-103248632D01*
X160744165Y-103324051D01*
X160937459Y-103362500D01*
X160937460Y-103362500D01*
X161134540Y-103362500D01*
X161134541Y-103362500D01*
X161327835Y-103324051D01*
X161509914Y-103248632D01*
X161673782Y-103139139D01*
X161813139Y-102999782D01*
X161922632Y-102835914D01*
X161998051Y-102653835D01*
X162036500Y-102460541D01*
X162036500Y-102263459D01*
X161998051Y-102070165D01*
X161922632Y-101888086D01*
X161813139Y-101724218D01*
X161673782Y-101584861D01*
X161552698Y-101503955D01*
X161509913Y-101475367D01*
X161327835Y-101399949D01*
X161134543Y-101361500D01*
X161134541Y-101361500D01*
X160937459Y-101361500D01*
X160937456Y-101361500D01*
X160744165Y-101399949D01*
X160744163Y-101399949D01*
X160562086Y-101475367D01*
X160398218Y-101584861D01*
X160398214Y-101584864D01*
X160258864Y-101724214D01*
X160258861Y-101724218D01*
X160149367Y-101888086D01*
X160073949Y-102070163D01*
X160073949Y-102070165D01*
X160035500Y-102263456D01*
X154825500Y-102263456D01*
X154825500Y-101957148D01*
X154825500Y-101957147D01*
X154807391Y-101889562D01*
X154807391Y-101889561D01*
X154807391Y-101889560D01*
X154803319Y-101874366D01*
X154803318Y-101874361D01*
X154781891Y-101837250D01*
X154760465Y-101800138D01*
X154699862Y-101739535D01*
X154699859Y-101739533D01*
X154596348Y-101636022D01*
X154496430Y-101536103D01*
X154468653Y-101481587D01*
X154478224Y-101421155D01*
X154521489Y-101377890D01*
X154566434Y-101367100D01*
X155512963Y-101367100D01*
X155512963Y-101367099D01*
X155589389Y-101346621D01*
X155657911Y-101307060D01*
X155713860Y-101251111D01*
X158014459Y-98950510D01*
X160889500Y-98950510D01*
X160889500Y-99169490D01*
X160916774Y-99376659D01*
X160918082Y-99386590D01*
X160918082Y-99386595D01*
X160974758Y-99598116D01*
X161058557Y-99800423D01*
X161084147Y-99844747D01*
X161160293Y-99976636D01*
X161168052Y-99990074D01*
X161301351Y-100163793D01*
X161301353Y-100163795D01*
X161301357Y-100163800D01*
X161456200Y-100318643D01*
X161456204Y-100318646D01*
X161456206Y-100318648D01*
X161626615Y-100449407D01*
X161629929Y-100451950D01*
X161819572Y-100561440D01*
X161819573Y-100561440D01*
X161819576Y-100561442D01*
X162010442Y-100640502D01*
X162021883Y-100645241D01*
X162233402Y-100701917D01*
X162450510Y-100730500D01*
X162450511Y-100730500D01*
X162669489Y-100730500D01*
X162669490Y-100730500D01*
X162886598Y-100701917D01*
X163098117Y-100645241D01*
X163300428Y-100561440D01*
X163490071Y-100451950D01*
X163663800Y-100318643D01*
X163818643Y-100163800D01*
X163951950Y-99990071D01*
X164061440Y-99800428D01*
X164145241Y-99598117D01*
X164201917Y-99386598D01*
X164230500Y-99169490D01*
X164230500Y-98950510D01*
X164201917Y-98733402D01*
X164145241Y-98521883D01*
X164070023Y-98340292D01*
X164061442Y-98319576D01*
X164035852Y-98275252D01*
X163951950Y-98129929D01*
X163949617Y-98126888D01*
X163818648Y-97956206D01*
X163818646Y-97956204D01*
X163818643Y-97956200D01*
X163663800Y-97801357D01*
X163663795Y-97801353D01*
X163663793Y-97801351D01*
X163490074Y-97668052D01*
X163433491Y-97635384D01*
X163356768Y-97591088D01*
X163300423Y-97558557D01*
X163098116Y-97474758D01*
X162953641Y-97436047D01*
X162886598Y-97418083D01*
X162886595Y-97418082D01*
X162886593Y-97418082D01*
X162669490Y-97389500D01*
X162450510Y-97389500D01*
X162450509Y-97389500D01*
X162233409Y-97418082D01*
X162233404Y-97418082D01*
X162021883Y-97474758D01*
X161819576Y-97558557D01*
X161629925Y-97668052D01*
X161456206Y-97801351D01*
X161301351Y-97956206D01*
X161168052Y-98129925D01*
X161058557Y-98319576D01*
X160974758Y-98521883D01*
X160918082Y-98733404D01*
X160918082Y-98733409D01*
X160891801Y-98933036D01*
X160889500Y-98950510D01*
X158014459Y-98950510D01*
X158199708Y-98765261D01*
X158254223Y-98737486D01*
X158307595Y-98743802D01*
X158443580Y-98800130D01*
X158646535Y-98840500D01*
X158646536Y-98840500D01*
X158853464Y-98840500D01*
X158853465Y-98840500D01*
X159056420Y-98800130D01*
X159247598Y-98720941D01*
X159419655Y-98605977D01*
X159565977Y-98459655D01*
X159680941Y-98287598D01*
X159760130Y-98096420D01*
X159800500Y-97893465D01*
X159800500Y-97686535D01*
X159760130Y-97483580D01*
X159680941Y-97292402D01*
X159565977Y-97120345D01*
X159535133Y-97089501D01*
X159507358Y-97034987D01*
X159516929Y-96974555D01*
X159560194Y-96931290D01*
X159605139Y-96920500D01*
X162502417Y-96920500D01*
X162556759Y-96920500D01*
X162563234Y-96920712D01*
G37*
%TD.AperFunction*%
%TA.AperFunction,Conductor*%
G36*
X129523691Y-111296307D02*
G01*
X129559655Y-111345807D01*
X129564500Y-111376400D01*
X129564500Y-111678564D01*
X129584978Y-111754988D01*
X129584979Y-111754989D01*
X129596353Y-111774689D01*
X129624540Y-111823511D01*
X129624542Y-111823513D01*
X129626236Y-111826447D01*
X129639500Y-111875948D01*
X129639500Y-112295520D01*
X129639501Y-112295523D01*
X129654352Y-112389299D01*
X129654354Y-112389304D01*
X129711950Y-112502342D01*
X129801658Y-112592050D01*
X129801660Y-112592051D01*
X129801661Y-112592052D01*
X129810444Y-112596527D01*
X129853709Y-112639790D01*
X129864500Y-112684737D01*
X129864500Y-112890435D01*
X129871254Y-112915645D01*
X129890089Y-112985937D01*
X129890091Y-112985941D01*
X129939525Y-113071563D01*
X129939526Y-113071563D01*
X130948438Y-114080475D01*
X130948440Y-114080476D01*
X130948441Y-114080477D01*
X130948442Y-114080478D01*
X131034059Y-114129909D01*
X131034057Y-114129909D01*
X131034061Y-114129910D01*
X131034063Y-114129911D01*
X131129564Y-114155500D01*
X131129565Y-114155500D01*
X131129566Y-114155500D01*
X131135832Y-114157179D01*
X131135230Y-114159422D01*
X131181257Y-114181365D01*
X131193212Y-114194994D01*
X131195686Y-114198399D01*
X131195687Y-114198400D01*
X131195689Y-114198403D01*
X131282597Y-114285311D01*
X131392107Y-114341109D01*
X131396445Y-114343319D01*
X131439710Y-114386584D01*
X131450500Y-114431529D01*
X131450500Y-115100500D01*
X131431593Y-115158691D01*
X131382093Y-115194655D01*
X131351500Y-115199500D01*
X126533500Y-115199500D01*
X126475309Y-115180593D01*
X126439345Y-115131093D01*
X126434500Y-115100500D01*
X126434500Y-113557944D01*
X126453407Y-113499753D01*
X126463490Y-113487946D01*
X126991941Y-112959494D01*
X127046458Y-112931718D01*
X127061945Y-112930499D01*
X127535521Y-112930499D01*
X127535522Y-112930498D01*
X127582411Y-112923072D01*
X127629299Y-112915647D01*
X127629299Y-112915646D01*
X127629304Y-112915646D01*
X127742342Y-112858050D01*
X127832050Y-112768342D01*
X127889646Y-112655304D01*
X127904500Y-112561519D01*
X127904499Y-112251413D01*
X127923406Y-112193224D01*
X127933488Y-112181417D01*
X128805460Y-111309447D01*
X128805461Y-111309444D01*
X128808510Y-111306396D01*
X128863027Y-111278619D01*
X128878514Y-111277400D01*
X129465500Y-111277400D01*
X129523691Y-111296307D01*
G37*
%TD.AperFunction*%
%TA.AperFunction,Conductor*%
G36*
X141136744Y-103055068D02*
G01*
X141167337Y-103108056D01*
X141169500Y-103128640D01*
X141169500Y-103565824D01*
X141150593Y-103624015D01*
X141101093Y-103659979D01*
X141039907Y-103659979D01*
X141021000Y-103651561D01*
X140938136Y-103603719D01*
X140889345Y-103590646D01*
X140791766Y-103564500D01*
X140640234Y-103564500D01*
X140550652Y-103588503D01*
X140493860Y-103603720D01*
X140362639Y-103679481D01*
X140255481Y-103786639D01*
X140179720Y-103917860D01*
X140179719Y-103917865D01*
X140140500Y-104064234D01*
X140140500Y-104215766D01*
X140175086Y-104344847D01*
X140179720Y-104362139D01*
X140255481Y-104493360D01*
X140255483Y-104493362D01*
X140255485Y-104493365D01*
X140362635Y-104600515D01*
X140362637Y-104600516D01*
X140362639Y-104600518D01*
X140493861Y-104676279D01*
X140493859Y-104676279D01*
X140493863Y-104676280D01*
X140493865Y-104676281D01*
X140640234Y-104715500D01*
X140640236Y-104715500D01*
X140791764Y-104715500D01*
X140791766Y-104715500D01*
X140938135Y-104676281D01*
X141020999Y-104628438D01*
X141080848Y-104615717D01*
X141136743Y-104640603D01*
X141167336Y-104693591D01*
X141169500Y-104714175D01*
X141169500Y-115100500D01*
X141150593Y-115158691D01*
X141101093Y-115194655D01*
X141070500Y-115199500D01*
X132300500Y-115199500D01*
X132242309Y-115180593D01*
X132206345Y-115131093D01*
X132201500Y-115100500D01*
X132201500Y-114431528D01*
X132220407Y-114373337D01*
X132255555Y-114343318D01*
X132259889Y-114341109D01*
X132259893Y-114341109D01*
X132369403Y-114285311D01*
X132456311Y-114198403D01*
X132512109Y-114088893D01*
X132526500Y-113998033D01*
X132526499Y-113561968D01*
X132512109Y-113471107D01*
X132512106Y-113471102D01*
X132512106Y-113471100D01*
X132456312Y-113361599D01*
X132456311Y-113361597D01*
X132369403Y-113274689D01*
X132369400Y-113274687D01*
X132259896Y-113218892D01*
X132259894Y-113218891D01*
X132169034Y-113204500D01*
X131482965Y-113204500D01*
X131392107Y-113218891D01*
X131392102Y-113218892D01*
X131295097Y-113268318D01*
X131234665Y-113277889D01*
X131180149Y-113250112D01*
X130669804Y-112739767D01*
X130642027Y-112685250D01*
X130651598Y-112624818D01*
X130673936Y-112598663D01*
X130672832Y-112597559D01*
X130678339Y-112592051D01*
X130678342Y-112592050D01*
X130768050Y-112502342D01*
X130825646Y-112389304D01*
X130840500Y-112295519D01*
X130840499Y-111958476D01*
X130847662Y-111936430D01*
X130851289Y-111913533D01*
X130856937Y-111907884D01*
X130859406Y-111900287D01*
X130878162Y-111886659D01*
X130894554Y-111870268D01*
X130902443Y-111869018D01*
X130908906Y-111864323D01*
X130932091Y-111864323D01*
X130954986Y-111860697D01*
X130962103Y-111864323D01*
X130970091Y-111864323D01*
X131009503Y-111888474D01*
X131097692Y-111976663D01*
X131125469Y-112031180D01*
X131125472Y-112058057D01*
X131125805Y-112058084D01*
X131125500Y-112061961D01*
X131125500Y-112498034D01*
X131139891Y-112588892D01*
X131139893Y-112588899D01*
X131195687Y-112698400D01*
X131195689Y-112698403D01*
X131282597Y-112785311D01*
X131392107Y-112841109D01*
X131482967Y-112855500D01*
X132169032Y-112855499D01*
X132169034Y-112855499D01*
X132188543Y-112852408D01*
X132259893Y-112841109D01*
X132369403Y-112785311D01*
X132456311Y-112698403D01*
X132512109Y-112588893D01*
X132526500Y-112498033D01*
X132526500Y-112413500D01*
X132545407Y-112355309D01*
X132594907Y-112319345D01*
X132625500Y-112314500D01*
X132627563Y-112314500D01*
X132627563Y-112314499D01*
X132703989Y-112294021D01*
X132772511Y-112254460D01*
X132828460Y-112198511D01*
X134098460Y-110928511D01*
X134108823Y-110910562D01*
X134138021Y-110859989D01*
X134158500Y-110783562D01*
X134158500Y-110530193D01*
X134177407Y-110472002D01*
X134208004Y-110444454D01*
X134211365Y-110442515D01*
X134318515Y-110335365D01*
X134324058Y-110325764D01*
X134394279Y-110204139D01*
X134394279Y-110204137D01*
X134394281Y-110204135D01*
X134433500Y-110057766D01*
X134433500Y-109906234D01*
X134394281Y-109759865D01*
X134394279Y-109759862D01*
X134394279Y-109759860D01*
X134318518Y-109628639D01*
X134318516Y-109628637D01*
X134318515Y-109628635D01*
X134211365Y-109521485D01*
X134211362Y-109521483D01*
X134211360Y-109521481D01*
X134080138Y-109445720D01*
X134080140Y-109445720D01*
X134021817Y-109430093D01*
X133933766Y-109406500D01*
X133782234Y-109406500D01*
X133709049Y-109426109D01*
X133635863Y-109445719D01*
X133545000Y-109498180D01*
X133485152Y-109510901D01*
X133429256Y-109486014D01*
X133398663Y-109433026D01*
X133396500Y-109412443D01*
X133396500Y-106845477D01*
X133398966Y-106837886D01*
X133397717Y-106830005D01*
X133408239Y-106809344D01*
X133415407Y-106787286D01*
X133425482Y-106775488D01*
X133428845Y-106772125D01*
X133483354Y-106744341D01*
X133524483Y-106746494D01*
X133528234Y-106747500D01*
X133528235Y-106747500D01*
X133679764Y-106747500D01*
X133679766Y-106747500D01*
X133826135Y-106708281D01*
X133826137Y-106708279D01*
X133826139Y-106708279D01*
X133957360Y-106632518D01*
X133957360Y-106632517D01*
X133957365Y-106632515D01*
X134064515Y-106525365D01*
X134069195Y-106517260D01*
X134117034Y-106434399D01*
X134140281Y-106394135D01*
X134154413Y-106341392D01*
X134187734Y-106290081D01*
X134244855Y-106268153D01*
X134303955Y-106283987D01*
X134320042Y-106297013D01*
X135649540Y-107626511D01*
X135649539Y-107626511D01*
X135705489Y-107682460D01*
X135774007Y-107722019D01*
X135774011Y-107722021D01*
X135850435Y-107742499D01*
X135850437Y-107742500D01*
X135850438Y-107742500D01*
X137453563Y-107742500D01*
X137453563Y-107742499D01*
X137529989Y-107722021D01*
X137598511Y-107682460D01*
X137654460Y-107626511D01*
X138375460Y-106905511D01*
X138399131Y-106864511D01*
X138415021Y-106836989D01*
X138435500Y-106760562D01*
X138435500Y-106498478D01*
X138454407Y-106440287D01*
X138464490Y-106428480D01*
X138487206Y-106405765D01*
X138532585Y-106302991D01*
X138535500Y-106277865D01*
X138535499Y-105211678D01*
X138554406Y-105153488D01*
X138564496Y-105141675D01*
X138619660Y-105086511D01*
X139105656Y-104600515D01*
X140566255Y-103139914D01*
X140620770Y-103112139D01*
X140661882Y-103114294D01*
X140665634Y-103115300D01*
X140665637Y-103115300D01*
X140817164Y-103115300D01*
X140817166Y-103115300D01*
X140963535Y-103076081D01*
X140963537Y-103076079D01*
X140963539Y-103076079D01*
X141021000Y-103042904D01*
X141080848Y-103030182D01*
X141136744Y-103055068D01*
G37*
%TD.AperFunction*%
%TA.AperFunction,Conductor*%
G36*
X157375721Y-108459407D02*
G01*
X157387534Y-108469496D01*
X159595504Y-110677466D01*
X159623281Y-110731983D01*
X159624500Y-110747470D01*
X159624500Y-113953455D01*
X159605593Y-114011646D01*
X159595504Y-114023459D01*
X158673459Y-114945504D01*
X158618942Y-114973281D01*
X158603455Y-114974500D01*
X151479388Y-114974500D01*
X151421197Y-114955593D01*
X151409385Y-114945504D01*
X151353365Y-114889485D01*
X151353360Y-114889481D01*
X151222138Y-114813720D01*
X151222140Y-114813720D01*
X151165347Y-114798503D01*
X151075766Y-114774500D01*
X150924234Y-114774500D01*
X150834652Y-114798503D01*
X150777860Y-114813720D01*
X150646639Y-114889481D01*
X150539483Y-114996637D01*
X150492236Y-115078471D01*
X150446766Y-115119411D01*
X150385916Y-115125806D01*
X150332928Y-115095213D01*
X150308042Y-115039318D01*
X150307500Y-115028970D01*
X150307500Y-112821029D01*
X150326407Y-112762838D01*
X150375907Y-112726874D01*
X150437093Y-112726874D01*
X150486593Y-112762838D01*
X150492236Y-112771529D01*
X150539481Y-112853360D01*
X150539483Y-112853362D01*
X150539485Y-112853365D01*
X150646635Y-112960515D01*
X150646637Y-112960516D01*
X150646639Y-112960518D01*
X150777861Y-113036279D01*
X150777859Y-113036279D01*
X150777863Y-113036280D01*
X150777865Y-113036281D01*
X150924234Y-113075500D01*
X150924236Y-113075500D01*
X151075764Y-113075500D01*
X151075766Y-113075500D01*
X151222135Y-113036281D01*
X151222137Y-113036279D01*
X151222139Y-113036279D01*
X151353360Y-112960518D01*
X151353360Y-112960517D01*
X151353365Y-112960515D01*
X151460515Y-112853365D01*
X151482665Y-112815000D01*
X151528133Y-112774060D01*
X151568401Y-112765500D01*
X154403498Y-112765500D01*
X154461689Y-112784407D01*
X154497653Y-112833907D01*
X154500595Y-112845184D01*
X154514033Y-112912737D01*
X154514035Y-112912742D01*
X154569397Y-112995599D01*
X154569399Y-112995601D01*
X154652260Y-113050966D01*
X154707808Y-113062015D01*
X154725315Y-113065498D01*
X154725320Y-113065498D01*
X154725326Y-113065500D01*
X154725327Y-113065500D01*
X156674673Y-113065500D01*
X156674674Y-113065500D01*
X156747740Y-113050966D01*
X156830601Y-112995601D01*
X156885966Y-112912740D01*
X156900500Y-112839674D01*
X156900500Y-112090326D01*
X156885966Y-112017260D01*
X156885964Y-112017257D01*
X156885964Y-112017256D01*
X156858840Y-111976663D01*
X156854388Y-111970000D01*
X156837780Y-111911114D01*
X156854388Y-111860000D01*
X156885966Y-111812740D01*
X156900500Y-111739674D01*
X156900500Y-110990326D01*
X156885966Y-110917260D01*
X156863010Y-110882903D01*
X156830602Y-110834400D01*
X156830599Y-110834397D01*
X156747742Y-110779035D01*
X156747740Y-110779034D01*
X156747737Y-110779033D01*
X156747736Y-110779033D01*
X156674684Y-110764501D01*
X156674674Y-110764500D01*
X154725326Y-110764500D01*
X154725325Y-110764500D01*
X154725315Y-110764501D01*
X154652263Y-110779033D01*
X154652257Y-110779035D01*
X154569400Y-110834397D01*
X154569397Y-110834400D01*
X154514035Y-110917257D01*
X154514033Y-110917262D01*
X154500595Y-110984816D01*
X154470698Y-111038199D01*
X154415132Y-111063814D01*
X154403498Y-111064500D01*
X151530479Y-111064500D01*
X151472288Y-111045593D01*
X151460475Y-111035504D01*
X151100116Y-110675145D01*
X151072339Y-110620628D01*
X151074496Y-110579510D01*
X151075500Y-110575766D01*
X151075500Y-110424234D01*
X151036281Y-110277865D01*
X151036279Y-110277862D01*
X151036279Y-110277860D01*
X150960518Y-110146639D01*
X150960516Y-110146637D01*
X150960515Y-110146635D01*
X150853365Y-110039485D01*
X150853362Y-110039483D01*
X150853360Y-110039481D01*
X150722138Y-109963720D01*
X150722140Y-109963720D01*
X150665347Y-109948503D01*
X150575766Y-109924500D01*
X150424234Y-109924500D01*
X150334652Y-109948503D01*
X150277860Y-109963720D01*
X150146639Y-110039481D01*
X150146638Y-110039482D01*
X150146635Y-110039484D01*
X150146635Y-110039485D01*
X150075501Y-110110618D01*
X150020987Y-110138394D01*
X149960555Y-110128823D01*
X149917290Y-110085558D01*
X149906500Y-110040613D01*
X149906500Y-109459387D01*
X149925407Y-109401196D01*
X149974907Y-109365232D01*
X150036093Y-109365232D01*
X150075501Y-109389381D01*
X150146635Y-109460515D01*
X150146637Y-109460516D01*
X150146639Y-109460518D01*
X150277861Y-109536279D01*
X150277859Y-109536279D01*
X150277863Y-109536280D01*
X150277865Y-109536281D01*
X150424234Y-109575500D01*
X150424236Y-109575500D01*
X150575764Y-109575500D01*
X150575766Y-109575500D01*
X150722135Y-109536281D01*
X150821758Y-109478763D01*
X150871257Y-109465500D01*
X154403498Y-109465500D01*
X154461689Y-109484407D01*
X154497653Y-109533907D01*
X154500595Y-109545184D01*
X154514033Y-109612737D01*
X154514035Y-109612742D01*
X154569397Y-109695599D01*
X154569400Y-109695602D01*
X154578067Y-109701393D01*
X154652260Y-109750966D01*
X154707808Y-109762015D01*
X154725315Y-109765498D01*
X154725320Y-109765498D01*
X154725326Y-109765500D01*
X154725327Y-109765500D01*
X156674673Y-109765500D01*
X156674674Y-109765500D01*
X156747740Y-109750966D01*
X156830601Y-109695601D01*
X156885966Y-109612740D01*
X156900500Y-109539674D01*
X156900500Y-108790326D01*
X156894336Y-108759339D01*
X156901525Y-108698580D01*
X156940008Y-108656945D01*
X156939633Y-108656383D01*
X156941975Y-108654817D01*
X156943056Y-108653649D01*
X156945494Y-108652466D01*
X156947738Y-108650966D01*
X156947740Y-108650966D01*
X157030601Y-108595601D01*
X157085966Y-108512740D01*
X157085966Y-108512737D01*
X157087427Y-108509212D01*
X157087427Y-108508907D01*
X157087721Y-108508502D01*
X157089696Y-108503734D01*
X157090840Y-108504208D01*
X157102144Y-108488650D01*
X157114371Y-108466811D01*
X157119846Y-108464286D01*
X157123391Y-108459407D01*
X157147203Y-108451670D01*
X157169933Y-108441188D01*
X157181582Y-108440500D01*
X157317530Y-108440500D01*
X157375721Y-108459407D01*
G37*
%TD.AperFunction*%
%TA.AperFunction,Conductor*%
G36*
X125839712Y-105729407D02*
G01*
X125875676Y-105778907D01*
X125875676Y-105840093D01*
X125851525Y-105879504D01*
X123610525Y-108120504D01*
X123556008Y-108148281D01*
X123540521Y-108149500D01*
X122563041Y-108149500D01*
X122504850Y-108130593D01*
X122468886Y-108081093D01*
X122468886Y-108019907D01*
X122504850Y-107970407D01*
X122513535Y-107964767D01*
X122542716Y-107947920D01*
X122654520Y-107836116D01*
X122733577Y-107699184D01*
X122774500Y-107546457D01*
X122774500Y-107388343D01*
X122733577Y-107235616D01*
X122654520Y-107098684D01*
X122542716Y-106986880D01*
X122405784Y-106907823D01*
X122253057Y-106866900D01*
X122094943Y-106866900D01*
X121942216Y-106907823D01*
X121807500Y-106985601D01*
X121805281Y-106986882D01*
X121746659Y-107045504D01*
X121692142Y-107073281D01*
X121676656Y-107074500D01*
X120666589Y-107074500D01*
X120608398Y-107055593D01*
X120596586Y-107045504D01*
X120561884Y-107010803D01*
X120561883Y-107010802D01*
X120512954Y-106986882D01*
X120456795Y-106959427D01*
X120429539Y-106955456D01*
X120388660Y-106949500D01*
X119072140Y-106949500D01*
X119038073Y-106954463D01*
X119004004Y-106959427D01*
X118898918Y-107010801D01*
X118898917Y-107010801D01*
X118898917Y-107010802D01*
X118833501Y-107076217D01*
X118778987Y-107103993D01*
X118718555Y-107094422D01*
X118675290Y-107051157D01*
X118664500Y-107006212D01*
X118664500Y-106337479D01*
X118683407Y-106279288D01*
X118693496Y-106267475D01*
X119221475Y-105739496D01*
X119275992Y-105711719D01*
X119291479Y-105710500D01*
X125781521Y-105710500D01*
X125839712Y-105729407D01*
G37*
%TD.AperFunction*%
%TA.AperFunction,Conductor*%
G36*
X141216867Y-99394407D02*
G01*
X141252831Y-99443907D01*
X141252831Y-99505093D01*
X141246399Y-99520388D01*
X141245744Y-99521639D01*
X141245743Y-99521641D01*
X141229862Y-99552001D01*
X141199533Y-99609978D01*
X141199533Y-99609979D01*
X141179853Y-99677002D01*
X141179848Y-99677022D01*
X141177323Y-99694589D01*
X141173486Y-99702393D01*
X141173486Y-99711093D01*
X141160255Y-99729303D01*
X141150327Y-99749497D01*
X141142634Y-99753555D01*
X141137522Y-99760593D01*
X141116116Y-99767547D01*
X141096213Y-99778050D01*
X141079331Y-99779500D01*
X140987039Y-99779500D01*
X140928848Y-99760593D01*
X140904723Y-99735501D01*
X140880601Y-99699399D01*
X140880599Y-99699397D01*
X140797742Y-99644035D01*
X140797740Y-99644034D01*
X140797737Y-99644033D01*
X140797736Y-99644033D01*
X140724684Y-99629501D01*
X140724674Y-99629500D01*
X140225326Y-99629500D01*
X140225325Y-99629500D01*
X140225315Y-99629501D01*
X140152263Y-99644033D01*
X140152257Y-99644035D01*
X140061291Y-99704816D01*
X140060502Y-99703635D01*
X140015487Y-99726571D01*
X139955055Y-99717000D01*
X139933427Y-99701287D01*
X139847742Y-99644035D01*
X139847740Y-99644034D01*
X139847737Y-99644033D01*
X139847736Y-99644033D01*
X139774684Y-99629501D01*
X139774674Y-99629500D01*
X139275326Y-99629500D01*
X139275325Y-99629500D01*
X139275315Y-99629501D01*
X139202263Y-99644033D01*
X139202257Y-99644035D01*
X139119400Y-99699397D01*
X139119397Y-99699400D01*
X139064035Y-99782257D01*
X139064033Y-99782263D01*
X139049501Y-99855315D01*
X139049500Y-99855327D01*
X139049500Y-100354672D01*
X139049501Y-100354684D01*
X139064033Y-100427736D01*
X139064035Y-100427742D01*
X139119397Y-100510599D01*
X139119400Y-100510602D01*
X139156321Y-100535271D01*
X139202260Y-100565966D01*
X139257808Y-100577015D01*
X139275315Y-100580498D01*
X139275320Y-100580498D01*
X139275326Y-100580500D01*
X139275327Y-100580500D01*
X139774673Y-100580500D01*
X139774674Y-100580500D01*
X139847740Y-100565966D01*
X139930601Y-100510601D01*
X139930601Y-100510600D01*
X139935062Y-100507620D01*
X139993950Y-100491012D01*
X140051354Y-100512190D01*
X140085346Y-100563064D01*
X140082944Y-100624202D01*
X140072379Y-100644936D01*
X140014036Y-100732254D01*
X140014033Y-100732263D01*
X139999501Y-100805315D01*
X139999500Y-100805327D01*
X139999500Y-101304681D01*
X139999799Y-101306180D01*
X139999716Y-101306874D01*
X139999977Y-101309518D01*
X139999397Y-101309575D01*
X139992612Y-101366941D01*
X139951082Y-101411874D01*
X139902703Y-101424500D01*
X138501835Y-101424500D01*
X138443644Y-101405593D01*
X138431831Y-101395504D01*
X138103024Y-101066697D01*
X138075247Y-101012180D01*
X138084818Y-100951748D01*
X138103021Y-100926692D01*
X138161311Y-100868403D01*
X138217109Y-100758893D01*
X138231500Y-100668033D01*
X138231499Y-99981968D01*
X138230654Y-99976635D01*
X138226863Y-99952700D01*
X138217109Y-99891107D01*
X138217106Y-99891102D01*
X138217106Y-99891100D01*
X138161312Y-99781599D01*
X138161311Y-99781597D01*
X138074403Y-99694689D01*
X138074400Y-99694687D01*
X137964896Y-99638892D01*
X137964894Y-99638891D01*
X137874035Y-99624500D01*
X137638977Y-99624500D01*
X137616926Y-99617335D01*
X137594031Y-99613709D01*
X137588383Y-99608061D01*
X137580786Y-99605593D01*
X137567157Y-99586834D01*
X137550767Y-99570444D01*
X137549517Y-99562556D01*
X137544822Y-99556093D01*
X137544822Y-99532906D01*
X137541196Y-99510012D01*
X137544822Y-99502895D01*
X137544822Y-99494907D01*
X137568972Y-99455497D01*
X137619975Y-99404496D01*
X137674492Y-99376719D01*
X137689978Y-99375500D01*
X141158676Y-99375500D01*
X141216867Y-99394407D01*
G37*
%TD.AperFunction*%
%TA.AperFunction,Conductor*%
G36*
X150333052Y-96939407D02*
G01*
X150369016Y-96988907D01*
X150369016Y-97050093D01*
X150344866Y-97089501D01*
X150314023Y-97120345D01*
X150314020Y-97120348D01*
X150199058Y-97292402D01*
X150119869Y-97483581D01*
X150079500Y-97686532D01*
X150079500Y-97893467D01*
X150119869Y-98096418D01*
X150199058Y-98287597D01*
X150283767Y-98414374D01*
X150314023Y-98459655D01*
X150460345Y-98605977D01*
X150632402Y-98720941D01*
X150823580Y-98800130D01*
X151026535Y-98840500D01*
X151026536Y-98840500D01*
X151233464Y-98840500D01*
X151233465Y-98840500D01*
X151436420Y-98800130D01*
X151627598Y-98720941D01*
X151799655Y-98605977D01*
X151945977Y-98459655D01*
X152060941Y-98287598D01*
X152140130Y-98096420D01*
X152180500Y-97893465D01*
X152180500Y-97686535D01*
X152140130Y-97483580D01*
X152060941Y-97292402D01*
X151945977Y-97120345D01*
X151915133Y-97089501D01*
X151887358Y-97034987D01*
X151896929Y-96974555D01*
X151940194Y-96931290D01*
X151985139Y-96920500D01*
X152814861Y-96920500D01*
X152873052Y-96939407D01*
X152909016Y-96988907D01*
X152909016Y-97050093D01*
X152884866Y-97089501D01*
X152854023Y-97120345D01*
X152854020Y-97120348D01*
X152739058Y-97292402D01*
X152659869Y-97483581D01*
X152619500Y-97686532D01*
X152619500Y-97893467D01*
X152659869Y-98096418D01*
X152739058Y-98287597D01*
X152823767Y-98414374D01*
X152854023Y-98459655D01*
X153000345Y-98605977D01*
X153172402Y-98720941D01*
X153363580Y-98800130D01*
X153566535Y-98840500D01*
X153566536Y-98840500D01*
X153773464Y-98840500D01*
X153773465Y-98840500D01*
X153976420Y-98800130D01*
X154167598Y-98720941D01*
X154339655Y-98605977D01*
X154485977Y-98459655D01*
X154600941Y-98287598D01*
X154680130Y-98096420D01*
X154720500Y-97893465D01*
X154720500Y-97686535D01*
X154680130Y-97483580D01*
X154600941Y-97292402D01*
X154485977Y-97120345D01*
X154455133Y-97089501D01*
X154427358Y-97034987D01*
X154436929Y-96974555D01*
X154480194Y-96931290D01*
X154525139Y-96920500D01*
X155354861Y-96920500D01*
X155413052Y-96939407D01*
X155449016Y-96988907D01*
X155449016Y-97050093D01*
X155424866Y-97089501D01*
X155394023Y-97120345D01*
X155394020Y-97120348D01*
X155279058Y-97292402D01*
X155199869Y-97483581D01*
X155159500Y-97686532D01*
X155159500Y-97893467D01*
X155199869Y-98096418D01*
X155256196Y-98232402D01*
X155260997Y-98293399D01*
X155234736Y-98340292D01*
X153574525Y-100000504D01*
X153520008Y-100028281D01*
X153504521Y-100029500D01*
X146521994Y-100029500D01*
X146463803Y-100010593D01*
X146436255Y-99979996D01*
X146434315Y-99976635D01*
X146327165Y-99869485D01*
X146327162Y-99869483D01*
X146327160Y-99869481D01*
X146195938Y-99793720D01*
X146195940Y-99793720D01*
X146137457Y-99778050D01*
X146049566Y-99754500D01*
X145898034Y-99754500D01*
X145810143Y-99778050D01*
X145751660Y-99793720D01*
X145620439Y-99869481D01*
X145513284Y-99976636D01*
X145511345Y-99979996D01*
X145465877Y-100020939D01*
X145425606Y-100029500D01*
X144167582Y-100029500D01*
X144109391Y-100010593D01*
X144073427Y-99961093D01*
X144069801Y-99945987D01*
X144066480Y-99925023D01*
X144061109Y-99891107D01*
X144061106Y-99891102D01*
X144061106Y-99891100D01*
X144005312Y-99781599D01*
X144005311Y-99781597D01*
X143918403Y-99694689D01*
X143918400Y-99694687D01*
X143808896Y-99638892D01*
X143808894Y-99638891D01*
X143718034Y-99624500D01*
X143281965Y-99624500D01*
X143191107Y-99638891D01*
X143191100Y-99638893D01*
X143081599Y-99694687D01*
X143081594Y-99694691D01*
X143060368Y-99715917D01*
X143005851Y-99743693D01*
X142945419Y-99734121D01*
X142902156Y-99690855D01*
X142899979Y-99686301D01*
X142895804Y-99676957D01*
X142888455Y-99643176D01*
X142881219Y-99616802D01*
X142831888Y-99530172D01*
X142828431Y-99526183D01*
X142823385Y-99514889D01*
X142821124Y-99493657D01*
X142814780Y-99473273D01*
X142817956Y-99463894D01*
X142816908Y-99454047D01*
X142827558Y-99435541D01*
X142834407Y-99415321D01*
X142842489Y-99409600D01*
X142847429Y-99401018D01*
X142866921Y-99392307D01*
X142884349Y-99379973D01*
X142899772Y-99377628D01*
X142903291Y-99376056D01*
X142906147Y-99376659D01*
X142913772Y-99375500D01*
X147344563Y-99375500D01*
X147344563Y-99375499D01*
X147420989Y-99355021D01*
X147489511Y-99315460D01*
X147530471Y-99274500D01*
X147545461Y-99259511D01*
X148039706Y-98765264D01*
X148094223Y-98737486D01*
X148147595Y-98743802D01*
X148283580Y-98800130D01*
X148486535Y-98840500D01*
X148486536Y-98840500D01*
X148693464Y-98840500D01*
X148693465Y-98840500D01*
X148896420Y-98800130D01*
X149087598Y-98720941D01*
X149259655Y-98605977D01*
X149405977Y-98459655D01*
X149520941Y-98287598D01*
X149600130Y-98096420D01*
X149640500Y-97893465D01*
X149640500Y-97686535D01*
X149600130Y-97483580D01*
X149520941Y-97292402D01*
X149405977Y-97120345D01*
X149375133Y-97089501D01*
X149347358Y-97034987D01*
X149356929Y-96974555D01*
X149400194Y-96931290D01*
X149445139Y-96920500D01*
X150274861Y-96920500D01*
X150333052Y-96939407D01*
G37*
%TD.AperFunction*%
%TD*%
M02*
