M48
; DRILL file {KiCad 9.0.3} date 2025-08-05T15:22:28-0400
; FORMAT={-:-/ absolute / inch / decimal}
; #@! TF.CreationDate,2025-08-05T15:22:28-04:00
; #@! TF.GenerationSoftware,Kicad,Pcbnew,9.0.3
; #@! TF.FileFunction,Plated,1,2,PTH
FMAT,2
INCH
; #@! TA.AperFunction,Plated,PTH,ViaDrill
T1C0.0138
; #@! TA.AperFunction,Plated,PTH,ViaDrill
T2C0.0157
; #@! TA.AperFunction,Plated,PTH,ComponentDrill
T3C0.0394
; #@! TA.AperFunction,Plated,PTH,ComponentDrill
T4C0.1000
%
G90
G05
T1
X4.6Y-4.0
X4.6Y-4.1
X4.6Y-4.2
X4.6Y-4.3
X4.6Y-4.4
X4.7Y-4.1
X4.7Y-4.4
X4.7Y-4.6
X4.75Y-4.05
X4.8Y-4.1
X4.8Y-4.4
X4.8Y-4.5
X4.8Y-4.6
X4.85Y-4.05
X4.9Y-4.0
X4.9Y-4.1
X4.9Y-4.2
X4.9Y-4.5
X4.9Y-4.6
X4.95Y-4.05
X5.0Y-4.6
X5.05Y-4.05
X5.072Y-4.478
X5.1Y-4.5
X5.1Y-4.6
X5.15Y-4.05
X5.25Y-3.95
X5.25Y-4.05
X5.26Y-4.18
X5.27Y-4.33
X5.3Y-4.4
X5.3Y-4.5
X5.32Y-4.12
X5.3724Y-4.032
X5.4Y-4.3
X5.4Y-4.44
X5.4Y-4.5
X5.4276Y-4.032
X5.46Y-3.975
X5.47Y-4.035
X5.5Y-4.13
X5.5Y-4.2
X5.5Y-4.3
X5.5Y-4.4
X5.5Y-4.5
X5.541Y-4.037
X5.7087Y-4.0098
X5.7283Y-4.2323
X5.7283Y-4.3406
X5.747Y-3.95
X5.748Y-4.5413
X5.7677Y-4.252
X5.7677Y-4.2913
X5.7677Y-4.3307
X5.7677Y-4.4291
X5.775Y-4.175
X5.777Y-4.0551
X5.9Y-4.1
X5.9Y-4.175
X5.9055Y-4.252
X5.9252Y-4.2913
X5.9252Y-4.3504
X5.9449Y-4.4291
X5.9449Y-4.5413
X6.0Y-3.9
X6.0Y-4.1
X6.0Y-4.35
X6.0Y-4.5
X6.0Y-4.6
X6.05Y-4.0256
X6.1Y-4.5
X6.1Y-4.6
X6.2Y-4.0
X6.2Y-4.1
X6.2Y-4.2
X6.2Y-4.6
X6.205Y-3.945
X6.205Y-4.3
X6.205Y-4.4
X6.27Y-3.995
X6.3Y-4.1
X6.3Y-4.2
X6.3Y-4.3
T2
X4.81Y-4.231
X4.81Y-4.3
T3
X4.75Y-4.65
X4.85Y-4.65
X4.95Y-4.65
X5.05Y-4.65
X5.15Y-3.85
X5.15Y-4.65
X5.25Y-3.85
X5.25Y-4.65
X5.35Y-3.85
X5.35Y-4.65
X5.45Y-3.85
X5.45Y-4.65
X5.55Y-3.85
X5.55Y-4.65
X5.65Y-3.85
X5.65Y-4.65
X5.75Y-3.85
X5.75Y-4.65
X5.85Y-3.85
X5.85Y-4.65
X5.95Y-3.85
X5.95Y-4.65
X6.05Y-3.85
X6.05Y-4.65
X6.15Y-3.85
X6.15Y-4.65
X6.25Y-3.85
X6.25Y-4.65
T4
X4.6Y-3.9
X4.6Y-4.6
M30
