%TF.GenerationSoftware,KiCad,Pcbnew,9.0.3*%
%TF.CreationDate,2025-08-05T15:22:30-04:00*%
%TF.ProjectId,weather-featherwing,77656174-6865-4722-9d66-656174686572,1.4.0*%
%TF.SameCoordinates,Original*%
%TF.FileFunction,Copper,L2,Bot*%
%TF.FilePolarity,Positive*%
%FSLAX46Y46*%
G04 Gerber Fmt 4.6, Leading zero omitted, Abs format (unit mm)*
G04 Created by KiCad (PCBNEW 9.0.3) date 2025-08-05 15:22:30*
%MOMM*%
%LPD*%
G01*
G04 APERTURE LIST*
G04 Aperture macros list*
%AMFreePoly0*
4,1,6,1.000000,0.000000,0.500000,-0.750000,-0.500000,-0.750000,-0.500000,0.750000,0.500000,0.750000,1.000000,0.000000,1.000000,0.000000,$1*%
%AMFreePoly1*
4,1,6,0.500000,-0.750000,-0.650000,-0.750000,-0.150000,0.000000,-0.650000,0.750000,0.500000,0.750000,0.500000,-0.750000,0.500000,-0.750000,$1*%
G04 Aperture macros list end*
%TA.AperFunction,ComponentPad*%
%ADD10C,3.140000*%
%TD*%
%TA.AperFunction,SMDPad,CuDef*%
%ADD11FreePoly0,0.000000*%
%TD*%
%TA.AperFunction,SMDPad,CuDef*%
%ADD12FreePoly1,0.000000*%
%TD*%
%TA.AperFunction,ComponentPad*%
%ADD13C,1.700000*%
%TD*%
%TA.AperFunction,ViaPad*%
%ADD14C,0.750000*%
%TD*%
%TA.AperFunction,Conductor*%
%ADD15C,0.350000*%
%TD*%
%TA.AperFunction,Conductor*%
%ADD16C,0.200000*%
%TD*%
G04 APERTURE END LIST*
D10*
%TO.P,H1,*%
%TO.N,*%
X116840000Y-99060000D03*
%TD*%
%TO.P,H2,*%
%TO.N,*%
X116840000Y-116840000D03*
%TD*%
D11*
%TO.P,JP1,1,A*%
%TO.N,/ADDR*%
X134403000Y-108458000D03*
D12*
%TO.P,JP1,2,B*%
%TO.N,VSS*%
X135853000Y-108458000D03*
%TD*%
D13*
%TO.P,J2,17,Pin_17*%
%TO.N,/SDA*%
X158750000Y-97790000D03*
%TO.P,J2,18,Pin_18*%
%TO.N,/SCL*%
X156210000Y-97790000D03*
%TO.P,J2,19,Pin_19*%
%TO.N,/CS_SD*%
X153670000Y-97790000D03*
%TO.P,J2,20,Pin_20*%
%TO.N,/CD*%
X151130000Y-97790000D03*
%TO.P,J2,21,Pin_21*%
%TO.N,/NP_DIN*%
X148590000Y-97790000D03*
%TO.P,J2,22,Pin_22*%
%TO.N,/D10*%
X146050000Y-97790000D03*
%TO.P,J2,23,3*%
%TO.N,/D11*%
X143510000Y-97790000D03*
%TO.P,J2,24,Pin_24*%
%TO.N,/D12*%
X140970000Y-97790000D03*
%TO.P,J2,25,Pin_25*%
%TO.N,/D13*%
X138430000Y-97790000D03*
%TO.P,J2,26,Pin_26*%
%TO.N,/USB*%
X135890000Y-97790000D03*
%TO.P,J2,27,Pin_27*%
%TO.N,/EN*%
X133350000Y-97790000D03*
%TO.P,J2,28,Pin_28*%
%TO.N,/BAT*%
X130810000Y-97790000D03*
%TD*%
%TO.P,J1,1,Pin_1*%
%TO.N,/RST*%
X120650000Y-118110000D03*
%TO.P,J1,2,Pin_2*%
%TO.N,+3V3*%
X123190000Y-118110000D03*
%TO.P,J1,3,Pin_3*%
X125730000Y-118110000D03*
%TO.P,J1,4,Pin_4*%
%TO.N,VSS*%
X128270000Y-118110000D03*
%TO.P,J1,5,Pin_5*%
%TO.N,/A0*%
X130810000Y-118110000D03*
%TO.P,J1,6,Pin_6*%
%TO.N,/A1*%
X133350000Y-118110000D03*
%TO.P,J1,7,Pin_7*%
%TO.N,/A2*%
X135890000Y-118110000D03*
%TO.P,J1,8,Pin_8*%
%TO.N,/A3*%
X138430000Y-118110000D03*
%TO.P,J1,9,Pin_9*%
%TO.N,/A4*%
X140970000Y-118110000D03*
%TO.P,J1,10,Pin_10*%
%TO.N,/A5*%
X143510000Y-118110000D03*
%TO.P,J1,11,Pin_11*%
%TO.N,/SCK*%
X146050000Y-118110000D03*
%TO.P,J1,12,Pin_12*%
%TO.N,/MOSI*%
X148590000Y-118110000D03*
%TO.P,J1,13,Pin_13*%
%TO.N,/MISO*%
X151130000Y-118110000D03*
%TO.P,J1,14,Pin_14*%
%TO.N,/RX*%
X153670000Y-118110000D03*
%TO.P,J1,15,Pin_15*%
%TO.N,/TX*%
X156210000Y-118110000D03*
%TO.P,J1,16,Pin_16*%
%TO.N,/DBG*%
X158750000Y-118110000D03*
%TD*%
D14*
%TO.N,+3V3*%
X146000000Y-115350000D03*
X151000000Y-115350000D03*
X136460000Y-102412800D03*
X122174000Y-107467400D03*
X122174000Y-109220000D03*
%TO.N,/SCK*%
X150500000Y-109000000D03*
X146500000Y-109000000D03*
%TO.N,/MOSI*%
X150000000Y-108000000D03*
X146500000Y-108000000D03*
%TO.N,/MISO*%
X150500000Y-110500000D03*
X146500000Y-110000000D03*
%TO.N,/CS_SD*%
X153670000Y-102250000D03*
%TO.N,VSS*%
X149860000Y-106045000D03*
X137160000Y-112776000D03*
X152400000Y-114300000D03*
X116840000Y-106680000D03*
X139700000Y-109220000D03*
X157480000Y-104140000D03*
X119380000Y-116840000D03*
X139700000Y-104902000D03*
X123190000Y-102870000D03*
X119380000Y-104140000D03*
X119380000Y-111760000D03*
X124460000Y-114300000D03*
X160020000Y-104140000D03*
X121920000Y-114300000D03*
X133350000Y-100330000D03*
X134620000Y-114300000D03*
X124460000Y-104140000D03*
X116840000Y-109220000D03*
X139700000Y-114300000D03*
X121920000Y-104140000D03*
X152400000Y-110490000D03*
X138684000Y-100965000D03*
X157607000Y-111760000D03*
X139700000Y-111760000D03*
X154940000Y-114300000D03*
X128270000Y-102870000D03*
X159258000Y-101473000D03*
X124460000Y-106680000D03*
X160020000Y-106680000D03*
X137160000Y-114300000D03*
X157480000Y-106680000D03*
X137160000Y-109220000D03*
X157607000Y-109220000D03*
X124460000Y-101600000D03*
X137860000Y-102412800D03*
X124460000Y-116840000D03*
X121920000Y-111760000D03*
X121920000Y-116840000D03*
X152400000Y-116840000D03*
X152400000Y-99060000D03*
X134620000Y-111760000D03*
X116840000Y-111760000D03*
X125730000Y-102870000D03*
X127000000Y-116840000D03*
X157607000Y-100203000D03*
X152400000Y-104140000D03*
X116840000Y-101600000D03*
X160020000Y-109220000D03*
X130810000Y-102870000D03*
X129540000Y-114300000D03*
X157480000Y-116840000D03*
X146685000Y-106045000D03*
X133350000Y-102870000D03*
X157480000Y-101600000D03*
X120650000Y-102870000D03*
X116840000Y-104140000D03*
X128828800Y-113741200D03*
X129540000Y-116840000D03*
X149860000Y-104140000D03*
X139700000Y-106680000D03*
X154940000Y-116840000D03*
%TO.N,/CD*%
X145500000Y-110250000D03*
X145500000Y-107500000D03*
X146735800Y-103000000D03*
%TO.N,/SDA*%
X145000000Y-101850000D03*
X140741400Y-102539800D03*
%TO.N,/SCL*%
X133604000Y-106172000D03*
X145973800Y-100330000D03*
X138938000Y-102489000D03*
X135128000Y-104648000D03*
%TO.N,/DAT1*%
X151000000Y-112500000D03*
X146500000Y-112500000D03*
%TO.N,/ADDR*%
X133858000Y-109982000D03*
%TD*%
D15*
%TO.N,+3V3*%
X122174000Y-109220000D02*
X122174000Y-107467400D01*
X151000000Y-115350000D02*
X146000000Y-115350000D01*
D16*
%TO.N,/SCK*%
X150500000Y-109000000D02*
X146500000Y-109000000D01*
%TO.N,/MOSI*%
X146500000Y-108000000D02*
X150000000Y-108000000D01*
%TO.N,/MISO*%
X147000000Y-110500000D02*
X146500000Y-110000000D01*
X150500000Y-110500000D02*
X147000000Y-110500000D01*
%TO.N,/CS_SD*%
X153670000Y-97790000D02*
X153670000Y-102250000D01*
%TO.N,/CD*%
X150647400Y-97790000D02*
X151130000Y-97790000D01*
X145500000Y-107500000D02*
X145500000Y-110250000D01*
X146735800Y-103000000D02*
X146735800Y-101701600D01*
X146735800Y-101701600D02*
X150647400Y-97790000D01*
%TO.N,/SDA*%
X145000000Y-101850000D02*
X141431200Y-101850000D01*
X141431200Y-101850000D02*
X140741400Y-102539800D01*
%TO.N,/SCL*%
X141102000Y-100325000D02*
X145968800Y-100325000D01*
X145968800Y-100325000D02*
X145973800Y-100330000D01*
X138938000Y-102489000D02*
X141102000Y-100325000D01*
X133604000Y-106172000D02*
X135128000Y-104648000D01*
%TO.N,/DAT1*%
X151000000Y-112500000D02*
X146500000Y-112500000D01*
%TO.N,/ADDR*%
X134403000Y-109437000D02*
X133858000Y-109982000D01*
X134403000Y-108458000D02*
X134403000Y-109437000D01*
%TD*%
%TA.AperFunction,Conductor*%
%TO.N,VSS*%
G36*
X130013052Y-96939407D02*
G01*
X130049016Y-96988907D01*
X130049016Y-97050093D01*
X130024866Y-97089501D01*
X129994023Y-97120345D01*
X129994020Y-97120348D01*
X129879058Y-97292402D01*
X129799869Y-97483581D01*
X129759500Y-97686532D01*
X129759500Y-97893467D01*
X129799869Y-98096418D01*
X129879058Y-98287597D01*
X129963767Y-98414374D01*
X129994023Y-98459655D01*
X130140345Y-98605977D01*
X130312402Y-98720941D01*
X130503580Y-98800130D01*
X130706535Y-98840500D01*
X130706536Y-98840500D01*
X130913464Y-98840500D01*
X130913465Y-98840500D01*
X131116420Y-98800130D01*
X131307598Y-98720941D01*
X131479655Y-98605977D01*
X131625977Y-98459655D01*
X131740941Y-98287598D01*
X131820130Y-98096420D01*
X131860500Y-97893465D01*
X131860500Y-97686535D01*
X131820130Y-97483580D01*
X131740941Y-97292402D01*
X131625977Y-97120345D01*
X131595133Y-97089501D01*
X131567358Y-97034987D01*
X131576929Y-96974555D01*
X131620194Y-96931290D01*
X131665139Y-96920500D01*
X132494861Y-96920500D01*
X132553052Y-96939407D01*
X132589016Y-96988907D01*
X132589016Y-97050093D01*
X132564866Y-97089501D01*
X132534023Y-97120345D01*
X132534020Y-97120348D01*
X132419058Y-97292402D01*
X132339869Y-97483581D01*
X132299500Y-97686532D01*
X132299500Y-97893467D01*
X132339869Y-98096418D01*
X132419058Y-98287597D01*
X132503767Y-98414374D01*
X132534023Y-98459655D01*
X132680345Y-98605977D01*
X132852402Y-98720941D01*
X133043580Y-98800130D01*
X133246535Y-98840500D01*
X133246536Y-98840500D01*
X133453464Y-98840500D01*
X133453465Y-98840500D01*
X133656420Y-98800130D01*
X133847598Y-98720941D01*
X134019655Y-98605977D01*
X134165977Y-98459655D01*
X134280941Y-98287598D01*
X134360130Y-98096420D01*
X134400500Y-97893465D01*
X134400500Y-97686535D01*
X134360130Y-97483580D01*
X134280941Y-97292402D01*
X134165977Y-97120345D01*
X134135133Y-97089501D01*
X134107358Y-97034987D01*
X134116929Y-96974555D01*
X134160194Y-96931290D01*
X134205139Y-96920500D01*
X135034861Y-96920500D01*
X135093052Y-96939407D01*
X135129016Y-96988907D01*
X135129016Y-97050093D01*
X135104866Y-97089501D01*
X135074023Y-97120345D01*
X135074020Y-97120348D01*
X134959058Y-97292402D01*
X134879869Y-97483581D01*
X134839500Y-97686532D01*
X134839500Y-97893467D01*
X134879869Y-98096418D01*
X134959058Y-98287597D01*
X135043767Y-98414374D01*
X135074023Y-98459655D01*
X135220345Y-98605977D01*
X135392402Y-98720941D01*
X135583580Y-98800130D01*
X135786535Y-98840500D01*
X135786536Y-98840500D01*
X135993464Y-98840500D01*
X135993465Y-98840500D01*
X136196420Y-98800130D01*
X136387598Y-98720941D01*
X136559655Y-98605977D01*
X136705977Y-98459655D01*
X136820941Y-98287598D01*
X136900130Y-98096420D01*
X136940500Y-97893465D01*
X136940500Y-97686535D01*
X136900130Y-97483580D01*
X136820941Y-97292402D01*
X136705977Y-97120345D01*
X136675133Y-97089501D01*
X136647358Y-97034987D01*
X136656929Y-96974555D01*
X136700194Y-96931290D01*
X136745139Y-96920500D01*
X137574861Y-96920500D01*
X137633052Y-96939407D01*
X137669016Y-96988907D01*
X137669016Y-97050093D01*
X137644866Y-97089501D01*
X137614023Y-97120345D01*
X137614020Y-97120348D01*
X137499058Y-97292402D01*
X137419869Y-97483581D01*
X137379500Y-97686532D01*
X137379500Y-97893467D01*
X137419869Y-98096418D01*
X137499058Y-98287597D01*
X137583767Y-98414374D01*
X137614023Y-98459655D01*
X137760345Y-98605977D01*
X137932402Y-98720941D01*
X138123580Y-98800130D01*
X138326535Y-98840500D01*
X138326536Y-98840500D01*
X138533464Y-98840500D01*
X138533465Y-98840500D01*
X138736420Y-98800130D01*
X138927598Y-98720941D01*
X139099655Y-98605977D01*
X139245977Y-98459655D01*
X139360941Y-98287598D01*
X139440130Y-98096420D01*
X139480500Y-97893465D01*
X139480500Y-97686535D01*
X139440130Y-97483580D01*
X139360941Y-97292402D01*
X139245977Y-97120345D01*
X139215133Y-97089501D01*
X139187358Y-97034987D01*
X139196929Y-96974555D01*
X139240194Y-96931290D01*
X139285139Y-96920500D01*
X140114861Y-96920500D01*
X140173052Y-96939407D01*
X140209016Y-96988907D01*
X140209016Y-97050093D01*
X140184866Y-97089501D01*
X140154023Y-97120345D01*
X140154020Y-97120348D01*
X140039058Y-97292402D01*
X139959869Y-97483581D01*
X139919500Y-97686532D01*
X139919500Y-97893467D01*
X139959869Y-98096418D01*
X140039058Y-98287597D01*
X140123767Y-98414374D01*
X140154023Y-98459655D01*
X140300345Y-98605977D01*
X140472402Y-98720941D01*
X140663580Y-98800130D01*
X140866535Y-98840500D01*
X140866536Y-98840500D01*
X141073464Y-98840500D01*
X141073465Y-98840500D01*
X141276420Y-98800130D01*
X141467598Y-98720941D01*
X141639655Y-98605977D01*
X141785977Y-98459655D01*
X141900941Y-98287598D01*
X141980130Y-98096420D01*
X142020500Y-97893465D01*
X142020500Y-97686535D01*
X141980130Y-97483580D01*
X141900941Y-97292402D01*
X141785977Y-97120345D01*
X141755133Y-97089501D01*
X141727358Y-97034987D01*
X141736929Y-96974555D01*
X141780194Y-96931290D01*
X141825139Y-96920500D01*
X142654861Y-96920500D01*
X142713052Y-96939407D01*
X142749016Y-96988907D01*
X142749016Y-97050093D01*
X142724866Y-97089501D01*
X142694023Y-97120345D01*
X142694020Y-97120348D01*
X142579058Y-97292402D01*
X142499869Y-97483581D01*
X142459500Y-97686532D01*
X142459500Y-97893467D01*
X142499869Y-98096418D01*
X142579058Y-98287597D01*
X142663767Y-98414374D01*
X142694023Y-98459655D01*
X142840345Y-98605977D01*
X143012402Y-98720941D01*
X143203580Y-98800130D01*
X143406535Y-98840500D01*
X143406536Y-98840500D01*
X143613464Y-98840500D01*
X143613465Y-98840500D01*
X143816420Y-98800130D01*
X144007598Y-98720941D01*
X144179655Y-98605977D01*
X144325977Y-98459655D01*
X144440941Y-98287598D01*
X144520130Y-98096420D01*
X144560500Y-97893465D01*
X144560500Y-97686535D01*
X144520130Y-97483580D01*
X144440941Y-97292402D01*
X144325977Y-97120345D01*
X144295133Y-97089501D01*
X144267358Y-97034987D01*
X144276929Y-96974555D01*
X144320194Y-96931290D01*
X144365139Y-96920500D01*
X145194861Y-96920500D01*
X145253052Y-96939407D01*
X145289016Y-96988907D01*
X145289016Y-97050093D01*
X145264866Y-97089501D01*
X145234023Y-97120345D01*
X145234020Y-97120348D01*
X145119058Y-97292402D01*
X145039869Y-97483581D01*
X144999500Y-97686532D01*
X144999500Y-97893467D01*
X145039869Y-98096418D01*
X145119058Y-98287597D01*
X145203767Y-98414374D01*
X145234023Y-98459655D01*
X145380345Y-98605977D01*
X145552402Y-98720941D01*
X145743580Y-98800130D01*
X145946535Y-98840500D01*
X145946536Y-98840500D01*
X146153464Y-98840500D01*
X146153465Y-98840500D01*
X146356420Y-98800130D01*
X146547598Y-98720941D01*
X146719655Y-98605977D01*
X146865977Y-98459655D01*
X146980941Y-98287598D01*
X147060130Y-98096420D01*
X147100500Y-97893465D01*
X147100500Y-97686535D01*
X147060130Y-97483580D01*
X146980941Y-97292402D01*
X146865977Y-97120345D01*
X146835133Y-97089501D01*
X146807358Y-97034987D01*
X146816929Y-96974555D01*
X146860194Y-96931290D01*
X146905139Y-96920500D01*
X147734861Y-96920500D01*
X147793052Y-96939407D01*
X147829016Y-96988907D01*
X147829016Y-97050093D01*
X147804866Y-97089501D01*
X147774023Y-97120345D01*
X147774020Y-97120348D01*
X147659058Y-97292402D01*
X147579869Y-97483581D01*
X147539500Y-97686532D01*
X147539500Y-97893467D01*
X147579869Y-98096418D01*
X147659058Y-98287597D01*
X147743767Y-98414374D01*
X147774023Y-98459655D01*
X147920345Y-98605977D01*
X148092402Y-98720941D01*
X148283580Y-98800130D01*
X148486535Y-98840500D01*
X148486536Y-98840500D01*
X148693464Y-98840500D01*
X148693465Y-98840500D01*
X148896420Y-98800130D01*
X148975838Y-98767233D01*
X149036831Y-98762433D01*
X149089001Y-98794402D01*
X149112416Y-98850930D01*
X149098133Y-98910425D01*
X149083725Y-98928702D01*
X146551289Y-101461140D01*
X146551288Y-101461139D01*
X146495339Y-101517089D01*
X146455780Y-101585607D01*
X146455778Y-101585611D01*
X146435300Y-101662035D01*
X146435300Y-102451805D01*
X146416393Y-102509996D01*
X146385804Y-102537539D01*
X146382439Y-102539481D01*
X146275281Y-102646639D01*
X146199520Y-102777860D01*
X146197264Y-102786281D01*
X146160300Y-102924234D01*
X146160300Y-103075766D01*
X146170893Y-103115300D01*
X146199520Y-103222139D01*
X146275281Y-103353360D01*
X146275283Y-103353362D01*
X146275285Y-103353365D01*
X146382435Y-103460515D01*
X146382437Y-103460516D01*
X146382439Y-103460518D01*
X146513661Y-103536279D01*
X146513659Y-103536279D01*
X146513663Y-103536280D01*
X146513665Y-103536281D01*
X146660034Y-103575500D01*
X146660036Y-103575500D01*
X146811564Y-103575500D01*
X146811566Y-103575500D01*
X146957935Y-103536281D01*
X146957937Y-103536279D01*
X146957939Y-103536279D01*
X147089160Y-103460518D01*
X147089160Y-103460517D01*
X147089165Y-103460515D01*
X147196315Y-103353365D01*
X147272081Y-103222135D01*
X147311300Y-103075766D01*
X147311300Y-102924234D01*
X147272081Y-102777865D01*
X147272079Y-102777862D01*
X147272079Y-102777860D01*
X147196318Y-102646639D01*
X147196316Y-102646637D01*
X147196315Y-102646635D01*
X147089165Y-102539485D01*
X147089162Y-102539483D01*
X147089160Y-102539481D01*
X147085796Y-102537539D01*
X147044857Y-102492068D01*
X147036300Y-102451805D01*
X147036300Y-101867078D01*
X147055207Y-101808887D01*
X147065290Y-101797080D01*
X150288367Y-98574002D01*
X150342882Y-98546227D01*
X150403314Y-98555798D01*
X150428369Y-98574001D01*
X150460345Y-98605977D01*
X150632402Y-98720941D01*
X150823580Y-98800130D01*
X151026535Y-98840500D01*
X151026536Y-98840500D01*
X151233464Y-98840500D01*
X151233465Y-98840500D01*
X151436420Y-98800130D01*
X151627598Y-98720941D01*
X151799655Y-98605977D01*
X151945977Y-98459655D01*
X152060941Y-98287598D01*
X152140130Y-98096420D01*
X152180500Y-97893465D01*
X152180500Y-97686535D01*
X152140130Y-97483580D01*
X152060941Y-97292402D01*
X151945977Y-97120345D01*
X151915133Y-97089501D01*
X151887358Y-97034987D01*
X151896929Y-96974555D01*
X151940194Y-96931290D01*
X151985139Y-96920500D01*
X152814861Y-96920500D01*
X152873052Y-96939407D01*
X152909016Y-96988907D01*
X152909016Y-97050093D01*
X152884866Y-97089501D01*
X152854023Y-97120345D01*
X152854020Y-97120348D01*
X152739058Y-97292402D01*
X152659869Y-97483581D01*
X152619500Y-97686532D01*
X152619500Y-97893467D01*
X152659869Y-98096418D01*
X152739058Y-98287597D01*
X152823767Y-98414374D01*
X152854023Y-98459655D01*
X153000345Y-98605977D01*
X153172402Y-98720941D01*
X153308385Y-98777267D01*
X153354911Y-98817003D01*
X153369500Y-98868731D01*
X153369500Y-101701805D01*
X153350593Y-101759996D01*
X153320004Y-101787539D01*
X153316639Y-101789481D01*
X153209481Y-101896639D01*
X153133720Y-102027860D01*
X153133719Y-102027865D01*
X153094500Y-102174234D01*
X153094500Y-102325766D01*
X153110715Y-102386281D01*
X153133720Y-102472139D01*
X153209481Y-102603360D01*
X153209483Y-102603362D01*
X153209485Y-102603365D01*
X153316635Y-102710515D01*
X153316637Y-102710516D01*
X153316639Y-102710518D01*
X153447861Y-102786279D01*
X153447859Y-102786279D01*
X153447863Y-102786280D01*
X153447865Y-102786281D01*
X153594234Y-102825500D01*
X153594236Y-102825500D01*
X153745764Y-102825500D01*
X153745766Y-102825500D01*
X153892135Y-102786281D01*
X153892137Y-102786279D01*
X153892139Y-102786279D01*
X154023360Y-102710518D01*
X154023360Y-102710517D01*
X154023365Y-102710515D01*
X154130515Y-102603365D01*
X154152800Y-102564766D01*
X154206279Y-102472139D01*
X154206279Y-102472137D01*
X154206281Y-102472135D01*
X154245500Y-102325766D01*
X154245500Y-102174234D01*
X154206281Y-102027865D01*
X154206279Y-102027862D01*
X154206279Y-102027860D01*
X154130518Y-101896639D01*
X154130516Y-101896637D01*
X154130515Y-101896635D01*
X154023365Y-101789485D01*
X154023362Y-101789483D01*
X154023360Y-101789481D01*
X154019996Y-101787539D01*
X153979057Y-101742068D01*
X153970500Y-101701805D01*
X153970500Y-98950509D01*
X160889500Y-98950509D01*
X160889500Y-99169490D01*
X160918082Y-99386590D01*
X160918082Y-99386595D01*
X160974758Y-99598116D01*
X161058557Y-99800423D01*
X161084147Y-99844747D01*
X161160294Y-99976638D01*
X161168052Y-99990074D01*
X161301351Y-100163793D01*
X161301353Y-100163795D01*
X161301357Y-100163800D01*
X161456200Y-100318643D01*
X161456204Y-100318646D01*
X161456206Y-100318648D01*
X161553383Y-100393214D01*
X161629929Y-100451950D01*
X161819572Y-100561440D01*
X161819573Y-100561440D01*
X161819576Y-100561442D01*
X161977167Y-100626719D01*
X162021883Y-100645241D01*
X162233402Y-100701917D01*
X162450510Y-100730500D01*
X162450511Y-100730500D01*
X162669489Y-100730500D01*
X162669490Y-100730500D01*
X162886598Y-100701917D01*
X163098117Y-100645241D01*
X163300428Y-100561440D01*
X163490071Y-100451950D01*
X163663800Y-100318643D01*
X163818643Y-100163800D01*
X163951950Y-99990071D01*
X164061440Y-99800428D01*
X164145241Y-99598117D01*
X164201917Y-99386598D01*
X164230500Y-99169490D01*
X164230500Y-98950510D01*
X164201917Y-98733402D01*
X164145241Y-98521883D01*
X164061440Y-98319572D01*
X163951950Y-98129929D01*
X163849233Y-97996065D01*
X163818648Y-97956206D01*
X163818646Y-97956204D01*
X163818643Y-97956200D01*
X163663800Y-97801357D01*
X163663795Y-97801353D01*
X163663793Y-97801351D01*
X163490074Y-97668052D01*
X163433491Y-97635384D01*
X163356768Y-97591088D01*
X163300423Y-97558557D01*
X163098116Y-97474758D01*
X162953641Y-97436047D01*
X162886598Y-97418083D01*
X162886595Y-97418082D01*
X162886593Y-97418082D01*
X162669490Y-97389500D01*
X162450510Y-97389500D01*
X162450509Y-97389500D01*
X162233409Y-97418082D01*
X162233404Y-97418082D01*
X162021883Y-97474758D01*
X161819576Y-97558557D01*
X161629925Y-97668052D01*
X161456206Y-97801351D01*
X161301351Y-97956206D01*
X161168052Y-98129925D01*
X161058557Y-98319576D01*
X160974758Y-98521883D01*
X160918082Y-98733404D01*
X160918082Y-98733409D01*
X160889500Y-98950509D01*
X153970500Y-98950509D01*
X153970500Y-98868731D01*
X153989407Y-98810540D01*
X154031614Y-98777267D01*
X154167598Y-98720941D01*
X154339655Y-98605977D01*
X154485977Y-98459655D01*
X154600941Y-98287598D01*
X154680130Y-98096420D01*
X154720500Y-97893465D01*
X154720500Y-97686535D01*
X154680130Y-97483580D01*
X154600941Y-97292402D01*
X154485977Y-97120345D01*
X154455133Y-97089501D01*
X154427358Y-97034987D01*
X154436929Y-96974555D01*
X154480194Y-96931290D01*
X154525139Y-96920500D01*
X155354861Y-96920500D01*
X155413052Y-96939407D01*
X155449016Y-96988907D01*
X155449016Y-97050093D01*
X155424866Y-97089501D01*
X155394023Y-97120345D01*
X155394020Y-97120348D01*
X155279058Y-97292402D01*
X155199869Y-97483581D01*
X155159500Y-97686532D01*
X155159500Y-97893467D01*
X155199869Y-98096418D01*
X155279058Y-98287597D01*
X155363767Y-98414374D01*
X155394023Y-98459655D01*
X155540345Y-98605977D01*
X155712402Y-98720941D01*
X155903580Y-98800130D01*
X156106535Y-98840500D01*
X156106536Y-98840500D01*
X156313464Y-98840500D01*
X156313465Y-98840500D01*
X156516420Y-98800130D01*
X156707598Y-98720941D01*
X156879655Y-98605977D01*
X157025977Y-98459655D01*
X157140941Y-98287598D01*
X157220130Y-98096420D01*
X157260500Y-97893465D01*
X157260500Y-97686535D01*
X157220130Y-97483580D01*
X157140941Y-97292402D01*
X157025977Y-97120345D01*
X156995133Y-97089501D01*
X156967358Y-97034987D01*
X156976929Y-96974555D01*
X157020194Y-96931290D01*
X157065139Y-96920500D01*
X157894861Y-96920500D01*
X157953052Y-96939407D01*
X157989016Y-96988907D01*
X157989016Y-97050093D01*
X157964866Y-97089501D01*
X157934023Y-97120345D01*
X157934020Y-97120348D01*
X157819058Y-97292402D01*
X157739869Y-97483581D01*
X157699500Y-97686532D01*
X157699500Y-97893467D01*
X157739869Y-98096418D01*
X157819058Y-98287597D01*
X157903767Y-98414374D01*
X157934023Y-98459655D01*
X158080345Y-98605977D01*
X158252402Y-98720941D01*
X158443580Y-98800130D01*
X158646535Y-98840500D01*
X158646536Y-98840500D01*
X158853464Y-98840500D01*
X158853465Y-98840500D01*
X159056420Y-98800130D01*
X159247598Y-98720941D01*
X159419655Y-98605977D01*
X159565977Y-98459655D01*
X159680941Y-98287598D01*
X159760130Y-98096420D01*
X159800500Y-97893465D01*
X159800500Y-97686535D01*
X159760130Y-97483580D01*
X159680941Y-97292402D01*
X159565977Y-97120345D01*
X159535133Y-97089501D01*
X159507358Y-97034987D01*
X159516929Y-96974555D01*
X159560194Y-96931290D01*
X159605139Y-96920500D01*
X162502417Y-96920500D01*
X162556759Y-96920500D01*
X162563234Y-96920712D01*
X162832789Y-96938379D01*
X162845617Y-96940068D01*
X163107392Y-96992138D01*
X163119881Y-96995485D01*
X163372614Y-97081276D01*
X163384562Y-97086225D01*
X163623944Y-97204275D01*
X163635132Y-97210735D01*
X163857056Y-97359020D01*
X163867319Y-97366896D01*
X163990314Y-97474759D01*
X164067976Y-97542866D01*
X164077131Y-97552021D01*
X164229716Y-97726011D01*
X164253102Y-97752678D01*
X164260981Y-97762945D01*
X164409261Y-97984862D01*
X164415726Y-97996060D01*
X164515427Y-98198234D01*
X164533770Y-98235429D01*
X164538726Y-98247394D01*
X164624511Y-98500109D01*
X164627863Y-98512617D01*
X164679930Y-98774377D01*
X164681620Y-98787216D01*
X164699100Y-99053897D01*
X164699145Y-99066112D01*
X164685450Y-99301919D01*
X164684122Y-99313321D01*
X164643156Y-99546339D01*
X164640516Y-99557511D01*
X164572854Y-99784210D01*
X164568939Y-99795001D01*
X164475485Y-100012356D01*
X164470346Y-100022621D01*
X164352370Y-100227679D01*
X164346078Y-100237281D01*
X164205151Y-100427311D01*
X164197791Y-100436119D01*
X164035812Y-100608562D01*
X164027480Y-100616460D01*
X163846628Y-100768992D01*
X163837439Y-100775871D01*
X163637761Y-100908021D01*
X163632905Y-100911037D01*
X163632885Y-100911048D01*
X163632885Y-100911049D01*
X163631748Y-100911709D01*
X163626792Y-100914592D01*
X163585576Y-100938556D01*
X163585543Y-100938589D01*
X163579683Y-100941999D01*
X163579679Y-100941999D01*
X163579669Y-100942007D01*
X163497305Y-100989904D01*
X163240199Y-101179393D01*
X163240198Y-101179395D01*
X163005132Y-101395610D01*
X163005128Y-101395614D01*
X162794854Y-101636022D01*
X162611846Y-101897798D01*
X162611846Y-101897799D01*
X162458280Y-102177829D01*
X162458271Y-102177850D01*
X162335932Y-102472873D01*
X162335924Y-102472895D01*
X162246259Y-102779424D01*
X162190314Y-103093890D01*
X162168755Y-103412551D01*
X162168755Y-103412557D01*
X162174861Y-103561844D01*
X162174944Y-103565890D01*
X162174944Y-112333864D01*
X162174861Y-112337910D01*
X162168745Y-112487442D01*
X162168745Y-112487448D01*
X162190304Y-112806111D01*
X162190304Y-112806115D01*
X162190305Y-112806118D01*
X162213136Y-112934451D01*
X162246249Y-113120577D01*
X162335914Y-113427108D01*
X162335919Y-113427122D01*
X162335920Y-113427125D01*
X162458264Y-113722160D01*
X162458266Y-113722164D01*
X162458271Y-113722175D01*
X162611837Y-114002205D01*
X162611837Y-114002206D01*
X162794846Y-114263983D01*
X163005121Y-114504392D01*
X163005125Y-114504396D01*
X163240188Y-114720608D01*
X163240195Y-114720614D01*
X163381870Y-114825031D01*
X163497300Y-114910105D01*
X163497304Y-114910107D01*
X163497305Y-114910108D01*
X163585564Y-114961431D01*
X163585576Y-114961444D01*
X163632885Y-114988950D01*
X163637712Y-114991947D01*
X163837450Y-115124137D01*
X163846619Y-115131001D01*
X164016445Y-115274234D01*
X164027480Y-115283541D01*
X164035808Y-115291435D01*
X164197792Y-115463881D01*
X164205141Y-115472675D01*
X164285735Y-115581351D01*
X164346081Y-115662723D01*
X164352364Y-115672311D01*
X164470346Y-115877378D01*
X164475484Y-115887643D01*
X164568938Y-116104998D01*
X164572853Y-116115789D01*
X164640515Y-116342488D01*
X164643155Y-116353660D01*
X164684121Y-116586678D01*
X164685449Y-116598080D01*
X164699144Y-116833899D01*
X164699099Y-116846114D01*
X164681620Y-117112783D01*
X164679930Y-117125622D01*
X164627863Y-117387382D01*
X164624511Y-117399890D01*
X164538726Y-117652605D01*
X164533770Y-117664570D01*
X164415729Y-117903934D01*
X164409257Y-117915143D01*
X164374572Y-117967054D01*
X164260985Y-118137048D01*
X164253102Y-118147321D01*
X164077133Y-118347976D01*
X164067976Y-118357133D01*
X163867321Y-118533102D01*
X163857048Y-118540985D01*
X163635143Y-118689257D01*
X163623934Y-118695729D01*
X163384570Y-118813770D01*
X163372605Y-118818726D01*
X163119890Y-118904511D01*
X163107382Y-118907863D01*
X162845622Y-118959930D01*
X162832783Y-118961620D01*
X162563234Y-118979288D01*
X162556759Y-118979500D01*
X159605139Y-118979500D01*
X159546948Y-118960593D01*
X159510984Y-118911093D01*
X159510984Y-118849907D01*
X159535133Y-118810498D01*
X159565977Y-118779655D01*
X159680941Y-118607598D01*
X159760130Y-118416420D01*
X159800500Y-118213465D01*
X159800500Y-118006535D01*
X159760130Y-117803580D01*
X159680941Y-117612402D01*
X159565977Y-117440345D01*
X159419655Y-117294023D01*
X159419651Y-117294020D01*
X159247597Y-117179058D01*
X159056418Y-117099869D01*
X158853467Y-117059500D01*
X158853465Y-117059500D01*
X158646535Y-117059500D01*
X158646532Y-117059500D01*
X158443581Y-117099869D01*
X158252402Y-117179058D01*
X158080348Y-117294020D01*
X157934020Y-117440348D01*
X157819058Y-117612402D01*
X157739869Y-117803581D01*
X157699500Y-118006532D01*
X157699500Y-118213467D01*
X157739869Y-118416418D01*
X157819058Y-118607597D01*
X157877946Y-118695729D01*
X157934023Y-118779655D01*
X157964866Y-118810498D01*
X157992642Y-118865013D01*
X157983071Y-118925445D01*
X157939806Y-118968710D01*
X157894861Y-118979500D01*
X157065139Y-118979500D01*
X157006948Y-118960593D01*
X156970984Y-118911093D01*
X156970984Y-118849907D01*
X156995133Y-118810498D01*
X157025977Y-118779655D01*
X157140941Y-118607598D01*
X157220130Y-118416420D01*
X157260500Y-118213465D01*
X157260500Y-118006535D01*
X157220130Y-117803580D01*
X157140941Y-117612402D01*
X157025977Y-117440345D01*
X156879655Y-117294023D01*
X156879651Y-117294020D01*
X156707597Y-117179058D01*
X156516418Y-117099869D01*
X156313467Y-117059500D01*
X156313465Y-117059500D01*
X156106535Y-117059500D01*
X156106532Y-117059500D01*
X155903581Y-117099869D01*
X155712402Y-117179058D01*
X155540348Y-117294020D01*
X155394020Y-117440348D01*
X155279058Y-117612402D01*
X155199869Y-117803581D01*
X155159500Y-118006532D01*
X155159500Y-118213467D01*
X155199869Y-118416418D01*
X155279058Y-118607597D01*
X155337946Y-118695729D01*
X155394023Y-118779655D01*
X155424866Y-118810498D01*
X155452642Y-118865013D01*
X155443071Y-118925445D01*
X155399806Y-118968710D01*
X155354861Y-118979500D01*
X154525139Y-118979500D01*
X154466948Y-118960593D01*
X154430984Y-118911093D01*
X154430984Y-118849907D01*
X154455133Y-118810498D01*
X154485977Y-118779655D01*
X154600941Y-118607598D01*
X154680130Y-118416420D01*
X154720500Y-118213465D01*
X154720500Y-118006535D01*
X154680130Y-117803580D01*
X154600941Y-117612402D01*
X154485977Y-117440345D01*
X154339655Y-117294023D01*
X154339651Y-117294020D01*
X154167597Y-117179058D01*
X153976418Y-117099869D01*
X153773467Y-117059500D01*
X153773465Y-117059500D01*
X153566535Y-117059500D01*
X153566532Y-117059500D01*
X153363581Y-117099869D01*
X153172402Y-117179058D01*
X153000348Y-117294020D01*
X152854020Y-117440348D01*
X152739058Y-117612402D01*
X152659869Y-117803581D01*
X152619500Y-118006532D01*
X152619500Y-118213467D01*
X152659869Y-118416418D01*
X152739058Y-118607597D01*
X152797946Y-118695729D01*
X152854023Y-118779655D01*
X152884866Y-118810498D01*
X152912642Y-118865013D01*
X152903071Y-118925445D01*
X152859806Y-118968710D01*
X152814861Y-118979500D01*
X151985139Y-118979500D01*
X151926948Y-118960593D01*
X151890984Y-118911093D01*
X151890984Y-118849907D01*
X151915133Y-118810498D01*
X151945977Y-118779655D01*
X152060941Y-118607598D01*
X152140130Y-118416420D01*
X152180500Y-118213465D01*
X152180500Y-118006535D01*
X152140130Y-117803580D01*
X152060941Y-117612402D01*
X151945977Y-117440345D01*
X151799655Y-117294023D01*
X151799651Y-117294020D01*
X151627597Y-117179058D01*
X151436418Y-117099869D01*
X151233467Y-117059500D01*
X151233465Y-117059500D01*
X151026535Y-117059500D01*
X151026532Y-117059500D01*
X150823581Y-117099869D01*
X150632402Y-117179058D01*
X150460348Y-117294020D01*
X150314020Y-117440348D01*
X150199058Y-117612402D01*
X150119869Y-117803581D01*
X150079500Y-118006532D01*
X150079500Y-118213467D01*
X150119869Y-118416418D01*
X150199058Y-118607597D01*
X150257946Y-118695729D01*
X150314023Y-118779655D01*
X150344866Y-118810498D01*
X150372642Y-118865013D01*
X150363071Y-118925445D01*
X150319806Y-118968710D01*
X150274861Y-118979500D01*
X149445139Y-118979500D01*
X149386948Y-118960593D01*
X149350984Y-118911093D01*
X149350984Y-118849907D01*
X149375133Y-118810498D01*
X149405977Y-118779655D01*
X149520941Y-118607598D01*
X149600130Y-118416420D01*
X149640500Y-118213465D01*
X149640500Y-118006535D01*
X149600130Y-117803580D01*
X149520941Y-117612402D01*
X149405977Y-117440345D01*
X149259655Y-117294023D01*
X149259651Y-117294020D01*
X149087597Y-117179058D01*
X148896418Y-117099869D01*
X148693467Y-117059500D01*
X148693465Y-117059500D01*
X148486535Y-117059500D01*
X148486532Y-117059500D01*
X148283581Y-117099869D01*
X148092402Y-117179058D01*
X147920348Y-117294020D01*
X147774020Y-117440348D01*
X147659058Y-117612402D01*
X147579869Y-117803581D01*
X147539500Y-118006532D01*
X147539500Y-118213467D01*
X147579869Y-118416418D01*
X147659058Y-118607597D01*
X147717946Y-118695729D01*
X147774023Y-118779655D01*
X147804866Y-118810498D01*
X147832642Y-118865013D01*
X147823071Y-118925445D01*
X147779806Y-118968710D01*
X147734861Y-118979500D01*
X146905139Y-118979500D01*
X146846948Y-118960593D01*
X146810984Y-118911093D01*
X146810984Y-118849907D01*
X146835133Y-118810498D01*
X146865977Y-118779655D01*
X146980941Y-118607598D01*
X147060130Y-118416420D01*
X147100500Y-118213465D01*
X147100500Y-118006535D01*
X147060130Y-117803580D01*
X146980941Y-117612402D01*
X146865977Y-117440345D01*
X146719655Y-117294023D01*
X146719651Y-117294020D01*
X146547597Y-117179058D01*
X146356418Y-117099869D01*
X146153467Y-117059500D01*
X146153465Y-117059500D01*
X145946535Y-117059500D01*
X145946532Y-117059500D01*
X145743581Y-117099869D01*
X145552402Y-117179058D01*
X145380348Y-117294020D01*
X145234020Y-117440348D01*
X145119058Y-117612402D01*
X145039869Y-117803581D01*
X144999500Y-118006532D01*
X144999500Y-118213467D01*
X145039869Y-118416418D01*
X145119058Y-118607597D01*
X145177946Y-118695729D01*
X145234023Y-118779655D01*
X145264866Y-118810498D01*
X145292642Y-118865013D01*
X145283071Y-118925445D01*
X145239806Y-118968710D01*
X145194861Y-118979500D01*
X144365139Y-118979500D01*
X144306948Y-118960593D01*
X144270984Y-118911093D01*
X144270984Y-118849907D01*
X144295133Y-118810498D01*
X144325977Y-118779655D01*
X144440941Y-118607598D01*
X144520130Y-118416420D01*
X144560500Y-118213465D01*
X144560500Y-118006535D01*
X144520130Y-117803580D01*
X144440941Y-117612402D01*
X144325977Y-117440345D01*
X144179655Y-117294023D01*
X144179651Y-117294020D01*
X144007597Y-117179058D01*
X143816418Y-117099869D01*
X143613467Y-117059500D01*
X143613465Y-117059500D01*
X143406535Y-117059500D01*
X143406532Y-117059500D01*
X143203581Y-117099869D01*
X143012402Y-117179058D01*
X142840348Y-117294020D01*
X142694020Y-117440348D01*
X142579058Y-117612402D01*
X142499869Y-117803581D01*
X142459500Y-118006532D01*
X142459500Y-118213467D01*
X142499869Y-118416418D01*
X142579058Y-118607597D01*
X142637946Y-118695729D01*
X142694023Y-118779655D01*
X142724866Y-118810498D01*
X142752642Y-118865013D01*
X142743071Y-118925445D01*
X142699806Y-118968710D01*
X142654861Y-118979500D01*
X141825139Y-118979500D01*
X141766948Y-118960593D01*
X141730984Y-118911093D01*
X141730984Y-118849907D01*
X141755133Y-118810498D01*
X141785977Y-118779655D01*
X141900941Y-118607598D01*
X141980130Y-118416420D01*
X142020500Y-118213465D01*
X142020500Y-118006535D01*
X141980130Y-117803580D01*
X141900941Y-117612402D01*
X141785977Y-117440345D01*
X141639655Y-117294023D01*
X141639651Y-117294020D01*
X141467597Y-117179058D01*
X141276418Y-117099869D01*
X141073467Y-117059500D01*
X141073465Y-117059500D01*
X140866535Y-117059500D01*
X140866532Y-117059500D01*
X140663581Y-117099869D01*
X140472402Y-117179058D01*
X140300348Y-117294020D01*
X140154020Y-117440348D01*
X140039058Y-117612402D01*
X139959869Y-117803581D01*
X139919500Y-118006532D01*
X139919500Y-118213467D01*
X139959869Y-118416418D01*
X140039058Y-118607597D01*
X140097946Y-118695729D01*
X140154023Y-118779655D01*
X140184866Y-118810498D01*
X140212642Y-118865013D01*
X140203071Y-118925445D01*
X140159806Y-118968710D01*
X140114861Y-118979500D01*
X139285139Y-118979500D01*
X139226948Y-118960593D01*
X139190984Y-118911093D01*
X139190984Y-118849907D01*
X139215133Y-118810498D01*
X139245977Y-118779655D01*
X139360941Y-118607598D01*
X139440130Y-118416420D01*
X139480500Y-118213465D01*
X139480500Y-118006535D01*
X139440130Y-117803580D01*
X139360941Y-117612402D01*
X139245977Y-117440345D01*
X139099655Y-117294023D01*
X139099651Y-117294020D01*
X138927597Y-117179058D01*
X138736418Y-117099869D01*
X138533467Y-117059500D01*
X138533465Y-117059500D01*
X138326535Y-117059500D01*
X138326532Y-117059500D01*
X138123581Y-117099869D01*
X137932402Y-117179058D01*
X137760348Y-117294020D01*
X137614020Y-117440348D01*
X137499058Y-117612402D01*
X137419869Y-117803581D01*
X137379500Y-118006532D01*
X137379500Y-118213467D01*
X137419869Y-118416418D01*
X137499058Y-118607597D01*
X137557946Y-118695729D01*
X137614023Y-118779655D01*
X137644866Y-118810498D01*
X137672642Y-118865013D01*
X137663071Y-118925445D01*
X137619806Y-118968710D01*
X137574861Y-118979500D01*
X136745139Y-118979500D01*
X136686948Y-118960593D01*
X136650984Y-118911093D01*
X136650984Y-118849907D01*
X136675133Y-118810498D01*
X136705977Y-118779655D01*
X136820941Y-118607598D01*
X136900130Y-118416420D01*
X136940500Y-118213465D01*
X136940500Y-118006535D01*
X136900130Y-117803580D01*
X136820941Y-117612402D01*
X136705977Y-117440345D01*
X136559655Y-117294023D01*
X136559651Y-117294020D01*
X136387597Y-117179058D01*
X136196418Y-117099869D01*
X135993467Y-117059500D01*
X135993465Y-117059500D01*
X135786535Y-117059500D01*
X135786532Y-117059500D01*
X135583581Y-117099869D01*
X135392402Y-117179058D01*
X135220348Y-117294020D01*
X135074020Y-117440348D01*
X134959058Y-117612402D01*
X134879869Y-117803581D01*
X134839500Y-118006532D01*
X134839500Y-118213467D01*
X134879869Y-118416418D01*
X134959058Y-118607597D01*
X135017946Y-118695729D01*
X135074023Y-118779655D01*
X135104866Y-118810498D01*
X135132642Y-118865013D01*
X135123071Y-118925445D01*
X135079806Y-118968710D01*
X135034861Y-118979500D01*
X134205139Y-118979500D01*
X134146948Y-118960593D01*
X134110984Y-118911093D01*
X134110984Y-118849907D01*
X134135133Y-118810498D01*
X134165977Y-118779655D01*
X134280941Y-118607598D01*
X134360130Y-118416420D01*
X134400500Y-118213465D01*
X134400500Y-118006535D01*
X134360130Y-117803580D01*
X134280941Y-117612402D01*
X134165977Y-117440345D01*
X134019655Y-117294023D01*
X134019651Y-117294020D01*
X133847597Y-117179058D01*
X133656418Y-117099869D01*
X133453467Y-117059500D01*
X133453465Y-117059500D01*
X133246535Y-117059500D01*
X133246532Y-117059500D01*
X133043581Y-117099869D01*
X132852402Y-117179058D01*
X132680348Y-117294020D01*
X132534020Y-117440348D01*
X132419058Y-117612402D01*
X132339869Y-117803581D01*
X132299500Y-118006532D01*
X132299500Y-118213467D01*
X132339869Y-118416418D01*
X132419058Y-118607597D01*
X132477946Y-118695729D01*
X132534023Y-118779655D01*
X132564866Y-118810498D01*
X132592642Y-118865013D01*
X132583071Y-118925445D01*
X132539806Y-118968710D01*
X132494861Y-118979500D01*
X131665139Y-118979500D01*
X131606948Y-118960593D01*
X131570984Y-118911093D01*
X131570984Y-118849907D01*
X131595133Y-118810498D01*
X131625977Y-118779655D01*
X131740941Y-118607598D01*
X131820130Y-118416420D01*
X131860500Y-118213465D01*
X131860500Y-118006535D01*
X131820130Y-117803580D01*
X131740941Y-117612402D01*
X131625977Y-117440345D01*
X131479655Y-117294023D01*
X131479651Y-117294020D01*
X131307597Y-117179058D01*
X131116418Y-117099869D01*
X130913467Y-117059500D01*
X130913465Y-117059500D01*
X130706535Y-117059500D01*
X130706532Y-117059500D01*
X130503581Y-117099869D01*
X130312402Y-117179058D01*
X130140348Y-117294020D01*
X129994020Y-117440348D01*
X129879058Y-117612402D01*
X129799869Y-117803581D01*
X129759500Y-118006532D01*
X129759500Y-118213467D01*
X129799869Y-118416418D01*
X129879058Y-118607597D01*
X129937946Y-118695729D01*
X129994023Y-118779655D01*
X130024866Y-118810498D01*
X130052642Y-118865013D01*
X130043071Y-118925445D01*
X129999806Y-118968710D01*
X129954861Y-118979500D01*
X126585139Y-118979500D01*
X126526948Y-118960593D01*
X126490984Y-118911093D01*
X126490984Y-118849907D01*
X126515133Y-118810498D01*
X126545977Y-118779655D01*
X126660941Y-118607598D01*
X126740130Y-118416420D01*
X126780500Y-118213465D01*
X126780500Y-118006535D01*
X126740130Y-117803580D01*
X126660941Y-117612402D01*
X126545977Y-117440345D01*
X126399655Y-117294023D01*
X126399651Y-117294020D01*
X126227597Y-117179058D01*
X126036418Y-117099869D01*
X125833467Y-117059500D01*
X125833465Y-117059500D01*
X125626535Y-117059500D01*
X125626532Y-117059500D01*
X125423581Y-117099869D01*
X125232402Y-117179058D01*
X125060348Y-117294020D01*
X124914020Y-117440348D01*
X124799058Y-117612402D01*
X124719869Y-117803581D01*
X124679500Y-118006532D01*
X124679500Y-118213467D01*
X124719869Y-118416418D01*
X124799058Y-118607597D01*
X124857946Y-118695729D01*
X124914023Y-118779655D01*
X124944866Y-118810498D01*
X124972642Y-118865013D01*
X124963071Y-118925445D01*
X124919806Y-118968710D01*
X124874861Y-118979500D01*
X124045139Y-118979500D01*
X123986948Y-118960593D01*
X123950984Y-118911093D01*
X123950984Y-118849907D01*
X123975133Y-118810498D01*
X124005977Y-118779655D01*
X124120941Y-118607598D01*
X124200130Y-118416420D01*
X124240500Y-118213465D01*
X124240500Y-118006535D01*
X124200130Y-117803580D01*
X124120941Y-117612402D01*
X124005977Y-117440345D01*
X123859655Y-117294023D01*
X123859651Y-117294020D01*
X123687597Y-117179058D01*
X123496418Y-117099869D01*
X123293467Y-117059500D01*
X123293465Y-117059500D01*
X123086535Y-117059500D01*
X123086532Y-117059500D01*
X122883581Y-117099869D01*
X122692402Y-117179058D01*
X122520348Y-117294020D01*
X122374020Y-117440348D01*
X122259058Y-117612402D01*
X122179869Y-117803581D01*
X122139500Y-118006532D01*
X122139500Y-118213467D01*
X122179869Y-118416418D01*
X122259058Y-118607597D01*
X122317946Y-118695729D01*
X122374023Y-118779655D01*
X122404866Y-118810498D01*
X122432642Y-118865013D01*
X122423071Y-118925445D01*
X122379806Y-118968710D01*
X122334861Y-118979500D01*
X121505139Y-118979500D01*
X121446948Y-118960593D01*
X121410984Y-118911093D01*
X121410984Y-118849907D01*
X121435133Y-118810498D01*
X121465977Y-118779655D01*
X121580941Y-118607598D01*
X121660130Y-118416420D01*
X121700500Y-118213465D01*
X121700500Y-118006535D01*
X121660130Y-117803580D01*
X121580941Y-117612402D01*
X121465977Y-117440345D01*
X121319655Y-117294023D01*
X121319651Y-117294020D01*
X121147597Y-117179058D01*
X120956418Y-117099869D01*
X120753467Y-117059500D01*
X120753465Y-117059500D01*
X120546535Y-117059500D01*
X120546532Y-117059500D01*
X120343581Y-117099869D01*
X120152402Y-117179058D01*
X119980348Y-117294020D01*
X119834020Y-117440348D01*
X119719058Y-117612402D01*
X119639869Y-117803581D01*
X119599500Y-118006532D01*
X119599500Y-118213467D01*
X119639869Y-118416418D01*
X119719058Y-118607597D01*
X119777946Y-118695729D01*
X119834023Y-118779655D01*
X119864866Y-118810498D01*
X119892642Y-118865013D01*
X119883071Y-118925445D01*
X119839806Y-118968710D01*
X119794861Y-118979500D01*
X116843241Y-118979500D01*
X116836766Y-118979288D01*
X116567216Y-118961620D01*
X116554377Y-118959930D01*
X116292617Y-118907863D01*
X116280109Y-118904511D01*
X116163751Y-118865013D01*
X116027393Y-118818725D01*
X116015429Y-118813770D01*
X115992533Y-118802479D01*
X115776060Y-118695726D01*
X115764862Y-118689261D01*
X115542945Y-118540981D01*
X115532678Y-118533102D01*
X115332023Y-118357133D01*
X115322866Y-118347976D01*
X115221114Y-118231950D01*
X115146896Y-118147319D01*
X115139020Y-118137056D01*
X114990735Y-117915132D01*
X114984275Y-117903944D01*
X114866225Y-117664562D01*
X114861276Y-117652614D01*
X114775485Y-117399881D01*
X114772138Y-117387392D01*
X114720068Y-117125617D01*
X114718379Y-117112783D01*
X114711323Y-117005135D01*
X114700712Y-116843234D01*
X114700500Y-116836759D01*
X114700500Y-116723954D01*
X115069500Y-116723954D01*
X115069500Y-116956045D01*
X115099793Y-117186141D01*
X115099793Y-117186146D01*
X115159862Y-117410329D01*
X115248677Y-117624747D01*
X115248680Y-117624752D01*
X115364724Y-117825748D01*
X115364726Y-117825750D01*
X115364728Y-117825754D01*
X115506005Y-118009870D01*
X115506007Y-118009872D01*
X115506011Y-118009877D01*
X115670123Y-118173989D01*
X115670127Y-118173992D01*
X115670129Y-118173994D01*
X115854245Y-118315271D01*
X115854252Y-118315276D01*
X116055248Y-118431320D01*
X116055249Y-118431320D01*
X116055252Y-118431322D01*
X116177399Y-118481917D01*
X116269670Y-118520137D01*
X116493851Y-118580206D01*
X116723955Y-118610500D01*
X116723956Y-118610500D01*
X116956044Y-118610500D01*
X116956045Y-118610500D01*
X117186149Y-118580206D01*
X117410330Y-118520137D01*
X117624752Y-118431320D01*
X117825748Y-118315276D01*
X118009877Y-118173989D01*
X118173989Y-118009877D01*
X118315276Y-117825748D01*
X118431320Y-117624752D01*
X118520137Y-117410330D01*
X118580206Y-117186149D01*
X118610500Y-116956045D01*
X118610500Y-116730509D01*
X160889500Y-116730509D01*
X160889500Y-116949490D01*
X160918082Y-117166590D01*
X160918082Y-117166595D01*
X160974758Y-117378116D01*
X161058557Y-117580423D01*
X161168052Y-117770074D01*
X161301351Y-117943793D01*
X161301353Y-117943795D01*
X161301357Y-117943800D01*
X161456200Y-118098643D01*
X161456204Y-118098646D01*
X161456206Y-118098648D01*
X161519638Y-118147321D01*
X161629929Y-118231950D01*
X161819572Y-118341440D01*
X161819573Y-118341440D01*
X161819576Y-118341442D01*
X162000583Y-118416418D01*
X162021883Y-118425241D01*
X162233402Y-118481917D01*
X162450510Y-118510500D01*
X162450511Y-118510500D01*
X162669489Y-118510500D01*
X162669490Y-118510500D01*
X162886598Y-118481917D01*
X163098117Y-118425241D01*
X163300428Y-118341440D01*
X163490071Y-118231950D01*
X163663800Y-118098643D01*
X163818643Y-117943800D01*
X163951950Y-117770071D01*
X164061440Y-117580428D01*
X164145241Y-117378117D01*
X164201917Y-117166598D01*
X164230500Y-116949490D01*
X164230500Y-116730510D01*
X164201917Y-116513402D01*
X164145241Y-116301883D01*
X164131898Y-116269670D01*
X164061442Y-116099576D01*
X164035852Y-116055252D01*
X163951950Y-115909929D01*
X163933803Y-115886279D01*
X163818648Y-115736206D01*
X163818646Y-115736204D01*
X163818643Y-115736200D01*
X163663800Y-115581357D01*
X163663795Y-115581353D01*
X163663793Y-115581351D01*
X163490074Y-115448052D01*
X163451473Y-115425766D01*
X163356768Y-115371088D01*
X163300423Y-115338557D01*
X163098116Y-115254758D01*
X162953641Y-115216047D01*
X162886598Y-115198083D01*
X162886595Y-115198082D01*
X162886593Y-115198082D01*
X162669490Y-115169500D01*
X162450510Y-115169500D01*
X162450509Y-115169500D01*
X162233409Y-115198082D01*
X162233404Y-115198082D01*
X162021883Y-115254758D01*
X161819576Y-115338557D01*
X161629925Y-115448052D01*
X161456206Y-115581351D01*
X161301351Y-115736206D01*
X161168052Y-115909925D01*
X161058557Y-116099576D01*
X160974758Y-116301883D01*
X160918082Y-116513404D01*
X160918082Y-116513409D01*
X160889500Y-116730509D01*
X118610500Y-116730509D01*
X118610500Y-116723955D01*
X118580206Y-116493851D01*
X118520137Y-116269670D01*
X118456397Y-116115789D01*
X118431322Y-116055252D01*
X118431320Y-116055248D01*
X118315276Y-115854252D01*
X118281718Y-115810518D01*
X118173994Y-115670129D01*
X118173992Y-115670127D01*
X118173989Y-115670123D01*
X118009877Y-115506011D01*
X118009872Y-115506007D01*
X118009870Y-115506005D01*
X117825751Y-115364726D01*
X117825748Y-115364724D01*
X117669013Y-115274234D01*
X145424500Y-115274234D01*
X145424500Y-115425766D01*
X145446209Y-115506786D01*
X145463720Y-115572139D01*
X145539481Y-115703360D01*
X145539483Y-115703362D01*
X145539485Y-115703365D01*
X145646635Y-115810515D01*
X145646637Y-115810516D01*
X145646639Y-115810518D01*
X145777861Y-115886279D01*
X145777859Y-115886279D01*
X145777863Y-115886280D01*
X145777865Y-115886281D01*
X145924234Y-115925500D01*
X145924236Y-115925500D01*
X146075764Y-115925500D01*
X146075766Y-115925500D01*
X146222135Y-115886281D01*
X146222137Y-115886279D01*
X146222139Y-115886279D01*
X146353360Y-115810518D01*
X146353360Y-115810517D01*
X146353365Y-115810515D01*
X146381375Y-115782505D01*
X146409385Y-115754496D01*
X146463902Y-115726719D01*
X146479388Y-115725500D01*
X150520612Y-115725500D01*
X150578803Y-115744407D01*
X150590615Y-115754496D01*
X150646634Y-115810514D01*
X150646639Y-115810518D01*
X150777861Y-115886279D01*
X150777859Y-115886279D01*
X150777863Y-115886280D01*
X150777865Y-115886281D01*
X150924234Y-115925500D01*
X150924236Y-115925500D01*
X151075764Y-115925500D01*
X151075766Y-115925500D01*
X151222135Y-115886281D01*
X151222137Y-115886279D01*
X151222139Y-115886279D01*
X151353360Y-115810518D01*
X151353360Y-115810517D01*
X151353365Y-115810515D01*
X151460515Y-115703365D01*
X151479704Y-115670129D01*
X151536279Y-115572139D01*
X151536279Y-115572137D01*
X151536281Y-115572135D01*
X151575500Y-115425766D01*
X151575500Y-115274234D01*
X151536281Y-115127865D01*
X151536279Y-115127862D01*
X151536279Y-115127860D01*
X151460518Y-114996639D01*
X151460516Y-114996637D01*
X151460515Y-114996635D01*
X151353365Y-114889485D01*
X151353362Y-114889483D01*
X151353360Y-114889481D01*
X151222138Y-114813720D01*
X151222140Y-114813720D01*
X151165347Y-114798503D01*
X151075766Y-114774500D01*
X150924234Y-114774500D01*
X150834652Y-114798503D01*
X150777860Y-114813720D01*
X150646639Y-114889481D01*
X150646634Y-114889485D01*
X150590615Y-114945504D01*
X150536098Y-114973281D01*
X150520612Y-114974500D01*
X146479388Y-114974500D01*
X146421197Y-114955593D01*
X146409385Y-114945504D01*
X146353365Y-114889485D01*
X146353360Y-114889481D01*
X146222138Y-114813720D01*
X146222140Y-114813720D01*
X146165347Y-114798503D01*
X146075766Y-114774500D01*
X145924234Y-114774500D01*
X145834652Y-114798503D01*
X145777860Y-114813720D01*
X145646639Y-114889481D01*
X145539481Y-114996639D01*
X145463720Y-115127860D01*
X145455145Y-115159863D01*
X145424500Y-115274234D01*
X117669013Y-115274234D01*
X117624752Y-115248680D01*
X117624747Y-115248677D01*
X117410329Y-115159862D01*
X117257207Y-115118834D01*
X117186149Y-115099794D01*
X117186146Y-115099793D01*
X117186144Y-115099793D01*
X116956045Y-115069500D01*
X116723955Y-115069500D01*
X116723954Y-115069500D01*
X116493858Y-115099793D01*
X116493853Y-115099793D01*
X116269670Y-115159862D01*
X116055252Y-115248677D01*
X115854245Y-115364728D01*
X115670129Y-115506005D01*
X115506005Y-115670129D01*
X115364728Y-115854245D01*
X115248677Y-116055252D01*
X115159862Y-116269670D01*
X115099793Y-116493853D01*
X115099793Y-116493858D01*
X115069500Y-116723954D01*
X114700500Y-116723954D01*
X114700500Y-112424234D01*
X145924500Y-112424234D01*
X145924500Y-112575766D01*
X145935935Y-112618443D01*
X145963720Y-112722139D01*
X146039481Y-112853360D01*
X146039483Y-112853362D01*
X146039485Y-112853365D01*
X146146635Y-112960515D01*
X146146637Y-112960516D01*
X146146639Y-112960518D01*
X146277861Y-113036279D01*
X146277859Y-113036279D01*
X146277863Y-113036280D01*
X146277865Y-113036281D01*
X146424234Y-113075500D01*
X146424236Y-113075500D01*
X146575764Y-113075500D01*
X146575766Y-113075500D01*
X146722135Y-113036281D01*
X146722137Y-113036279D01*
X146722139Y-113036279D01*
X146853360Y-112960518D01*
X146853360Y-112960517D01*
X146853365Y-112960515D01*
X146960515Y-112853365D01*
X146962456Y-112850003D01*
X147007923Y-112809061D01*
X147048194Y-112800500D01*
X150451806Y-112800500D01*
X150509997Y-112819407D01*
X150537543Y-112850002D01*
X150539485Y-112853365D01*
X150646635Y-112960515D01*
X150646637Y-112960516D01*
X150646639Y-112960518D01*
X150777861Y-113036279D01*
X150777859Y-113036279D01*
X150777863Y-113036280D01*
X150777865Y-113036281D01*
X150924234Y-113075500D01*
X150924236Y-113075500D01*
X151075764Y-113075500D01*
X151075766Y-113075500D01*
X151222135Y-113036281D01*
X151222137Y-113036279D01*
X151222139Y-113036279D01*
X151353360Y-112960518D01*
X151353360Y-112960517D01*
X151353365Y-112960515D01*
X151460515Y-112853365D01*
X151460518Y-112853360D01*
X151536279Y-112722139D01*
X151536279Y-112722137D01*
X151536281Y-112722135D01*
X151575500Y-112575766D01*
X151575500Y-112424234D01*
X151536281Y-112277865D01*
X151536279Y-112277862D01*
X151536279Y-112277860D01*
X151460518Y-112146639D01*
X151460516Y-112146637D01*
X151460515Y-112146635D01*
X151353365Y-112039485D01*
X151353362Y-112039483D01*
X151353360Y-112039481D01*
X151222138Y-111963720D01*
X151222140Y-111963720D01*
X151165347Y-111948503D01*
X151075766Y-111924500D01*
X150924234Y-111924500D01*
X150834652Y-111948503D01*
X150777860Y-111963720D01*
X150646639Y-112039481D01*
X150539484Y-112146636D01*
X150537545Y-112149996D01*
X150492077Y-112190939D01*
X150451806Y-112199500D01*
X147048194Y-112199500D01*
X146990003Y-112180593D01*
X146962455Y-112149996D01*
X146960517Y-112146639D01*
X146960515Y-112146635D01*
X146853365Y-112039485D01*
X146853362Y-112039483D01*
X146853360Y-112039481D01*
X146722138Y-111963720D01*
X146722140Y-111963720D01*
X146665347Y-111948503D01*
X146575766Y-111924500D01*
X146424234Y-111924500D01*
X146334652Y-111948503D01*
X146277860Y-111963720D01*
X146146639Y-112039481D01*
X146039481Y-112146639D01*
X145963720Y-112277860D01*
X145956943Y-112303153D01*
X145924500Y-112424234D01*
X114700500Y-112424234D01*
X114700500Y-107388343D01*
X121573500Y-107388343D01*
X121573500Y-107546457D01*
X121614423Y-107699184D01*
X121693480Y-107836116D01*
X121769505Y-107912141D01*
X121797281Y-107966656D01*
X121798500Y-107982143D01*
X121798500Y-108705256D01*
X121779593Y-108763447D01*
X121769504Y-108775259D01*
X121693482Y-108851281D01*
X121693480Y-108851283D01*
X121693480Y-108851284D01*
X121614423Y-108988216D01*
X121573500Y-109140943D01*
X121573500Y-109299057D01*
X121614423Y-109451784D01*
X121693480Y-109588716D01*
X121805284Y-109700520D01*
X121942216Y-109779577D01*
X122094943Y-109820500D01*
X122094945Y-109820500D01*
X122253055Y-109820500D01*
X122253057Y-109820500D01*
X122405784Y-109779577D01*
X122542716Y-109700520D01*
X122654520Y-109588716D01*
X122733577Y-109451784D01*
X122774500Y-109299057D01*
X122774500Y-109140943D01*
X122733577Y-108988216D01*
X122654520Y-108851284D01*
X122654517Y-108851281D01*
X122578496Y-108775259D01*
X122550719Y-108720742D01*
X122549500Y-108705256D01*
X122549500Y-107982143D01*
X122568407Y-107923952D01*
X122578490Y-107912145D01*
X122654520Y-107836116D01*
X122733577Y-107699184D01*
X122774500Y-107546457D01*
X122774500Y-107388343D01*
X122733577Y-107235616D01*
X122654520Y-107098684D01*
X122542716Y-106986880D01*
X122405784Y-106907823D01*
X122253057Y-106866900D01*
X122094943Y-106866900D01*
X121942216Y-106907823D01*
X121805284Y-106986880D01*
X121693480Y-107098684D01*
X121614423Y-107235616D01*
X121573500Y-107388343D01*
X114700500Y-107388343D01*
X114700500Y-106814517D01*
X126345500Y-106814517D01*
X126345500Y-106814523D01*
X126345500Y-106881273D01*
X126345500Y-110432417D01*
X126345500Y-110490000D01*
X126345500Y-110572139D01*
X126374538Y-110708755D01*
X126379654Y-110732823D01*
X126379657Y-110732833D01*
X126446467Y-110882892D01*
X126446471Y-110882899D01*
X126446473Y-110882903D01*
X126543033Y-111015806D01*
X126665115Y-111125730D01*
X126734287Y-111165666D01*
X126807374Y-111207864D01*
X126807377Y-111207865D01*
X126807384Y-111207869D01*
X126963622Y-111258633D01*
X127090353Y-111271953D01*
X127102587Y-111277400D01*
X127127000Y-111277400D01*
X131975141Y-111277400D01*
X131984501Y-111272630D01*
X131989607Y-111271957D01*
X132116378Y-111258633D01*
X132272616Y-111207869D01*
X132414885Y-111125730D01*
X132536967Y-111015806D01*
X132633527Y-110882903D01*
X132700345Y-110732827D01*
X132734500Y-110572139D01*
X132734500Y-110490000D01*
X132734500Y-110432417D01*
X132734500Y-109906234D01*
X133282500Y-109906234D01*
X133282500Y-110057766D01*
X133306313Y-110146639D01*
X133321720Y-110204139D01*
X133397481Y-110335360D01*
X133397483Y-110335362D01*
X133397485Y-110335365D01*
X133504635Y-110442515D01*
X133504637Y-110442516D01*
X133504639Y-110442518D01*
X133635861Y-110518279D01*
X133635859Y-110518279D01*
X133635863Y-110518280D01*
X133635865Y-110518281D01*
X133782234Y-110557500D01*
X133782236Y-110557500D01*
X133933764Y-110557500D01*
X133933766Y-110557500D01*
X134080135Y-110518281D01*
X134080137Y-110518279D01*
X134080139Y-110518279D01*
X134211360Y-110442518D01*
X134211360Y-110442517D01*
X134211365Y-110442515D01*
X134318515Y-110335365D01*
X134394281Y-110204135D01*
X134433500Y-110057766D01*
X134433500Y-109906234D01*
X134432495Y-109902483D01*
X134435694Y-109841383D01*
X134458114Y-109806855D01*
X134643460Y-109621511D01*
X134662999Y-109587667D01*
X134671258Y-109573364D01*
X134674409Y-109567903D01*
X134683021Y-109552989D01*
X134685176Y-109544945D01*
X134700737Y-109486876D01*
X134734061Y-109435562D01*
X134791183Y-109413636D01*
X134796363Y-109413500D01*
X134903009Y-109413500D01*
X134916115Y-109412941D01*
X134920487Y-109412755D01*
X135007595Y-109384890D01*
X135073986Y-109321991D01*
X135573986Y-108571991D01*
X135598730Y-108520610D01*
X135606512Y-108429486D01*
X135573986Y-108344009D01*
X135073986Y-107594009D01*
X135063666Y-107579873D01*
X135021762Y-107546455D01*
X134992162Y-107522850D01*
X134954537Y-107514263D01*
X134903000Y-107502500D01*
X133903000Y-107502500D01*
X133902998Y-107502500D01*
X133857272Y-107507651D01*
X133774872Y-107547334D01*
X133717850Y-107618837D01*
X133697500Y-107708000D01*
X133697500Y-109208001D01*
X133702651Y-109253727D01*
X133725066Y-109300270D01*
X133733279Y-109360902D01*
X133704285Y-109414781D01*
X133661494Y-109438851D01*
X133635865Y-109445718D01*
X133635861Y-109445720D01*
X133504639Y-109521481D01*
X133397481Y-109628639D01*
X133321720Y-109759860D01*
X133313782Y-109789485D01*
X133282500Y-109906234D01*
X132734500Y-109906234D01*
X132734500Y-107424234D01*
X144924500Y-107424234D01*
X144924500Y-107575766D01*
X144943490Y-107646639D01*
X144963720Y-107722139D01*
X145039481Y-107853360D01*
X145039483Y-107853362D01*
X145039485Y-107853365D01*
X145146635Y-107960515D01*
X145149994Y-107962454D01*
X145190938Y-108007919D01*
X145199500Y-108048193D01*
X145199500Y-109701805D01*
X145180593Y-109759996D01*
X145150004Y-109787539D01*
X145146639Y-109789481D01*
X145039481Y-109896639D01*
X144963720Y-110027860D01*
X144955707Y-110057766D01*
X144924500Y-110174234D01*
X144924500Y-110325766D01*
X144953077Y-110432417D01*
X144963720Y-110472139D01*
X145039481Y-110603360D01*
X145039483Y-110603362D01*
X145039485Y-110603365D01*
X145146635Y-110710515D01*
X145146637Y-110710516D01*
X145146639Y-110710518D01*
X145277861Y-110786279D01*
X145277859Y-110786279D01*
X145277863Y-110786280D01*
X145277865Y-110786281D01*
X145424234Y-110825500D01*
X145424236Y-110825500D01*
X145575764Y-110825500D01*
X145575766Y-110825500D01*
X145722135Y-110786281D01*
X145722137Y-110786279D01*
X145722139Y-110786279D01*
X145853360Y-110710518D01*
X145853360Y-110710517D01*
X145853365Y-110710515D01*
X145960515Y-110603365D01*
X146019401Y-110501370D01*
X146064869Y-110460430D01*
X146125720Y-110454034D01*
X146154635Y-110465133D01*
X146277865Y-110536281D01*
X146424234Y-110575500D01*
X146424236Y-110575500D01*
X146575764Y-110575500D01*
X146575766Y-110575500D01*
X146579512Y-110574496D01*
X146640611Y-110577692D01*
X146675143Y-110600114D01*
X146815489Y-110740460D01*
X146815491Y-110740461D01*
X146815493Y-110740463D01*
X146884008Y-110780020D01*
X146884006Y-110780020D01*
X146884010Y-110780021D01*
X146884012Y-110780022D01*
X146960438Y-110800500D01*
X149951806Y-110800500D01*
X150009997Y-110819407D01*
X150037543Y-110850002D01*
X150039485Y-110853365D01*
X150146635Y-110960515D01*
X150146637Y-110960516D01*
X150146639Y-110960518D01*
X150277861Y-111036279D01*
X150277859Y-111036279D01*
X150277863Y-111036280D01*
X150277865Y-111036281D01*
X150424234Y-111075500D01*
X150424236Y-111075500D01*
X150575764Y-111075500D01*
X150575766Y-111075500D01*
X150722135Y-111036281D01*
X150722137Y-111036279D01*
X150722139Y-111036279D01*
X150853360Y-110960518D01*
X150853360Y-110960517D01*
X150853365Y-110960515D01*
X150960515Y-110853365D01*
X150960518Y-110853360D01*
X151036279Y-110722139D01*
X151036279Y-110722137D01*
X151036281Y-110722135D01*
X151075500Y-110575766D01*
X151075500Y-110424234D01*
X151036281Y-110277865D01*
X151036279Y-110277862D01*
X151036279Y-110277860D01*
X150960518Y-110146639D01*
X150960516Y-110146637D01*
X150960515Y-110146635D01*
X150853365Y-110039485D01*
X150853362Y-110039483D01*
X150853360Y-110039481D01*
X150722138Y-109963720D01*
X150722140Y-109963720D01*
X150665347Y-109948503D01*
X150575766Y-109924500D01*
X150424234Y-109924500D01*
X150334652Y-109948503D01*
X150277860Y-109963720D01*
X150146639Y-110039481D01*
X150039484Y-110146636D01*
X150037545Y-110149996D01*
X149992077Y-110190939D01*
X149951806Y-110199500D01*
X147171365Y-110199500D01*
X147113174Y-110180593D01*
X147077210Y-110131093D01*
X147075934Y-110082368D01*
X147074653Y-110082200D01*
X147075500Y-110075766D01*
X147075500Y-109924235D01*
X147068105Y-109896635D01*
X147036281Y-109777865D01*
X147036279Y-109777862D01*
X147036279Y-109777860D01*
X146960518Y-109646639D01*
X146960516Y-109646637D01*
X146960515Y-109646635D01*
X146883881Y-109570001D01*
X146877461Y-109557401D01*
X146867150Y-109547725D01*
X146863919Y-109530821D01*
X146856106Y-109515487D01*
X146858318Y-109501519D01*
X146855663Y-109487628D01*
X146862839Y-109472972D01*
X146865677Y-109455055D01*
X146881694Y-109432256D01*
X146882759Y-109431120D01*
X146960515Y-109353365D01*
X146968177Y-109340093D01*
X146976001Y-109331756D01*
X146993274Y-109322251D01*
X147007923Y-109309061D01*
X147023118Y-109305830D01*
X147029608Y-109302260D01*
X147036079Y-109303075D01*
X147048194Y-109300500D01*
X149951806Y-109300500D01*
X150009997Y-109319407D01*
X150037543Y-109350002D01*
X150039485Y-109353365D01*
X150146635Y-109460515D01*
X150146637Y-109460516D01*
X150146639Y-109460518D01*
X150277861Y-109536279D01*
X150277859Y-109536279D01*
X150277863Y-109536280D01*
X150277865Y-109536281D01*
X150424234Y-109575500D01*
X150424236Y-109575500D01*
X150575764Y-109575500D01*
X150575766Y-109575500D01*
X150722135Y-109536281D01*
X150722137Y-109536279D01*
X150722139Y-109536279D01*
X150853360Y-109460518D01*
X150853360Y-109460517D01*
X150853365Y-109460515D01*
X150960515Y-109353365D01*
X150960518Y-109353360D01*
X151036279Y-109222139D01*
X151036279Y-109222137D01*
X151036281Y-109222135D01*
X151075500Y-109075766D01*
X151075500Y-108924234D01*
X151036281Y-108777865D01*
X151036279Y-108777862D01*
X151036279Y-108777860D01*
X150960518Y-108646639D01*
X150960516Y-108646637D01*
X150960515Y-108646635D01*
X150853365Y-108539485D01*
X150853362Y-108539483D01*
X150853360Y-108539481D01*
X150722138Y-108463720D01*
X150722140Y-108463720D01*
X150623376Y-108437257D01*
X150575766Y-108424500D01*
X150575764Y-108424500D01*
X150569498Y-108422821D01*
X150569941Y-108421164D01*
X150522158Y-108398371D01*
X150492963Y-108344599D01*
X150500951Y-108283938D01*
X150504570Y-108277059D01*
X150536281Y-108222135D01*
X150575500Y-108075766D01*
X150575500Y-107924234D01*
X150536281Y-107777865D01*
X150536279Y-107777862D01*
X150536279Y-107777860D01*
X150460518Y-107646639D01*
X150460516Y-107646637D01*
X150460515Y-107646635D01*
X150353365Y-107539485D01*
X150353362Y-107539483D01*
X150353360Y-107539481D01*
X150222138Y-107463720D01*
X150222140Y-107463720D01*
X150165347Y-107448503D01*
X150075766Y-107424500D01*
X149924234Y-107424500D01*
X149834652Y-107448503D01*
X149777860Y-107463720D01*
X149646639Y-107539481D01*
X149539484Y-107646636D01*
X149537545Y-107649996D01*
X149492077Y-107690939D01*
X149451806Y-107699500D01*
X147048194Y-107699500D01*
X146990003Y-107680593D01*
X146962455Y-107649996D01*
X146960517Y-107646639D01*
X146960515Y-107646635D01*
X146853365Y-107539485D01*
X146853362Y-107539483D01*
X146853360Y-107539481D01*
X146722138Y-107463720D01*
X146722140Y-107463720D01*
X146665347Y-107448503D01*
X146575766Y-107424500D01*
X146424234Y-107424500D01*
X146295152Y-107459086D01*
X146277861Y-107463720D01*
X146222938Y-107495430D01*
X146163090Y-107508151D01*
X146107194Y-107483264D01*
X146076602Y-107430275D01*
X146075680Y-107424910D01*
X146075500Y-107424238D01*
X146075500Y-107424234D01*
X146036281Y-107277865D01*
X146036279Y-107277862D01*
X146036279Y-107277860D01*
X145960518Y-107146639D01*
X145960516Y-107146637D01*
X145960515Y-107146635D01*
X145853365Y-107039485D01*
X145853362Y-107039483D01*
X145853360Y-107039481D01*
X145722138Y-106963720D01*
X145722140Y-106963720D01*
X145665347Y-106948503D01*
X145575766Y-106924500D01*
X145424234Y-106924500D01*
X145334652Y-106948503D01*
X145277860Y-106963720D01*
X145146639Y-107039481D01*
X145039481Y-107146639D01*
X144963720Y-107277860D01*
X144963719Y-107277865D01*
X144924500Y-107424234D01*
X132734500Y-107424234D01*
X132734500Y-106881273D01*
X132734500Y-106814523D01*
X132734500Y-106814517D01*
X132700493Y-106578005D01*
X132700492Y-106578001D01*
X132685037Y-106525365D01*
X132633172Y-106348729D01*
X132533908Y-106131370D01*
X132511327Y-106096234D01*
X133028500Y-106096234D01*
X133028500Y-106247766D01*
X133055553Y-106348729D01*
X133067720Y-106394139D01*
X133143481Y-106525360D01*
X133143483Y-106525362D01*
X133143485Y-106525365D01*
X133250635Y-106632515D01*
X133250637Y-106632516D01*
X133250639Y-106632518D01*
X133381861Y-106708279D01*
X133381859Y-106708279D01*
X133381863Y-106708280D01*
X133381865Y-106708281D01*
X133528234Y-106747500D01*
X133528236Y-106747500D01*
X133679764Y-106747500D01*
X133679766Y-106747500D01*
X133826135Y-106708281D01*
X133826137Y-106708279D01*
X133826139Y-106708279D01*
X133957360Y-106632518D01*
X133957360Y-106632517D01*
X133957365Y-106632515D01*
X134064515Y-106525365D01*
X134140281Y-106394135D01*
X134179500Y-106247766D01*
X134179500Y-106096234D01*
X134178495Y-106092484D01*
X134181693Y-106031386D01*
X134204114Y-105996855D01*
X134952855Y-105248114D01*
X135007370Y-105220339D01*
X135048482Y-105222494D01*
X135052234Y-105223500D01*
X135052237Y-105223500D01*
X135203764Y-105223500D01*
X135203766Y-105223500D01*
X135350135Y-105184281D01*
X135350137Y-105184279D01*
X135350139Y-105184279D01*
X135481360Y-105108518D01*
X135481360Y-105108517D01*
X135481365Y-105108515D01*
X135588515Y-105001365D01*
X135664281Y-104870135D01*
X135703500Y-104723766D01*
X135703500Y-104572234D01*
X135664281Y-104425865D01*
X135664279Y-104425862D01*
X135664279Y-104425860D01*
X135588518Y-104294639D01*
X135588516Y-104294637D01*
X135588515Y-104294635D01*
X135481365Y-104187485D01*
X135481362Y-104187483D01*
X135481360Y-104187481D01*
X135350138Y-104111720D01*
X135350140Y-104111720D01*
X135293347Y-104096503D01*
X135203766Y-104072500D01*
X135052234Y-104072500D01*
X134962652Y-104096503D01*
X134905860Y-104111720D01*
X134774639Y-104187481D01*
X134667481Y-104294639D01*
X134591720Y-104425860D01*
X134552500Y-104572235D01*
X134552500Y-104723766D01*
X134553507Y-104727525D01*
X134550300Y-104788627D01*
X134527882Y-104823145D01*
X133779145Y-105571882D01*
X133724628Y-105599659D01*
X133683525Y-105597507D01*
X133679766Y-105596500D01*
X133528234Y-105596500D01*
X133469271Y-105612299D01*
X133381860Y-105635720D01*
X133250639Y-105711481D01*
X133143481Y-105818639D01*
X133067720Y-105949860D01*
X133067719Y-105949865D01*
X133028500Y-106096234D01*
X132511327Y-106096234D01*
X132404720Y-105930350D01*
X132248239Y-105749761D01*
X132248229Y-105749752D01*
X132067661Y-105593289D01*
X132067657Y-105593286D01*
X132067650Y-105593280D01*
X131866630Y-105464092D01*
X131649271Y-105364828D01*
X131649266Y-105364826D01*
X131649265Y-105364826D01*
X131419998Y-105297507D01*
X131419994Y-105297506D01*
X131183482Y-105263500D01*
X131183477Y-105263500D01*
X131116727Y-105263500D01*
X128073583Y-105263500D01*
X128016000Y-105263500D01*
X127896523Y-105263500D01*
X127896518Y-105263500D01*
X127660005Y-105297506D01*
X127660001Y-105297507D01*
X127430734Y-105364826D01*
X127430730Y-105364827D01*
X127430729Y-105364828D01*
X127336459Y-105407879D01*
X127213367Y-105464093D01*
X127068234Y-105557365D01*
X127012350Y-105593280D01*
X127012349Y-105593281D01*
X127012338Y-105593289D01*
X126831770Y-105749752D01*
X126831752Y-105749770D01*
X126675289Y-105930338D01*
X126675281Y-105930348D01*
X126675280Y-105930350D01*
X126639365Y-105986234D01*
X126546093Y-106131367D01*
X126446826Y-106348734D01*
X126379507Y-106578001D01*
X126379506Y-106578005D01*
X126345500Y-106814517D01*
X114700500Y-106814517D01*
X114700500Y-102337034D01*
X135884500Y-102337034D01*
X135884500Y-102488566D01*
X135915259Y-102603360D01*
X135923720Y-102634939D01*
X135999481Y-102766160D01*
X135999483Y-102766162D01*
X135999485Y-102766165D01*
X136106635Y-102873315D01*
X136106637Y-102873316D01*
X136106639Y-102873318D01*
X136237861Y-102949079D01*
X136237859Y-102949079D01*
X136237863Y-102949080D01*
X136237865Y-102949081D01*
X136384234Y-102988300D01*
X136384236Y-102988300D01*
X136535764Y-102988300D01*
X136535766Y-102988300D01*
X136682135Y-102949081D01*
X136682137Y-102949079D01*
X136682139Y-102949079D01*
X136813360Y-102873318D01*
X136813360Y-102873317D01*
X136813365Y-102873315D01*
X136920515Y-102766165D01*
X136922957Y-102761935D01*
X136996279Y-102634939D01*
X136996279Y-102634937D01*
X136996281Y-102634935D01*
X137035500Y-102488566D01*
X137035500Y-102413234D01*
X138362500Y-102413234D01*
X138362500Y-102564766D01*
X138384438Y-102646639D01*
X138401720Y-102711139D01*
X138477481Y-102842360D01*
X138477483Y-102842362D01*
X138477485Y-102842365D01*
X138584635Y-102949515D01*
X138584637Y-102949516D01*
X138584639Y-102949518D01*
X138715861Y-103025279D01*
X138715859Y-103025279D01*
X138715863Y-103025280D01*
X138715865Y-103025281D01*
X138862234Y-103064500D01*
X138862236Y-103064500D01*
X139013764Y-103064500D01*
X139013766Y-103064500D01*
X139160135Y-103025281D01*
X139160137Y-103025279D01*
X139160139Y-103025279D01*
X139291360Y-102949518D01*
X139291360Y-102949517D01*
X139291365Y-102949515D01*
X139398515Y-102842365D01*
X139430895Y-102786281D01*
X139474279Y-102711139D01*
X139474279Y-102711137D01*
X139474281Y-102711135D01*
X139513500Y-102564766D01*
X139513500Y-102464034D01*
X140165900Y-102464034D01*
X140165900Y-102615566D01*
X140200486Y-102744647D01*
X140205120Y-102761939D01*
X140280881Y-102893160D01*
X140280883Y-102893162D01*
X140280885Y-102893165D01*
X140388035Y-103000315D01*
X140388037Y-103000316D01*
X140388039Y-103000318D01*
X140519261Y-103076079D01*
X140519259Y-103076079D01*
X140519263Y-103076080D01*
X140519265Y-103076081D01*
X140665634Y-103115300D01*
X140665636Y-103115300D01*
X140817164Y-103115300D01*
X140817166Y-103115300D01*
X140963535Y-103076081D01*
X140963537Y-103076079D01*
X140963539Y-103076079D01*
X141094760Y-103000318D01*
X141094760Y-103000317D01*
X141094765Y-103000315D01*
X141201915Y-102893165D01*
X141213374Y-102873318D01*
X141277679Y-102761939D01*
X141277679Y-102761937D01*
X141277681Y-102761935D01*
X141316900Y-102615566D01*
X141316900Y-102464034D01*
X141315895Y-102460283D01*
X141319094Y-102399183D01*
X141341514Y-102364655D01*
X141526675Y-102179496D01*
X141581192Y-102151719D01*
X141596678Y-102150500D01*
X144451806Y-102150500D01*
X144509997Y-102169407D01*
X144537543Y-102200002D01*
X144539485Y-102203365D01*
X144646635Y-102310515D01*
X144646637Y-102310516D01*
X144646639Y-102310518D01*
X144777861Y-102386279D01*
X144777859Y-102386279D01*
X144777863Y-102386280D01*
X144777865Y-102386281D01*
X144924234Y-102425500D01*
X144924236Y-102425500D01*
X145075764Y-102425500D01*
X145075766Y-102425500D01*
X145222135Y-102386281D01*
X145222137Y-102386279D01*
X145222139Y-102386279D01*
X145353360Y-102310518D01*
X145353360Y-102310517D01*
X145353365Y-102310515D01*
X145460515Y-102203365D01*
X145460518Y-102203360D01*
X145536279Y-102072139D01*
X145536279Y-102072137D01*
X145536281Y-102072135D01*
X145575500Y-101925766D01*
X145575500Y-101774234D01*
X145536281Y-101627865D01*
X145536279Y-101627862D01*
X145536279Y-101627860D01*
X145460518Y-101496639D01*
X145460516Y-101496637D01*
X145460515Y-101496635D01*
X145353365Y-101389485D01*
X145353362Y-101389483D01*
X145353360Y-101389481D01*
X145222138Y-101313720D01*
X145222140Y-101313720D01*
X145165347Y-101298503D01*
X145075766Y-101274500D01*
X144924234Y-101274500D01*
X144834652Y-101298503D01*
X144777860Y-101313720D01*
X144646639Y-101389481D01*
X144539484Y-101496636D01*
X144537545Y-101499996D01*
X144492077Y-101540939D01*
X144451806Y-101549500D01*
X141470762Y-101549500D01*
X141391638Y-101549500D01*
X141344861Y-101562033D01*
X141315207Y-101569979D01*
X141246693Y-101609536D01*
X141246688Y-101609540D01*
X140916545Y-101939683D01*
X140862029Y-101967460D01*
X140820920Y-101965306D01*
X140817166Y-101964300D01*
X140665634Y-101964300D01*
X140606671Y-101980099D01*
X140519260Y-102003520D01*
X140388039Y-102079281D01*
X140280881Y-102186439D01*
X140205120Y-102317660D01*
X140196887Y-102348386D01*
X140165900Y-102464034D01*
X139513500Y-102464034D01*
X139513500Y-102413234D01*
X139509890Y-102399762D01*
X139509294Y-102389731D01*
X139514594Y-102369382D01*
X139515693Y-102348386D01*
X139522989Y-102337148D01*
X139524716Y-102330521D01*
X139530238Y-102325984D01*
X139538114Y-102313855D01*
X141197475Y-100654496D01*
X141251992Y-100626719D01*
X141267479Y-100625500D01*
X145422719Y-100625500D01*
X145480910Y-100644407D01*
X145508455Y-100675000D01*
X145513285Y-100683365D01*
X145620435Y-100790515D01*
X145620437Y-100790516D01*
X145620439Y-100790518D01*
X145751661Y-100866279D01*
X145751659Y-100866279D01*
X145751663Y-100866280D01*
X145751665Y-100866281D01*
X145898034Y-100905500D01*
X145898036Y-100905500D01*
X146049564Y-100905500D01*
X146049566Y-100905500D01*
X146195935Y-100866281D01*
X146195937Y-100866279D01*
X146195939Y-100866279D01*
X146327160Y-100790518D01*
X146327160Y-100790517D01*
X146327165Y-100790515D01*
X146434315Y-100683365D01*
X146510081Y-100552135D01*
X146549300Y-100405766D01*
X146549300Y-100254234D01*
X146510081Y-100107865D01*
X146510079Y-100107862D01*
X146510079Y-100107860D01*
X146434318Y-99976639D01*
X146434316Y-99976637D01*
X146434315Y-99976635D01*
X146327165Y-99869485D01*
X146327162Y-99869483D01*
X146327160Y-99869481D01*
X146195938Y-99793720D01*
X146195940Y-99793720D01*
X146139147Y-99778503D01*
X146049566Y-99754500D01*
X145898034Y-99754500D01*
X145808452Y-99778503D01*
X145751660Y-99793720D01*
X145620439Y-99869481D01*
X145513282Y-99976638D01*
X145509334Y-99981784D01*
X145507909Y-99980690D01*
X145468755Y-100015943D01*
X145428492Y-100024500D01*
X141062435Y-100024500D01*
X140986011Y-100044978D01*
X140986007Y-100044980D01*
X140917491Y-100084538D01*
X139113145Y-101888882D01*
X139058628Y-101916659D01*
X139017525Y-101914507D01*
X139013766Y-101913500D01*
X138862234Y-101913500D01*
X138803271Y-101929299D01*
X138715860Y-101952720D01*
X138584639Y-102028481D01*
X138477481Y-102135639D01*
X138401720Y-102266860D01*
X138401719Y-102266865D01*
X138362500Y-102413234D01*
X137035500Y-102413234D01*
X137035500Y-102337034D01*
X136996281Y-102190665D01*
X136996279Y-102190662D01*
X136996279Y-102190660D01*
X136920518Y-102059439D01*
X136920516Y-102059437D01*
X136920515Y-102059435D01*
X136813365Y-101952285D01*
X136813362Y-101952283D01*
X136813360Y-101952281D01*
X136682138Y-101876520D01*
X136682140Y-101876520D01*
X136625347Y-101861303D01*
X136535766Y-101837300D01*
X136384234Y-101837300D01*
X136294652Y-101861303D01*
X136237860Y-101876520D01*
X136106639Y-101952281D01*
X135999481Y-102059439D01*
X135923720Y-102190660D01*
X135901793Y-102272493D01*
X135884500Y-102337034D01*
X114700500Y-102337034D01*
X114700500Y-99063240D01*
X114700712Y-99056765D01*
X114708106Y-98943954D01*
X115069500Y-98943954D01*
X115069500Y-99176045D01*
X115099793Y-99406141D01*
X115099793Y-99406146D01*
X115159862Y-99630329D01*
X115248677Y-99844747D01*
X115248680Y-99844752D01*
X115364724Y-100045748D01*
X115364726Y-100045750D01*
X115364728Y-100045754D01*
X115506005Y-100229870D01*
X115506007Y-100229872D01*
X115506011Y-100229877D01*
X115670123Y-100393989D01*
X115670127Y-100393992D01*
X115670129Y-100393994D01*
X115745655Y-100451947D01*
X115854252Y-100535276D01*
X116055248Y-100651320D01*
X116055249Y-100651320D01*
X116055252Y-100651322D01*
X116132611Y-100683365D01*
X116269670Y-100740137D01*
X116493851Y-100800206D01*
X116723955Y-100830500D01*
X116723956Y-100830500D01*
X116956044Y-100830500D01*
X116956045Y-100830500D01*
X117186149Y-100800206D01*
X117410330Y-100740137D01*
X117624752Y-100651320D01*
X117825748Y-100535276D01*
X118009877Y-100393989D01*
X118173989Y-100229877D01*
X118315276Y-100045748D01*
X118431320Y-99844752D01*
X118520137Y-99630330D01*
X118580206Y-99406149D01*
X118610500Y-99176045D01*
X118610500Y-98991230D01*
X120199500Y-98991230D01*
X120199500Y-99158769D01*
X120232183Y-99323079D01*
X120232185Y-99323085D01*
X120296296Y-99477862D01*
X120296297Y-99477863D01*
X120389374Y-99617162D01*
X120507838Y-99735626D01*
X120647137Y-99828703D01*
X120801918Y-99892816D01*
X120966233Y-99925500D01*
X120966234Y-99925500D01*
X121133766Y-99925500D01*
X121133767Y-99925500D01*
X121298082Y-99892816D01*
X121452863Y-99828703D01*
X121592162Y-99735626D01*
X121710626Y-99617162D01*
X121803703Y-99477863D01*
X121867816Y-99323082D01*
X121900500Y-99158767D01*
X121900500Y-98991233D01*
X121900499Y-98991230D01*
X126999500Y-98991230D01*
X126999500Y-99158769D01*
X127032183Y-99323079D01*
X127032185Y-99323085D01*
X127096296Y-99477862D01*
X127096297Y-99477863D01*
X127189374Y-99617162D01*
X127307838Y-99735626D01*
X127447137Y-99828703D01*
X127601918Y-99892816D01*
X127766233Y-99925500D01*
X127766234Y-99925500D01*
X127933766Y-99925500D01*
X127933767Y-99925500D01*
X128098082Y-99892816D01*
X128252863Y-99828703D01*
X128392162Y-99735626D01*
X128510626Y-99617162D01*
X128603703Y-99477863D01*
X128667816Y-99323082D01*
X128700500Y-99158767D01*
X128700500Y-98991233D01*
X128667816Y-98826918D01*
X128603703Y-98672137D01*
X128510626Y-98532838D01*
X128392162Y-98414374D01*
X128252863Y-98321297D01*
X128252864Y-98321297D01*
X128252862Y-98321296D01*
X128098085Y-98257185D01*
X128098079Y-98257183D01*
X127933769Y-98224500D01*
X127933767Y-98224500D01*
X127766233Y-98224500D01*
X127766230Y-98224500D01*
X127601920Y-98257183D01*
X127601914Y-98257185D01*
X127447137Y-98321296D01*
X127307838Y-98414374D01*
X127307834Y-98414377D01*
X127189377Y-98532834D01*
X127189374Y-98532838D01*
X127096296Y-98672137D01*
X127032185Y-98826914D01*
X127032183Y-98826920D01*
X126999500Y-98991230D01*
X121900499Y-98991230D01*
X121867816Y-98826918D01*
X121803703Y-98672137D01*
X121710626Y-98532838D01*
X121592162Y-98414374D01*
X121452863Y-98321297D01*
X121452864Y-98321297D01*
X121452862Y-98321296D01*
X121298085Y-98257185D01*
X121298079Y-98257183D01*
X121133769Y-98224500D01*
X121133767Y-98224500D01*
X120966233Y-98224500D01*
X120966230Y-98224500D01*
X120801920Y-98257183D01*
X120801914Y-98257185D01*
X120647137Y-98321296D01*
X120507838Y-98414374D01*
X120507834Y-98414377D01*
X120389377Y-98532834D01*
X120389374Y-98532838D01*
X120296296Y-98672137D01*
X120232185Y-98826914D01*
X120232183Y-98826920D01*
X120199500Y-98991230D01*
X118610500Y-98991230D01*
X118610500Y-98943955D01*
X118580206Y-98713851D01*
X118520137Y-98489670D01*
X118507703Y-98459651D01*
X118431322Y-98275252D01*
X118420891Y-98257185D01*
X118315276Y-98074252D01*
X118229084Y-97961924D01*
X118173994Y-97890129D01*
X118173992Y-97890127D01*
X118173989Y-97890123D01*
X118009877Y-97726011D01*
X118009872Y-97726007D01*
X118009870Y-97726005D01*
X117825754Y-97584728D01*
X117825750Y-97584726D01*
X117825748Y-97584724D01*
X117624752Y-97468680D01*
X117624747Y-97468677D01*
X117410329Y-97379862D01*
X117257207Y-97338834D01*
X117186149Y-97319794D01*
X117186146Y-97319793D01*
X117186144Y-97319793D01*
X116956045Y-97289500D01*
X116723955Y-97289500D01*
X116723954Y-97289500D01*
X116493858Y-97319793D01*
X116493853Y-97319793D01*
X116269670Y-97379862D01*
X116055252Y-97468677D01*
X115854245Y-97584728D01*
X115670129Y-97726005D01*
X115506005Y-97890129D01*
X115364728Y-98074245D01*
X115248677Y-98275252D01*
X115159862Y-98489670D01*
X115099793Y-98713853D01*
X115099793Y-98713858D01*
X115069500Y-98943954D01*
X114708106Y-98943954D01*
X114708743Y-98934239D01*
X114711324Y-98894865D01*
X114718379Y-98787208D01*
X114720069Y-98774377D01*
X114722445Y-98762433D01*
X114772139Y-98512603D01*
X114775484Y-98500122D01*
X114861278Y-98247379D01*
X114866223Y-98235443D01*
X114984279Y-97996048D01*
X114990731Y-97984873D01*
X115139025Y-97762935D01*
X115146890Y-97752687D01*
X115322875Y-97552013D01*
X115332013Y-97542875D01*
X115532687Y-97366890D01*
X115542935Y-97359025D01*
X115764873Y-97210731D01*
X115776048Y-97204279D01*
X116015443Y-97086223D01*
X116027379Y-97081278D01*
X116280122Y-96995484D01*
X116292603Y-96992139D01*
X116554384Y-96940068D01*
X116567208Y-96938379D01*
X116836766Y-96920712D01*
X116843241Y-96920500D01*
X116897583Y-96920500D01*
X121383273Y-96920500D01*
X129954861Y-96920500D01*
X130013052Y-96939407D01*
G37*
%TD.AperFunction*%
%TD*%
M02*
